<svg xmlns="http://www.w3.org/2000/svg" width="63" height="15" fill="none"><path fill="#fff" d="M10.702 15c-2.143 0-4.025-.312-5.645-.936-1.62-.642-2.875-1.532-3.763-2.67C.43 10.258 0 8.955 0 7.487c0-1.45.431-2.743 1.294-3.88.888-1.138 2.143-2.019 3.763-2.643C6.677.321 8.559 0 10.702 0s4.025.321 5.645.963c1.62.624 2.875 1.505 3.764 2.643a6.136 6.136 0 0 1 1.332 3.88c0 1.468-.444 2.77-1.332 3.909-.889 1.137-2.143 2.027-3.764 2.67-1.62.623-3.502.935-5.645.935Zm0-3.44c1.046 0 1.96-.156 2.744-.468.784-.312 1.399-.77 1.843-1.376.444-.624.666-1.367.666-2.23 0-.88-.222-1.614-.666-2.202-.444-.605-1.059-1.064-1.843-1.376-.784-.312-1.698-.468-2.744-.468-1.02 0-1.92.156-2.705.468-.784.312-1.398.77-1.842 1.376-.445.588-.667 1.322-.667 2.202 0 .863.222 1.606.667 2.23.444.605 1.058 1.064 1.842 1.376.784.312 1.686.468 2.705.468ZM22.846.413h2.941c1.234 0 2.233.727 2.233 1.624.55-.624 1.36-1.12 2.431-1.487C31.523.183 32.725 0 34.058 0c2.195 0 3.959.468 5.292 1.404 1.333.917 2 2.312 2 4.183v9h-4.504c-.522 0-.946-.308-.946-.688V6.44c0-.935-.313-1.651-.94-2.146-.602-.514-1.49-.771-2.666-.771-1.281 0-2.274.275-2.98.826-.706.55-1.058 1.293-1.058 2.229v7.321c0 .38-.424.688-.947.688h-4.463V.413ZM52.847 15c-2.091 0-3.92-.312-5.489-.936-1.568-.624-2.77-1.504-3.606-2.642-.837-1.138-1.255-2.468-1.255-3.99 0-1.45.419-2.735 1.255-3.854.862-1.12 2.064-1.99 3.606-2.615C48.927.321 50.717 0 52.73 0s3.79.294 5.332.88c1.568.57 2.783 1.377 3.645 2.423A5.505 5.505 0 0 1 63 6.908v.055c0 .165-.013.34-.04.523 0 .165-.012.34-.038.523l-.079.384v.002c0 .283-.401.481-.79.481H52.73l-5.41-.1c-.729-.014-1.353-.382-1.522-.898-.24-.733.525-1.438 1.562-1.438h4.402l4.83-.372c.496-.038.877-.352.776-.708-.182-.64-.591-1.17-1.227-1.59-.837-.568-1.96-.853-3.372-.853-.914 0-1.725.129-2.43.386-.68.238-1.229.596-1.647 1.073a3.171 3.171 0 0 0-.705 1.652v2.724c.052.642.274 1.211.666 1.707.418.495.993.88 1.725 1.156.732.257 1.594.385 2.587.385 1.098 0 2-.156 2.705-.468.732-.312 1.229-.743 1.49-1.293h4.31c.63 0 1.084.44.835.86a6.618 6.618 0 0 1-1.5 1.727c-.888.715-1.999 1.257-3.332 1.623-1.332.367-2.874.551-4.625.551Z"/></svg>