<svg xmlns="http://www.w3.org/2000/svg" width="406" height="451" fill="none"><mask id="c" width="407" height="451" x="-.641" y="0" fill="#000" maskUnits="userSpaceOnUse"><path fill="#fff" d="M-.641 0h407v451h-407z"/><path d="M376.601 382c-14.4 19.6-36.2 34.8-65.4 45.6-29.2 10.8-65.8 16.2-109.8 16.2-38.4 0-70.2-4.4-95.4-13.2-25.2-9.2-45-21.4-59.4-36.6C32.2 378.8 22 361.8 16 343c-6-18.8-9-37.8-9-57h135.6c.8 7.6 2.4 14.6 4.8 21s6 11.8 10.8 16.2c4.8 4 10.6 7.2 17.4 9.6 7.2 2.4 15.4 3.6 24.6 3.6 16.4 0 29-2.6 37.8-7.8 9.2-5.2 13.8-13.6 13.8-25.2 0-7.2-2-13-6-17.4-4-4.8-10.2-8.4-18.6-10.8-8-2.4-18.4-3.6-31.2-3.6h-38.4V171.4h40.2c10.4 0 19-.8 25.8-2.4 6.8-2 11.8-5 15-9 3.6-4 5.4-9.2 5.4-15.6s-1.6-11.8-4.8-16.2c-3.2-4.8-8-8.4-14.4-10.8-6.4-2.8-14.6-4.2-24.6-4.2-9.2 0-17.4 1.4-24.6 4.2-6.8 2.4-12.4 6.8-16.8 13.2-4.4 6-7.8 14.8-10.2 26.4L14.8 146.2c2.4-24.4 8.8-45.4 19.2-63 10.4-17.6 24.2-32 41.4-43.2 17.2-11.2 36.8-19.4 58.8-24.6 22.4-5.6 46.4-8.4 72-8.4 28.8 0 54.2 2.8 76.2 8.4 22.4 5.6 41.2 13.8 56.4 24.6C354 50.4 365.4 62.8 373 77.2c8 14 12 29.8 12 47.4 0 12.4-3 25.4-9 39-5.6 13.2-15 24.8-28.2 34.8-13.2 10-30.8 16.6-52.8 19.8v-12c25.2 5.2 45.4 13.2 60.6 24 15.2 10.8 26.2 23.4 33 37.8 6.8 14.4 10.2 29.8 10.2 46.2 0 25.6-7.4 48.2-22.2 67.8Z"/></mask><path fill="url(#a)" d="M376.601 382c-14.4 19.6-36.2 34.8-65.4 45.6-29.2 10.8-65.8 16.2-109.8 16.2-38.4 0-70.2-4.4-95.4-13.2-25.2-9.2-45-21.4-59.4-36.6C32.2 378.8 22 361.8 16 343c-6-18.8-9-37.8-9-57h135.6c.8 7.6 2.4 14.6 4.8 21s6 11.8 10.8 16.2c4.8 4 10.6 7.2 17.4 9.6 7.2 2.4 15.4 3.6 24.6 3.6 16.4 0 29-2.6 37.8-7.8 9.2-5.2 13.8-13.6 13.8-25.2 0-7.2-2-13-6-17.4-4-4.8-10.2-8.4-18.6-10.8-8-2.4-18.4-3.6-31.2-3.6h-38.4V171.4h40.2c10.4 0 19-.8 25.8-2.4 6.8-2 11.8-5 15-9 3.6-4 5.4-9.2 5.4-15.6s-1.6-11.8-4.8-16.2c-3.2-4.8-8-8.4-14.4-10.8-6.4-2.8-14.6-4.2-24.6-4.2-9.2 0-17.4 1.4-24.6 4.2-6.8 2.4-12.4 6.8-16.8 13.2-4.4 6-7.8 14.8-10.2 26.4L14.8 146.2c2.4-24.4 8.8-45.4 19.2-63 10.4-17.6 24.2-32 41.4-43.2 17.2-11.2 36.8-19.4 58.8-24.6 22.4-5.6 46.4-8.4 72-8.4 28.8 0 54.2 2.8 76.2 8.4 22.4 5.6 41.2 13.8 56.4 24.6C354 50.4 365.4 62.8 373 77.2c8 14 12 29.8 12 47.4 0 12.4-3 25.4-9 39-5.6 13.2-15 24.8-28.2 34.8-13.2 10-30.8 16.6-52.8 19.8v-12c25.2 5.2 45.4 13.2 60.6 24 15.2 10.8 26.2 23.4 33 37.8 6.8 14.4 10.2 29.8 10.2 46.2 0 25.6-7.4 48.2-22.2 67.8Z"/><path fill="url(#b)" d="m376.601 382-5.587-4.218-.027.036-.027.037 5.641 4.145Zm-270.6 48.6-2.401 6.576.046.016.047.017 2.308-6.609Zm-59.4-36.6 5.081-4.814L46.601 394ZM16 343l-6.669 2.128 6.67-2.128Zm-9-57v-7H0v7h7Zm135.6 0 6.961-.733-.659-6.267H142.6v7Zm15.6 37.2-4.73 5.16.122.112.126.106 4.482-5.378Zm17.4 9.6-2.33 6.601.058.02.058.02 2.214-6.641Zm62.4-4.2-3.445-6.094-.058.033-.058.035L238 328.6Zm7.8-42.6-5.378 4.481.097.116.101.112L245.8 286Zm-18.6-10.8-2.012 6.705.044.013.045.013 1.923-6.731Zm-69.6-3.6h-7v7h7v-7Zm0-100.2v-7h-7v7h7Zm66-2.4 1.603 6.814.187-.044.185-.054L223.6 169Zm15-9-5.203-4.683-.136.151-.127.159L238.6 160Zm.6-31.8-5.825 3.883.08.119.084.115 5.661-4.117Zm-14.4-10.8-2.806 6.413.172.075.176.066 2.458-6.554Zm-49.2 0 2.33 6.601.104-.037.103-.04-2.537-6.524Zm-16.8 13.2 5.645 4.14.063-.086.06-.088-5.768-3.966ZM148.6 157l-.563 6.977 6.165.498 1.253-6.057L148.6 157ZM14.8 146.2l-6.967-.685-.697 7.089 7.1.573.564-6.977Zm19.2-63 6.026 3.561L34 83.2ZM75.4 40l3.82 5.866L75.4 40Zm58.8-24.6 1.61 6.812.044-.01.044-.011L134.2 15.4Zm148.2 0-1.727 6.784.015.003.014.004L282.4 15.4ZM338.8 40l-4.055 5.706.051.036.051.035L338.801 40ZM373 77.2l-6.191 3.267.055.104.058.102L373 77.2Zm3 86.4-6.405-2.825-.02.045-.019.046L376 163.6Zm-28.2 34.8-4.227-5.58 4.227 5.58ZM295 218.2h-7v8.092l8.007-1.165L295 218.2Zm0-12 1.414-6.856-8.414-1.736v8.592h7Zm60.6 24 4.054-5.706-4.054 5.706Zm33 37.8 6.33-2.989L388.6 268Zm-12 114-5.641-4.145c-13.39 18.225-33.915 32.723-62.187 43.18l2.428 6.565 2.428 6.565c30.128-11.143 53.203-27.045 68.613-48.02l-5.64-4.145Zm-65.4 45.6-2.428-6.565C280.598 431.455 244.886 436.8 201.4 436.8v14c44.513 0 82.002-5.455 112.228-16.635L311.2 427.6Zm-109.8 16.2v-7c-37.929 0-68.882-4.354-93.092-12.809L106 430.6l-2.308 6.609c26.19 9.145 58.837 13.591 97.708 13.591v-7ZM106 430.6l2.4-6.575c-24.459-8.93-43.243-20.615-56.718-34.839L46.6 394l-5.082 4.814c15.325 16.176 36.14 28.891 62.081 38.362L106 430.6ZM46.6 394l5.081-4.814c-13.72-14.483-23.352-30.578-29.013-48.314L16.001 343l-6.669 2.128c6.34 19.864 17.108 37.769 32.187 53.686L46.601 394ZM16 343l6.668-2.128C16.882 322.74 14 304.458 14 286H0c0 19.942 3.118 39.66 9.331 59.128l6.67-2.128Zm-9-57v7h135.6v-14H7.001v7Zm135.6 0-6.962.733c.855 8.121 2.576 15.708 5.207 22.725L147.4 307l6.554-2.458c-2.169-5.784-3.648-12.196-4.393-19.275L142.6 286Zm4.8 21-6.555 2.458c2.768 7.379 6.972 13.72 12.625 18.902l4.73-5.16 4.73-5.16c-3.947-3.618-6.943-8.077-8.976-13.498L147.401 307Zm10.8 16.2-4.482 5.378c5.53 4.607 12.087 8.188 19.552 10.823l2.33-6.601 2.33-6.601c-6.135-2.165-11.178-4.984-15.249-8.377L158.2 323.2Zm17.4 9.6-2.214 6.641c8.047 2.682 17.016 3.959 26.814 3.959v-14c-8.602 0-16.033-1.123-22.387-3.241L175.6 332.8Zm24.6 3.6v7c16.969 0 31.016-2.661 41.361-8.774L238 328.6l-3.561-6.026c-7.255 4.287-18.408 6.826-34.239 6.826v7Zm37.8-7.8 3.444 6.094c11.647-6.583 17.356-17.471 17.356-31.294h-14c0 9.377-3.491 15.289-10.245 19.106L238 328.6Zm13.8-25.2h7c0-8.555-2.413-16.16-7.821-22.109L245.801 286l-5.18 4.709c2.593 2.851 4.18 6.846 4.18 12.691h7Zm-6-17.4 5.377-4.481c-5.192-6.231-12.823-10.412-22.054-13.05L227.2 275.2l-1.923 6.731c7.568 2.162 12.338 5.181 15.145 8.55L245.8 286Zm-18.6-10.8 2.011-6.705c-8.902-2.67-20.052-3.895-33.211-3.895v14c12.44 0 22.09 1.175 29.188 3.305l2.012-6.705Zm-31.2-3.6v-7h-38.4v14H196v-7Zm-38.4 0h7V171.4h-14v100.2h7Zm0-100.2v7h40.2v-14h-40.2v7Zm40.2 0v7c10.704 0 19.89-.818 27.403-2.586L223.601 169l-1.603-6.814c-6.087 1.432-14.102 2.214-24.197 2.214v7Zm25.8-2.4 1.975 6.716c7.663-2.254 14.11-5.867 18.491-11.343L238.601 160l-5.466-4.373c-2.02 2.524-5.572 4.911-11.509 6.657l1.975 6.716Zm15-9 5.203 4.683c4.969-5.521 7.197-12.5 7.197-20.283h-14c0 5.016-1.372 8.438-3.603 10.917L238.6 160Zm5.4-15.6h7c0-7.61-1.923-14.52-6.139-20.317L239.2 128.2l-5.661 4.117C235.723 135.32 237 139.21 237 144.4h7Zm-4.8-16.2 5.824-3.883c-4.156-6.235-10.253-10.654-17.766-13.471L224.8 117.4l-2.458 6.554c5.286 1.983 8.79 4.763 11.033 8.129l5.825-3.883Zm-14.4-10.8 2.806-6.413c-7.581-3.316-16.826-4.787-27.406-4.787v14c9.419 0 16.574 1.329 21.794 3.613l2.806-6.413Zm-24.6-4.2v-7c-9.906 0-18.99 1.508-27.137 4.676l2.537 6.524 2.537 6.524c6.253-2.432 13.569-3.724 22.063-3.724v-7Zm-24.6 4.2-2.33-6.601c-8.306 2.931-15.068 8.315-20.239 15.835l5.769 3.966 5.768 3.966c3.63-5.28 8.067-8.696 13.362-10.565l-2.33-6.601Zm-16.8 13.2-5.645-4.14c-5.242 7.149-8.914 17.056-11.41 29.122L148.6 157l6.855 1.418c2.303-11.134 5.432-18.827 8.99-23.678l-5.645-4.14ZM148.6 157l.563-6.977-133.8-10.8-.563 6.977-.563 6.977 133.8 10.8.563-6.977ZM14.8 146.2l6.966.685c2.32-23.584 8.473-43.56 18.26-60.124L34.001 83.2l-6.027-3.561c-11.012 18.636-17.66 40.66-20.14 65.876l6.967.685Zm19.2-63 6.026 3.561c9.85-16.668 22.893-30.28 39.194-40.895L75.4 40l-3.82-5.866C53.48 45.92 38.924 61.107 27.973 79.639L34 83.2ZM75.4 40l3.82 5.866c16.458-10.717 35.296-18.62 56.59-23.654L134.2 15.4l-1.61-6.812c-22.707 5.367-43.068 13.863-61.01 25.546L75.401 40Zm58.8-24.6 1.698 6.791C157.687 16.744 181.112 14 206.201 14V0c-26.111 0-50.686 2.856-73.698 8.609l1.698 6.791Zm72-8.4v7c28.365 0 53.165 2.76 74.473 8.184L282.4 15.4l1.727-6.784C261.436 2.84 235.435 0 206.201 0v7Zm76.2 8.4-1.698 6.791c21.749 5.437 39.702 13.325 54.043 23.515L338.801 40l4.054-5.706c-16.058-11.41-35.705-19.922-58.756-25.685l-1.698 6.791ZM338.8 40l-3.953 5.777c14.386 9.843 24.959 21.422 31.962 34.69L373 77.2l6.19-3.267c-8.197-15.532-20.423-28.753-36.437-39.71L338.801 40ZM373 77.2l-6.078 3.473C374.263 93.52 378 108.104 378 124.6h14c0-18.704-4.264-35.72-12.923-50.873L373 77.2Zm12 47.4h-7c0 11.254-2.721 23.291-8.405 36.175L376 163.6l6.404 2.825C388.72 152.109 392 138.146 392 124.6h-7Zm-9 39-6.444-2.734c-5.053 11.91-13.605 22.577-25.983 31.954l4.227 5.58 4.227 5.58c14.022-10.623 24.269-23.156 30.417-37.646L376 163.6Zm-28.2 34.8-4.227-5.58c-11.99 9.084-28.366 15.367-49.581 18.453L295 218.2l1.007 6.927c22.785-3.314 41.61-10.231 56.02-21.147l-4.227-5.58ZM295 218.2h7v-12h-14v12h7Zm0-12-1.415 6.856c24.588 5.073 43.791 12.783 57.96 22.85l4.055-5.706 4.054-5.706c-16.23-11.533-37.428-19.823-63.24-25.15L295 206.2Zm60.6 24-4.055 5.706c14.39 10.224 24.519 21.942 30.725 35.083L388.6 268l6.33-2.989c-7.395-15.659-19.265-29.141-35.276-40.517L355.6 230.2Zm33 37.8-6.33 2.989c6.345 13.437 9.53 27.813 9.53 43.211h14c0-17.402-3.616-33.826-10.87-49.189L388.6 268Zm10.2 46.2h-7c0 24.147-6.945 45.251-20.787 63.582L376.6 382l5.586 4.218c15.758-20.869 23.614-44.965 23.614-72.018h-7Z" mask="url(#c)"/><defs><linearGradient id="a" x1="203.859" x2="203.859" y1="-7" y2="444" gradientUnits="userSpaceOnUse"><stop stop-color="#fff"/><stop offset="1" stop-color="#fff" stop-opacity="0"/></linearGradient><linearGradient id="b" x1="203.859" x2="203.859" y1="-7" y2="444" gradientUnits="userSpaceOnUse"><stop stop-color="#fff" stop-opacity="0"/><stop offset="1" stop-color="#fff"/></linearGradient></defs></svg>