<svg xmlns="http://www.w3.org/2000/svg" width="800" height="800" fill="none"><path fill="#0062FF" d="M312.093 601.539c-3.95-1.482-10.37-8.89.494-29.632l25.185-52.844c.988-1.481-.987-3.457-2.469-2.469l-22.222 22.224c-10.371 10.865-28.148 41.484-31.605 47.411l-26.667 44.448c2.963 0 4.445 2.963 3.457 5.432l-24.691 41.485c-5.926 10.371 4.938 17.285 6.419 14.816 38.519-62.227 61.235-57.289 61.235-57.289l12.839-30.125c.494-.988-.493-2.964-1.975-3.457Z"/><path fill="#fff" d="M312.093 601.539c-3.95-1.482-10.37-8.89.494-29.632l25.185-52.844c.988-1.481-.987-3.457-2.469-2.469l-22.222 22.224c-10.371 10.865-28.148 41.484-31.605 47.411l-26.667 44.448c2.963 0 4.445 2.963 3.457 5.432l-24.691 41.485c-5.926 10.371 4.938 17.285 6.419 14.816 38.519-62.227 61.235-57.289 61.235-57.289l12.839-30.125c.494-.988-.493-2.964-1.975-3.457Z"/><path fill="#0062FF" d="M400 81C178.765 81 0 260.273 0 481.03c0 88.896 29.136 171.371 78.025 237.549 16.79-7.408 26.172-18.273 32.592-26.175l74.568-95.316c1.481-1.975 3.457-3.457 5.926-4.445l11.358-4.938 122.469-155.568 17.778-13.828 36.543-50.868c.987-1.481 1.975-2.469 3.457-3.457l15.802-11.359a11.11 11.11 0 0 1 13.333 0l19.26 13.335c10.37 7.408 18.765 16.791 24.197 28.15l77.531 135.812c1.481 2.964 2.963 4.445 5.926 5.927 15.308 7.408 24.197 8.889 44.444 30.619 9.383 9.878 49.877 55.313 106.667 125.936 7.901 10.865 17.777 19.754 32.098 26.175 48.889-66.178 78.025-148.653 78.025-237.549C800.493 260.273 621.234 81 400 81ZM107.654 503.254l-26.173-8.396-15.802 22.224V489.92l-26.173-8.396 26.173-8.396v-27.162l15.802 22.223 26.173-8.395-15.802 22.224 15.802 21.236Zm-5.926 89.389-8.395 26.175-8.395-26.175h-27.16L80 576.84l-8.395-26.175 22.222 15.803 22.222-15.803-8.395 26.175 22.222 15.803h-28.148Zm4.939-206.929 8.395 26.175-22.223-15.804-22.222 15.804 8.395-26.175-22.222-15.803h27.16l8.395-26.175 8.396 26.175h27.16l-21.234 15.803Zm43.95-58.77-15.802-22.224-26.173 8.396 15.802-22.224-15.802-22.224 26.173 8.396 15.802-22.224v27.163l26.173 8.395-26.173 8.396v28.15Zm68.148-95.315-8.395 26.174-8.395-26.174h-27.16l22.222-15.804-8.395-26.175 22.222 15.804 22.222-15.804-8.395 26.175 22.222 15.804h-28.148Zm85.926-43.954-15.802 22.224v-27.163l-26.173-8.396 26.173-8.395v-27.163l15.802 22.224 26.173-8.396-15.803 22.224 15.803 22.224-26.173-9.383Zm109.136-24.694 8.395 26.175L400 173.353l-22.223 15.803 8.395-26.175-22.222-15.803h27.161l8.395-26.175 8.395 26.175h27.16l-21.234 15.803Zm97.777 19.755v27.163l-15.802-22.224-26.173 8.395 15.802-22.224-15.802-22.223 26.173 8.395 15.802-22.224v27.163l26.173 8.396-26.173 9.383ZM692.345 459.3l26.173 8.396 15.802-22.224v27.162l26.173 8.396-26.173 8.396v27.162l-15.802-22.224-26.173 8.396 15.802-22.224-15.802-21.236ZM589.629 257.803l-8.395-26.174h-27.161l22.222-15.804-8.394-26.175 22.222 15.804 22.222-15.804-8.395 26.175 22.222 15.804h-27.16l-9.383 26.174Zm59.753 69.141v-27.162l-26.173-8.396 26.173-8.396v-27.162l15.802 22.224 26.173-8.396-15.802 22.224 15.802 22.224-26.173-8.396-15.802 21.236Zm49.383 42.967 8.395-26.175 8.395 26.175h27.16l-22.222 15.803 8.395 26.175-22.222-15.804-22.223 15.804 8.396-26.175-22.223-15.803h28.149Zm16.79 222.732-8.395 26.175-8.395-26.175h-27.161l22.222-15.803-8.395-26.175 22.222 15.803 22.223-15.803-8.396 26.175 22.223 15.803h-28.148Z"/><path fill="#fff" d="M400 81C178.765 81 0 260.273 0 481.03c0 88.896 29.136 171.371 78.025 237.549 16.79-7.408 26.172-18.273 32.592-26.175l74.568-95.316c1.481-1.975 3.457-3.457 5.926-4.445l11.358-4.938 122.469-155.568 17.778-13.828 36.543-50.868c.987-1.481 1.975-2.469 3.457-3.457l15.802-11.359a11.11 11.11 0 0 1 13.333 0l19.26 13.335c10.37 7.408 18.765 16.791 24.197 28.15l77.531 135.812c1.481 2.964 2.963 4.445 5.926 5.927 15.308 7.408 24.197 8.889 44.444 30.619 9.383 9.878 49.877 55.313 106.667 125.936 7.901 10.865 17.777 19.754 32.098 26.175 48.889-66.178 78.025-148.653 78.025-237.549C800.493 260.273 621.234 81 400 81ZM107.654 503.254l-26.173-8.396-15.802 22.224V489.92l-26.173-8.396 26.173-8.396v-27.162l15.802 22.223 26.173-8.395-15.802 22.224 15.802 21.236Zm-5.926 89.389-8.395 26.175-8.395-26.175h-27.16L80 576.84l-8.395-26.175 22.222 15.803 22.222-15.803-8.395 26.175 22.222 15.803h-28.148Zm4.939-206.929 8.395 26.175-22.223-15.804-22.222 15.804 8.395-26.175-22.222-15.803h27.16l8.395-26.175 8.396 26.175h27.16l-21.234 15.803Zm43.95-58.77-15.802-22.224-26.173 8.396 15.802-22.224-15.802-22.224 26.173 8.396 15.802-22.224v27.163l26.173 8.395-26.173 8.396v28.15Zm68.148-95.315-8.395 26.174-8.395-26.174h-27.16l22.222-15.804-8.395-26.175 22.222 15.804 22.222-15.804-8.395 26.175 22.222 15.804h-28.148Zm85.926-43.954-15.802 22.224v-27.163l-26.173-8.396 26.173-8.395v-27.163l15.802 22.224 26.173-8.396-15.803 22.224 15.803 22.224-26.173-9.383Zm109.136-24.694 8.395 26.175L400 173.353l-22.223 15.803 8.395-26.175-22.222-15.803h27.161l8.395-26.175 8.395 26.175h27.16l-21.234 15.803Zm97.777 19.755v27.163l-15.802-22.224-26.173 8.395 15.802-22.224-15.802-22.223 26.173 8.395 15.802-22.224v27.163l26.173 8.396-26.173 9.383ZM692.345 459.3l26.173 8.396 15.802-22.224v27.162l26.173 8.396-26.173 8.396v27.162l-15.802-22.224-26.173 8.396 15.802-22.224-15.802-21.236ZM589.629 257.803l-8.395-26.174h-27.161l22.222-15.804-8.394-26.175 22.222 15.804 22.222-15.804-8.395 26.175 22.222 15.804h-27.16l-9.383 26.174Zm59.753 69.141v-27.162l-26.173-8.396 26.173-8.396v-27.162l15.802 22.224 26.173-8.396-15.802 22.224 15.802 22.224-26.173-8.396-15.802 21.236Zm49.383 42.967 8.395-26.175 8.395 26.175h27.16l-22.222 15.803 8.395 26.175-22.222-15.804-22.223 15.804 8.396-26.175-22.223-15.803h28.149Zm16.79 222.732-8.395 26.175-8.395-26.175h-27.161l22.222-15.803-8.395-26.175 22.222 15.803 22.223-15.803-8.396 26.175 22.223 15.803h-28.148Z"/><path fill="#0062FF" d="M545.188 712.657c1.975-2.963 4.938-10.371-.988-24.693l-17.778-47.411c-2.469-5.927 2.963-9.878 6.42-5.927 0 0 33.58 38.522 41.975 54.819l16.297 27.163c14.321.988 53.333 1.975 91.358 1.975-3.951-3.951-7.408-7.902-10.371-12.346-64.197-80.006-105.185-124.454-105.679-124.454-12.839-14.322-19.259-16.791-29.135-21.236-1.482-.494-2.963-1.482-4.445-1.976v12.347c0 1.481-1.975 2.469-2.963.988l-94.815-166.433-.493-.493c-3.951-7.902-9.877-14.816-16.79-19.755l-9.383-6.42L363.46 483.01c6.913 0 11.852 7.408 8.889 13.828l-41.482 96.304h38.519c14.814 0 29.629 2.963 42.963 8.395l9.876 3.951s-30.617 62.721-30.617 95.81c0 5.926.987 11.853 2.469 17.779H464.2l-3.457-19.754c.988-.494 42.963 9.383 84.445 13.334Z"/><path fill="#fff" d="M545.188 712.657c1.975-2.963 4.938-10.371-.988-24.693l-17.778-47.411c-2.469-5.927 2.963-9.878 6.42-5.927 0 0 33.58 38.522 41.975 54.819l16.297 27.163c14.321.988 53.333 1.975 91.358 1.975-3.951-3.951-7.408-7.902-10.371-12.346-64.197-80.006-105.185-124.454-105.679-124.454-12.839-14.322-19.259-16.791-29.135-21.236-1.482-.494-2.963-1.482-4.445-1.976v12.347c0 1.481-1.975 2.469-2.963.988l-94.815-166.433-.493-.493c-3.951-7.902-9.877-14.816-16.79-19.755l-9.383-6.42L363.46 483.01c6.913 0 11.852 7.408 8.889 13.828l-41.482 96.304h38.519c14.814 0 29.629 2.963 42.963 8.395l9.876 3.951s-30.617 62.721-30.617 95.81c0 5.926.987 11.853 2.469 17.779H464.2l-3.457-19.754c.988-.494 42.963 9.383 84.445 13.334Z"/></svg>