<svg xmlns="http://www.w3.org/2000/svg" width="142" height="27" fill="none"><path fill="#016FFF" d="M.212 20.017c-.14-.257-.187-.467-.14-.63a.754.754 0 0 1 .21-.455.674.674 0 0 1 .35-.28.871.871 0 0 1 .385-.105c.186 0 .35.046.49.14.14.07.268.233.385.49.653 1.423 1.726 2.135 3.22 2.135 1.353 0 2.625-.467 3.815-1.4 1.19-.957 2.321-2.217 3.395-3.78 1.073-1.564 2.1-3.349 3.08-5.355a192.577 192.577 0 0 0 2.94-6.23 62.34 62.34 0 0 0 .77-1.68c.256-.607.49-1.178.7-1.715h1.54c-.164.793-.175 1.727-.035 2.8a71.75 71.75 0 0 0 .63 3.5c.28 1.26.56 2.601.84 4.025.28 1.4.466 2.858.56 4.375.42-1.237.886-2.485 1.4-3.745a68.281 68.281 0 0 1 1.68-3.71 40.223 40.223 0 0 1 1.89-3.325c.653-1.05 1.33-1.948 2.03-2.695.653-.7 1.271-1.248 1.855-1.645.583-.397 1.061-.618 1.434-.665.327-.047.572.023.735.21.187.163.28.373.28.63 0 .467-.338.793-1.015.98-.863.233-1.715.782-2.555 1.645-.816.84-1.598 1.878-2.345 3.115a39.731 39.731 0 0 0-2.064 3.99 71.97 71.97 0 0 0-3.045 8.19 53.168 53.168 0 0 0-.84 2.975h-2.03a26.224 26.224 0 0 0-.386-4.2c-.21-1.33-.443-2.59-.7-3.78-.233-1.213-.454-2.38-.665-3.5a24.196 24.196 0 0 1-.314-3.395 91.107 91.107 0 0 1-2.696 5.845c-.933 1.843-1.948 3.465-3.045 4.865-1.096 1.4-2.31 2.508-3.64 3.325-1.33.84-2.811 1.26-4.444 1.26-1.144 0-2.124-.21-2.94-.63-.817-.397-1.389-.922-1.715-1.575Zm38.827-6.37c-.606 1.283-1.248 2.368-1.925 3.255-.676.863-1.365 1.575-2.065 2.135-.7.537-1.411.922-2.135 1.155a6.93 6.93 0 0 1-2.135.35c-1.143 0-2.018-.257-2.625-.77-.606-.537-.91-1.342-.91-2.415 0-.584.105-1.225.315-1.925.21-.723.502-1.447.875-2.17a13.59 13.59 0 0 1 1.33-2.135 12.962 12.962 0 0 1 1.75-1.82 8.95 8.95 0 0 1 2.1-1.295 5.707 5.707 0 0 1 2.31-.49c.91 0 1.552.187 1.925.56.374.35.56.782.56 1.295 0 .537-.151 1.12-.455 1.75-.28.606-.7 1.166-1.26 1.68-.536.513-1.201.945-1.995 1.295-.77.326-1.645.49-2.625.49h-.665c-.21 0-.385-.012-.525-.035a11.1 11.1 0 0 0-.385 1.365c-.093.443-.14.863-.14 1.26 0 .49.117.91.35 1.26.234.326.654.49 1.26.49.444 0 .922-.082 1.435-.245.514-.187 1.039-.49 1.575-.91.56-.444 1.12-1.027 1.68-1.75.584-.747 1.155-1.68 1.715-2.8l.665.42Zm-3.605-5.145c-.303 0-.641.152-1.015.455-.373.303-.758.712-1.155 1.225a17.48 17.48 0 0 0-1.12 1.68 20.97 20.97 0 0 0-.945 1.925 6.986 6.986 0 0 0 1.19-.175 3.87 3.87 0 0 0 1.155-.455 3.48 3.48 0 0 0 .91-.77c.304-.35.572-.712.805-1.085.234-.397.42-.782.56-1.155.14-.397.21-.735.21-1.015 0-.42-.198-.63-.595-.63Zm3.088 12.04c-.676 0-1.166-.175-1.47-.525-.303-.373-.455-.828-.455-1.365 0-.444.14-1.062.42-1.855a28.95 28.95 0 0 1 1.015-2.695c.397-1.004.84-2.042 1.33-3.115.49-1.097.957-2.135 1.4-3.115h3.185a100.941 100.941 0 0 1-1.54 3.465c-.49 1.097-.921 2.1-1.295 3.01-.373.91-.676 1.703-.91 2.38-.233.677-.35 1.178-.35 1.505 0 .396.175.595.525.595.187 0 .432-.094.735-.28.327-.21.677-.525 1.05-.945.397-.444.805-1.015 1.225-1.715.42-.7.84-1.552 1.26-2.555.35-.84.7-1.692 1.05-2.555a75.92 75.92 0 0 1 1.225-2.905h3.045c-1.166 2.847-2.065 5.11-2.695 6.79-.606 1.656-.91 2.847-.91 3.57 0 .396.199.595.595.595.257 0 .537-.082.84-.245.327-.187.665-.467 1.015-.84.35-.397.7-.91 1.05-1.54.374-.654.712-1.435 1.015-2.345.537-1.563.84-2.8.91-3.71.07-.933.105-1.54.105-1.82.07-.187.21-.35.42-.49.21-.163.467-.245.77-.245.42 0 .712.152.875.455.164.303.245.677.245 1.12 0 .56-.116 1.236-.35 2.03-.21.77-.513 1.575-.91 2.415a22.49 22.49 0 0 1-1.4 2.52 13.9 13.9 0 0 1-1.785 2.205 9.75 9.75 0 0 1-1.995 1.61c-.7.396-1.423.595-2.17.595-.77 0-1.365-.199-1.785-.595-.396-.42-.56-1.027-.49-1.82 0-.117.024-.292.07-.525a9.854 9.854 0 0 1-2.205 2.1c-.793.56-1.68.84-2.66.84Zm43.876-10.395a120.15 120.15 0 0 0-2.345 5.495c-.63 1.633-.945 2.986-.945 4.06 0 .42.082.781.245 1.085.187.303.525.455 1.015.455.397 0 .84-.105 1.33-.315l.21.735a4.21 4.21 0 0 1-1.155.385c-.396.093-.793.14-1.19.14-1.166 0-2.076-.245-2.73-.735-.653-.467-.98-1.26-.98-2.38 0-.887.21-1.948.63-3.185.42-1.237.969-2.59 1.645-4.06h-4.655l-.91 1.75c-1.096 2.053-2.24 3.663-3.43 4.83-1.166 1.143-2.298 1.995-3.395 2.555-1.073.56-2.053.898-2.94 1.015-.886.116-1.586.175-2.1.175-1.353 0-2.426-.199-3.22-.595-.816-.397-1.225-.828-1.225-1.295 0-.233.094-.432.28-.595a.799.799 0 0 1 .63-.28c.187 0 .35.046.49.14.117.093.257.233.42.42.234.256.56.56.98.91.42.35.98.525 1.68.525.654 0 1.319-.152 1.995-.455.677-.28 1.365-.747 2.065-1.4.7-.654 1.424-1.505 2.17-2.555.747-1.05 1.517-2.345 2.31-3.885.49-.957.98-1.925 1.47-2.905l1.505-2.94c.49-.957.969-1.867 1.435-2.73a34.68 34.68 0 0 1 1.365-2.38c-2.59.187-4.62.758-6.09 1.715-1.446.933-2.17 2.112-2.17 3.535 0 .467.07.875.21 1.225.164.327.315.607.455.84.164.257.199.502.105.735-.07.21-.21.385-.42.525a1.044 1.044 0 0 1-.665.14c-.233-.047-.443-.187-.63-.42-.373-.513-.56-1.237-.56-2.17 0-.957.21-1.843.63-2.66.42-.84 1.05-1.575 1.89-2.205.864-.653 1.949-1.178 3.255-1.575 1.307-.397 2.847-.642 4.62-.735.304-.023.619-.035.945-.035.35-.023.665-.047.945-.07.35 0 .7-.012 1.05-.035l.21.42c-.35.537-.723 1.178-1.12 1.925a69.866 69.866 0 0 0-1.225 2.345c-.42.84-.851 1.715-1.295 2.625-.42.887-.84 1.761-1.26 2.625h4.655c.84-1.68 1.657-3.15 2.45-4.41.817-1.283 1.622-2.357 2.415-3.22.817-.887 1.657-1.575 2.52-2.065a8.343 8.343 0 0 1 2.695-.98l.21.63c-.49.07-.968.303-1.435.7-.466.373-.956.933-1.47 1.68-.49.723-1.026 1.657-1.61 2.8a93.945 93.945 0 0 0-1.96 4.13Zm12.183 3.5c-.606 1.283-1.248 2.368-1.925 3.255-.676.863-1.365 1.575-2.065 2.135-.7.537-1.411.922-2.135 1.155a6.93 6.93 0 0 1-2.135.35c-1.143 0-2.018-.257-2.625-.77-.606-.537-.91-1.342-.91-2.415 0-.584.105-1.225.315-1.925.21-.723.502-1.447.875-2.17a13.59 13.59 0 0 1 1.33-2.135 12.962 12.962 0 0 1 1.75-1.82 8.95 8.95 0 0 1 2.1-1.295 5.707 5.707 0 0 1 2.31-.49c.91 0 1.552.187 1.925.56.374.35.56.782.56 1.295 0 .537-.151 1.12-.455 1.75-.28.606-.7 1.166-1.26 1.68-.536.513-1.201.945-1.995 1.295-.77.326-1.645.49-2.625.49h-.665c-.21 0-.385-.012-.525-.035a11.1 11.1 0 0 0-.385 1.365c-.093.443-.14.863-.14 1.26 0 .49.117.91.35 1.26.234.326.654.49 1.26.49.444 0 .922-.082 1.435-.245.514-.187 1.039-.49 1.575-.91.56-.444 1.12-1.027 1.68-1.75.584-.747 1.155-1.68 1.715-2.8l.665.42Zm-3.605-5.145c-.303 0-.641.152-1.015.455-.373.303-.758.712-1.155 1.225a17.48 17.48 0 0 0-1.12 1.68 20.97 20.97 0 0 0-.945 1.925 6.986 6.986 0 0 0 1.19-.175 3.87 3.87 0 0 0 1.155-.455 3.48 3.48 0 0 0 .91-.77c.304-.35.572-.712.805-1.085.234-.397.42-.782.56-1.155.14-.397.21-.735.21-1.015 0-.42-.198-.63-.595-.63Zm6.588-3.78c0-.513.199-.933.595-1.26.42-.35.887-.525 1.4-.525.49 0 .899.152 1.225.455.35.28.525.653.525 1.12 0 .467-.198.887-.595 1.26a2.02 2.02 0 0 1-1.435.56c-.49 0-.898-.152-1.225-.455a1.509 1.509 0 0 1-.49-1.155Zm-3.885 15.82c-.676 0-1.155-.175-1.435-.525a1.813 1.813 0 0 1-.455-1.225c0-.28.047-.595.14-.945.07-.35.222-.782.455-1.295l3.92-8.68h3.255l-3.85 8.54c-.163.35-.303.688-.42 1.015-.116.303-.175.548-.175.735 0 .28.14.42.42.42.514 0 1.039-.373 1.575-1.12.56-.77 1.214-1.89 1.96-3.36l.665.42a31.031 31.031 0 0 1-1.33 2.52c-.443.723-.91 1.353-1.4 1.89-.466.513-.98.91-1.54 1.19a3.8 3.8 0 0 1-1.785.42Zm.74 3.885c0-.467.117-.817.35-1.05.233-.233.513-.35.84-.35.373 0 .63.081.77.245.14.163.21.338.21.525 0 .186-.023.35-.07.49-.047.163-.07.338-.07.525 0 .63.432.945 1.295.945.677 0 1.295-.199 1.855-.595.583-.397 1.12-.933 1.61-1.61.513-.677.992-1.459 1.435-2.345.467-.887.922-1.809 1.365-2.765a9.74 9.74 0 0 1-1.645 1.505c-.56.396-1.213.595-1.96.595-.817 0-1.435-.222-1.855-.665-.42-.467-.63-1.073-.63-1.82 0-.98.257-2.03.77-3.15a17.878 17.878 0 0 1 2.03-3.395c.397-.514.852-1.004 1.365-1.47a9.26 9.26 0 0 1 1.75-1.26 8.754 8.754 0 0 1 2.03-.875 7.138 7.138 0 0 1 2.205-.35c.49 0 .957.023 1.4.07a6.01 6.01 0 0 1 1.12.21c.327.093.572.198.735.315.187.117.245.245.175.385l-4.13 9.31a44.913 44.913 0 0 1-1.575 3.185 13.617 13.617 0 0 1-1.96 2.8 8.562 8.562 0 0 1-2.66 1.96c-1.003.513-2.193.77-3.57.77-1.05 0-1.843-.21-2.38-.63-.537-.397-.805-.898-.805-1.505Zm7.42-5.74c.607 0 1.295-.502 2.065-1.505.793-1.003 1.563-2.345 2.31-4.025l2.065-4.585c-.793 0-1.563.28-2.31.84a9.01 9.01 0 0 0-1.96 1.925 31.92 31.92 0 0 0-1.155 1.75c-.35.607-.665 1.213-.945 1.82a16.457 16.457 0 0 0-.63 1.645c-.14.513-.21.968-.21 1.365 0 .303.07.513.21.63.14.093.327.14.56.14Zm17.384-.105c.513 0 1.155-.49 1.925-1.47.77-1.003 1.528-2.298 2.275-3.885l.665.42c-.304.63-.677 1.353-1.12 2.17-.444.793-.945 1.54-1.505 2.24a9.1 9.1 0 0 1-1.89 1.785c-.677.466-1.424.7-2.24.7-.607 0-1.074-.152-1.4-.455-.327-.327-.49-.759-.49-1.295 0-.327.046-.677.14-1.05.116-.373.256-.759.42-1.155.186-.42.408-.899.665-1.435.256-.56.548-1.178.875-1.855.396-.77.746-1.494 1.05-2.17.326-.677.49-1.155.49-1.435 0-.303-.152-.455-.455-.455-.607 0-1.295.467-2.065 1.4-.77.91-1.517 2.193-2.24 3.85l-2.555 5.81h-3.185l6.93-15.715c.466-1.097 1.073-1.983 1.82-2.66.77-.677 1.913-1.167 3.43-1.47l.105.385c-.514.35-.969.968-1.365 1.855l-3.045 6.86c.606-.63 1.225-1.12 1.855-1.47a4.18 4.18 0 0 1 2.065-.525c.653 0 1.131.175 1.435.525.303.35.455.793.455 1.33 0 .257-.059.572-.175.945-.117.373-.269.77-.455 1.19-.164.42-.35.84-.56 1.26-.21.396-.397.758-.56 1.085-.234.466-.49.992-.77 1.575-.28.56-.514 1.062-.7 1.505a4.635 4.635 0 0 0-.245.63 1.89 1.89 0 0 0-.07.525c0 .303.163.455.49.455Zm6.298-.035c.304 0 .619-.14.945-.42.35-.303.759-.863 1.225-1.68l.63.35c-.536 1.05-1.19 1.936-1.96 2.66-.746.723-1.633 1.085-2.66 1.085-.793 0-1.353-.187-1.68-.56-.35-.397-.525-.875-.525-1.435 0-.397.059-.794.175-1.19.117-.42.304-.91.56-1.47l3.15-7.07h-.84l.42-.945h.84l2.03-4.515h3.29l-2.065 4.515h1.82l-.42.945h-1.82l-2.975 6.755c-.49 1.12-.735 1.913-.735 2.38 0 .396.199.595.595.595Zm13.5-8.75c0 .466-.128.875-.385 1.225-.256.35-.618.525-1.085.525-.653 0-.98-.292-.98-.875 0-.257.059-.455.175-.595.14-.14.21-.338.21-.595 0-.35-.128-.618-.385-.805-.256-.21-.583-.315-.98-.315-.653 0-1.166.175-1.54.525-.35.327-.525.758-.525 1.295 0 .513.129 1.003.385 1.47.28.443.584.91.91 1.4.35.466.654.98.91 1.54.28.537.42 1.155.42 1.855 0 .49-.105.98-.315 1.47-.21.49-.536.933-.98 1.33-.443.396-1.003.723-1.68.98-.653.233-1.423.35-2.31.35-1.096 0-1.96-.234-2.59-.7-.63-.49-.945-1.178-.945-2.065 0-.56.187-1.097.56-1.61.35-.537.829-.805 1.435-.805.304 0 .549.082.735.245.187.163.28.385.28.665a.995.995 0 0 1-.175.595c-.093.14-.21.28-.35.42a3.22 3.22 0 0 0-.315.455.796.796 0 0 0-.175.525c0 .396.129.723.385.98.28.233.689.35 1.225.35.654 0 1.19-.175 1.61-.525.42-.373.63-.922.63-1.645 0-.56-.128-1.062-.385-1.505a12.116 12.116 0 0 0-.875-1.365 22.38 22.38 0 0 1-.875-1.47 3.79 3.79 0 0 1-.385-1.715c0-.49.105-.969.315-1.435a4.19 4.19 0 0 1 .98-1.26c.42-.397.945-.712 1.575-.945.63-.233 1.354-.35 2.17-.35 1.027 0 1.832.21 2.415.63.607.42.91 1.003.91 1.75Zm.755 10.64c-.42 0-.759-.117-1.015-.35-.257-.233-.385-.572-.385-1.015 0-.467.163-.91.49-1.33.326-.444.805-.665 1.435-.665.373 0 .7.116.98.35.28.233.42.572.42 1.015 0 .537-.187 1.003-.56 1.4-.35.396-.805.595-1.365.595Z"/></svg>