<svg xmlns="http://www.w3.org/2000/svg" width="5000" height="1733" fill="none"><path fill="#fff" d="M160.135 594.118 0 1732.96l4839.86-594.12L5000 0 160.135 594.118ZM1010.64 1350.5l-369.244 45.15h-.422c-74.107 8.94-129.902-36.2-124.363-90.71l59.196-420.358c13.205-53.239 57.495-89.862 114.567-96.679l408.856-50.256-24.28 171.635-232.535 28.534c-43.867 5.111-85.606 18.317-91.995 67.714l-22.15 155.03c-5.961 43.01 23.85 53.66 57.073 49.4l250.847-30.66-25.55 171.2Zm62.18-8.51 86.46-611.582 198.04-24.278-86.46 611.58-198.04 24.28Zm675.47-83.05-176.74-277.257-43.44 304.517-196.34 24.28 86.46-612.444 185.26-22.572L1773 941.645l41.31-292.165 196.34-24.278-86.46 612.008-175.9 21.73Zm766.19-258.52-23.43 167.81-505.54 61.75 86.46-612.007 505.11-62.183-23.85 167.802-310.48 38.328-8.52 62.184 289.62-34.923-20.45 147.785-289.61 35.345-9.8 66.439 310.49-38.33Zm1989.78-78.787-214.22 26.406-92.85-158.858-120.53 184.841-229.56 28.108-158.43 19.6-20.02-78.37-207.41 25.556-41.74 86.024-199.74 24.71-16.18 2.13-181.01 22.15 42.59-303.239-166.95 234.669-3.41.43-105.62-201.021L2746.59 1138l-193.78 23.85 86.46-612.006 195.48-23.856 96.68 199.309 157.15-230.836 217.64-26.833-80.92 572.822 315.58-600.511 196.34-24.278 148.63 530.662 198.04-289.181-173.76-264.053 214.22-26.406 85.18 135.435 102.64-158.863 229.55-28.106-220.18 320.703 182.72 285.781Z"/><path fill="#fff" d="m3532.34 816.867 108.18-13.2-33.65-141.824-74.53 155.024Z"/></svg>