<svg xmlns="http://www.w3.org/2000/svg" width="800" height="800" fill="none"><g clip-path="url(#a)"><path fill="#fff" d="M0 400.032c0-26.902 0-40.354 3.29-52.86a99.996 99.996 0 0 1 14.186-31.039c7.303-10.672 17.474-19.475 37.816-37.081L294.955 71.624c37.133-32.138 55.7-48.208 76.557-54.327a99.999 99.999 0 0 1 56.302 0c20.856 6.119 39.423 22.189 76.557 54.327l239.663 207.428c20.341 17.606 30.512 26.409 37.816 37.081a99.996 99.996 0 0 1 14.186 31.039c3.29 12.506 3.29 25.958 3.29 52.86V625c0 56.005 0 84.008-10.9 105.399a100.003 100.003 0 0 1-43.701 43.702C723.333 785 695.331 785 639.326 785H160c-56.005 0-84.008 0-105.4-10.899a100.006 100.006 0 0 1-43.7-43.702C0 709.008 0 681.005 0 625V400.032Z"/></g><defs><clipPath id="a"><path fill="#fff" d="M0 0h800v800H0z"/></clipPath></defs></svg>