<svg xmlns="http://www.w3.org/2000/svg" width="223" height="70" fill="none"><path fill="#9F94FF" d="M79.887 57.32a2.585 2.585 0 0 1-2.59-2.58V39.135c0-1.425-1.16-2.58-2.59-2.58H73.59a2.585 2.585 0 0 1-2.59-2.58v-1.014c0-1.425 1.16-2.58 2.59-2.58h3.176a.53.53 0 0 0 .531-.53c0-2.334.497-4.224 1.492-5.669 1.012-1.445 2.453-2.503 4.325-3.175C85.002 20.336 87.27 20 89.916 20a36.587 36.587 0 0 1 5.019.34c1.177.162 1.987 1.196 1.987 2.38v.964c0 1.221-1.106 2.142-2.327 2.036-.759-.067-1.551-.1-2.377-.1-1.973 0-3.431.335-4.375 1.007-.944.672-1.416 1.747-1.416 3.226a.53.53 0 0 0 .53.529h7.249c1.43 0 2.59 1.155 2.59 2.58v1.013c0 1.425-1.16 2.58-2.59 2.58h-4.962a2.585 2.585 0 0 0-2.59 2.581V54.74c0 1.425-1.16 2.58-2.59 2.58h-4.177Zm21.056 0a2.585 2.585 0 0 1-2.59-2.58V32.961c0-1.425 1.16-2.58 2.59-2.58h4.203c1.43 0 2.59 1.155 2.59 2.58V54.74c0 1.425-1.16 2.58-2.59 2.58h-4.203Zm11.876 0a2.585 2.585 0 0 1-2.59-2.58V32.961a2.585 2.585 0 0 1 2.59-2.58h4.178a2.585 2.585 0 0 1 2.589 2.58v3.045c0 .052.043.095.096.095a.098.098 0 0 0 .084-.048c1.129-1.96 2.789-3.506 4.979-4.639 2.226-1.159 4.873-1.739 7.941-1.739 4.384 0 7.789 1.151 10.217 3.453 2.445 2.284 3.667 5.543 3.667 9.777v11.833a2.585 2.585 0 0 1-2.59 2.58h-4.177a2.585 2.585 0 0 1-2.59-2.58V44.77c0-2.79-.7-4.889-2.099-6.3-1.383-1.428-3.414-2.142-6.095-2.142-1.905 0-3.566.361-4.982 1.084-1.416.722-2.512 1.738-3.288 3.049-.775 1.31-1.163 2.872-1.163 4.686v9.591a2.585 2.585 0 0 1-2.589 2.58h-4.178Zm54.124.68c-3.911 0-7.3-.571-10.166-1.714-2.866-1.159-5.092-2.797-6.677-4.913-1.567-2.117-2.351-4.62-2.351-7.51v-.05c0-2.873.784-5.367 2.351-7.484 1.585-2.117 3.811-3.755 6.677-4.914 2.866-1.159 6.255-1.739 10.166-1.739 3.389 0 6.399.462 9.029 1.386 2.63.907 4.762 2.201 6.398 3.881 1.635 1.68 2.655 3.679 3.06 5.997a.236.236 0 0 1-.232.278h-8.606a.312.312 0 0 1-.292-.202c-.539-1.596-1.61-2.814-3.211-3.654-1.602-.857-3.558-1.285-5.868-1.285-2.073 0-3.852.31-5.336.932-1.483.622-2.63 1.512-3.439 2.671-.792 1.16-1.189 2.537-1.189 4.133v.05c0 1.613.397 3 1.189 4.158.809 1.16 1.956 2.05 3.439 2.671 1.484.622 3.263.933 5.336.933 2.327 0 4.283-.42 5.868-1.26 1.601-.84 2.672-2.075 3.211-3.705a.312.312 0 0 1 .292-.201h8.581a.26.26 0 0 1 .257.302 11.085 11.085 0 0 1-3.085 5.998c-1.636 1.68-3.769 2.973-6.399 3.88-2.613.907-5.614 1.361-9.003 1.361Zm22.306-.68a2.585 2.585 0 0 1-2.59-2.58V23.537a2.585 2.585 0 0 1 2.59-2.58h4.177a2.585 2.585 0 0 1 2.59 2.58v12.469a.096.096 0 0 0 .179.046c1.113-1.959 2.764-3.505 4.955-4.638 2.225-1.159 4.872-1.739 7.941-1.739 2.933 0 5.429.521 7.485 1.563 2.074 1.024 3.659 2.52 4.755 4.485 1.113 1.966 1.669 4.36 1.669 7.182v11.833a2.585 2.585 0 0 1-2.59 2.58h-4.203a2.585 2.585 0 0 1-2.589-2.58V44.77c0-2.79-.7-4.889-2.099-6.3-1.383-1.428-3.415-2.142-6.095-2.142-1.905 0-3.566.361-4.982 1.084-1.416.722-2.512 1.738-3.288 3.049-.759 1.31-1.138 2.872-1.138 4.686v9.591a2.585 2.585 0 0 1-2.59 2.58h-4.177ZM.54 2.602a2 2 0 0 1 2.11-2.4L75.233 5.75c1.492.114 2.335 1.767 1.552 3.042L62.856 31.459a2 2 0 0 1-1.957.937l-24.607-3.145c-2.163-.276-3.144 2.616-1.26 3.713l15.375 8.944a2 2 0 0 1 .832 2.52l-7.856 18.236a2 2 0 0 1-1.398 1.16l-25.5 5.73a2 2 0 0 1-2.397-1.546L.539 2.602Z"/></svg>