<svg xmlns="http://www.w3.org/2000/svg" width="4378" height="464" fill="none"><mask id="c" width="4378" height="465" x="-.391" y="-.797" fill="#000" maskUnits="userSpaceOnUse"><path fill="#fff" d="M-.391-.797h4378v465h-4378z"/><path d="M196.602 31.003H7.002v-13.2h394.2v13.2h-189.6v415.2h-15v-415.2Zm620.493 295.2c-10.4 27.6-25.6 51.2-45.6 70.8-19.6 19.2-43.4 34-71.4 44.4-27.6 10.4-58.6 15.6-93 15.6-27.6 0-53-3.4-76.2-10.2-23.2-6.4-44.2-16-63-28.8-18.4-12.8-34.2-28.4-47.4-46.8-12.8-18.4-22.6-39.2-29.4-62.4-6.8-23.2-10.2-48.8-10.2-76.8 0-34.8 5.2-66 15.6-93.6 10.8-28 26-51.6 45.6-70.8 20-19.6 43.8-34.6 71.4-45 28-10.4 59.2-15.6 93.6-15.6 27.6 0 53 3.4 76.2 10.2 23.2 6.4 44 16 62.4 28.8 18.8 12.8 34.6 28.4 47.4 46.8 13.2 18.4 23.2 39.2 30 62.4 6.8 23.2 10.2 48.8 10.2 76.8 0 34.8-5.4 66.2-16.2 94.2Zm-383.4 36.6c12 17.2 26.6 31.8 43.8 43.8 17.2 12 36.6 21.2 58.2 27.6 22 6 45.8 9 71.4 9 32.4 0 61.4-4.8 87-14.4 26-9.6 48.2-23.6 66.6-42 18.4-18.4 32.4-40.6 42-66.6 10-26 15-55.4 15-88.2 0-26-3.2-50-9.6-72-6.4-22-15.6-41.6-27.6-58.8-12-17.2-26.6-31.8-43.8-43.8-17.2-12-36.6-21-58.2-27-21.6-6.4-45.4-9.6-71.4-9.6-32.4 0-61.6 4.8-87.6 14.4-25.6 9.6-47.6 23.6-66 42s-32.6 40.6-42.6 66.6c-9.6 26-14.4 55.4-14.4 88.2 0 26 3.2 50 9.6 72 6.4 22 15.6 41.6 27.6 58.8Zm454.018-345h194.397c24 0 45.4 2.8 64.2 8.4 19.2 5.2 35.2 13 48 23.4 13.2 10.4 23.2 23.2 30 38.4 6.8 15.2 10.2 32.6 10.2 52.2 0 20.4-3.4 38.4-10.2 54-6.4 15.2-16.2 28.2-29.4 39-13.2 10.4-29.8 18.2-49.8 23.4-20 5.2-43.4 7.8-70.2 7.8H897.913v-13.2h177.597c32 0 58.6-4.2 79.8-12.6 21.2-8.4 37-20.8 47.4-37.2 10.8-16.4 16.2-36.8 16.2-61.2 0-17.6-3.2-33.2-9.6-46.8-6-13.6-15-25-27-34.2-11.6-9.2-26.2-16.2-43.8-21-17.2-4.8-37-7.2-59.4-7.2H897.913l4.8-7.2v422.4h-15v-428.4Zm586.077 428.4h-109.2l69.6-298.2 5.4 5.4-72 45-39.6-80.4 148.8-86.4h93l-96 414.6Zm75.6-313.8c11.2-26.4 24-47.8 38.4-64.2 14.4-16.4 30.6-28.4 48.6-36 18.4-8 38.8-12 61.2-12 28.4 0 50.8 5.8 67.2 17.4 16.4 11.6 27.8 27.8 34.2 48.6 6.4 20.8 8.8 45.2 7.2 73.2-1.2 27.6-5.2 57.6-12 90-8 37.2-17.6 69-28.8 95.4-10.8 26.4-23.4 47.8-37.8 64.2-14.4 16.4-30.8 28.6-49.2 36.6-18 7.6-38.2 11.4-60.6 11.4-28.4 0-50.8-5.8-67.2-17.4-16.4-11.6-27.8-27.8-34.2-48.6-6.4-20.8-9-45-7.8-72.6 1.6-28 5.8-58.2 12.6-90.6 8-37.2 17.4-69 28.2-95.4Zm150.6 23.4c1.2-10.8.4-19.2-2.4-25.2-2.4-6.4-7.2-9.6-14.4-9.6-6.8 0-13 3-18.6 9-5.2 5.6-10.4 16.8-15.6 33.6-5.2 16.8-11.4 41.8-18.6 75-3.6 16-6.8 31.2-9.6 45.6-2.8 14.4-4.8 27-6 37.8-.8 10.4 0 18.8 2.4 25.2 2.8 6 7.8 9 15 9s13.4-2.8 18.6-8.4c5.2-6 10.4-17.4 15.6-34.2 5.6-17.2 11.8-42.2 18.6-75 3.6-16.4 6.8-31.6 9.6-45.6 2.8-14.4 4.6-26.8 5.4-37.2Zm135.59-138h97.2l124.2 422.4h-57.6l134.4-420h86.4l134.4 420h-57l124.2-422.4h94.8l-144 428.4h-96l-135-421.8h66.6l-135.6 421.8h-93.6l-143.4-428.4Zm673.15 0h355.2v69.6h-312.6l45-63.6v416.4l-45-63.6h325.8l-10.8 69.6h-357.6v-428.4Zm42.6 174h299.4v69.6h-299.4v-69.6Zm334.82-174h355.2v69.6h-312.6l45-63.6v416.4l-45-63.6h325.8l-10.8 69.6h-357.6v-428.4Zm42.6 174h299.4v69.6h-299.4v-69.6Zm376.21 60 270.6-234h105l-200.4 176.4-37.2 31.2-138 115.8v-89.4Zm47.4 194.4h-88.8v-428.4h88.8v428.4Zm346.2 0h-103.8l-181.8-236.4 60-56.4 225.6 292.8Zm-8.36-428.4h88.8v422.4l-47.4-68.4h312.6l-11.4 74.4h-342.6v-428.4Zm221.65 0h99.6l162.6 236.4h-70.2l162.6-236.4h97.2l-196.2 275.4 14.4-54v207h-88.8v-207l14.4 54-195.6-275.4Z"/></mask><path fill="url(#a)" d="M196.602 31.003H7.002v-13.2h394.2v13.2h-189.6v415.2h-15v-415.2Zm620.493 295.2c-10.4 27.6-25.6 51.2-45.6 70.8-19.6 19.2-43.4 34-71.4 44.4-27.6 10.4-58.6 15.6-93 15.6-27.6 0-53-3.4-76.2-10.2-23.2-6.4-44.2-16-63-28.8-18.4-12.8-34.2-28.4-47.4-46.8-12.8-18.4-22.6-39.2-29.4-62.4-6.8-23.2-10.2-48.8-10.2-76.8 0-34.8 5.2-66 15.6-93.6 10.8-28 26-51.6 45.6-70.8 20-19.6 43.8-34.6 71.4-45 28-10.4 59.2-15.6 93.6-15.6 27.6 0 53 3.4 76.2 10.2 23.2 6.4 44 16 62.4 28.8 18.8 12.8 34.6 28.4 47.4 46.8 13.2 18.4 23.2 39.2 30 62.4 6.8 23.2 10.2 48.8 10.2 76.8 0 34.8-5.4 66.2-16.2 94.2Zm-383.4 36.6c12 17.2 26.6 31.8 43.8 43.8 17.2 12 36.6 21.2 58.2 27.6 22 6 45.8 9 71.4 9 32.4 0 61.4-4.8 87-14.4 26-9.6 48.2-23.6 66.6-42 18.4-18.4 32.4-40.6 42-66.6 10-26 15-55.4 15-88.2 0-26-3.2-50-9.6-72-6.4-22-15.6-41.6-27.6-58.8-12-17.2-26.6-31.8-43.8-43.8-17.2-12-36.6-21-58.2-27-21.6-6.4-45.4-9.6-71.4-9.6-32.4 0-61.6 4.8-87.6 14.4-25.6 9.6-47.6 23.6-66 42s-32.6 40.6-42.6 66.6c-9.6 26-14.4 55.4-14.4 88.2 0 26 3.2 50 9.6 72 6.4 22 15.6 41.6 27.6 58.8Zm454.018-345h194.397c24 0 45.4 2.8 64.2 8.4 19.2 5.2 35.2 13 48 23.4 13.2 10.4 23.2 23.2 30 38.4 6.8 15.2 10.2 32.6 10.2 52.2 0 20.4-3.4 38.4-10.2 54-6.4 15.2-16.2 28.2-29.4 39-13.2 10.4-29.8 18.2-49.8 23.4-20 5.2-43.4 7.8-70.2 7.8H897.913v-13.2h177.597c32 0 58.6-4.2 79.8-12.6 21.2-8.4 37-20.8 47.4-37.2 10.8-16.4 16.2-36.8 16.2-61.2 0-17.6-3.2-33.2-9.6-46.8-6-13.6-15-25-27-34.2-11.6-9.2-26.2-16.2-43.8-21-17.2-4.8-37-7.2-59.4-7.2H897.913l4.8-7.2v422.4h-15v-428.4Zm586.077 428.4h-109.2l69.6-298.2 5.4 5.4-72 45-39.6-80.4 148.8-86.4h93l-96 414.6Zm75.6-313.8c11.2-26.4 24-47.8 38.4-64.2 14.4-16.4 30.6-28.4 48.6-36 18.4-8 38.8-12 61.2-12 28.4 0 50.8 5.8 67.2 17.4 16.4 11.6 27.8 27.8 34.2 48.6 6.4 20.8 8.8 45.2 7.2 73.2-1.2 27.6-5.2 57.6-12 90-8 37.2-17.6 69-28.8 95.4-10.8 26.4-23.4 47.8-37.8 64.2-14.4 16.4-30.8 28.6-49.2 36.6-18 7.6-38.2 11.4-60.6 11.4-28.4 0-50.8-5.8-67.2-17.4-16.4-11.6-27.8-27.8-34.2-48.6-6.4-20.8-9-45-7.8-72.6 1.6-28 5.8-58.2 12.6-90.6 8-37.2 17.4-69 28.2-95.4Zm150.6 23.4c1.2-10.8.4-19.2-2.4-25.2-2.4-6.4-7.2-9.6-14.4-9.6-6.8 0-13 3-18.6 9-5.2 5.6-10.4 16.8-15.6 33.6-5.2 16.8-11.4 41.8-18.6 75-3.6 16-6.8 31.2-9.6 45.6-2.8 14.4-4.8 27-6 37.8-.8 10.4 0 18.8 2.4 25.2 2.8 6 7.8 9 15 9s13.4-2.8 18.6-8.4c5.2-6 10.4-17.4 15.6-34.2 5.6-17.2 11.8-42.2 18.6-75 3.6-16.4 6.8-31.6 9.6-45.6 2.8-14.4 4.6-26.8 5.4-37.2Zm135.59-138h97.2l124.2 422.4h-57.6l134.4-420h86.4l134.4 420h-57l124.2-422.4h94.8l-144 428.4h-96l-135-421.8h66.6l-135.6 421.8h-93.6l-143.4-428.4Zm673.15 0h355.2v69.6h-312.6l45-63.6v416.4l-45-63.6h325.8l-10.8 69.6h-357.6v-428.4Zm42.6 174h299.4v69.6h-299.4v-69.6Zm334.82-174h355.2v69.6h-312.6l45-63.6v416.4l-45-63.6h325.8l-10.8 69.6h-357.6v-428.4Zm42.6 174h299.4v69.6h-299.4v-69.6Zm376.21 60 270.6-234h105l-200.4 176.4-37.2 31.2-138 115.8v-89.4Zm47.4 194.4h-88.8v-428.4h88.8v428.4Zm346.2 0h-103.8l-181.8-236.4 60-56.4 225.6 292.8Zm-8.36-428.4h88.8v422.4l-47.4-68.4h312.6l-11.4 74.4h-342.6v-428.4Zm221.65 0h99.6l162.6 236.4h-70.2l162.6-236.4h97.2l-196.2 275.4 14.4-54v207h-88.8v-207l14.4 54-195.6-275.4Z"/><path fill="#000" d="M196.602 31.003H7.002v-13.2h394.2v13.2h-189.6v415.2h-15v-415.2Zm620.493 295.2c-10.4 27.6-25.6 51.2-45.6 70.8-19.6 19.2-43.4 34-71.4 44.4-27.6 10.4-58.6 15.6-93 15.6-27.6 0-53-3.4-76.2-10.2-23.2-6.4-44.2-16-63-28.8-18.4-12.8-34.2-28.4-47.4-46.8-12.8-18.4-22.6-39.2-29.4-62.4-6.8-23.2-10.2-48.8-10.2-76.8 0-34.8 5.2-66 15.6-93.6 10.8-28 26-51.6 45.6-70.8 20-19.6 43.8-34.6 71.4-45 28-10.4 59.2-15.6 93.6-15.6 27.6 0 53 3.4 76.2 10.2 23.2 6.4 44 16 62.4 28.8 18.8 12.8 34.6 28.4 47.4 46.8 13.2 18.4 23.2 39.2 30 62.4 6.8 23.2 10.2 48.8 10.2 76.8 0 34.8-5.4 66.2-16.2 94.2Zm-383.4 36.6c12 17.2 26.6 31.8 43.8 43.8 17.2 12 36.6 21.2 58.2 27.6 22 6 45.8 9 71.4 9 32.4 0 61.4-4.8 87-14.4 26-9.6 48.2-23.6 66.6-42 18.4-18.4 32.4-40.6 42-66.6 10-26 15-55.4 15-88.2 0-26-3.2-50-9.6-72-6.4-22-15.6-41.6-27.6-58.8-12-17.2-26.6-31.8-43.8-43.8-17.2-12-36.6-21-58.2-27-21.6-6.4-45.4-9.6-71.4-9.6-32.4 0-61.6 4.8-87.6 14.4-25.6 9.6-47.6 23.6-66 42s-32.6 40.6-42.6 66.6c-9.6 26-14.4 55.4-14.4 88.2 0 26 3.2 50 9.6 72 6.4 22 15.6 41.6 27.6 58.8Zm454.018-345h194.397c24 0 45.4 2.8 64.2 8.4 19.2 5.2 35.2 13 48 23.4 13.2 10.4 23.2 23.2 30 38.4 6.8 15.2 10.2 32.6 10.2 52.2 0 20.4-3.4 38.4-10.2 54-6.4 15.2-16.2 28.2-29.4 39-13.2 10.4-29.8 18.2-49.8 23.4-20 5.2-43.4 7.8-70.2 7.8H897.913v-13.2h177.597c32 0 58.6-4.2 79.8-12.6 21.2-8.4 37-20.8 47.4-37.2 10.8-16.4 16.2-36.8 16.2-61.2 0-17.6-3.2-33.2-9.6-46.8-6-13.6-15-25-27-34.2-11.6-9.2-26.2-16.2-43.8-21-17.2-4.8-37-7.2-59.4-7.2H897.913l4.8-7.2v422.4h-15v-428.4Zm586.077 428.4h-109.2l69.6-298.2 5.4 5.4-72 45-39.6-80.4 148.8-86.4h93l-96 414.6Zm75.6-313.8c11.2-26.4 24-47.8 38.4-64.2 14.4-16.4 30.6-28.4 48.6-36 18.4-8 38.8-12 61.2-12 28.4 0 50.8 5.8 67.2 17.4 16.4 11.6 27.8 27.8 34.2 48.6 6.4 20.8 8.8 45.2 7.2 73.2-1.2 27.6-5.2 57.6-12 90-8 37.2-17.6 69-28.8 95.4-10.8 26.4-23.4 47.8-37.8 64.2-14.4 16.4-30.8 28.6-49.2 36.6-18 7.6-38.2 11.4-60.6 11.4-28.4 0-50.8-5.8-67.2-17.4-16.4-11.6-27.8-27.8-34.2-48.6-6.4-20.8-9-45-7.8-72.6 1.6-28 5.8-58.2 12.6-90.6 8-37.2 17.4-69 28.2-95.4Zm150.6 23.4c1.2-10.8.4-19.2-2.4-25.2-2.4-6.4-7.2-9.6-14.4-9.6-6.8 0-13 3-18.6 9-5.2 5.6-10.4 16.8-15.6 33.6-5.2 16.8-11.4 41.8-18.6 75-3.6 16-6.8 31.2-9.6 45.6-2.8 14.4-4.8 27-6 37.8-.8 10.4 0 18.8 2.4 25.2 2.8 6 7.8 9 15 9s13.4-2.8 18.6-8.4c5.2-6 10.4-17.4 15.6-34.2 5.6-17.2 11.8-42.2 18.6-75 3.6-16.4 6.8-31.6 9.6-45.6 2.8-14.4 4.6-26.8 5.4-37.2Zm135.59-138h97.2l124.2 422.4h-57.6l134.4-420h86.4l134.4 420h-57l124.2-422.4h94.8l-144 428.4h-96l-135-421.8h66.6l-135.6 421.8h-93.6l-143.4-428.4Zm673.15 0h355.2v69.6h-312.6l45-63.6v416.4l-45-63.6h325.8l-10.8 69.6h-357.6v-428.4Zm42.6 174h299.4v69.6h-299.4v-69.6Zm334.82-174h355.2v69.6h-312.6l45-63.6v416.4l-45-63.6h325.8l-10.8 69.6h-357.6v-428.4Zm42.6 174h299.4v69.6h-299.4v-69.6Zm376.21 60 270.6-234h105l-200.4 176.4-37.2 31.2-138 115.8v-89.4Zm47.4 194.4h-88.8v-428.4h88.8v428.4Zm346.2 0h-103.8l-181.8-236.4 60-56.4 225.6 292.8Zm-8.36-428.4h88.8v422.4l-47.4-68.4h312.6l-11.4 74.4h-342.6v-428.4Zm221.65 0h99.6l162.6 236.4h-70.2l162.6-236.4h97.2l-196.2 275.4 14.4-54v207h-88.8v-207l14.4 54-195.6-275.4Z"/><path fill="url(#b)" d="M196.602 31.003h7v-7h-7v7Zm-189.6 0h-7v7h7v-7Zm0-13.2v-7h-7v7h7Zm394.2 0h7v-7h-7v7Zm0 13.2v7h7v-7h-7Zm-189.6 0v-7h-7v7h7Zm0 415.2v7h7v-7h-7Zm-15 0h-7v7h7v-7Zm0-415.2v-7H7.002v14h189.6v-7Zm-189.6 0h7v-13.2h-14v13.2h7Zm0-13.2v7h394.2v-14H7.002v7Zm394.2 0h-7v13.2h14v-13.2h-7Zm0 13.2v-7h-189.6v14h189.6v-7Zm-189.6 0h-7v415.2h14v-415.2h-7Zm0 415.2v-7h-15v14h15v-7Zm-15 0h7v-415.2h-14v415.2h7Zm620.493-120-6.531-2.519-.009.025-.01.026 6.55 2.468Zm-45.6 70.8 4.899 5.001.001-.001-4.9-5Zm-71.4 44.4-2.437-6.562-.015.006-.016.006 2.468 6.55Zm-169.2 5.4 1.969-6.717-.053-.016-.054-.015-1.862 6.748Zm-63-28.8-3.997 5.746.029.021.029.019 3.939-5.786Zm-47.4-46.8-5.746 3.998.029.041.03.041 5.687-4.08Zm-29.4-62.4 6.718-1.969-6.718 1.969Zm5.4-170.4-6.531-2.519-.009.025-.01.026 6.55 2.468Zm45.6-70.8 4.899 5h.001l-4.9-5Zm71.4-45-2.437-6.562-.015.006-.016.006 2.468 6.55Zm169.8-5.4-1.969 6.718.054.015.054.015 1.861-6.748Zm62.4 28.8-3.997 5.746.029.02.029.02 3.939-5.786Zm47.4 46.8-5.746 3.998.029.041.03.041 5.687-4.08Zm30 62.4-6.717 1.969 6.717-1.969Zm-389.4 207.6 5.741-4.005-5.741 4.005Zm43.8 43.8-4.005 5.741 4.005-5.741Zm58.2 27.6-1.988 6.712.073.021.074.02 1.841-6.753Zm158.4-5.4-2.424-6.567-.017.007-.017.006 2.458 6.554Zm108.6-108.6-6.533-2.513-.017.044-.016.045 6.566 2.424Zm5.4-160.2 6.722-1.955-6.722 1.955Zm-27.6-58.8 5.741-4.005-5.741 4.005Zm-43.8-43.8-4.005 5.741 4.005-5.74Zm-58.2-27-1.988 6.712.057.017.058.016 1.873-6.745Zm-159 4.8-2.424-6.567-.017.007-.017.006 2.458 6.554Zm-108.6 108.6-6.533-2.513-.017.044-.016.045 6.566 2.424Zm-4.8 160.2 6.722-1.955-6.722 1.955Zm411 22.2-6.55-2.468c-10.06 26.698-24.716 49.42-43.949 68.269l4.899 4.999 4.9 5c20.767-20.352 36.511-44.83 47.251-73.332l-6.551-2.468Zm-45.6 70.8-4.898-5c-18.838 18.453-41.777 32.75-68.939 42.838l2.437 6.562 2.438 6.562c28.838-10.711 53.499-26.015 73.861-45.961l-4.899-5.001Zm-71.4 44.4-2.468-6.55c-26.692 10.057-56.837 15.15-90.532 15.15v14c35.106 0 66.96-5.307 95.469-16.049l-2.469-6.551Zm-93 15.6v-7c-27.026 0-51.753-3.329-74.231-9.917l-1.969 6.717-1.969 6.718c23.923 7.011 49.995 10.482 78.169 10.482v-7Zm-76.2-10.2 1.862-6.748c-22.503-6.207-42.793-15.495-60.922-27.838l-3.94 5.786-3.939 5.786c19.471 13.257 41.18 23.17 65.078 29.762l1.861-6.748Zm-63-28.8 3.998-5.746c-17.739-12.34-32.97-27.375-45.71-45.134l-5.688 4.08-5.687 4.08c13.659 19.041 30.029 35.207 49.09 48.466l3.997-5.746Zm-47.4-46.8 5.747-3.997c-12.337-17.734-21.825-37.839-28.429-60.372l-6.718 1.969-6.717 1.969c6.995 23.867 17.107 45.362 30.371 64.429l5.746-3.998Zm-29.4-62.4 6.718-1.969c-6.586-22.469-9.918-47.394-9.918-74.831h-14c0 28.564 3.469 54.838 10.483 78.769l6.717-1.969Zm-10.2-76.8h7c0-34.105 5.096-64.449 15.151-91.132l-6.551-2.468-6.55-2.468c-10.746 28.517-16.05 60.573-16.05 96.068h7Zm15.6-93.6 6.531 2.519c10.474-27.154 25.148-49.883 43.968-68.318l-4.899-5-4.898-5.001c-20.38 19.964-36.106 44.435-47.233 73.281l6.531 2.519Zm45.6-70.8 4.9 5c19.269-18.884 42.228-33.373 68.969-43.45l-2.469-6.55-2.468-6.55c-28.46 10.724-53.1 26.235-73.831 46.55l4.899 5Zm71.4-45 2.438 6.562c27.111-10.07 57.47-15.162 91.162-15.162v-14c-35.107 0-67.148 5.308-96.037 16.038l2.437 6.562Zm93.6-15.6v7c27.026 0 51.754 3.33 74.231 9.918l1.969-6.718 1.969-6.717C661.342 3.474 635.269.003 607.095.003v7Zm76.2 10.2-1.861 6.748c22.493 6.205 42.56 15.483 60.264 27.798l3.997-5.746 3.998-5.746c-19.097-13.285-40.629-23.207-64.536-29.802l-1.862 6.748Zm62.4 28.8-3.939 5.786c18.104 12.327 33.288 27.323 45.593 45.011l5.746-3.997 5.747-3.997c-13.296-19.112-29.711-35.315-49.207-48.59l-3.94 5.787Zm47.4 46.8-5.687 4.08c12.71 17.718 22.377 37.794 28.97 60.289l6.717-1.969 6.718-1.969c-7.007-23.905-17.34-45.428-31.03-64.511l-5.688 4.08Zm30 62.4-6.717 1.969c6.586 22.469 9.917 47.395 9.917 74.831h14c0-28.563-3.468-54.838-10.482-78.769l-6.718 1.969Zm10.2 76.8h-7c0 34.074-5.286 64.602-15.731 91.681l6.531 2.519 6.531 2.519c11.156-28.921 16.669-61.193 16.669-96.719h-7Zm-399.6 130.8-5.741 4.005c12.472 17.877 27.66 33.064 45.536 45.536l4.005-5.741 4.006-5.741c-16.524-11.528-30.537-25.54-42.065-42.064l-5.741 4.005Zm43.8 43.8-4.005 5.741c17.86 12.46 37.95 21.973 60.217 28.571l1.988-6.712 1.989-6.711c-20.934-6.203-39.643-15.09-56.183-26.63l-4.006 5.741Zm58.2 27.6-1.841 6.753c22.668 6.183 47.094 9.247 73.241 9.247v-14c-25.052 0-48.226-2.936-69.558-8.753l-1.842 6.753Zm71.4 9v7c33.088 0 62.942-4.902 89.458-14.846l-2.458-6.554-2.458-6.554c-24.683 9.256-52.829 13.954-84.542 13.954v7Zm87-14.4 2.425 6.567c26.886-9.927 49.964-24.456 69.125-43.617l-4.95-4.95-4.949-4.95c-17.639 17.639-38.961 31.11-64.075 40.383l2.424 6.567Zm66.6-42 4.95 4.95c19.161-19.161 33.69-42.24 43.617-69.125l-6.567-2.425-6.566-2.424c-9.273 25.114-22.744 46.435-40.383 64.074l4.949 4.95Zm42-66.6 6.534 2.513c10.358-26.931 15.466-57.203 15.466-90.713h-14c0 32.09-4.891 60.618-14.533 85.687l6.533 2.513Zm15-88.2h7c0-26.574-3.271-51.241-9.878-73.955l-6.722 1.955-6.721 1.955c6.192 21.286 9.321 44.619 9.321 70.045h7Zm-9.6-72 6.722-1.955c-6.594-22.665-16.106-42.97-28.581-60.85l-5.741 4.005-5.741 4.005c11.526 16.52 20.413 35.415 26.62 56.75l6.721-1.955Zm-27.6-58.8 5.741-4.005c-12.472-17.876-27.659-33.064-45.535-45.536l-4.006 5.741-4.005 5.741c16.524 11.528 30.536 25.54 42.064 42.064l5.741-4.005Zm-43.8-43.8 4.006-5.74c-17.893-12.484-38.023-21.807-60.332-28.004l-1.874 6.744-1.873 6.745c20.89 5.803 39.56 14.479 56.068 25.996l4.005-5.74Zm-58.2-27 1.989-6.711c-22.336-6.619-46.817-9.889-73.389-9.889v14c25.428 0 48.548 3.13 69.412 9.312l1.988-6.712Zm-71.4-9.6v-7c-33.09 0-63.129 4.903-90.024 14.833l2.424 6.567 2.425 6.567c25.105-9.27 53.466-13.967 85.175-13.967v-7Zm-87.6 14.4-2.458-6.554c-26.487 9.932-49.349 24.462-68.491 43.604l4.949 4.95 4.95 4.95c17.658-17.658 38.795-31.128 63.508-40.396l-2.458-6.554Zm-66 42-4.949-4.95c-19.141 19.14-33.858 42.189-44.184 69.037l6.533 2.513 6.534 2.513c9.673-25.151 23.357-46.504 41.016-64.163l-4.95-4.95Zm-42.6 66.6-6.566-2.424c-9.934 26.904-14.834 57.145-14.834 90.624h14c0-32.121 4.701-60.679 13.967-85.775l-6.567-2.425Zm-14.4 88.2h-7c0 26.574 3.271 51.241 9.879 73.955l6.721-1.955 6.722-1.955c-6.193-21.286-9.322-44.619-9.322-70.045h-7Zm9.6 72-6.721 1.955c6.593 22.665 16.106 42.97 28.58 60.85l5.741-4.005 5.741-4.005c-11.525-16.52-20.413-35.415-26.619-56.75l-6.722 1.955Zm481.618-286.2v-7h-7v7h7Zm258.597 8.4-2 6.709.09.025.08.023 1.83-6.757Zm48 23.4-4.41 5.433.04.033.04.033 4.33-5.499Zm30 38.4-6.39 2.859 6.39-2.859Zm0 106.2-6.41-2.797-.02.04-.02.041 6.45 2.716Zm-29.4 39 4.33 5.499.06-.04.05-.041-4.44-5.418Zm-49.8 23.4 1.76 6.775-1.76-6.775Zm-247.197 7.8h-7v7h7v-7Zm0-13.2v-7h-7v7h7Zm257.397-12.6-2.58-6.508 2.58 6.508Zm47.4-37.2-5.84-3.85-.04.05-.03.051 5.91 3.749Zm6.6-108-6.4 2.826.03.078.04.077 6.33-2.98Zm-27-34.2-4.35 5.485.05.035.04.035 4.26-5.555Zm-43.8-21-1.88 6.742.02.006.02.005 1.84-6.753Zm-240.597-7.2-5.825-3.883-7.255 10.883h13.08v-7Zm4.8-7.2h7V.683L896.888 19.92l5.825 3.883Zm0 422.4v7h7v-7h-7Zm-15 0h-7v7h7v-7Zm0-428.4v7h194.397v-14H887.713v7Zm194.397 0v7c23.47 0 44.18 2.74 62.2 8.109l2-6.709 2-6.709c-19.57-5.83-41.67-8.69-66.2-8.69v7Zm64.2 8.4-1.83 6.757c18.45 4.996 33.52 12.407 45.42 22.076l4.41-5.433 4.42-5.433c-13.7-11.13-30.63-19.32-50.59-24.724l-1.83 6.757Zm48 23.4-4.33 5.499c12.32 9.706 21.61 21.603 27.94 35.76l6.39-2.859 6.39-2.858c-7.26-16.244-17.97-29.946-32.06-41.04l-4.33 5.498Zm30 38.4-6.39 2.859c6.34 14.155 9.59 30.554 9.59 49.341h14c0-20.413-3.54-38.814-10.81-55.058l-6.39 2.858Zm10.2 52.2h-7c0 19.625-3.27 36.643-9.61 51.203l6.41 2.797 6.42 2.797c7.25-16.639 10.78-35.622 10.78-56.797h-7Zm-10.2 54-6.45-2.716c-5.94 14.112-15.03 26.195-27.38 36.298l4.43 5.418 4.44 5.418c14.05-11.497 24.56-25.413 31.41-41.701l-6.45-2.717Zm-29.4 39-4.33-5.498c-12.29 9.68-27.96 17.112-47.23 22.123l1.76 6.775 1.76 6.775c20.73-5.389 38.26-13.557 52.37-24.676l-4.33-5.499Zm-49.8 23.4-1.76-6.775c-19.28 5.014-42.07 7.575-68.44 7.575v14c27.23 0 51.25-2.639 71.96-8.025l-1.76-6.775Zm-70.2 7.8v-7H897.913v14h176.997v-7Zm-176.997 0h7v-13.2h-14v13.2h7Zm0-13.2v7h177.597v-14H897.913v7Zm177.597 0v7c32.56 0 60.1-4.264 82.38-13.092l-2.58-6.508-2.58-6.508c-20.12 7.972-45.77 12.108-77.22 12.108v7Zm79.8-12.6 2.58 6.508c22.33-8.847 39.41-22.103 50.73-39.959l-5.91-3.749-5.91-3.749c-9.48 14.945-23.99 26.488-44.07 34.441l2.58 6.508Zm47.4-37.2 5.85 3.85c11.72-17.792 17.35-39.614 17.35-65.05h-14c0 23.364-5.16 42.343-15.04 57.35l5.84 3.85Zm16.2-61.2h7c0-18.455-3.36-35.102-10.26-49.78l-6.34 2.98-6.33 2.98c5.89 12.522 8.93 27.076 8.93 43.82h7Zm-9.6-46.8 6.41-2.825c-6.49-14.695-16.23-27.028-29.15-36.93l-4.26 5.555-4.26 5.555c11.09 8.498 19.34 18.965 24.86 31.47l6.4-2.825Zm-27-34.2 4.35-5.484c-12.49-9.908-28-17.276-46.31-22.27l-1.84 6.754-1.84 6.753c16.89 4.608 30.59 11.24 41.29 19.732l4.35-5.485Zm-43.8-21 1.88-6.742c-17.94-5.008-38.4-7.458-61.28-7.458v14c21.92 0 41.07 2.35 57.52 6.943l1.88-6.743Zm-59.4-7.2v-7H897.913v14h181.197v-7Zm-181.197 0 5.824 3.883 4.8-7.2-5.824-3.883-5.825-3.883-4.8 7.2 5.825 3.883Zm4.8-7.2h-7v422.4h14v-422.4h-7Zm0 422.4v-7h-15v14h15v-7Zm-15 0h7v-428.4h-14v428.4h7Zm586.077 0v7h5.56l1.26-5.421-6.82-1.579Zm-109.2 0-6.82-1.591-2.01 8.591h8.83v-7Zm69.6-298.2 4.95-4.95-8.91-8.904-2.86 12.263 6.82 1.591Zm5.4 5.4 3.71 5.936 7.46-4.664-6.22-6.222-4.95 4.95Zm-72 45-6.28 3.093 3.42 6.948 6.57-4.105-3.71-5.936Zm-39.6-80.4-3.52-6.053-5.65 3.282 2.89 5.864 6.28-3.093Zm148.8-86.4v-7h-1.89l-1.63.947 3.52 6.053Zm93 0 6.82 1.58 1.98-8.58h-8.8v7Zm-96 414.6v-7h-109.2v14h109.2v-7Zm-109.2 0 6.81 1.591 69.6-298.2-6.81-1.591-6.82-1.591-69.6 298.2 6.82 1.591Zm69.6-298.2-4.95 4.95 5.4 5.4 4.95-4.95 4.95-4.95-5.4-5.4-4.95 4.95Zm5.4 5.4-3.71-5.936-72 45 3.71 5.936 3.71 5.936 72-45-3.71-5.936Zm-72 45 6.28-3.093-39.6-80.4-6.28 3.093-6.28 3.093 39.6 80.4 6.28-3.093Zm-39.6-80.4 3.51 6.054 148.8-86.4-3.51-6.054-3.52-6.053-148.8 86.4 3.52 6.053Zm148.8-86.4v7h93v-14h-93v7Zm93 0-6.82-1.579-96 414.6 6.82 1.579 6.82 1.579 96-414.6-6.82-1.579Zm-20.4 100.8-6.45-2.734-.02.042-.01.042 6.48 2.65Zm38.4-64.2-5.26-4.619 5.26 4.62Zm48.6-36 2.72 6.449.03-.015.04-.014-2.79-6.42Zm128.4 5.4 4.04-5.715-4.04 5.715Zm34.2 48.6-6.69 2.059 6.69-2.059Zm7.2 73.2-6.99-.399-.01.047v.048l7 .304Zm-12 90 6.84 1.472v-.017l.01-.017-6.85-1.438Zm-28.8 95.4-6.45-2.734-.02.042-.01.042 6.48 2.65Zm-37.8 64.2 5.26 4.619-5.26-4.619Zm-49.2 36.6 2.72 6.449.03-.015.04-.014-2.79-6.42Zm-127.8-6-4.05 5.715 4.05-5.715Zm-34.2-48.6-6.69 2.059 6.69-2.059Zm-7.8-72.6-6.99-.399-.01.047v.048l7 .304Zm12.6-90.6-6.85-1.472v.034l6.85 1.438Zm178.8-72-6.96-.773-.01.118-.01.118 6.98.537Zm-2.4-25.2-6.56 2.458.1.255.11.247 6.35-2.96Zm-33-.6-5.12-4.776-.01.006v.007l5.13 4.763Zm-15.6 33.6-6.69-2.07 6.69 2.07Zm-18.6 75 6.83 1.537v-.027l.01-.026-6.84-1.484Zm-9.6 45.6 6.87 1.336-6.87-1.336Zm-6 37.8-6.96-.773-.01.118-.01.118 6.98.537Zm2.4 25.2-6.56 2.458.1.255.11.247 6.35-2.96Zm33.6.6 5.13 4.763.08-.088.08-.09-5.29-4.585Zm15.6-34.2-6.66-2.167-.02.049-.01.048 6.69 2.07Zm18.6-75-6.84-1.501-.01.04-.01.04 6.86 1.421Zm9.6-45.6 6.86 1.373v-.018l.01-.019-6.87-1.336Zm-145.2-60.6 6.44 2.734c10.99-25.916 23.44-46.621 37.22-62.315l-5.26-4.619-5.26-4.619c-15.02 17.106-28.18 39.201-39.59 66.085l6.45 2.734Zm38.4-64.2 5.26 4.619c13.78-15.7 29.14-27.027 46.06-34.17l-2.72-6.449-2.73-6.449c-19.08 8.057-36.12 20.73-51.13 37.83l5.26 4.62Zm48.6-36 2.79 6.42c17.42-7.575 36.85-11.42 58.41-11.42v-14c-23.25 0-44.62 4.155-64 12.58l2.8 6.42Zm61.2-12v7c27.53 0 48.33 5.633 63.15 16.115l4.05-5.715 4.04-5.715c-17.98-12.717-41.97-18.685-71.24-18.685v7Zm67.2 17.4-4.05 5.715c15.03 10.631 25.57 25.49 31.56 44.944l6.69-2.059 6.69-2.059c-6.82-22.146-19.08-39.687-36.85-52.256l-4.04 5.715Zm34.2 48.6-6.69 2.059c6.09 19.812 8.46 43.344 6.9 70.742l6.99.399 6.98.399c1.64-28.602-.79-53.87-7.49-75.657l-6.69 2.058Zm7.2 73.2-7-.304c-1.18 27.153-5.12 56.769-11.85 88.866l6.85 1.438 6.85 1.438c6.86-32.703 10.92-63.087 12.14-91.134l-6.99-.304Zm-12 90-6.85-1.472c-7.93 36.899-17.42 68.252-28.4 94.138l6.45 2.734 6.44 2.734c11.42-26.914 21.13-59.161 29.2-96.662l-6.84-1.472Zm-28.8 95.4-6.48-2.65c-10.59 25.889-22.83 46.563-36.58 62.232l5.26 4.618 5.26 4.619c15.04-17.132 28.01-39.258 39.01-66.168l-6.47-2.651Zm-37.8 64.2-5.26-4.618c-13.78 15.694-29.36 27.245-46.74 34.799l2.8 6.419 2.79 6.42c19.42-8.447 36.65-21.295 51.67-38.401l-5.26-4.619Zm-49.2 36.6-2.73-6.449c-17.02 7.187-36.27 10.849-57.87 10.849v14c23.2 0 44.34-3.938 63.32-11.951l-2.72-6.449Zm-60.6 11.4v-7c-27.53 0-48.34-5.632-63.16-16.115l-4.04 5.715-4.05 5.715c17.98 12.718 41.98 18.685 71.25 18.685v-7Zm-67.2-17.4 4.04-5.715c-15.03-10.631-25.57-25.49-31.55-44.943l-6.69 2.058-6.69 2.059c6.81 22.146 19.07 39.687 36.84 52.256l4.05-5.715Zm-34.2-48.6 6.69-2.058c-6.11-19.861-8.67-43.231-7.5-70.238l-6.99-.304-7-.304c-1.22 28.194 1.42 53.224 8.11 74.963l6.69-2.059Zm-7.8-72.6 6.98.399c1.58-27.595 5.73-57.444 12.47-89.561l-6.85-1.438-6.85-1.438c-6.86 32.683-11.12 63.234-12.74 91.639l6.99.399Zm12.6-90.6 6.84 1.472c7.94-36.922 17.23-68.305 27.83-94.221l-6.47-2.651-6.48-2.65c-11 26.883-20.51 59.1-28.57 96.578l6.85 1.472Zm178.8-72 6.95.773c1.26-11.343.58-21.244-3.01-28.933l-6.34 2.96-6.35 2.96c2.01 4.311 2.93 11.21 1.79 21.467l6.96.773Zm-2.4-25.2 6.55-2.458c-1.62-4.313-4.24-8.01-8.07-10.566-3.81-2.538-8.25-3.576-12.88-3.576v14c2.56 0 4.12.562 5.11 1.224.97.644 1.95 1.747 2.73 3.834l6.56-2.458Zm-14.4-9.6v-7c-9.14 0-17.09 4.123-23.72 11.224l5.12 4.776 5.11 4.776c4.58-4.898 9.02-6.776 13.49-6.776v-7Zm-18.6 9-5.13-4.763c-6.39 6.874-11.95 19.469-17.16 36.293l6.69 2.07 6.68 2.07c5.2-16.776 10.03-26.581 14.05-30.907l-5.13-4.763Zm-15.6 33.6-6.69-2.07c-5.29 17.097-11.54 42.335-18.76 75.587l6.85 1.483 6.84 1.484c7.19-33.148 13.33-57.911 18.44-74.414l-6.68-2.07Zm-18.6 75-6.83-1.536c-3.62 16.059-6.83 31.326-9.65 45.8l6.88 1.336 6.87 1.336c2.78-14.326 5.97-29.458 9.56-45.399l-6.83-1.537Zm-9.6 45.6-6.88-1.336c-2.82 14.527-4.85 27.322-6.08 38.363l6.96.773 6.95.773c1.18-10.559 3.14-22.963 5.92-37.237l-6.87-1.336Zm-6 37.8-6.98-.537c-.84 10.933-.08 20.471 2.82 28.195l6.56-2.458 6.55-2.458c-1.9-5.075-2.73-12.338-1.97-22.205l-6.98-.537Zm2.4 25.2-6.35 2.96c1.91 4.088 4.74 7.48 8.59 9.793 3.82 2.29 8.18 3.247 12.76 3.247v-14c-2.63 0-4.37-.542-5.55-1.252-1.15-.688-2.22-1.796-3.11-3.708l-6.34 2.96Zm15 9v7c9.27 0 17.29-3.709 23.73-10.637l-5.13-4.763-5.13-4.763c-3.97 4.272-8.35 6.163-13.47 6.163v7Zm18.6-8.4 5.29 4.585c6.23-7.195 11.77-19.846 16.99-36.715l-6.68-2.07-6.69-2.07c-5.18 16.731-10.04 26.881-14.2 31.686l5.29 4.584Zm15.6-34.2 6.65 2.167c5.72-17.569 11.98-42.867 18.8-75.746l-6.85-1.421-6.86-1.421c-6.78 32.721-12.92 57.424-18.4 74.254l6.66 2.167Zm18.6-75 6.83 1.501c3.61-16.435 6.82-31.679 9.63-45.728l-6.86-1.373-6.87-1.373c-2.79 13.951-5.98 29.108-9.57 45.472l6.84 1.501Zm9.6-45.6 6.87 1.336c2.83-14.567 4.68-27.248 5.51-37.999l-6.98-.537-6.98-.537c-.78 10.049-2.53 22.168-5.3 36.401l6.88 1.336Zm140.99-175.2v-7h-9.72l3.08 9.222 6.64-2.222Zm97.2 0 6.72-1.975-1.48-5.025h-5.24v7Zm124.2 422.4v7h9.36l-2.64-8.975-6.72 1.975Zm-57.6 0-6.67-2.133-2.92 9.133h9.59v-7Zm134.4-420v-7h-5.11l-1.56 4.867 6.67 2.133Zm86.4 0 6.67-2.133-1.56-4.867h-5.11v7Zm134.4 420v7h9.59l-2.92-9.133-6.67 2.133Zm-57 0-6.71-1.975-2.64 8.975h9.35v-7Zm124.2-422.4v-7h-5.24l-1.47 5.025 6.71 1.975Zm94.8 0 6.64 2.23 3.1-9.23h-9.74v7Zm-144 428.4v7h5.03l1.61-4.77-6.64-2.23Zm-96 0-6.67 2.134 1.56 4.866h5.11v-7Zm-135-421.8v-7h-9.59l2.92 9.134 6.67-2.134Zm66.6 0 6.67 2.143 2.93-9.143h-9.6v7Zm-135.6 421.8v7h5.1l1.57-4.858-6.67-2.142Zm-93.6 0-6.64 2.222 1.6 4.778h5.04v-7Zm-143.4-428.4v7h97.2v-14h-97.2v7Zm97.2 0-6.71 1.975 124.2 422.4 6.71-1.975 6.72-1.975-124.2-422.4-6.72 1.975Zm124.2 422.4v-7h-57.6v14h57.6v-7Zm-57.6 0 6.67 2.134 134.4-420-6.67-2.134-6.67-2.133-134.4 420 6.67 2.133Zm134.4-420v7h86.4v-14h-86.4v7Zm86.4 0-6.67 2.134 134.4 420 6.67-2.134 6.67-2.133-134.4-420-6.67 2.133Zm134.4 420v-7h-57v14h57v-7Zm-57 0 6.72 1.975 124.2-422.4-6.72-1.975-6.71-1.975-124.2 422.4 6.71 1.975Zm124.2-422.4v7h94.8v-14h-94.8v7Zm94.8 0-6.63-2.23-144 428.4 6.63 2.23 6.64 2.23 144-428.4-6.64-2.23Zm-144 428.4v-7h-96v14h96v-7Zm-96 0 6.67-2.134-135-421.8-6.67 2.134-6.67 2.134 135 421.8 6.67-2.134Zm-135-421.8v7h66.6v-14h-66.6v7Zm66.6 0-6.66-2.142-135.6 421.8 6.66 2.142 6.67 2.142 135.6-421.8-6.67-2.142Zm-135.6 421.8v-7h-93.6v14h93.6v-7Zm-93.6 0 6.64-2.222-143.4-428.4-6.64 2.222-6.64 2.222 143.4 428.4 6.64-2.222Zm529.75-428.4v-7h-7v7h7Zm355.2 0h7v-7h-7v7Zm0 69.6v7h7v-7h-7Zm-312.6 0-5.71-4.043-7.81 11.043h13.52v-7Zm45-63.6h7V1.79l-12.71 17.97 5.71 4.043Zm0 416.4-5.71 4.043 12.71 17.97v-22.013h-7Zm-45-63.6v-7h-13.52l7.81 11.043 5.71-4.043Zm325.8 0 6.92 1.073 1.25-8.073h-8.17v7Zm-10.8 69.6v7h6l.92-5.927-6.92-1.073Zm-357.6 0h-7v7h7v-7Zm42.6-254.4v-7h-7v7h7Zm299.4 0h7v-7h-7v7Zm0 69.6v7h7v-7h-7Zm-299.4 0h-7v7h7v-7Zm-42.6-243.6v7h355.2v-14h-355.2v7Zm355.2 0h-7v69.6h14v-69.6h-7Zm0 69.6v-7h-312.6v14h312.6v-7Zm-312.6 0 5.72 4.043 45-63.6-5.72-4.043-5.71-4.043-45 63.6 5.71 4.043Zm45-63.6h-7v416.4h14v-416.4h-7Zm0 416.4 5.72-4.043-45-63.6-5.72 4.043-5.71 4.043 45 63.6 5.71-4.043Zm-45-63.6v7h325.8v-14h-325.8v7Zm325.8 0-6.91-1.073-10.8 69.6 6.91 1.073 6.92 1.073 10.8-69.6-6.92-1.073Zm-10.8 69.6v-7h-357.6v14h357.6v-7Zm-357.6 0h7v-428.4h-14v428.4h7Zm42.6-254.4v7h299.4v-14h-299.4v7Zm299.4 0h-7v69.6h14v-69.6h-7Zm0 69.6v-7h-299.4v14h299.4v-7Zm-299.4 0h7v-69.6h-14v69.6h7Zm334.82-243.6v-7h-7v7h7Zm355.2 0h7v-7h-7v7Zm0 69.6v7h7v-7h-7Zm-312.6 0-5.72-4.043-7.81 11.043h13.53v-7Zm45-63.6h7V1.79l-12.72 17.97 5.72 4.043Zm0 416.4-5.72 4.043 12.72 17.97v-22.013h-7Zm-45-63.6v-7h-13.53l7.81 11.043 5.72-4.043Zm325.8 0 6.92 1.073 1.25-8.073h-8.17v7Zm-10.8 69.6v7h6l.92-5.927-6.92-1.073Zm-357.6 0h-7v7h7v-7Zm42.6-254.4v-7h-7v7h7Zm299.4 0h7v-7h-7v7Zm0 69.6v7h7v-7h-7Zm-299.4 0h-7v7h7v-7Zm-42.6-243.6v7h355.2v-14h-355.2v7Zm355.2 0h-7v69.6h14v-69.6h-7Zm0 69.6v-7h-312.6v14h312.6v-7Zm-312.6 0 5.71 4.043 45-63.6-5.71-4.043-5.72-4.043-45 63.6 5.72 4.043Zm45-63.6h-7v416.4h14v-416.4h-7Zm0 416.4 5.71-4.043-45-63.6-5.71 4.043-5.72 4.043 45 63.6 5.72-4.043Zm-45-63.6v7h325.8v-14h-325.8v7Zm325.8 0-6.92-1.073-10.8 69.6 6.92 1.073 6.92 1.073 10.8-69.6-6.92-1.073Zm-10.8 69.6v-7h-357.6v14h357.6v-7Zm-357.6 0h7v-428.4h-14v428.4h7Zm42.6-254.4v7h299.4v-14h-299.4v7Zm299.4 0h-7v69.6h14v-69.6h-7Zm0 69.6v-7h-299.4v14h299.4v-7Zm-299.4 0h7v-69.6h-14v69.6h7Zm376.21-9.6-4.58-5.295-2.42 2.094v3.201h7Zm270.6-234v-7h-2.6l-1.98 1.705 4.58 5.295Zm105 0 4.63 5.255 13.92-12.255h-18.55v7Zm-200.4 176.4 4.5 5.363.06-.053.07-.056-4.63-5.254Zm-37.2 31.2-4.5-5.363v.001l4.5 5.362Zm-138 115.8h-7v15.012l11.5-9.65-4.5-5.362Zm47.4 105v7h7v-7h-7Zm-88.8 0h-7v7h7v-7Zm0-428.4v-7h-7v7h7Zm88.8 0h7v-7h-7v7Zm346.2 428.4v7h14.23l-8.68-11.272-5.55 4.272Zm-103.8 0-5.55 4.267 2.11 2.733h3.44v-7Zm-181.8-236.4-4.79-5.1-4.62 4.342 3.86 5.025 5.55-4.267Zm60-56.4 5.55-4.272-4.72-6.117-5.62 5.289 4.79 5.1Zm-168 98.4 4.58 5.295 270.6-234-4.58-5.295-4.58-5.295-270.6 234 4.58 5.295Zm270.6-234v7h105v-14h-105v7Zm105 0-4.62-5.254-200.4 176.4 4.62 5.254 4.63 5.254 200.4-176.4-4.63-5.254Zm-200.4 176.4-4.5-5.363-37.2 31.2 4.5 5.363 4.5 5.363 37.2-31.2-4.5-5.363Zm-37.2 31.2-4.5-5.362-138 115.8 4.5 5.362 4.5 5.362 138-115.8-4.5-5.362Zm-138 115.8h7v-89.4h-14v89.4h7Zm47.4 105v-7h-88.8v14h88.8v-7Zm-88.8 0h7v-428.4h-14v428.4h7Zm0-428.4v7h88.8v-14h-88.8v7Zm88.8 0h-7v428.4h14v-428.4h-7Zm346.2 428.4v-7h-103.8v14h103.8v-7Zm-103.8 0 5.55-4.267-181.8-236.4-5.55 4.267-5.55 4.267 181.8 236.4 5.55-4.267Zm-181.8-236.4 4.8 5.101 60-56.401-4.8-5.1-4.79-5.1-60 56.4 4.79 5.1Zm60-56.4-5.54 4.272 225.6 292.8 5.54-4.272 5.55-4.272-225.6-292.8-5.55 4.272Zm217.24-135.6v-7h-7v7h7Zm88.8 0h7v-7h-7v7Zm0 422.4-5.76 3.987 12.76 18.404v-22.391h-7Zm-47.4-68.4v-7h-13.37l7.61 10.987 5.76-3.987Zm312.6 0 6.91 1.06 1.24-8.06h-8.15v7Zm-11.4 74.4v7h6l.91-5.94-6.91-1.06Zm-342.6 0h-7v7h7v-7Zm0-428.4v7h88.8v-14h-88.8v7Zm88.8 0h-7v422.4h14v-422.4h-7Zm0 422.4 5.75-3.987-47.4-68.4-5.75 3.987-5.76 3.987 47.4 68.4 5.76-3.987Zm-47.4-68.4v7h312.6v-14h-312.6v7Zm312.6 0-6.92-1.06-11.4 74.4 6.92 1.06 6.91 1.06 11.4-74.4-6.91-1.06Zm-11.4 74.4v-7h-342.6v14h342.6v-7Zm-342.6 0h7v-428.4h-14v428.4h7Zm221.65-428.4v-7h-13.55l7.85 11.053 5.7-4.053Zm99.6 0 5.77-3.967-2.09-3.033h-3.68v7Zm162.6 236.4v7h13.31l-7.54-10.967-5.77 3.967Zm-70.2 0-5.76-3.967-7.55 10.967h13.31v-7Zm162.6-236.4v-7h-3.68l-2.08 3.033 5.76 3.967Zm97.2 0 5.7 4.062 7.88-11.062h-13.58v7Zm-196.2 275.4-6.76-1.804 12.46 5.866-5.7-4.062Zm14.4-54h7l-13.76-1.804 6.76 1.804Zm0 207v7h7v-7h-7Zm-88.8 0h-7v7h7v-7Zm0-207 6.77-1.804-13.77 1.804h7Zm14.4 54-5.7 4.053 12.47-5.857-6.77 1.804Zm-195.6-275.4v7h99.6v-14h-99.6v7Zm99.6 0-5.76 3.967 162.6 236.4 5.76-3.967 5.77-3.967-162.6-236.4-5.77 3.967Zm162.6 236.4v-7h-70.2v14h70.2v-7Zm-70.2 0 5.77 3.967 162.6-236.4-5.77-3.967-5.76-3.967-162.6 236.4 5.76 3.967Zm162.6-236.4v7h97.2v-14h-97.2v7Zm97.2 0-5.7-4.062-196.2 275.4 5.7 4.062 5.7 4.062 196.2-275.4-5.7-4.062Zm-196.2 275.4 6.77 1.804 14.4-54-6.77-1.804-6.76-1.804-14.4 54 6.76 1.804Zm14.4-54h-7v207h14v-207h-7Zm0 207v-7h-88.8v14h88.8v-7Zm-88.8 0h7v-207h-14v207h7Zm0-207-6.76 1.804 14.4 54 6.76-1.804 6.77-1.804-14.4-54-6.77 1.804Zm14.4 54 5.71-4.053-195.6-275.4-5.71 4.053-5.7 4.053 195.6 275.4 5.7-4.053Z" mask="url(#c)"/><defs><radialGradient id="a" cx="0" cy="0" r="1" gradientTransform="matrix(0 232 -20209.8 0 2182.658 232)" gradientUnits="userSpaceOnUse"><stop stop-color="#fff"/><stop offset="1" stop-color="#fff" stop-opacity="0"/></radialGradient><radialGradient id="b" cx="0" cy="0" r="1" gradientTransform="matrix(0 232 -15003.5 0 2175.508 232.232)" gradientUnits="userSpaceOnUse"><stop stop-color="#fff" stop-opacity="0"/><stop offset="1" stop-color="#fff"/></radialGradient></defs></svg>