<svg xmlns="http://www.w3.org/2000/svg" width="2274" height="991" fill="none"><mask id="a" width="2274" height="991" x="-.703" y="-.803" fill="#000" maskUnits="userSpaceOnUse"><path fill="#fff" d="M-.703-.803h2274v991h-2274z"/><path d="M573.465 386.399 712.802 244.73c12.826-13.214 22.154-24.486 27.984-33.814 5.83-9.328 8.745-19.627 8.745-30.899 0-12.826-4.081-22.931-12.243-30.316-8.162-7.384-19.433-11.077-33.814-11.077-15.546 0-27.595 4.859-36.146 14.575-8.55 9.717-12.826 23.126-12.826 40.227h-80.454c0-39.644 11.66-71.126 34.98-94.446C632.348 75.66 664.219 64 704.64 64c38.867 0 69.377 10.494 91.531 31.482 22.543 20.988 33.814 49.167 33.814 84.535 0 20.988-5.052 40.227-15.158 57.717-9.716 17.102-25.846 36.924-48.389 59.466l-71.709 73.458h144.584v77.539H573.465v-61.798Zm420.922 67.045c-29.15 0-54.608-5.83-76.373-17.49-21.766-12.048-38.673-28.372-50.721-48.972-11.66-20.988-17.49-44.696-17.49-71.126V202.754c0-26.818 5.83-50.721 17.49-71.709 12.048-20.988 28.955-37.312 50.721-48.972C939.779 70.025 965.237 64 994.387 64c29.153 0 54.603 6.025 76.373 18.073 21.77 11.66 38.48 27.984 50.14 48.972 12.05 20.988 18.07 44.891 18.07 71.709v113.102c0 26.43-6.02 50.138-18.07 71.126-11.66 20.6-28.37 36.924-50.14 48.972-21.77 11.66-47.22 17.49-76.373 17.49Zm-61.798-145.167c0 20.988 5.441 37.312 16.324 48.972 11.271 11.272 26.429 16.907 45.474 16.907 18.653 0 33.423-5.635 44.303-16.907 11.28-11.66 16.91-27.984 16.91-48.972v-97.944c0-21.765-5.63-38.283-16.91-49.555-10.88-11.66-25.65-17.49-44.303-17.49-19.045 0-34.203 5.83-45.474 17.49-10.883 11.272-16.324 27.79-16.324 49.555v97.944Zm213.151 78.122 139.34-141.669c12.82-13.214 22.15-24.486 27.98-33.814 5.83-9.328 8.74-19.627 8.74-30.899 0-12.826-4.08-22.931-12.24-30.316-8.16-7.384-19.43-11.077-33.81-11.077-15.55 0-27.6 4.859-36.15 14.575-8.55 9.717-12.82 23.126-12.82 40.227h-80.46c0-39.644 11.66-71.126 34.98-94.446 23.32-23.32 55.19-34.98 95.61-34.98 38.87 0 69.38 10.494 91.53 31.482 22.55 20.988 33.82 49.167 33.82 84.535 0 20.988-5.05 40.227-15.16 57.717-9.72 17.102-25.85 36.924-48.39 59.466L1267 370.658h144.59v77.539h-265.85v-61.798Zm410.43 67.045c-26.43 0-50.72-5.83-72.88-17.49-21.76-11.66-39.06-27.789-51.89-48.389-12.82-20.599-19.23-43.725-19.23-69.377 0-35.757 10.49-73.652 31.48-113.685 25.65-49.36 58.3-94.251 97.94-134.673h100.28c-22.55 20.21-43.14 41.782-61.8 64.713-18.27 22.932-33.43 45.863-45.47 68.794 12.43-6.607 26.81-9.911 43.14-9.911 21.76 0 41.97 5.636 60.63 16.907 19.04 10.883 34.2 26.041 45.47 45.474 11.66 19.045 17.49 40.033 17.49 62.964 0 25.264-6.41 48.195-19.24 68.794-12.43 20.6-29.73 36.729-51.88 48.389-22.16 11.66-46.84 17.49-74.04 17.49ZM1493.2 320.52c0 17.102 6.03 31.482 18.08 43.142 12.04 11.272 27.01 16.907 44.89 16.907 18.65 0 34-5.635 46.05-16.907 12.05-11.66 18.08-26.04 18.08-43.142 0-17.101-6.42-31.482-19.24-43.142-12.44-11.66-27.4-17.49-44.89-17.49-17.49 0-32.46 5.83-44.89 17.49-12.05 11.66-18.08 26.041-18.08 43.142ZM64.003 547.83h141.669c26.818 0 50.721 5.636 71.709 16.907 20.988 10.883 37.312 26.235 48.972 46.057 11.66 19.434 17.49 41.588 17.49 66.462 0 24.098-5.83 46.057-17.49 65.879-11.271 19.822-27.401 35.563-48.389 47.223-20.988 11.272-44.891 16.907-71.709 16.907h-58.883v118.932H64.003V547.83Zm139.92 187.726c17.49 0 31.482-5.441 41.976-16.324 10.883-10.882 16.324-24.68 16.324-41.393 0-17.49-5.247-31.482-15.741-41.976s-24.68-15.741-42.559-15.741h-56.551v115.434h56.551ZM350.994 547.83h134.673c31.482 0 57.717 5.442 78.705 16.324 21.376 10.494 37.117 24.875 47.223 43.142 10.494 18.268 15.741 38.673 15.741 61.215 0 23.709-5.636 45.474-16.907 65.296-10.883 19.434-27.207 34.203-48.972 44.308 31.093 43.92 57.717 93.28 79.871 148.082h-93.28c-17.102-47.417-39.644-92.502-67.628-135.256h-46.057v135.256h-83.369V547.83Zm136.422 176.066c19.822 0 34.785-4.664 44.891-13.992 10.105-9.328 15.158-22.348 15.158-39.061 0-16.712-5.053-29.733-15.158-39.061-10.106-9.328-25.069-13.992-44.891-13.992h-53.053v106.106h53.053ZM651.649 547.83h240.779v72.292h-157.41v79.288h142.835v71.126H735.018v83.369h159.159v72.292H651.649V547.83Zm369.091 378.367C965.159 810.375 918.713 684.252 881.401 547.83H970.6c24.875 108.438 58.69 210.075 101.44 304.909 43.14-97.555 76.96-199.191 101.44-304.909h89.2c-38.09 137.2-84.73 263.322-139.92 378.367h-102.02Zm242.47-378.367h83.37v378.367h-83.37V547.83Zm121.88 0h240.78v72.292h-157.41v79.288h142.83v71.126h-142.83v83.369h159.16v72.292h-242.53V547.83Zm341.74 378.367c-45.47-116.6-83.56-242.722-114.27-378.367h88.04c18.27 107.272 43.33 203.856 75.2 289.751l82.21-289.751h90.36l81.62 289.751c31.48-85.506 56.55-182.09 75.21-289.751h87.45c-31.48 135.645-69.57 261.767-114.27 378.367h-98.53l-76.95-261.184-77.54 261.184h-98.53Z"/></mask><path fill="#fff" d="M573.465 386.399 712.802 244.73c12.826-13.214 22.154-24.486 27.984-33.814 5.83-9.328 8.745-19.627 8.745-30.899 0-12.826-4.081-22.931-12.243-30.316-8.162-7.384-19.433-11.077-33.814-11.077-15.546 0-27.595 4.859-36.146 14.575-8.55 9.717-12.826 23.126-12.826 40.227h-80.454c0-39.644 11.66-71.126 34.98-94.446C632.348 75.66 664.219 64 704.64 64c38.867 0 69.377 10.494 91.531 31.482 22.543 20.988 33.814 49.167 33.814 84.535 0 20.988-5.052 40.227-15.158 57.717-9.716 17.102-25.846 36.924-48.389 59.466l-71.709 73.458h144.584v77.539H573.465v-61.798Zm420.922 67.045c-29.15 0-54.608-5.83-76.373-17.49-21.766-12.048-38.673-28.372-50.721-48.972-11.66-20.988-17.49-44.696-17.49-71.126V202.754c0-26.818 5.83-50.721 17.49-71.709 12.048-20.988 28.955-37.312 50.721-48.972C939.779 70.025 965.237 64 994.387 64c29.153 0 54.603 6.025 76.373 18.073 21.77 11.66 38.48 27.984 50.14 48.972 12.05 20.988 18.07 44.891 18.07 71.709v113.102c0 26.43-6.02 50.138-18.07 71.126-11.66 20.6-28.37 36.924-50.14 48.972-21.77 11.66-47.22 17.49-76.373 17.49Zm-61.798-145.167c0 20.988 5.441 37.312 16.324 48.972 11.271 11.272 26.429 16.907 45.474 16.907 18.653 0 33.423-5.635 44.303-16.907 11.28-11.66 16.91-27.984 16.91-48.972v-97.944c0-21.765-5.63-38.283-16.91-49.555-10.88-11.66-25.65-17.49-44.303-17.49-19.045 0-34.203 5.83-45.474 17.49-10.883 11.272-16.324 27.79-16.324 49.555v97.944Zm213.151 78.122 139.34-141.669c12.82-13.214 22.15-24.486 27.98-33.814 5.83-9.328 8.74-19.627 8.74-30.899 0-12.826-4.08-22.931-12.24-30.316-8.16-7.384-19.43-11.077-33.81-11.077-15.55 0-27.6 4.859-36.15 14.575-8.55 9.717-12.82 23.126-12.82 40.227h-80.46c0-39.644 11.66-71.126 34.98-94.446 23.32-23.32 55.19-34.98 95.61-34.98 38.87 0 69.38 10.494 91.53 31.482 22.55 20.988 33.82 49.167 33.82 84.535 0 20.988-5.05 40.227-15.16 57.717-9.72 17.102-25.85 36.924-48.39 59.466L1267 370.658h144.59v77.539h-265.85v-61.798Zm410.43 67.045c-26.43 0-50.72-5.83-72.88-17.49-21.76-11.66-39.06-27.789-51.89-48.389-12.82-20.599-19.23-43.725-19.23-69.377 0-35.757 10.49-73.652 31.48-113.685 25.65-49.36 58.3-94.251 97.94-134.673h100.28c-22.55 20.21-43.14 41.782-61.8 64.713-18.27 22.932-33.43 45.863-45.47 68.794 12.43-6.607 26.81-9.911 43.14-9.911 21.76 0 41.97 5.636 60.63 16.907 19.04 10.883 34.2 26.041 45.47 45.474 11.66 19.045 17.49 40.033 17.49 62.964 0 25.264-6.41 48.195-19.24 68.794-12.43 20.6-29.73 36.729-51.88 48.389-22.16 11.66-46.84 17.49-74.04 17.49ZM1493.2 320.52c0 17.102 6.03 31.482 18.08 43.142 12.04 11.272 27.01 16.907 44.89 16.907 18.65 0 34-5.635 46.05-16.907 12.05-11.66 18.08-26.04 18.08-43.142 0-17.101-6.42-31.482-19.24-43.142-12.44-11.66-27.4-17.49-44.89-17.49-17.49 0-32.46 5.83-44.89 17.49-12.05 11.66-18.08 26.041-18.08 43.142ZM64.003 547.83h141.669c26.818 0 50.721 5.636 71.709 16.907 20.988 10.883 37.312 26.235 48.972 46.057 11.66 19.434 17.49 41.588 17.49 66.462 0 24.098-5.83 46.057-17.49 65.879-11.271 19.822-27.401 35.563-48.389 47.223-20.988 11.272-44.891 16.907-71.709 16.907h-58.883v118.932H64.003V547.83Zm139.92 187.726c17.49 0 31.482-5.441 41.976-16.324 10.883-10.882 16.324-24.68 16.324-41.393 0-17.49-5.247-31.482-15.741-41.976s-24.68-15.741-42.559-15.741h-56.551v115.434h56.551ZM350.994 547.83h134.673c31.482 0 57.717 5.442 78.705 16.324 21.376 10.494 37.117 24.875 47.223 43.142 10.494 18.268 15.741 38.673 15.741 61.215 0 23.709-5.636 45.474-16.907 65.296-10.883 19.434-27.207 34.203-48.972 44.308 31.093 43.92 57.717 93.28 79.871 148.082h-93.28c-17.102-47.417-39.644-92.502-67.628-135.256h-46.057v135.256h-83.369V547.83Zm136.422 176.066c19.822 0 34.785-4.664 44.891-13.992 10.105-9.328 15.158-22.348 15.158-39.061 0-16.712-5.053-29.733-15.158-39.061-10.106-9.328-25.069-13.992-44.891-13.992h-53.053v106.106h53.053ZM651.649 547.83h240.779v72.292h-157.41v79.288h142.835v71.126H735.018v83.369h159.159v72.292H651.649V547.83Zm369.091 378.367C965.159 810.375 918.713 684.252 881.401 547.83H970.6c24.875 108.438 58.69 210.075 101.44 304.909 43.14-97.555 76.96-199.191 101.44-304.909h89.2c-38.09 137.2-84.73 263.322-139.92 378.367h-102.02Zm242.47-378.367h83.37v378.367h-83.37V547.83Zm121.88 0h240.78v72.292h-157.41v79.288h142.83v71.126h-142.83v83.369h159.16v72.292h-242.53V547.83Zm341.74 378.367c-45.47-116.6-83.56-242.722-114.27-378.367h88.04c18.27 107.272 43.33 203.856 75.2 289.751l82.21-289.751h90.36l81.62 289.751c31.48-85.506 56.55-182.09 75.21-289.751h87.45c-31.48 135.645-69.57 261.767-114.27 378.367h-98.53l-76.95-261.184-77.54 261.184h-98.53Z"/><path fill="#000" d="m573.465 386.399-45.629-44.877-18.371 18.678v26.199h64ZM712.802 244.73l45.629 44.878.149-.151.147-.152-45.925-44.575Zm27.984-33.814 54.272 33.92-54.272-33.92Zm-3.498-61.215L694.35 197.16l42.938-47.459Zm-69.96 3.498-48.045-42.28 48.045 42.28Zm-12.826 40.227v64h64v-64h-64Zm-80.454 0h-64v64h64v-64Zm34.98-94.446 45.255 45.255-45.255-45.255Zm187.143-3.498-44.015 46.461.201.191.203.189 43.611-46.84Zm18.656 142.252-55.415-32.018-.116.201-.114.201 55.645 31.616ZM766.438 297.2l-45.255-45.255-.272.273-.269.276 45.796 44.706Zm-71.709 73.458-45.797-44.706 45.797 108.706v-64Zm144.584 0h64v-64h-64v64Zm0 77.539v64h64v-64h-64Zm-265.848 0h-64v64h64v-64Zm0-61.798 45.629 44.878 139.337-141.669-45.629-44.878-45.629-44.877-139.337 141.669 45.629 44.877ZM712.802 244.73l45.925 44.575c14.174-14.603 27.038-29.6 36.331-44.469l-54.272-33.92-54.272-33.92c-2.367 3.788-8.158 11.334-19.637 23.16l45.925 44.574Zm27.984-33.814 54.272 33.92c12.351-19.761 18.473-41.865 18.473-64.819h-128c0 .055.003-.436.233-1.25a7.223 7.223 0 0 1 .75-1.771l54.272 33.92Zm8.745-30.899h64c0-27.629-9.478-56.217-33.304-77.774l-42.939 47.458-42.938 47.459c-3.019-2.731-5.604-6.366-7.223-10.376-1.528-3.783-1.596-6.394-1.596-6.767h64Zm-12.243-30.316 42.939-47.458c-23.166-20.96-51.489-27.619-76.753-27.619v128c1.811 0 1.309.242-.684-.411-2.218-.726-5.367-2.273-8.44-5.053l42.938-47.459Zm-33.814-11.077v-64c-29.897 0-61.053 10.002-84.191 36.295l48.045 42.28 48.046 42.28c-2.346 2.666-5.463 4.855-8.662 6.145-2.92 1.178-4.387 1-3.238 1v-64Zm-36.146 14.575-48.045-42.28c-21.759 24.725-28.781 54.927-28.781 82.507h128c0-3.32.426-4.205.182-3.441-.131.413-.428 1.205-.999 2.235a18.69 18.69 0 0 1-2.311 3.259l-48.046-42.28Zm-12.826 40.227v-64h-80.454v128h80.454v-64Zm-80.454 0h64c0-26.339 7.284-40.24 16.235-49.191L609.028 98.98l-45.255-45.255c-37.689 37.69-53.725 86.753-53.725 139.701h64Zm34.98-94.446 45.255 45.255C662.999 135.519 677.121 128 704.64 128V0c-53.323 0-102.943 15.802-140.867 53.725l45.255 45.255ZM704.64 64v64c27.156 0 40.251 7.061 47.516 13.943l44.015-46.46 44.016-46.462C803.143 13.927 755.218.001 704.64.001v64Zm91.531 31.482-43.611 46.841c7.564 7.043 13.425 17.201 13.425 37.694h128c0-50.243-16.681-96.442-54.203-131.376l-43.611 46.841Zm33.814 84.535h-64c0 10.205-2.316 18.332-6.573 25.699l55.415 32.018 55.416 32.018c15.953-27.612 23.742-57.963 23.742-89.735h-64Zm-15.158 57.717-55.645-31.616c-5.68 9.997-17.336 25.165-37.999 45.827l45.255 45.255 45.255 45.255c24.423-24.423 45.027-48.899 58.779-73.104l-55.645-31.617ZM766.438 297.2l-45.796-44.706-71.71 73.458 45.797 44.706 45.797 44.707 71.709-73.458-45.797-44.707Zm-71.709 73.458v64h144.584v-128H694.729v64Zm144.584 0h-64v77.539h128v-77.539h-64Zm0 77.539v-64H573.465v128h265.848v-64Zm-265.848 0h64v-61.798h-128v61.798h64Zm344.549-12.243-30.997 55.993.386.214.389.208 30.222-56.415Zm-50.721-48.972-55.946 31.081.344.62.358.612 55.244-32.313Zm0-255.937-55.505-31.863-.223.39-.218.392 55.946 31.081Zm50.721-48.972 30.222 56.415.388-.208.386-.214-30.996-55.993Zm152.746 0-31 55.993.39.214.39.208 30.22-56.415Zm50.14 48.972-55.95 31.081.22.393.22.39 55.51-31.864Zm0 255.937-55.51-31.863-.09.168-.1.169 55.7 31.526Zm-50.14 48.972 30.22 56.415.39-.208.39-.214-31-55.993Zm-121.847-78.705-46.788 43.669.753.806.78.78 45.255-45.255Zm89.777 0-46.011-44.481-.013.014-.013.013 46.037 44.454Zm0-196.471-46.783 43.669.753.806.78.78 45.25-45.255Zm-89.777 0-46.016-44.481-.013.014-.013.013 46.042 44.454Zm45.474 292.666v-64c-20.509 0-35.226-4.052-46.151-9.904l-30.222 56.414-30.222 56.415c32.605 17.467 68.803 25.075 106.595 25.075v-64Zm-76.373-17.49 30.996-55.993c-12.148-6.725-20.485-15.053-26.473-25.291l-55.244 32.312-55.244 32.313c18.108 30.96 43.586 55.28 74.968 72.652l30.997-55.993Zm-50.721-48.972 55.946-31.081c-5.859-10.545-9.436-23.37-9.436-40.045h-128c0 36.184 8.082 70.777 25.544 102.207l55.946-31.081Zm-17.49-71.126h64V202.754h-128v113.102h64Zm0-113.102h64c0-17.238 3.654-30.22 9.436-40.628l-55.946-31.081-55.946-31.08c-17.538 31.568-25.544 66.392-25.544 102.789h64Zm17.49-71.709 55.504 31.864c5.958-10.379 14.006-18.296 25.439-24.421l-30.222-56.415-30.222-56.414c-32.098 17.195-57.865 41.926-76.004 73.523l55.505 31.863Zm50.721-48.972 30.996 55.993C959.776 132.107 974.209 128 994.387 128V0c-38.123 0-74.605 7.942-107.37 26.08l30.997 55.993ZM994.387 64v64c20.173 0 34.613 4.107 45.373 10.066l31-55.993 31-55.993C1068.99 7.942 1032.51 0 994.387 0v64Zm76.373 18.073-30.22 56.415c11.26 6.033 18.89 13.707 24.41 23.638l55.95-31.081 55.94-31.08c-17.8-32.045-43.59-57.02-75.86-74.306l-30.22 56.414Zm50.14 48.972-55.51 31.864c5.9 10.27 9.58 22.969 9.58 39.845h128c0-36.76-8.37-71.867-26.57-103.572l-55.5 31.863Zm18.07 71.709h-64v113.102h128V202.754h-64Zm0 113.102h-64c0 16.308-3.6 28.851-9.58 39.263l55.51 31.863 55.5 31.864c18.12-31.564 26.57-66.439 26.57-102.99h-64Zm-18.07 71.126-55.7-31.526c-5.54 9.786-13.45 17.872-25.44 24.505l31 55.993 31 55.993c31.54-17.463 57.05-42.026 74.83-73.438l-55.69-31.527Zm-50.14 48.972-30.22-56.414c-10.93 5.852-25.64 9.904-46.153 9.904v128c37.793 0 73.993-7.608 106.593-25.075l-30.22-56.415ZM932.589 308.277h-64c0 31.939 8.462 65.775 33.536 92.641l46.788-43.669 46.787-43.668a10.33 10.33 0 0 1 1.353 1.801c.312.535.386.8.332.641-.128-.384-.796-2.673-.796-7.746h-64Zm16.324 48.972-45.255 45.255c25.566 25.566 58.253 35.652 90.729 35.652v-128c-3.233 0-4.05-.475-3.349-.215.345.129.898.379 1.545.793.65.415 1.189.865 1.584 1.26l-45.254 45.255Zm45.474 16.907v64c32.443 0 65.133-10.334 90.353-36.453l-46.05-44.454-46.037-44.454a11.513 11.513 0 0 1 1.931-1.586 10.85 10.85 0 0 1 2.055-1.074c1.085-.414.653.021-2.252.021v64Zm44.303-16.907 46.02 44.482c25.91-26.801 34.89-60.938 34.89-93.454H991.602c0 4.865-.663 6.924-.723 7.099-.021.06.09-.272.434-.842.351-.581.818-1.199 1.366-1.766l46.011 44.481Zm16.91-48.972h64v-97.944H991.602v97.944h63.998Zm0-97.944h64c0-32.385-8.53-67.687-35.65-94.81l-45.26 45.255-45.25 45.255a13.894 13.894 0 0 1-2.025-2.553c-.472-.777-.628-1.241-.612-1.194.067.195.799 2.53.799 8.047h63.998Zm-16.91-49.555 46.79-43.668c-25.06-26.849-57.98-37.822-91.093-37.822v128c2.666 0 2.854.41 1.57-.097a11.489 11.489 0 0 1-2.207-1.186 11.145 11.145 0 0 1-1.843-1.558l46.783-43.669Zm-44.303-17.49v-64c-33.118 0-66.057 10.7-91.49 37.009l46.016 44.481 46.015 44.482c-.338.349-.85.799-1.514 1.238a9.1 9.1 0 0 1-1.705.897c-.9.346-.321-.107 2.678-.107v-64Zm-45.474 17.49-46.042-44.454c-26.259 27.197-34.282 62.194-34.282 94.009h128c0-5.715.733-8.28.868-8.689.049-.15-.067.245-.502.987a14.123 14.123 0 0 1-2.001 2.601l-46.041-44.454Zm-16.324 49.555h-64v97.944h128v-97.944h-64Zm213.151 176.066-45.63-44.877-18.37 18.678v26.199h64Zm139.34-141.669 45.62 44.878.15-.151.15-.152-45.92-44.575Zm27.98-33.814 54.27 33.92-54.27-33.92Zm-3.5-61.215-42.94 47.459 42.94-47.459Zm-69.96 3.498-48.04-42.28 48.04 42.28Zm-12.82 40.227v64h64v-64h-64Zm-80.46 0h-64v64h64v-64Zm34.98-94.446 45.26 45.255-45.26-45.255Zm187.14-3.498-44.01 46.461.2.191.2.189 43.61-46.84Zm18.66 142.252-55.41-32.018-.12.201-.11.201 55.64 31.616Zm-48.39 59.466-45.25-45.255-.28.273-.26.276 45.79 44.706ZM1267 370.658l-45.79-44.706L1267 434.658v-64Zm144.59 0h64v-64h-64v64Zm0 77.539v64h64v-64h-64Zm-265.85 0h-64v64h64v-64Zm0-61.798 45.63 44.878 139.33-141.669-45.62-44.878-45.63-44.877-139.34 141.669 45.63 44.877Zm139.34-141.669 45.92 44.575c14.17-14.603 27.04-29.6 36.33-44.469l-54.27-33.92-54.27-33.92c-2.37 3.788-8.16 11.334-19.64 23.16l45.93 44.574Zm27.98-33.814 54.27 33.92c12.35-19.761 18.47-41.865 18.47-64.819h-128c0 .055.01-.436.24-1.25.23-.825.55-1.453.75-1.771l54.27 33.92Zm8.74-30.899h64c0-27.629-9.47-56.217-33.3-77.774l-42.94 47.458-42.94 47.459c-3.02-2.731-5.6-6.366-7.22-10.376-1.53-3.783-1.6-6.394-1.6-6.767h64Zm-12.24-30.316 42.94-47.458c-23.17-20.96-51.49-27.619-76.75-27.619v128c1.81 0 1.31.242-.69-.411-2.21-.726-5.36-2.273-8.44-5.053l42.94-47.459Zm-33.81-11.077v-64c-29.9 0-61.06 10.002-84.19 36.295l48.04 42.28 48.05 42.28c-2.35 2.666-5.47 4.855-8.66 6.145-2.92 1.178-4.39 1-3.24 1v-64Zm-36.15 14.575-48.04-42.28c-21.76 24.725-28.78 54.927-28.78 82.507h128c0-3.32.42-4.205.18-3.441-.13.413-.43 1.205-1 2.235a19.007 19.007 0 0 1-2.31 3.259l-48.05-42.28Zm-12.82 40.227v-64h-80.46v128h80.46v-64Zm-80.46 0h64c0-26.339 7.29-40.24 16.24-49.191L1181.3 98.98l-45.25-45.255c-37.69 37.69-53.73 86.753-53.73 139.701h64Zm34.98-94.446 45.26 45.255c8.71-8.716 22.83-16.235 50.35-16.235V0c-53.32 0-102.94 15.802-140.86 53.725l45.25 45.255ZM1276.91 64v64c27.16 0 40.25 7.061 47.52 13.943l44.01-46.46 44.02-46.462c-37.04-35.094-84.97-49.02-135.55-49.02v64Zm91.53 31.482-43.61 46.841c7.57 7.043 13.43 17.201 13.43 37.694h128c0-50.243-16.68-96.442-54.2-131.376l-43.62 46.841Zm33.82 84.535h-64c0 10.205-2.32 18.332-6.57 25.699l55.41 32.018 55.42 32.018c15.95-27.612 23.74-57.963 23.74-89.735h-64Zm-15.16 57.717-55.64-31.616c-5.68 9.997-17.34 25.165-38 45.827l45.25 45.255 45.26 45.255c24.42-24.423 45.02-48.899 58.78-73.104l-55.65-31.617Zm-48.39 59.466-45.79-44.706-71.71 73.458 45.79 44.706 45.8 44.707 71.71-73.458-45.8-44.707ZM1267 370.658v64h144.59v-128H1267v64Zm144.59 0h-64v77.539h128v-77.539h-64Zm0 77.539v-64h-265.85v128h265.85v-64Zm-265.85 0h64v-61.798h-128v61.798h64Zm337.55-12.243-30.22 56.415.21.111.2.109 29.81-56.635Zm-51.89-48.389-54.32 33.828 54.32-33.828Zm12.25-183.062 56.68 29.717.05-.102.06-.102-56.79-29.513Zm97.94-134.673v-64h-26.87l-18.82 19.187 45.69 44.813Zm100.28 0 42.72 47.653L1641.87 5.83v64Zm-61.8 64.713-49.65-40.39-.2.256-.21.257 50.06 39.877Zm-45.47 68.794-56.66-29.768 86.68 86.288-30.02-56.52Zm103.77 6.996-33.1 54.779.67.403.68.386 31.75-55.568Zm45.47 45.474-55.36 32.11.38.659.4.649 54.58-33.418Zm-1.75 131.758-54.32-33.828-.24.373-.22.376 54.78 33.079Zm-51.88 48.389-29.81-56.635 29.81 56.635Zm-118.93-72.292-44.51 45.991.39.377.39.37 43.73-46.738Zm90.94 0 43.73 46.738.39-.37.39-.377-44.51-45.991Zm-1.16-86.284-43.77 46.691.35.335.37.33 43.05-47.356Zm-89.78 0-43.78-46.69-.37.347-.36.353 44.51 45.99Zm44.89 176.066v-64c-16.64 0-30.62-3.572-43.07-10.125l-29.81 56.635-29.81 56.635c31.86 16.768 66.47 24.855 102.69 24.855v-64Zm-72.88-17.49 30.22-56.414c-12.07-6.468-20.98-14.886-27.78-25.802l-54.33 33.827-54.32 33.828c18.85 30.282 44.53 54.124 75.99 70.976l30.22-56.415Zm-51.89-48.389 54.33-33.827c-6.13-9.859-9.56-21.141-9.56-35.55h-128c0 36.896 9.39 71.865 28.91 103.205l54.32-33.828Zm-19.23-69.377h64c0-23.029 6.74-50.738 24.16-83.968l-56.68-29.717-56.68-29.717c-24.56 46.836-38.8 94.917-38.8 143.402h64Zm31.48-113.685 56.79 29.513c22.68-43.639 51.56-83.393 86.84-119.372l-45.69-44.814-45.69-44.813c-44 44.863-80.42 94.891-109.04 149.974l56.79 29.512Zm97.94-134.673v64h100.28v-128h-100.28v64Zm100.28 0-42.73-47.652c-24.97 22.393-47.9 46.384-68.72 71.976l49.65 40.389 49.64 40.39c16.5-20.271 34.77-39.422 54.88-57.45l-42.72-47.653Zm-61.8 64.713-50.06-39.877c-20.46 25.681-37.92 51.971-52.07 78.903l56.66 29.768 56.65 29.768c9.95-18.93 22.8-38.503 38.88-58.685l-50.06-39.877Zm-45.47 68.794 30.02 56.52c1.82-.966 5.59-2.431 13.12-2.431v-128c-25.12 0-50.11 5.143-73.17 17.392l30.03 56.519Zm43.14-9.911v64c10.08 0 18.85 2.438 27.53 7.686l33.1-54.779 33.09-54.778c-28.62-17.295-60.27-26.129-93.72-26.129v64Zm60.63 16.907-31.75 55.568c9 5.142 16.11 12.1 21.86 22.016l55.36-32.11 55.37-32.11c-16.8-28.95-40-52.308-69.09-68.931l-31.75 55.567Zm45.47 45.474-54.58 33.418c5.33 8.705 8.07 18.075 8.07 29.546h128c0-34.392-8.91-66.997-26.9-96.382l-54.59 33.418Zm17.49 62.964h-64c0 13.822-3.33 24.948-9.56 34.966l54.32 33.828 54.33 33.828c19.42-31.18 28.91-65.916 28.91-102.622h-64Zm-19.24 68.794-54.78-33.079c-6.17 10.205-14.64 18.374-26.91 24.833l29.81 56.635 29.81 56.635c32.03-16.86 58.15-40.95 76.86-71.944l-54.79-33.08Zm-51.88 48.389-29.81-56.635c-12.18 6.411-26.49 10.125-44.23 10.125v128c36.67 0 71.72-7.946 103.85-24.855l-29.81-56.635ZM1493.2 320.52h-64c0 34.049 12.78 65.147 37.57 89.133l44.51-45.991 44.5-45.99c-.19-.185-.08-.113.17.245.25.367.55.877.8 1.486a7.9 7.9 0 0 1 .44 1.404c.06.285.01.22.01-.287h-64Zm18.08 43.142-43.73 46.738c24.95 23.336 55.98 34.169 88.62 34.169v-128c-1.11 0-1.76-.086-2.04-.134-.27-.047-.25-.067-.04.014.22.084.48.211.72.36.24.147.3.221.19.116l-43.72 46.737Zm44.89 16.907v64c32.6 0 64.3-10.335 89.78-34.169l-43.73-46.738-43.72-46.737.03-.029c.03-.019.06-.045.1-.077.09-.066.2-.145.33-.226.29-.176.53-.284.66-.33.31-.113-.6.306-3.45.306v64Zm46.05-16.907 44.51 45.991c24.79-23.986 37.57-55.084 37.57-89.133h-128c0 .507-.05.572.01.287.05-.297.18-.797.44-1.404.25-.609.55-1.119.8-1.487.25-.357.36-.429.17-.244l44.5 45.99Zm18.08-43.142h64c0-35.411-14.23-66.897-40.19-90.498l-43.05 47.356-43.05 47.356c.31.288.25.281-.01-.07a8.893 8.893 0 0 1-.96-1.689 9.564 9.564 0 0 1-.66-1.996c-.11-.53-.08-.718-.08-.459h64Zm-19.24-43.142 43.77-46.69c-24.64-23.096-55.38-34.8-88.66-34.8v128c.8 0 1.22.066 1.32.085.1.017 0 .005-.22-.078a3.077 3.077 0 0 1-.45-.222c-.06-.04.1.051.47.396l43.77-46.691Zm-44.89-17.49v-64c-33.29 0-64.03 11.704-88.67 34.8l43.78 46.69 43.77 46.691c.37-.345.52-.436.46-.396-.07.045-.23.137-.45.222-.22.083-.31.095-.22.078.1-.019.52-.085 1.33-.085v-64Zm-44.89 17.49-44.51-45.99c-24.79 23.985-37.57 55.083-37.57 89.132h128c0-.506.05-.571-.01-.287a7.85 7.85 0 0 1-.44 1.404 8.271 8.271 0 0 1-.8 1.487c-.25.358-.36.43-.17.245l-44.5-45.991ZM64.003 547.83v-64h-64v64h64Zm213.378 16.907-30.28 56.384.408.219.412.214 29.46-56.817Zm48.972 46.057-55.164 32.45.141.239.143.239 54.88-32.928Zm0 132.341-55.164-32.449-.238.405-.233.409 55.635 31.635Zm-48.389 47.223 30.28 56.384.402-.216.399-.222-31.081-55.946Zm-130.592 16.907v-64h-64v64h64Zm0 118.932v64h64v-64h-64Zm-83.369 0h-64v64h64v-64Zm181.896-206.965-45.255-45.255-.411.412-.404.419 46.07 44.424Zm.583-83.369-45.255 45.255 45.255-45.255Zm-99.11-15.741v-64h-64v64h64Zm0 115.434h-64v64h64v-64ZM64.003 547.83v64h141.669v-128H64.003v64Zm141.669 0v64c17.598 0 30.87 3.62 41.429 9.291l30.28-56.384 30.28-56.383c-31.417-16.872-65.951-24.524-101.989-24.524v64Zm71.709 16.907-29.46 56.817c10.614 5.503 17.891 12.549 23.268 21.69l55.164-32.45 55.164-32.449c-17.943-30.503-43.314-54.162-74.676-70.424l-29.46 56.816Zm48.972 46.057-54.88 32.928c5.119 8.531 8.37 19.092 8.37 33.534h128c0-35.307-8.409-69.054-26.611-99.39l-54.879 32.928Zm17.49 66.462h-64c0 13.256-3.061 23.923-8.654 33.43l55.164 32.449 55.164 32.45c17.727-30.137 26.326-63.39 26.326-98.329h-64Zm-17.49 65.879L270.718 711.5c-5.158 9.071-12.539 16.636-23.835 22.912l31.081 55.946 31.081 55.946c30.68-17.044 55.558-40.96 72.943-71.533l-55.635-31.636Zm-48.389 47.223-30.28-56.383c-10.559 5.67-23.831 9.29-41.429 9.29v128c36.038 0 70.572-7.651 101.989-24.523l-30.28-56.384Zm-71.709 16.907v-64h-58.883v128h58.883v-64Zm-58.883 0h-64v118.932h128V807.265h-64Zm0 118.932v-64H64.003v128h83.369v-64Zm-83.369 0h64V547.83h-128v378.367h64Zm139.92-190.641v64c31.899 0 63.574-10.521 88.046-35.899l-46.07-44.425-46.07-44.424a12.45 12.45 0 0 1 2.043-1.685 13.023 13.023 0 0 1 2.466-1.296c1.512-.588 1.683-.271-.415-.271v64Zm41.976-16.324 45.255 45.255c23.976-23.976 35.069-54.569 35.069-86.648h-128c0 1.333-.197.87.382-.597.27-.686.631-1.383 1.056-2.025.42-.636.79-1.047.983-1.24l45.255 45.255Zm16.324-41.393h64c0-31.202-9.865-62.61-34.486-87.231l-45.255 45.255-45.255 45.255a12.867 12.867 0 0 1-1.694-2.12 12.351 12.351 0 0 1-1.17-2.298c-.488-1.301-.14-1.214-.14 1.139h64Zm-15.741-41.976 45.255-45.255c-24.89-24.889-56.676-34.486-87.814-34.486v128c2.71 0 3.024.397 1.847-.039a12.096 12.096 0 0 1-2.266-1.147 13.605 13.605 0 0 1-2.277-1.818l45.255-45.255Zm-42.559-15.741v-64h-56.551v128h56.551v-64Zm-56.551 0h-64v115.434h128V620.122h-64Zm0 115.434v64h56.551v-128h-56.551v64ZM350.994 547.83v-64h-64v64h64Zm213.378 16.324-29.461 56.817.626.324.632.31 28.203-57.451Zm47.223 43.142-56.002 30.98.25.452.257.448 55.495-31.88Zm-1.166 126.511-55.635-31.635-.103.182-.103.183 55.841 31.27Zm-48.972 44.308-26.951-58.048-69.663 32.343 44.379 62.686 52.235-36.981Zm79.871 148.082v64h94.904l-35.569-87.986-59.335 23.986Zm-93.28 0-60.204 21.713 15.251 42.287h44.953v-64ZM480.42 790.941l53.549-35.05-18.949-28.95h-34.6v64Zm-46.057 0v-64h-64v64h64Zm0 135.256v64h64v-64h-64Zm-83.369 0h-64v64h64v-64Zm181.313-216.293-43.41-47.027 43.41 47.027Zm0-78.122-43.41 47.028 43.41-47.028Zm-97.944-13.992v-64h-64v64h64Zm0 106.106h-64v64h64v-64ZM350.994 547.83v64h134.673v-128H350.994v64Zm134.673 0v64c24.489 0 39.87 4.28 49.244 9.141l29.461-56.817 29.46-56.816c-32.601-16.904-69.69-23.508-108.165-23.508v64Zm78.705 16.324-28.203 57.451c11.333 5.564 16.523 11.428 19.424 16.671l56.002-30.98 56.002-30.98c-17.31-31.291-43.602-54.188-75.022-69.612l-28.203 57.45Zm47.223 43.142-55.495 31.88c4.531 7.887 7.236 17.169 7.236 29.335h128c0-32.919-7.789-64.447-24.246-93.095l-55.495 31.88Zm15.741 61.215h-64c0 13.076-2.976 23.872-8.542 33.661l55.635 31.635 55.634 31.636c16.977-29.856 25.273-62.59 25.273-96.932h-64Zm-16.907 65.296-55.841-31.27c-3.789 6.767-9.524 12.628-20.082 17.53l26.951 58.048 26.951 58.049c32.972-15.309 59.885-38.986 77.861-71.086l-55.84-31.271Zm-48.972 44.308-52.235 36.981c27.967 39.503 52.293 84.432 72.771 135.088l59.335-23.987 59.335-23.986c-23.83-58.948-52.752-112.741-86.972-161.076l-52.234 36.98Zm79.871 148.082v-64h-93.28v128h93.28v-64Zm-93.28 0 60.204-21.713c-18.816-52.171-43.607-101.726-74.283-148.593l-53.549 35.05-53.549 35.05c25.291 38.64 45.586 79.256 60.973 121.919l60.204-21.713ZM480.42 790.941v-64h-46.057v128h46.057v-64Zm-46.057 0h-64v135.256h128V790.941h-64Zm0 135.256v-64h-83.369v128h83.369v-64Zm-83.369 0h64V547.83h-128v378.367h64Zm136.422-202.301v64c28.868 0 62.055-6.737 88.301-30.964l-43.41-47.028-43.41-47.027a19.826 19.826 0 0 1 3.728-2.736c1.059-.591 1.74-.814 1.836-.844.079-.024-.402.133-1.595.292-1.195.161-2.981.307-5.45.307v64Zm44.891-13.992 43.41 47.028c25.999-23.999 35.748-55.666 35.748-86.089h-128c0 1.957-.296 1.315.545-.854a18.782 18.782 0 0 1 1.962-3.698 19.803 19.803 0 0 1 2.925-3.414l43.41 47.027Zm15.158-39.061h64c0-30.423-9.749-62.089-35.748-86.088l-43.41 47.027-43.41 47.028a19.811 19.811 0 0 1-2.925-3.415 18.754 18.754 0 0 1-1.962-3.698c-.841-2.168-.545-2.81-.545-.854h64Zm-15.158-39.061 43.41-47.027c-26.246-24.227-59.433-30.965-88.301-30.965v128c2.469 0 4.255.147 5.45.307 1.193.16 1.674.317 1.595.292-.096-.03-.777-.253-1.836-.844-1.081-.603-2.386-1.497-3.728-2.735l43.41-47.028Zm-44.891-13.992v-64h-53.053v128h53.053v-64Zm-53.053 0h-64v106.106h128V617.79h-64Zm0 106.106v64h53.053v-128h-53.053v64ZM651.649 547.83v-64h-64v64h64Zm240.779 0h64v-64h-64v64Zm0 72.292v64h64v-64h-64Zm-157.41 0v-64h-64v64h64Zm0 79.288h-64v64h64v-64Zm142.835 0h64v-64h-64v64Zm0 71.126v64h64v-64h-64Zm-142.835 0v-64h-64v64h64Zm0 83.369h-64v64h64v-64Zm159.159 0h64v-64h-64v64Zm0 72.292v64h64v-64h-64Zm-242.528 0h-64v64h64v-64Zm0-378.367v64h240.779v-128H651.649v64Zm240.779 0h-64v72.292h128V547.83h-64Zm0 72.292v-64h-157.41v128h157.41v-64Zm-157.41 0h-64v79.288h128v-79.288h-64Zm0 79.288v64h142.835v-128H735.018v64Zm142.835 0h-64v71.126h128V699.41h-64Zm0 71.126v-64H735.018v128h142.835v-64Zm-142.835 0h-64v83.369h128v-83.369h-64Zm0 83.369v64h159.159v-128H735.018v64Zm159.159 0h-64v72.292h128v-72.292h-64Zm0 72.292v-64H651.649v128h242.528v-64Zm-242.528 0h64V547.83h-128v378.367h64Zm369.091 0-57.703 27.689 17.425 36.311h40.278v-64ZM881.401 547.83v-64h-83.855l22.122 80.884 61.733-16.884Zm89.199 0 62.38-14.309-11.4-49.691H970.6v64Zm101.44 304.909-58.34 26.303 116.87-.418-58.53-25.885Zm101.44-304.909v-64h-50.87l-11.48 49.559 62.35 14.441Zm89.2 0 61.67 17.12 22.52-81.12h-84.19v64Zm-139.92 378.367v64h40.28l17.43-36.318-57.71-27.682Zm-102.02 0 57.7-27.688c-53.76-112.022-98.91-234.489-135.306-367.563l-61.733 16.884-61.733 16.884c38.228 139.77 85.966 269.549 143.369 389.172l57.703-27.689ZM881.401 547.83v64H970.6v-128h-89.199v64Zm89.199 0-62.38 14.31c25.755 112.276 60.87 217.956 105.48 316.902l58.34-26.303 58.35-26.303c-40.9-90.723-73.42-188.315-97.41-292.915L970.6 547.83Zm101.44 304.909 58.53 25.885c44.8-101.305 79.88-206.777 105.26-316.353l-62.35-14.441-62.35-14.441c-23.59 101.859-56.14 199.659-97.62 293.466l58.53 25.884Zm101.44-304.909v64h89.2v-128h-89.2v64Zm89.2 0-61.66-17.12c-37.2 133.98-82.57 256.521-135.96 367.805l57.7 27.682 57.71 27.682c56.99-118.806 104.9-248.51 143.88-388.929l-61.67-17.12Zm-139.92 378.367v-64h-102.02v128h102.02v-64Zm140.45-378.367v-64h-64v64h64Zm83.37 0h64v-64h-64v64Zm0 378.367v64h64v-64h-64Zm-83.37 0h-64v64h64v-64Zm0-378.367v64h83.37v-128h-83.37v64Zm83.37 0h-64v378.367h128V547.83h-64Zm0 378.367v-64h-83.37v128h83.37v-64Zm-83.37 0h64V547.83h-128v378.367h64Zm121.88-378.367v-64h-64v64h64Zm240.78 0h64v-64h-64v64Zm0 72.292v64h64v-64h-64Zm-157.41 0v-64h-64v64h64Zm0 79.288h-64v64h64v-64Zm142.83 0h64v-64h-64v64Zm0 71.126v64h64v-64h-64Zm-142.83 0v-64h-64v64h64Zm0 83.369h-64v64h64v-64Zm159.16 0h64v-64h-64v64Zm0 72.292v64h64v-64h-64Zm-242.53 0h-64v64h64v-64Zm0-378.367v64h240.78v-128h-240.78v64Zm240.78 0h-64v72.292h128V547.83h-64Zm0 72.292v-64h-157.41v128h157.41v-64Zm-157.41 0h-64v79.288h128v-79.288h-64Zm0 79.288v64h142.83v-128h-142.83v64Zm142.83 0h-64v71.126h128V699.41h-64Zm0 71.126v-64h-142.83v128h142.83v-64Zm-142.83 0h-64v83.369h128v-83.369h-64Zm0 83.369v64h159.16v-128h-159.16v64Zm159.16 0h-64v72.292h128v-72.292h-64Zm0 72.292v-64h-242.53v128h242.53v-64Zm-242.53 0h64V547.83h-128v378.367h64Zm341.74 0-59.62 23.254 15.89 40.746h43.73v-64ZM1612.56 547.83v-64h-80.1l17.68 78.13 62.42-14.13Zm88.04 0 63.09-10.744-9.07-53.256h-54.02v64Zm75.2 289.751-60 22.264 121.58-4.796-61.58-17.468Zm82.21-289.751v-64h-48.37l-13.2 46.533 61.57 17.467Zm90.36 0 61.61-17.353-13.14-46.647h-48.47v64Zm81.62 289.751-61.6 17.353 121.66 4.76-60.06-22.113Zm75.21-289.751v-64h-53.86l-9.2 53.073 63.06 10.927Zm87.45 0 62.34 14.47 18.21-78.47h-80.55v64Zm-114.27 378.367v64h44.01l15.75-41.092-59.76-22.908Zm-98.53 0-61.39 18.089 13.53 45.911h47.86v-64Zm-76.95-261.184 61.39-18.088-122.74-.126 61.35 18.214Zm-77.54 261.184v64h47.76l13.59-45.785-61.35-18.215Zm-98.53 0 59.63-23.254c-44.2-113.326-81.4-236.367-111.47-369.242l-62.43 14.129-62.42 14.13c31.34 138.414 70.32 267.618 117.07 387.491l59.62-23.254ZM1612.56 547.83v64h88.04v-128h-88.04v64Zm88.04 0-63.09 10.744c18.81 110.492 44.81 211.022 78.29 301.271l60-22.264 60.01-22.263c-30.26-81.543-54.4-174.18-72.12-278.232l-63.09 10.744Zm75.2 289.751 61.58 17.468 82.2-289.751-61.57-17.468-61.57-17.467-82.21 289.751 61.57 17.467Zm82.21-289.751v64h90.36v-128h-90.36v64Zm90.36 0-61.6 17.353 81.62 289.751 61.6-17.353 61.61-17.353-81.62-289.751-61.61 17.353Zm81.62 289.751 60.06 22.113c33.05-89.768 59.02-190.19 78.21-300.936l-63.06-10.928-63.06-10.927c-18.12 104.575-42.29 197.321-72.21 278.566l60.06 22.112Zm75.21-289.751v64h87.45v-128h-87.45v64Zm87.45 0-62.34-14.469c-30.89 133.098-68.16 256.371-111.69 369.928l59.76 22.908 59.76 22.908c45.86-119.642 84.78-248.614 116.85-386.805l-62.34-14.47Zm-114.27 378.367v-64h-98.53v128h98.53v-64Zm-98.53 0 61.4-18.088-76.96-261.184-61.39 18.088-61.39 18.089 76.95 261.184 61.39-18.089Zm-76.95-261.184-61.35-18.214-77.54 261.184 61.35 18.214 61.35 18.215 77.54-261.184-61.35-18.215Zm-77.54 261.184v-64h-98.53v128h98.53v-64Z" mask="url(#a)"/></svg>