<svg xmlns="http://www.w3.org/2000/svg" width="306" height="429" fill="none"><mask id="c" width="306" height="429" x="-.117" y="-.398" fill="#000" maskUnits="userSpaceOnUse"><path fill="#fff" d="M-.117-.398h306v429h-306z"/><path d="M298.324 421.602h-147.6v-384.6l73.8 82.2-149.4 95.4-65.4-97.8 165.6-109.8h123v414.6Z"/></mask><path fill="url(#a)" d="M298.324 421.602h-147.6v-384.6l73.8 82.2-149.4 95.4-65.4-97.8 165.6-109.8h123v414.6Z"/><path fill="url(#b)" d="M298.324 421.602v7h7v-7h-7Zm-147.6 0h-7v7h7v-7Zm0-384.6 5.209-4.677-12.209-13.598V37h7Zm73.8 82.2 3.768 5.899 6.951-4.439-5.51-6.137-5.209 4.677Zm-149.4 95.4-5.819 3.891 3.81 5.697 5.776-3.689-3.767-5.899Zm-65.4-97.8-3.868-5.835-5.857 3.884 3.906 5.842 5.82-3.891Zm165.6-109.8v-7h-2.11l-1.758 1.165 3.868 5.835Zm123 0h7v-7h-7v7Zm0 414.6v-7h-147.6v14h147.6v-7Zm-147.6 0h7v-384.6h-14v384.6h7Zm0-384.6-5.208 4.676 73.8 82.2 5.208-4.676 5.209-4.677-73.8-82.2-5.209 4.676Zm73.8 82.2-3.767-5.9-149.4 95.4 3.767 5.9 3.767 5.899 149.401-95.4-3.768-5.899Zm-149.4 95.4 5.82-3.892-65.4-97.8-5.82 3.892-5.819 3.891 65.4 97.8 5.82-3.891Zm-65.4-97.8 3.868 5.834 165.6-109.8-3.868-5.834-3.868-5.835-165.6 109.8 3.868 5.835Zm165.6-109.8v7h123v-14h-123v7Zm123 0h-7v414.6h14V7.002h-7Z" mask="url(#c)"/><defs><linearGradient id="a" x1="178.383" x2="178.383" y1="-18.398" y2="432.602" gradientUnits="userSpaceOnUse"><stop stop-color="#fff"/><stop offset="1" stop-color="#fff" stop-opacity="0"/></linearGradient><linearGradient id="b" x1="178.383" x2="178.383" y1="-18.398" y2="432.602" gradientUnits="userSpaceOnUse"><stop stop-color="#fff" stop-opacity="0"/><stop offset="1" stop-color="#fff"/></linearGradient></defs></svg>