<svg xmlns="http://www.w3.org/2000/svg" width="240" height="297" fill="none"><path fill="#fff" d="M186.786 0c17.971 0 32.538 14.607 32.538 32.625a32.56 32.56 0 0 1-3.683 15.088c13.183 4.168 22.742 16.524 22.742 31.12a32.538 32.538 0 0 1-6.97 20.179H1.285a32.79 32.79 0 0 1-.902-7.654c0-13.456 8.125-25.008 19.723-29.997a32.551 32.551 0 0 1-3.717-15.154c0-18.018 14.567-32.625 32.538-32.625 9.996 0 18.937 4.52 24.906 11.633 5.955-6.618 14.576-10.778 24.166-10.778a32.322 32.322 0 0 1 15.794 4.097c5.849-8.67 15.748-14.37 26.974-14.37a32.36 32.36 0 0 1 20.949 7.662C167.684 4.602 176.699 0 186.786 0Zm37.256 113.922c9.192 0 16.222 8.192 14.826 17.278L215.47 283.473a15 15 0 0 1-14.826 12.722H38.4a15 15 0 0 1-14.825-12.722L.177 131.2c-1.396-9.086 5.634-17.278 14.826-17.278h209.039Z"/></svg>