<svg xmlns="http://www.w3.org/2000/svg" width="936" height="149" fill="none"><path fill="#fff" d="M410.171 74.922c-21.08 0-36.71 16.39-36.71 36.6 0 20.65 16.39 36.38 36.71 36.38 20.54 0 36.71-15.95 36.71-36.49-.01-20.43-16.07-36.49-36.71-36.49Zm0 59.65c-12.67 0-22.4-10.16-22.4-22.94 0-12.68 9.51-23.38 22.4-23.38 12.78 0 22.4 10.49 22.4 23.27s-9.73 23.05-22.4 23.05Zm96.638-15.414c8.74-3.39 13.22-11.91 13.22-21.19 0-11.14-6.99-21.96-25.35-21.96h-23.71v70.9h13.44v-26.11h8.3c8.3 7.43 14.2 17.59 17.59 26.11h14.64c-5.03-12.45-11.8-22.5-18.13-27.75Zm-11.26-9.28h-11.14v-21.52h11.14c7.65 0 10.93 4.59 10.93 10.81 0 6.12-3.39 10.71-10.93 10.71Zm63.432-33.87h-14.2v70.9h14.2v-70.9Zm62.559 31.574v11.69h17.81c-1.42 9.72-10.05 15.29-19.55 15.29-12.89 0-22.4-10.71-22.4-23.16 0-12.46 9.51-23.16 22.4-23.16 6.88 0 12.56 2.95 16.5 7.76l10.05-9.83c-6.56-6.99-15.84-11.25-26.55-11.25-22.18 0-36.71 16.39-36.71 36.49s14.53 36.49 36.71 36.49c20.54 0 34.2-15.84 34.2-36.38 0-1.31 0-2.62-.22-3.93h-32.24v-.01Zm69.769-31.574h-14.2v70.9h14.2v-70.9Zm77.531 47.31-36.05-47.31h-13.11v70.9h14.09v-47.41l36.05 47.41h13.11v-70.9h-14.09v47.31Zm59.818-47.31c-9.4 23.6-17.81 47.3-23.92 70.9h14.42c.98-4.26 2.07-8.52 3.28-12.78h28.95c1.09 4.26 2.08 8.52 3.06 12.78h15.4c-6.12-23.6-14.42-47.31-23.82-70.9h-17.37Zm-2.4 45.01c3.17-9.94 6.88-19.88 10.92-29.83a404.59 404.59 0 0 1 10.49 29.83h-21.41Zm80.912 12.24v-57.25h-15.51v70.9h44.03v-13.65h-28.52Z"/><path fill="#fff" fill-rule="evenodd" d="M272.223 103.385c16.052 0 29.066-13.065 29.066-29.185 0-16.116-13.014-29.183-29.066-29.183-16.054 0-29.066 13.067-29.066 29.183 0 16.12 13.012 29.185 29.066 29.185ZM235.249 74.2c0-20.501 16.553-37.123 36.974-37.123 20.421 0 36.976 16.622 36.976 37.123 0 20.505-16.555 37.126-36.976 37.126S235.249 94.705 235.249 74.2Zm-51.484 0c4.575-.582 12.201-5.834 14.888-9.187-.944 4.157-1.016 16.188.087 20.345-3.066-4.74-10.327-10.574-14.975-11.158Zm-26.582-39.302c5.811 0 10.387 5.76 10.387 12.323 0 6.563-4.576 12.326-10.387 12.326h-19.971V34.898h19.971Zm-.073 54.761c5.81 0 10.387 5.762 10.387 12.324 0 6.564-4.577 12.324-10.387 12.324h-19.971V89.659h19.971ZM272.199 149c40.694-.016 73.81-33.964 73.801-74.829C345.992 32.445 312.893.031 272.199 0c-40.647-.03-61.416 30.012-66.548 42.138.048-18.203-17.821-39.689-38.722-39.712H99.586v145.848l62.786.012c25.314 0 43.327-22.023 43.357-40.908 5.779 11.886 25.823 41.636 66.47 41.622Z" clip-rule="evenodd"/><path fill="#fff" d="M0 148.274V2.426h90.956v32.472h-53.79v24.649h52.412v30.112H37.166v24.648h53.79v33.986L0 148.274Z"/></svg>