<svg xmlns="http://www.w3.org/2000/svg" width="394" height="451" fill="none"><mask id="c" width="395" height="451" x="-.641" y="0" fill="#000" maskUnits="userSpaceOnUse"><path fill="#fff" d="M-.641 0h395v451h-395z"/><path d="M22 137.2C32 108 46 83.8 64 64.6c18.4-19.2 40.001-33.6 64.801-43.2 24.8-9.6 52.2-14.4 82.2-14.4 32 0 59.8 5.2 83.4 15.6 23.6 10 42.6 24.4 57 43.2 14.4 18.8 23.8 41.4 28.2 67.8l-133.2 10.8c-2.8-7.6-7.2-14-13.2-19.2-5.6-5.2-15.2-7.8-28.8-7.8-10.4 0-19.2 1.6-26.4 4.8-7.2 2.8-13.2 7-18 12.6-4.4 5.2-8 11.4-10.8 18.6-2.4 7.2-4.2 15-5.4 23.4l-7.2 60.6-6-42.6c7.2-6.4 16-11.6 26.4-15.6 10.8-4 22.6-7 35.4-9 12.8-2.4 25.6-3.6 38.4-3.6 22 0 42.4 2.8 61.2 8.4 18.8 5.6 35.2 14 49.2 25.2 14.4 11.2 25.6 25.2 33.6 42 8 16.4 12 35.8 12 58.2 0 30.4-8 56.4-24 78-16 21.2-38.2 37.4-66.6 48.6-28 11.2-60.4 16.8-97.2 16.8-30.4 0-57.6-4.2-81.6-12.6-23.6-8.4-43.6-21-60-37.8-16.4-17.2-29-38.6-37.8-64.2C11.2 303.2 7 272.8 7 238c0-38.4 5-72 15-100.8Zm206.401 130.2c-7.2-3.2-16.6-4.8-28.2-4.8-8.8 0-17.2 1.2-25.2 3.6-8 2-14.4 5.6-19.2 10.8-4.8 5.2-7.2 12-7.2 20.4 0 7.6 2 14.4 6 20.4 4 6 9.8 10.8 17.4 14.4 7.6 3.2 16.6 4.8 27 4.8 10 0 18.8-1.4 26.4-4.2 7.6-3.2 13.6-7.8 18-13.8 4.4-6 6.6-13 6.6-21 0-6.8-1.8-12.8-5.4-18-3.6-5.6-9-9.8-16.2-12.6Z"/></mask><path fill="url(#a)" d="M22 137.2C32 108 46 83.8 64 64.6c18.4-19.2 40.001-33.6 64.801-43.2 24.8-9.6 52.2-14.4 82.2-14.4 32 0 59.8 5.2 83.4 15.6 23.6 10 42.6 24.4 57 43.2 14.4 18.8 23.8 41.4 28.2 67.8l-133.2 10.8c-2.8-7.6-7.2-14-13.2-19.2-5.6-5.2-15.2-7.8-28.8-7.8-10.4 0-19.2 1.6-26.4 4.8-7.2 2.8-13.2 7-18 12.6-4.4 5.2-8 11.4-10.8 18.6-2.4 7.2-4.2 15-5.4 23.4l-7.2 60.6-6-42.6c7.2-6.4 16-11.6 26.4-15.6 10.8-4 22.6-7 35.4-9 12.8-2.4 25.6-3.6 38.4-3.6 22 0 42.4 2.8 61.2 8.4 18.8 5.6 35.2 14 49.2 25.2 14.4 11.2 25.6 25.2 33.6 42 8 16.4 12 35.8 12 58.2 0 30.4-8 56.4-24 78-16 21.2-38.2 37.4-66.6 48.6-28 11.2-60.4 16.8-97.2 16.8-30.4 0-57.6-4.2-81.6-12.6-23.6-8.4-43.6-21-60-37.8-16.4-17.2-29-38.6-37.8-64.2C11.2 303.2 7 272.8 7 238c0-38.4 5-72 15-100.8Zm206.401 130.2c-7.2-3.2-16.6-4.8-28.2-4.8-8.8 0-17.2 1.2-25.2 3.6-8 2-14.4 5.6-19.2 10.8-4.8 5.2-7.2 12-7.2 20.4 0 7.6 2 14.4 6 20.4 4 6 9.8 10.8 17.4 14.4 7.6 3.2 16.6 4.8 27 4.8 10 0 18.8-1.4 26.4-4.2 7.6-3.2 13.6-7.8 18-13.8 4.4-6 6.6-13 6.6-21 0-6.8-1.8-12.8-5.4-18-3.6-5.6-9-9.8-16.2-12.6Z"/><path fill="url(#b)" d="m22 137.2 6.613 2.296.005-.014.005-.014-6.622-2.268Zm42-72.6-5.053-4.843-.027.027-.026.028 5.107 4.788Zm230.401-42-2.823 6.406.046.02.046.02 2.731-6.446Zm57 43.2-5.557 4.257 5.557-4.257Zm28.2 67.8.566 6.977 7.591-.615-1.252-7.513-6.905 1.151Zm-133.2 10.8-6.569 2.42 1.838 4.987 5.296-.43-.565-6.977Zm-13.2-19.2-4.763 5.13.088.081.09.079 4.585-5.29Zm-55.2-3 2.537 6.524.154-.06.152-.067-2.843-6.397Zm-18 12.6-5.315-4.556-.015.017-.014.017 5.344 4.522Zm-10.8 18.6-6.524-2.537-.063.16-.054.163 6.641 2.214Zm-5.4 23.4-6.93-.99-.012.082-.009.082 6.951.826Zm-7.2 60.6-6.932.976 13.883-.15-6.951-.826Zm-6-42.6-4.651-5.232-2.804 2.493.523 3.715 6.932-.976Zm26.4-15.6-2.431-6.564-.041.015-.041.016 2.513 6.533Zm35.4-9 1.08 6.916.105-.016.105-.02-1.29-6.88Zm99.6 4.8-1.999 6.709 1.999-6.709Zm49.2 25.2-4.373 5.466.037.03.038.029 4.298-5.525Zm33.6 42-6.32 3.01.014.029.014.03 6.292-3.069Zm-12 136.2 5.587 4.217.019-.025.019-.025-5.625-4.167Zm-66.6 48.6-2.568-6.512-.016.006-.016.007 2.6 6.499Zm-178.8 4.2-2.347 6.595.017.006.017.006 2.313-6.607Zm-60-37.8-5.066 4.831.028.029.029.03 5.009-4.89Zm-37.8-64.2-6.661 2.152.02.062.021.062 6.62-2.276Zm208.8-61.8-2.843 6.397.151.067.155.06 2.537-6.524Zm-53.4-1.2 1.698 6.791.157-.039.156-.047-2.011-6.705Zm-19.2 10.8 5.143 4.748-5.143-4.748Zm-1.2 40.8 5.824-3.883-5.824 3.883Zm17.4 14.4-2.997 6.326.139.066.141.059 2.717-6.451Zm53.4.6 2.42 6.568.149-.055.147-.062-2.716-6.451Zm19.2-52.8-5.888 3.785.064.101.068.098 5.756-3.984Zm-222.6-142.8 6.622 2.268c9.734-28.423 23.27-51.718 40.485-70.08L64 64.6l-5.107-4.788c-18.785 20.038-33.25 45.143-43.516 75.12L22 137.2Zm42-72.6 5.054 4.843c17.69-18.46 38.428-32.285 62.273-41.515l-2.527-6.528-2.527-6.528c-25.756 9.97-48.218 24.945-67.327 44.885L64 64.6Zm64.8-43.2 2.527 6.528C155.225 18.678 181.755 14 211.001 14V0c-30.754 0-59.025 4.923-84.727 14.872l2.527 6.528Zm82.2-14.4v7c31.255 0 58.053 5.08 80.577 15.006l2.823-6.406 2.823-6.406C272.547 5.32 243.745 0 211.001 0v7Zm83.4 15.6-2.731 6.445c22.579 9.568 40.57 23.252 54.174 41.011l5.557-4.256 5.557-4.257c-15.197-19.84-35.205-34.956-59.826-45.388l-2.731 6.445Zm57 43.2-5.557 4.257c13.617 17.777 22.616 39.275 26.852 64.694l6.905-1.151 6.905-1.151c-4.564-27.381-14.365-51.083-29.548-70.906l-5.557 4.257Zm28.2 67.8-.566-6.977-133.2 10.8.566 6.977.565 6.977 133.201-10.8-.566-6.977Zm-133.2 10.8 6.568-2.42c-3.2-8.685-8.272-16.08-15.184-22.07l-4.584 5.29-4.585 5.29c5.089 4.41 8.816 9.815 11.216 16.33l6.569-2.42Zm-13.2-19.2 4.763-5.13c-7.587-7.044-19.448-9.67-33.563-9.67v14c13.084 0 20.423 2.574 24.037 5.93l4.763-5.13Zm-28.8-7.8v-7c-11.081 0-20.911 1.7-29.243 5.403l2.843 6.397 2.843 6.397c6.067-2.697 13.838-4.197 23.557-4.197v-7Zm-26.4 4.8-2.537-6.524c-8.221 3.197-15.192 8.052-20.778 14.568l5.315 4.556 5.315 4.556c4.014-4.684 9.043-8.229 15.222-10.632l-2.537-6.524Zm-18 12.6-5.344-4.522c-4.963 5.866-8.937 12.758-11.98 20.585l6.524 2.537 6.524 2.537c2.556-6.573 5.782-12.081 9.619-16.615l-5.343-4.522Zm-10.8 18.6-6.641-2.214c-2.547 7.642-4.436 15.856-5.689 24.624l6.93.99 6.929.99c1.148-8.032 2.859-15.418 5.112-22.176l-6.641-2.214Zm-5.4 23.4-6.951-.826-7.2 60.6 6.951.826 6.951.826 7.2-60.6-6.951-.826Zm-7.2 60.6 6.931-.976-6-42.6-6.931.976-6.932.976 6 42.6 6.932-.976Zm-6-42.6 4.65 5.232c6.482-5.761 14.526-10.554 24.263-14.299l-2.513-6.533-2.513-6.533c-11.064 4.255-20.619 9.862-28.538 16.901l4.651 5.232Zm26.4-15.6 2.431 6.564c10.312-3.819 21.654-6.711 34.049-8.648l-1.08-6.916-1.081-6.916c-13.204 2.063-25.463 5.171-36.75 9.352l2.431 6.564Zm35.4-9 1.29 6.88c12.382-2.322 24.75-3.48 37.11-3.48v-14c-13.24 0-26.472 1.242-39.69 3.72l1.29 6.88Zm38.4-3.6v7c21.404 0 41.123 2.724 59.201 8.109l1.999-6.709 1.998-6.709c-19.522-5.815-40.603-8.691-63.198-8.691v7Zm61.2 8.4-1.999 6.709c18.018 5.367 33.594 13.371 46.826 23.957l4.373-5.466 4.373-5.466c-14.768-11.814-31.992-20.61-51.575-26.443L292.001 175Zm49.2 25.2-4.298 5.525c13.522 10.517 24.037 23.649 31.578 39.485l6.32-3.01 6.32-3.01c-8.459-17.764-20.344-32.632-35.623-44.515l-4.297 5.525Zm33.6 42-6.292 3.069c7.44 15.251 11.292 33.557 11.292 55.131h14c0-23.226-4.149-43.72-12.709-61.269l-6.291 3.069Zm12 58.2h-7c0 29.105-7.633 53.594-22.625 73.833l5.625 4.167 5.625 4.167c17.008-22.961 25.375-50.472 25.375-82.167h-7Zm-24 78-5.587-4.217c-15.114 20.026-36.197 35.506-63.581 46.305l2.568 6.512 2.568 6.512c29.416-11.601 52.733-28.521 69.619-50.895l-5.587-4.217Zm-66.6 48.6-2.6-6.499c-27.013 10.805-58.5 16.299-94.6 16.299v14c37.5 0 70.812-5.706 99.8-17.301l-2.6-6.499Zm-97.2 16.8v-7c-29.762 0-56.16-4.112-79.288-12.207l-2.312 6.607-2.313 6.607c24.873 8.705 52.875 12.993 83.913 12.993v-7Zm-81.6-12.6 2.347-6.595c-22.663-8.066-41.733-20.109-57.338-36.095l-5.01 4.89-5.008 4.89c17.195 17.614 38.125 30.771 62.662 39.505l2.347-6.595Zm-60-37.8 5.066-4.831c-15.614-16.375-27.729-36.866-36.246-61.645L19.6 329.2l-6.62 2.276c9.082 26.421 22.167 48.73 39.354 66.755L57.4 393.4Zm-37.8-64.2 6.66-2.152c-8.123-25.145-12.26-54.789-12.26-89.048H0c0 35.341 4.262 66.497 12.939 93.352l6.66-2.152ZM7 238h7c0-37.812 4.926-70.606 14.612-98.504L22 137.2l-6.613-2.296C5.075 164.606.001 199.012.001 238h7Zm221.4 29.4 2.843-6.397c-8.415-3.739-18.887-5.403-31.043-5.403v14c11.044 0 19.371 1.536 25.357 4.197l2.843-6.397Zm-28.2-4.8v-7c-9.445 0-18.525 1.289-27.212 3.895L175 266.2l2.011 6.705c7.314-2.194 15.033-3.305 23.189-3.305v-7Zm-25.2 3.6-1.698-6.791c-9.1 2.275-16.776 6.484-22.646 12.843L155.8 277l5.143 4.748c3.731-4.041 8.854-7.032 15.755-8.757L175 266.2ZM155.8 277l-5.144-4.748c-6.211 6.729-9.056 15.337-9.056 25.148h14c0-6.989 1.954-11.981 5.343-15.652L155.801 277Zm-7.2 20.4h-7c0 8.903 2.366 17.069 7.175 24.283l5.825-3.883 5.824-3.883c-3.191-4.786-4.824-10.22-4.824-16.517h-7Zm6 20.4-5.825 3.883c4.814 7.22 11.675 12.792 20.228 16.843L172 332.2l2.996-6.326c-6.646-3.149-11.385-7.177-14.572-11.957L154.6 317.8Zm17.4 14.4-2.717 6.451C177.936 342.295 187.902 344 199 344v-14c-9.702 0-17.736-1.495-24.284-4.251L172 332.2Zm27 4.8v7c10.639 0 20.287-1.488 28.82-4.632l-2.42-6.568-2.42-6.568C216.313 328.688 208.361 330 199 330v7Zm26.4-4.2 2.716 6.451c8.638-3.636 15.7-8.982 20.929-16.111L243.4 319l-5.645-4.14c-3.572 4.871-8.509 8.725-15.072 11.489l2.717 6.451Zm18-13.8 5.645 4.14C254.393 315.847 257 307.37 257 298h-14c0 6.63-1.793 12.153-5.245 16.86L243.4 319Zm6.6-21h7c0-8.111-2.173-15.525-6.645-21.984L244.601 280l-5.756 3.984c2.728 3.94 4.156 8.527 4.156 14.016h7Zm-5.4-18 5.888-3.785c-4.523-7.036-11.202-12.092-19.551-15.339L228.4 267.4l-2.537 6.524c6.05 2.353 10.172 5.697 12.849 9.861L244.6 280Z" mask="url(#c)"/><defs><linearGradient id="a" x1="194.859" x2="194.859" y1="-7" y2="444" gradientUnits="userSpaceOnUse"><stop stop-color="#fff"/><stop offset="1" stop-color="#fff" stop-opacity="0"/></linearGradient><linearGradient id="b" x1="194.859" x2="194.859" y1="-7" y2="444" gradientUnits="userSpaceOnUse"><stop stop-color="#fff" stop-opacity="0"/><stop offset="1" stop-color="#fff"/></linearGradient></defs></svg>