<svg xmlns="http://www.w3.org/2000/svg" width="977" height="253" fill="none"><path fill="#fff" fill-rule="evenodd" d="M189.333 0c5.873 0 12.585.56 20.136 1.398 7.551 1.119 15.102 2.796 22.933 5.313 7.551 2.516 15.102 5.592 22.373 9.227 7.271 3.914 13.704 8.668 19.577 13.98 5.873 5.592 10.347 12.023 13.983 19.293 3.356 7.27 5.034 15.659 5.034 24.886 0 9.786-2.517 18.174-7.271 25.444-4.755 7.27-10.907 13.421-18.458 18.454-7.551 5.313-15.941 9.227-24.89 12.303-9.229 3.076-17.899 5.033-26.289 6.431 7.551 1.398 14.822 3.635 22.373 6.711 7.271 3.076 13.704 7.27 19.577 12.023 5.873 4.753 10.627 10.625 14.263 17.056 3.635 6.711 5.313 13.981 5.313 22.09 0 8.108-2.237 15.658-6.432 22.368-4.195 6.711-9.788 12.583-16.78 17.336-6.991 5.033-15.102 8.948-24.051 11.464-9.229 2.796-18.458 4.194-27.967 4.194-4.195 0-8.669-.279-13.424-1.118-4.754-.839-9.788-2.237-14.542-4.474-5.034-1.957-9.788-4.753-14.543-8.388a61.601 61.601 0 0 1-13.144-13.701c-9.788 8.668-20.695 15.658-33.28 21.53-12.585 5.871-26.568 8.947-41.95 8.947-14.822 0-27.127-1.677-36.356-5.033-9.23-3.355-16.5-7.549-21.814-12.303-5.314-4.753-8.67-9.506-10.628-14.539C1.12 215.859 0 211.665 0 208.309c0-3.355.56-6.71 1.398-10.066.84-3.355 1.958-6.431 3.356-9.227 1.399-2.516 3.356-4.753 5.873-6.71 2.238-1.678 5.034-2.517 8.11-2.517 3.077 0 5.594.559 7.831 1.957 2.237 1.398 3.915 3.076 5.034 5.313.56 1.957 1.119 3.915 1.119 6.151v1.399c-.28 3.075-1.678 6.151-3.636 9.227-1.398 1.957-2.517 4.473-3.356 7.549-.839 2.516-1.398 5.033-1.398 7.549v1.678c0 3.076.839 6.431 2.237 9.507 1.398 3.076 3.636 5.872 7.271 8.388 3.356 2.517 7.831 4.753 13.704 6.151 5.873 1.678 13.144 2.517 21.814 2.517s16.78-1.678 24.051-5.313c7.272-3.355 13.983-8.108 20.136-13.98 5.873-5.872 11.466-12.862 16.5-20.971 5.034-8.108 9.789-16.776 14.263-26.003 4.475-9.228 8.67-18.734 12.865-28.521 3.915-9.786 7.831-19.852 12.026-29.638 6.152-14.82 12.864-26.843 20.415-36.63 7.551-9.506 14.543-17.055 20.975-22.927 6.432-5.592 11.746-9.507 16.221-12.023 3.076-1.398 5.034-2.517 5.873-3.076l.559-.28 3.076 1.678-5.873 6.151c-3.635 4.195-7.83 11.185-12.025 21.53-2.517 5.872-5.314 13.701-8.67 23.767-3.356 10.346-6.992 20.971-10.907 32.155l7.831-1.118c3.635-.559 7.551-1.678 11.746-3.076 4.195-1.398 8.669-3.635 13.424-6.151 4.754-2.517 8.949-6.152 13.144-10.625 4.195-4.195 7.83-9.507 10.907-15.938 3.076-6.431 5.034-13.98 6.152-22.649.56-3.914.839-7.55.839-10.905 0-8.108-1.398-14.819-3.915-20.97-3.915-8.668-9.508-15.658-16.5-21.25-6.992-5.313-15.382-9.507-24.611-12.024-9.229-2.516-18.737-3.635-28.526-3.635-16.22 0-31.602 2.237-45.865 6.71-14.263 4.754-29.085 11.745-43.907 21.53-7.551 4.754-13.983 10.346-19.577 16.498-5.593 6.43-10.347 12.862-14.263 19.573-3.915 6.99-6.991 13.7-9.229 20.411-2.237 6.99-3.635 13.421-4.195 19.573l-.28 6.99c0 6.711.84 12.582 2.797 17.336 2.517 6.711 6.433 11.744 11.467 15.378 5.034 3.635 10.907 5.872 17.898 6.431l4.195.28c5.594 0 11.467-1.118 17.619-3.076 5.873-1.957 9.788-5.033 11.746-9.506 1.398-3.076 1.958-5.872 1.958-8.389 0-1.118 0-2.237-.28-3.075-.559-1.958-1.119-4.195-1.119-6.711v-1.678c0-2.796 1.399-5.312 4.475-7.549 1.398-1.119 3.356-1.678 5.593-1.957 1.958 0 4.195.559 6.153 1.398 1.958.838 3.636 2.516 5.034 4.473 1.398 2.237 1.958 5.033 1.958 8.389 0 3.914-1.399 7.829-3.916 11.464-2.796 3.914-6.432 7.27-11.186 10.345-4.755 3.076-10.068 5.592-16.5 7.55-6.433 1.957-13.425 2.796-20.976 2.796-6.432 0-13.423-1.119-20.695-3.355-7.27-2.237-13.983-5.593-19.856-10.346-5.873-4.474-10.907-10.066-14.822-17.056-3.916-6.991-5.873-15.099-5.873-24.326 0-11.464 2.517-21.81 7.83-31.596 5.314-9.787 12.026-18.454 20.696-26.283 8.67-7.55 18.458-14.54 29.644-20.412 11.187-5.872 22.933-10.625 34.958-14.54 12.026-3.914 23.772-6.99 35.798-8.947C168.359 1.118 179.265 0 189.333 0Zm6.712 141.483c-1.957 5.871-4.194 11.464-6.152 16.776-1.958 5.313-4.195 10.346-6.153 15.099-2.796 6.431-6.712 13.421-11.746 20.971-5.313 7.549-11.466 15.099-19.017 22.648 3.356 5.033 7.271 9.227 11.466 12.303 4.195 3.076 8.39 5.592 12.585 7.55 4.195 1.957 8.11 3.355 12.305 4.194 3.916.839 7.551 1.118 10.907 1.118 7.551 0 14.543-1.398 20.416-3.914 5.873-2.517 10.907-6.152 15.102-10.346s7.271-9.227 9.509-14.819a46.624 46.624 0 0 0 3.356-17.336v-1.398c0-15.658-4.475-27.961-13.424-37.188-9.229-9.507-22.374-14.82-39.154-15.658Zm210.331-45.856c5.313.559 9.508 2.796 12.025 6.431 2.238 3.075 3.636 6.71 4.195 10.625.28 1.118.28 2.237.28 3.355.28 1.119.839 2.237 1.398 3.076.839.839 1.678 1.677 3.077 2.516.839.559 1.957.839 3.076.839l2.237-.28c3.077-.279 5.873-1.677 8.67-3.634 1.629-1.268 3.259-2.535 4.813-3.954l-3.209-14.221h20.415c.28 2.237 1.398 6.431 2.797 12.582l4.754 20.132a153.107 153.107 0 0 0 6.432-9.227c2.517-3.635 5.314-7.549 8.39-11.184 3.077-3.635 6.153-6.991 9.509-9.787 3.076-2.516 6.153-3.914 9.229-4.194h1.119c2.796 0 5.034.84 6.152 1.957 1.119 1.119 1.958 2.517 1.958 4.195v.839c-.28 1.957-1.119 3.914-2.517 5.592-1.678 1.957-3.915 2.796-6.992 3.075-5.034.56-10.068 2.797-15.102 6.991-5.313 4.194-10.627 10.345-16.5 18.174 1.398 6.431 3.076 12.023 4.475 17.336 1.398 5.313 2.237 9.227 3.076 11.744l.839 2.237c.28 1.118.559 2.237 1.119 3.075.279 1.119.839 1.958 1.678 2.796.839.839 1.678 1.119 2.796 1.119 2.238 0 5.034-1.119 8.111-3.635 3.076-2.517 5.873-5.313 8.669-8.388 3.356-3.356 6.712-7.27 9.788-12.024l1.958 5.033a318.889 318.889 0 0 1-13.144 15.099c-3.915 3.915-7.271 6.991-10.348 8.948-3.076 1.957-5.593 3.355-8.11 4.194-2.517.839-5.314 1.118-7.831 1.118-1.398 0-3.076-.279-4.754-1.118a18.956 18.956 0 0 1-5.034-3.635c-1.678-1.678-3.076-3.915-4.475-6.711-1.398-2.796-2.517-6.151-3.356-10.345l-3.076-13.142c-1.958 3.076-4.754 6.711-7.83 10.905-3.356 4.474-6.712 8.668-10.348 12.862-3.636 4.194-6.992 7.829-10.348 10.905-3.635 3.075-6.712 4.473-9.508 4.753h-1.119c-2.797 0-5.034-.839-6.153-1.957-1.118-1.119-1.957-2.796-1.957-4.474v-.839c0-1.957.839-3.635 2.517-5.312 1.678-1.678 3.915-2.796 6.991-3.076 2.517-.28 5.034-1.118 8.111-3.076 3.076-1.677 6.152-3.914 9.229-6.71 3.076-2.796 6.152-6.152 9.508-9.787l9.229-11.184-6.01-26.632-.068.069c-3.077 3.355-6.992 6.151-11.746 8.388-3.077 1.678-6.153 2.237-9.788 2.237-1.399 0-2.797 0-4.195-.279-.839 2.796-1.678 5.592-2.797 8.388-1.678 4.194-3.636 8.388-5.873 12.303-4.754 8.668-10.068 15.378-15.382 20.411-5.313 5.313-10.627 9.227-15.381 12.023-4.754 2.796-8.95 4.474-12.585 5.313-3.636.839-6.153 1.398-7.271 1.398-1.119 0-2.797 0-4.755-.28-2.237-.279-4.474-.838-6.712-1.957-2.517-1.118-4.754-2.796-6.712-5.033-2.237-2.237-3.915-5.592-4.754-9.786-.559-3.076-.839-6.152-.839-8.948v-3.075c.28-3.915.839-7.55 2.237-11.185 1.119-3.635 2.517-6.99 4.475-10.066 1.678-3.075 3.636-6.151 5.593-8.947 7.551-10.625 14.543-18.175 21.255-22.928 6.712-4.474 12.585-7.55 17.339-9.227 4.754-1.958 9.509-3.076 13.983-3.076l3.077.28Zm-5.873 5.032c-1.958 0-3.916 1.119-6.433 3.076-1.957 1.678-4.754 4.474-7.83 8.109-3.356 3.635-7.272 9.227-11.467 16.217-3.076 5.313-6.152 11.185-9.229 17.056-3.076 6.152-5.313 13.142-6.432 20.971l-.559 6.152.28 3.075c.279 2.237.838 3.915 1.677 5.033.56 1.119 1.399 1.678 2.238 1.958l1.678.559c1.118 0 2.517-.28 4.195-.839 1.398-.28 3.356-1.678 5.593-3.915 2.237-1.957 4.755-5.312 7.551-9.506 2.797-4.194 6.153-9.787 9.788-17.057 2.238-4.473 4.475-9.506 6.992-15.378 2.237-5.872 3.915-11.464 5.314-16.777 1.118-4.473 1.678-8.388 1.678-11.464v-1.957c-.28-3.635-1.958-5.312-5.034-5.313Zm558.599-1.677h15.94l-2.237 4.753h-15.661l-10.068 21.251c-3.356 7.269-6.432 13.701-8.949 19.572l-8.95 19.573c-1.398 2.796-1.957 3.355-1.957 7.549 0 .839.279 1.958.839 3.076.559 1.119 1.398 1.678 2.796 1.678 2.238 0 5.034-1.119 8.39-3.635 3.077-2.517 6.153-5.033 9.229-8.109a166.607 166.607 0 0 0 10.907-12.023l3.356 3.635c-5.034 6.151-9.509 11.184-13.704 15.378-4.195 4.195-7.83 7.27-10.906 9.787-3.077 2.516-6.153 4.194-8.67 5.033-2.517 1.118-5.034 1.677-7.271 1.677-3.077 0-5.873-1.118-8.95-3.355-3.076-2.237-5.034-6.151-5.593-11.464l-.28-3.635.138-1.796c-2.035 2.225-3.986 4.222-5.882 5.99-4.195 3.915-8.11 6.991-11.466 8.948-3.636 1.957-6.712 3.355-9.509 4.194a31.544 31.544 0 0 1-8.389 1.118c-3.077 0-5.873-1.118-8.95-3.075-2.517-1.678-3.635-3.915-3.635-7.55v-2.237c.279-1.677.838-3.914 1.957-6.71 1.119-2.796 2.517-5.593 3.916-8.389l16.5-32.993 2.796-5.872c1.119-2.517 1.678-4.474 1.678-5.872-.279-1.398-.559-2.796-1.118-3.635-.839-.839-1.678-1.119-2.797-1.398-1.119 0-2.237 0-3.076.279-1.958.56-4.475 1.958-6.992 3.915-2.517 2.237-5.313 4.753-7.83 7.549-2.797 2.797-5.314 5.593-7.552 8.668a38.144 38.144 0 0 0-5.313 8.668l-20.695 45.297-23.212-.28 6.789-14.242c-4.756 4.597-9.205 8.133-13.427 10.608-8.111 4.753-14.543 7.269-19.856 7.269-3.636 0-6.713-1.677-9.23-5.033-1.398-1.677-2.237-4.194-2.237-7.269 0-2.237.56-5.033 1.399-8.109-2.238 2.237-4.755 4.474-7.831 6.99-3.076 2.517-6.153 4.474-9.229 6.431-3.076 1.957-6.432 3.635-9.509 5.033-3.356 1.398-6.432 1.957-9.229 1.957-3.635 0-6.432-.838-8.39-2.236-1.957-1.398-3.076-3.356-3.635-5.313-.56-1.118-.839-2.517-.839-4.194l.279-2.517c.28-2.237.839-4.194 1.678-5.872l18.838-38.966c-2.366.894-4.809 1.219-7.577 1.219-1.398 0-2.796 0-4.195-.279-.839 2.796-1.678 5.592-2.796 8.388-1.678 4.194-3.636 8.388-5.873 12.303-4.755 8.668-10.068 15.378-15.382 20.411-5.314 5.313-10.627 9.227-15.381 12.023-4.755 2.796-8.95 4.474-12.585 5.313-3.636.839-6.153 1.398-7.272 1.398-1.118 0-2.796 0-4.754-.28-2.237-.279-4.475-.838-6.712-1.957-2.517-1.118-4.754-2.796-6.712-5.033-2.237-2.237-3.915-5.592-4.754-9.786a52.727 52.727 0 0 1-.721-5.699c-4.381 4.252-8.168 7.523-11.541 10.173-4.195 3.075-7.551 5.592-10.627 6.99-3.076 1.677-5.593 2.796-7.551 3.076-1.958.559-3.915.838-5.314.838-3.076 0-5.873-1.118-8.949-3.075-2.517-1.678-3.636-3.915-3.636-7.55v-2.237c.28-1.677.839-3.914 1.958-6.71s2.517-5.593 3.915-8.389l16.501-32.993 2.796-5.872 1.399-3.076.838-3.915c0-1.118-.279-2.237-.559-3.075-.559-.839-1.678-1.119-3.076-1.119-1.958 0-4.195.56-6.712 1.958-2.517 1.398-5.034 3.355-7.551 5.312-2.517 2.237-4.754 4.754-6.712 7.27-1.958 2.796-3.636 5.592-5.034 8.109l-24.611 51.727h-22.652l15.102-29.918 5.593-11.184c1.957-3.635 3.635-7.27 5.034-10.346l5.873-11.743c.559-1.678.839-3.356.839-5.033v-1.678c-.56-1.957-1.958-3.076-3.916-3.076-1.957 0-4.474.839-6.991 2.237-2.517 1.398-5.034 3.356-7.551 5.592-2.517 2.237-4.475 4.474-6.433 6.991-1.957 2.516-3.355 5.033-4.194 7.27l-22.933 51.168-23.212-.28 39.992-83.883 20.975.28-5.594 12.583c4.195-3.076 8.95-6.431 14.823-9.507 5.593-3.076 10.907-4.754 15.941-4.754 3.635 0 6.152.839 8.11 2.237 1.678 1.398 2.797 3.076 3.636 5.033.839 1.958 1.118 3.356 1.118 4.754v2.237l.56-.28c0-.28.279-.28.559-.559l9.509-6.431c3.076-1.678 6.432-3.356 10.067-4.754 3.636-1.398 7.551-2.237 11.187-2.237 3.636 0 6.153.56 8.111 1.678 1.677 1.398 2.796 2.796 3.355 4.474l.56 3.355-.28 2.517c-.559 1.957-1.119 3.914-1.958 5.312l-9.229 18.734-15.101 32.155c-.28.56-.839 1.119-1.119 1.958-.839 1.398-1.119 3.075-1.119 4.473 0 .839.28 1.678.839 2.517.56.839 1.678 1.398 3.356 1.398 1.398 0 3.356-.839 5.873-2.796l7.271-6.152c2.711-2.439 5.421-5.403 8.387-8.638.292-3.714.862-7.184 2.197-10.655 1.119-3.635 2.517-6.99 4.475-10.066 1.678-3.075 3.635-6.151 5.593-8.947 7.551-10.625 14.543-18.175 21.255-22.928 6.712-4.474 12.584-7.55 17.339-9.227 4.754-1.958 9.508-3.076 13.983-3.076l3.076.28c5.314.559 9.509 2.796 12.026 6.431 2.237 3.075 3.636 6.71 4.195 10.625.28 1.118.28 2.237.28 3.355.279 1.118.839 2.237 1.398 3.076.839.839 1.678 1.677 3.076 2.516.839.559 1.958.839 3.077.839l2.237-.28c1.561-.141 3.05-.572 4.504-1.217l9.685-20.033 20.974-.28-30.483 63.192c-1.119 2.517-1.678 4.474-1.678 5.872 0 1.398.28 2.517 1.119 3.355.839.839 1.678 1.399 2.796 1.678h.839l2.238-.28c1.957-.559 4.195-1.957 6.991-4.194 2.517-1.957 5.314-4.473 8.11-7.269l7.552-8.948c2.237-3.076 3.915-5.872 5.034-8.388l20.695-45.297 23.212.279-31.043 64.031c-1.398 3.076-2.237 5.872-2.237 8.388 0 .839.28 1.958.839 3.076.559 1.119 1.398 1.678 2.796 1.678 2.238 0 5.314-1.398 8.95-4.474 3.635-2.796 6.991-5.872 10.347-9.507 2.408-2.579 4.921-5.264 7.541-8.185l26.225-55.007 20.974.28-6.991 16.497 7.551-6.431c2.517-1.957 5.593-3.914 8.67-5.872 3.076-1.677 6.152-3.075 9.788-4.194a32.102 32.102 0 0 1 10.347-1.678c3.636 0 6.153.56 8.111 1.678 1.678 1.398 2.796 2.796 3.356 4.474l.559 3.355-.28 2.517c-.559 1.957-1.118 3.914-1.957 5.312l-13.145 26.284c-3.356 6.431-6.991 13.7-10.627 21.809l-1.957 5.872c-.28.839-.28 1.678-.28 2.516 0 .839.28 1.958.839 3.076.559 1.119 1.398 1.678 2.796 1.678 2.238 0 5.034-1.119 8.111-3.635 3.076-2.517 6.152-5.313 9.229-8.388 2.256-2.257 4.513-4.766 6.854-7.613.667-1.75 1.371-3.5 2.246-5.249l15.102-31.596c2.796-5.872 5.593-11.744 8.669-17.616h-12.025l2.237-4.753h12.026l18.178-37.748H977l-17.898 37.748Zm-248.346 1.677c-1.957 0-3.915 1.119-6.432 3.076-1.957 1.678-4.754 4.474-7.831 8.109-3.356 3.635-7.271 9.227-11.466 16.217-3.076 5.313-6.152 11.185-9.229 17.056-3.076 6.152-5.313 13.142-6.432 20.971l-.559 6.152.279 3.075c.28 2.237.839 3.915 1.678 5.033.56 1.119 1.399 1.678 2.238 1.958l1.678.559c1.118 0 2.517-.28 4.195-.839 1.398-.28 3.356-1.678 5.593-3.915 2.237-1.957 4.754-5.312 7.551-9.506 2.797-4.194 6.152-9.787 9.788-17.057 2.237-4.473 4.475-9.506 6.992-15.378 2.237-5.872 3.915-11.464 5.314-16.777 1.118-4.473 1.677-8.388 1.677-11.464v-1.957c-.279-3.635-1.957-5.313-5.034-5.313Z" clip-rule="evenodd"/><path fill="#fff" d="M304.027 164.131c-1.398 2.796-1.958 3.355-1.958 7.549 0 .839.28 1.958.839 3.076.56 1.119 1.399 1.678 2.797 1.678 2.237 0 5.034-1.119 8.39-3.635 3.076-2.517 6.152-5.033 9.229-8.109a166.841 166.841 0 0 0 10.907-12.023l3.356 3.635c-5.034 6.151-9.509 11.184-13.704 15.378-4.195 4.195-7.831 7.27-10.907 9.787-3.076 2.516-6.152 4.194-8.669 5.033-2.517 1.118-5.034 1.677-7.272 1.677-3.076 0-5.873-1.118-8.949-3.355-3.076-2.237-5.034-6.151-5.593-11.464l-.28-3.635.28-3.635c.279-2.237.839-4.474 1.678-6.431.839-2.237 1.678-4.474 2.796-6.71l49.221-102.058h20.696l-52.857 113.242Z"/></svg>