<svg xmlns="http://www.w3.org/2000/svg" width="6080" height="3395" fill="none"><path fill="#fff" d="M1008.13 1460.69h260.15V433.246h5.07l713.64 1027.444h232.82V-.002h-259.14V1023.39h-6.07L1242.98-.002h-234.85V1460.69Zm1895.51 21.26c280.4 0 438.31-166.01 471.72-331.01l3.03-11.14h-235.85l-2.03 7.09c-24.29 71.87-106.28 138.68-231.8 138.68-163.99 0-267.24-111.35-271.29-299.629h751.1V904.96c0-323.924-190.31-539.535-497.02-539.535-306.72 0-504.11 222.697-504.11 560.793v1.012c0 341.13 194.35 554.72 516.25 554.72Zm-9.11-919.134c133.62 0 230.8 85.03 249.02 255.09h-503.09c20.24-164.999 120.46-255.09 254.07-255.09Zm841.54 897.874h263.19l210.55-784.501h5.06l211.57 784.501h265.21l290.52-1072.996h-249.02l-181.19 823.986h-6.08l-209.54-823.986h-241.93l-209.53 823.986h-5.07l-181.19-823.986h-253.07l290.52 1072.996ZM1506.43 2717.77c-14.95 72.56-41.43 148.59-79.46 228.07-38 79.46-87.53 152.6-148.58 219.41-61.03 66.79-133.01 121.78-215.93 164.97-82.918 43.19-176.784 64.78-281.595 64.78-109.409 0-206.154-16.42-290.235-49.25-84.081-32.82-154.633-78.31-211.657-136.47-57.003-58.16-99.898-127.26-128.684-207.29-28.786-80.05-43.179-167.88-43.179-263.47 0-97.9 12.084-186.87 36.252-266.92 24.188-80.06 57.013-154.06 98.474-222.01 41.481-67.94 90.144-131.86 145.987-191.76 55.864-59.89 116.041-119.2 180.53-177.93-35.703 36.86-66.514 75.45-92.432 115.77-25.897 40.31-46.912 85.51-63.045 135.62-16.112 50.08-28.206 105.65-36.283 166.7-8.056 61.03-12.084 130.13-12.084 207.3 0 208.46 52.406 366.82 157.217 475.09 104.811 108.25 264.896 162.38 480.254 162.38 66.81 0 128.43-11.52 184.86-34.55 56.44-23.03 106.25-53.83 149.44-92.4 43.19-38.59 79.18-83.51 107.96-134.75 28.81-51.27 49.54-105.7 62.19-163.29Zm-326.48-756.67c-35.7 0-78.32-3.46-127.86-10.38-49.52-6.91-102.494-15.55-158.927-25.9-56.434-10.38-114.892-21.89-175.375-34.55-60.461-12.67-119.774-24.19-177.936-34.54-58.163-10.38-113.732-19.01-166.707-25.91-52.975-6.91-100.193-10.37-141.653-10.37-20.731 0-39.742 2.01-57.035 6.04-17.272 4.03-34.543 10.65-51.815 19.86-17.272 9.22-35.703 21.31-55.295 36.29-19.57 14.97-42.02 33.97-67.347 57 71.407-74.86 132.733-135.91 183.979-183.12 51.245-47.22 95.3-84.07 132.163-110.56 36.863-26.49 68.823-44.63 95.88-54.41 27.057-9.81 52.68-14.71 76.869-14.71 35.703 0 78.893 3.46 129.569 10.38 50.676 6.89 104.811 15.53 162.405 25.9 57.593 10.36 116.905 21.59 177.936 33.69 61.049 12.09 120.079 23.32 177.079 33.69 57.01 10.36 109.98 18.99 158.93 25.91 48.95 6.92 90.7 10.37 125.27 10.37 28.78 0 53.26-2.01 73.42-6.04 20.16-4.05 37.72-9.52 52.7-16.41 14.97-6.92 27.92-15.27 38.84-25.06 10.95-9.78 22.76-21.01 35.43-33.69-59.89 67.95-109.7 123.23-149.43 165.86-39.73 42.62-75.15 75.74-106.26 99.35-31.08 23.6-60.45 39.73-88.1 48.37-27.64 8.63-59.89 12.94-96.73 12.94Zm-248.796 792.95-302.318 272.96-3.448-791.24c17.271-25.33 55.853-66.21 115.746-122.64l181.384-167.59 8.636 808.51Z"/><path fill="#fff" d="M1618.74 1624.21c-1.14-14.98 4.62-27.07 17.27-36.29 12.67-9.21 31.68-12.66 57.03-10.34 25.33 2.3 48.64 6.91 69.94 13.82 21.32 6.9 43.5 14.95 66.53 24.17 17.27-27.65 35.99-55 56.15-82.06 20.16-27.05 39.74-52.38 58.74-75.98 19-23.62 37.14-44.93 54.41-63.93 17.27-19.02 31.66-35.44 43.18-49.25-33.38 46.06-67.93 93.27-103.63 141.65-35.7 48.38-71.99 99.92-108.85 154.62-36.86 54.71-74.3 112.87-112.3 174.49-38 61.62-75.43 128.14-112.3 199.54 40.32-2.29 79.49-5.46 117.49-9.49 38-4.04 69.1-8.37 93.28-12.96v225.44c0 90.41.57 189.47 1.71 297.17 1.16 107.68 2.32 221.41 3.48 341.19 1.16 119.77 2.89 238.97 5.19 357.62 0 23.02 1.15 41.46 3.45 55.29 2.3 13.81 5.46 24.75 9.49 32.8 4.05 8.06 9.24 13.82 15.56 17.28 6.33 3.45 14.1 6.33 23.32 8.63H1471.9c5.75-3.46 11.23-10.36 16.41-20.72 5.19-10.37 8.35-35.71 9.49-76.01 2.3-104.81 4.03-210.77 5.19-317.88 1.16-107.11 2.03-208.17 2.59-303.18.57-95.02.86-180.25.86-255.69v-175.37c-2.3-31.09-4.89-56.41-7.78-75.99-2.87-19.59-7.18-35.14-12.94-46.65-5.76-11.54-13.54-19.89-23.35-25.06-9.78-5.19-21.58-8.93-35.39-11.23 23.03 1.14 50.08 1.14 81.17 0 31.1-1.16 62.79-2.89 95.05-5.19 14.98-51.83 24.18-98.48 27.62-139.94 3.46-41.46 4.61-78.31 3.45-110.56-1.14-32.24-3.72-59.88-7.75-82.91-4.03-23.05-6.62-42.06-7.78-57.03Z"/><path fill="#fff" d="M2708.87 3327.62c-5.76-9.21-10.08-21.59-12.97-37.14-2.89-15.54-5.2-35.4-6.93-59.59-1.71-24.19-2.86-54.14-3.45-89.84-.57-35.7-.85-78.89-.85-129.57 0-11.52.28-30.52.85-57 .59-26.51 1.46-56.17 2.59-88.99 1.16-32.83 2.61-68.25 4.34-106.25 1.73-38.01 3.16-74.56 4.3-109.68 1.16-35.13 2.02-67.39 2.59-96.76.59-29.38.89-53.28.89-71.71 0-17.28-.86-35.41-2.59-54.41s-4.33-37.72-7.79-56.15c-3.45-18.43-8.06-35.14-13.82-50.11-5.76-14.97-12.66-27.64-20.72-37.99-31.11-36.86-62.78-63.35-95.03-79.46-32.24-16.14-64.5-24.2-96.76-24.2-14.95 0-33.37 8.64-55.26 25.94-21.89 17.27-45.5 36.84-70.83 58.71 0 65.65.28 136.19.85 211.62.57 75.44 1.14 153.76 1.71 234.98.59 81.19 1.46 164.4 2.6 249.64 1.16 85.22 2.88 169.87 5.18 253.96 0 23.02 1.15 41.46 3.45 55.29 2.32 13.81 5.49 24.75 9.52 32.8 4.03 8.06 9.21 13.82 15.53 17.28 6.35 3.45 14.13 6.33 23.35 8.63h-405.98c5.76-3.46 11.22-10.36 16.39-20.72 5.18-10.37 8.36-35.71 9.52-76.01 2.3-104.81 4.01-207.9 5.15-309.25 1.16-101.35 2.03-194.64 2.6-279.86.59-85.24.88-158.37.88-219.41v-126.12c0-55.29-1.73-100.21-5.18-134.75-3.46-34.55-9.52-62.18-18.16-82.91-8.63-20.73-20.43-35.13-35.4-43.18-14.97-8.08-33.97-13.27-57-15.57 35.7 0 74.57-.86 116.6-2.59 42.05-1.73 82.94-4.03 122.67-6.9 39.73-2.89 76-6.06 108.82-9.52 32.83-3.46 58.47-6.34 76.9-8.63v267.77c32.24-33.4 70.25-69.11 114.01-107.11 43.78-38 85.82-71.41 126.12-100.21 29.94-20.73 55.57-35.99 76.87-45.78 21.32-9.78 42.91-14.67 64.78-14.67 32.24 0 64.2 6.62 95.88 19.86 31.68 13.24 60.47 31.68 86.39 55.3 25.92 23.59 48.08 51.52 66.49 83.76 18.43 32.24 30.53 66.8 36.29 103.66 32.26-32.24 69.41-67.08 111.44-104.51 42.03-37.44 83.21-69.98 123.53-97.62 29.94-20.73 55.57-35.99 76.87-45.78 21.32-9.78 42.91-14.67 64.78-14.67 36.86 0 72.57 8.35 107.11 25.05 34.57 16.7 65.38 39.16 92.43 67.38 27.06 28.21 48.94 61.62 65.64 100.21 16.7 38.57 25.06 79.17 25.06 121.79 0 41.46-.87 94.43-2.6 158.92-1.73 64.49-3.46 131.59-5.19 201.29-1.7 69.67-3.42 136.76-5.15 201.25-1.73 64.49-2.6 117.46-2.6 158.92 0 64.51 4.61 116.06 13.83 154.66 9.21 38.57 21.01 68.22 35.39 88.95 14.41 20.73 29.96 34.84 46.66 42.32 16.71 7.49 32.54 12.38 47.52 14.68H3394.7c-11.51-9.21-20.44-21.59-26.79-37.14-6.33-15.54-11.22-35.4-14.68-59.59-3.43-24.19-5.45-54.14-6.04-89.84-.57-35.7-.85-78.89-.85-129.57 0-11.52.28-30.52.85-57 .59-26.51 1.46-56.17 2.6-88.99 1.16-32.83 2.6-68.25 4.33-106.25 1.73-38.01 3.16-74.56 4.3-109.68 1.16-35.13 2.03-67.39 2.6-96.76.56-29.38.85-53.28.85-71.71 0-17.28-.87-35.41-2.59-54.41-1.71-19-4.3-37.72-7.75-56.15-3.46-18.43-8.07-35.14-13.83-50.11-5.76-14.97-12.67-27.64-20.75-37.99-31.08-36.86-62.75-63.35-94.99-79.46-32.25-16.14-64.5-24.2-96.77-24.2-13.81 0-31.38 8.06-52.7 24.2-21.3 16.11-44.04 34.53-68.23 55.26 3.45 16.13 5.18 32.27 5.18 48.4 0 41.46-.86 94.43-2.59 158.92-1.73 64.49-3.46 131.59-5.19 201.29-1.71 69.67-3.42 136.76-5.15 201.25-1.73 64.49-2.6 117.46-2.6 158.92 0 64.51 3.17 116.06 9.49 154.66 6.35 38.57 13.55 68.22 21.61 88.95 8.05 20.73 15.82 34.84 23.31 42.32 7.49 7.49 12.96 12.38 16.42 14.68h-355.87Zm1112.54-570.09c0-49.54 2.01-91.29 6.04-125.27 4.05-33.97 10.38-63.62 19.01-88.95 8.65-25.35 20.16-48.67 34.54-69.97 14.41-21.32 31.4-44.65 51-69.98 13.81-17.27 27.05-33.39 39.73-48.36 12.67-14.98 26.2-30.23 40.58-45.78 14.41-15.56 30.82-32.84 49.26-51.84 18.43-19 40.31-41.18 65.63-66.53 25.35-25.32 51.56-50.37 78.61-75.13 27.06-24.75 53.55-46.63 79.47-65.63 25.91-19.03 50.39-34.58 73.42-46.66 23.02-12.11 42.61-18.16 58.74-18.16 28.78 0 60.45 5.47 94.99 16.42 34.57 10.94 69.12 25.34 103.66 43.21 34.57 17.84 67.97 38.57 100.22 62.19 32.24 23.6 61.61 48.07 88.1 73.42l-678.95 597.74c2.32 43.76 6.65 81.19 12.97 112.3 6.33 31.08 16.12 58.15 29.36 81.2 13.24 23.03 30.51 44.04 51.81 63.04 21.33 19.01 48.11 38.3 80.35 57.89 51.84 32.25 101.08 52.69 147.73 61.34 46.65 8.62 89.54 12.94 128.68 12.94 17.3 0 32.85-.87 46.66-2.6 13.82-1.73 26.76-5.47 38.85-11.23 12.1-5.75 24.78-14.1 38.02-25.05 13.24-10.94 28.51-25.05 45.81-42.32-16.14 19.59-35.73 40.33-58.78 62.22-23.03 21.87-47.22 43.17-72.57 63.9-25.32 20.73-50.37 40.31-75.12 58.74-24.76 18.43-46.93 33.97-66.5 46.63-29.94 19.59-58.16 34.85-84.65 45.77-26.48 10.94-57.58 16.42-93.28 16.42-48.38 0-94.74-6.04-139.09-18.13-44.33-12.08-87.81-31.95-130.43-59.6-44.92-29.94-80.92-61.32-107.99-94.14-27.06-32.83-47.79-70.26-62.19-112.29-14.39-42.05-23.6-90.43-27.65-145.14-4.03-54.7-6.04-118.91-6.04-192.61Zm300.61-274.7v165c0 47.78 1.15 90.11 3.44 126.97l404.28-374.88c-51.84-50.68-108.57-94.15-170.19-130.43-61.6-36.29-122.93-54.44-183.98-54.44-9.21 0-16.42-.28-21.6-.85-5.17-.59-11.21.27-18.13 2.59-5.76 31.09-9.5 68.52-11.23 112.3-1.73 43.76-2.59 95-2.59 153.74Z"/><path fill="#fff" d="M5597.38 3137.6c3.46-18.43 6.92-39.16 10.38-62.19 3.46-23.05 5.19-47.24 5.19-72.57 0-52.99-7.2-102.52-21.61-148.58-14.4-46.08-37.16-86.39-68.26-120.93-31.09-34.54-71.1-61.6-120.05-81.17-48.95-19.59-107.98-29.39-177.08-29.39-10.36 0-21.87 1.15-34.55 3.45-12.67 2.3-22.46 4.6-29.35 6.9l209.03-217.67c23.03-5.76 63.34-8.64 120.93-8.64 57.58 0 109.69 9.8 156.33 29.39 46.65 19.57 86.38 46.06 119.2 79.46 32.83 33.41 58.17 72.57 76.01 117.49 17.87 44.9 26.8 92.11 26.8 141.65 0 48.36-5.76 88.37-17.28 120.05-11.51 31.67-31.09 60.19-58.74 85.53-27.65 24.19-58.74 50.68-93.28 79.47a7022.22 7022.22 0 0 0-103.67 88.1c-32.24 26.48-64.49 53.84-96.73 82.05-32.25 28.22-62.19 54.42-89.84 78.61-14.97 12.67-27.65 22.76-38.02 30.24-10.36 7.49-20.44 13.25-30.24 17.27-9.79 4.03-20.44 6.61-31.95 7.75-11.52 1.16-25.91 1.74-43.18 1.74-54.14 0-109.14-5.75-165-17.27-55.84-11.51-110.55-27.34-164.11-47.48-53.55-20.16-103.94-43.2-151.18-69.12-47.22-25.92-88.68-53.27-124.38-82.05l233.23-241.87c28.79 31.1 67.07 60.48 114.86 88.13 47.81 27.62 101.08 52.1 159.81 73.42 58.76 21.3 121.82 38.29 189.2 50.96 67.38 12.65 135.04 18.98 202.99 18.98h14.68c5.19 0 11.81-.57 19.86-1.71Zm29.39-846.53c-43.78 0-92.16-5.48-145.13-16.42-52.98-10.95-106.25-23.33-159.81-37.14-53.55-13.81-104.79-26.19-153.74-37.14-48.95-10.94-91.27-16.41-126.98-16.41-23.05 0-41.48 1.15-55.29 3.44-13.81 2.3-25.33 5.76-34.54 10.38-10.38 24.19-15.57 55.28-15.57 93.29 0 21.89 5.18 47.52 15.53 76.9 10.38 29.35 25.07 60.15 44.07 92.4 19.02 32.24 41.2 64.78 66.52 97.62 25.35 32.81 52.99 63.04 82.91 90.69l-233.2 241.87c-33.4-28.81-61.33-56.46-83.79-82.95-22.46-26.48-40.61-52.97-54.44-79.46-13.82-26.49-23.6-53.84-29.36-82.05-5.75-28.22-8.63-57.88-8.63-88.99 0-55.27 12.38-108.82 37.13-160.63 24.76-51.84 63.06-101.95 114.9-150.32 46.07-42.62 87.54-80.34 124.38-113.15 36.86-32.84 71.41-63.07 103.66-90.7 17.27-16.13 32.53-28.22 45.77-36.28 13.25-8.06 25.06-14.39 35.43-19.01 12.68-5.76 25.05-10.37 37.14-13.83 12.1-3.45 26.79-5.18 44.06-5.18 39.17 0 85.23 4.32 138.21 12.97 52.97 8.64 107.38 18.44 163.23 29.38 55.86 10.93 109.71 20.71 161.55 29.36 51.83 8.62 96.17 12.94 133.01 12.94 14.98 0 29.37-1.72 43.18-5.16 13.84-3.46 28.53-9.51 44.07-18.16 15.56-8.64 32.84-20.44 51.85-35.39 19-14.98 41.16-33.99 66.49-57.04-74.87 76.03-137.06 137.08-186.57 183.16-49.52 46.06-90.7 81.76-123.53 107.11-32.82 25.32-59.88 42.31-81.2 50.96-21.3 8.62-41.74 12.94-61.31 12.94Z"/></svg>