<svg xmlns="http://www.w3.org/2000/svg" width="145" height="135" fill="none"><path fill="#fff" d="M37 91.673c6.77 0 13.349 2.107 19.083 6.003-4.801 7.256-8.083 15.564-9.688 24.285l-.193 1.098c-.767 4.585.24 8.66 2.335 11.941H7.675c-4.562 0-8.332-3.72-7.58-8.216 1.414-8.433 4.983-16.259 10.328-22.421C17.47 96.238 27.032 91.673 37 91.673ZM37.424 24a30.44 30.44 0 0 1 17.459 5.472 46.316 46.316 0 0 0-.616 7.527c0 11.44 4.177 21.901 11.087 29.948-4.76 10.678-15.474 18.123-27.93 18.123-16.88 0-30.564-13.67-30.564-30.535C6.86 37.671 20.544 24 37.424 24Zm62.539 58.305c12.123 0 23.751 5.552 32.324 15.434 6.5 7.494 10.84 17.012 12.559 27.269.916 5.467-3.669 9.992-9.218 9.992h-71.33c-5.55 0-10.134-4.525-9.218-9.992 1.719-10.257 6.06-19.775 12.56-27.27 8.573-9.881 20.2-15.433 32.323-15.433ZM100.479 0c20.53 0 37.172 16.627 37.172 37.138 0 20.51-16.642 37.137-37.172 37.137-20.53 0-37.172-16.627-37.172-37.138C63.306 16.628 79.948 0 100.478 0Z"/></svg>