<svg xmlns="http://www.w3.org/2000/svg" width="408" height="451" fill="none"><mask id="c" width="409" height="451" x="-.641" y="0" fill="#000" maskUnits="userSpaceOnUse"><path fill="#fff" d="M-.641 0h409v451h-409z"/><path d="M21.4 128.8c0-25.6 7.4-47.4 22.2-65.4 14.8-18 36-31.8 63.601-41.4 27.6-10 60.6-15 99-15 38 0 70.4 4.8 97.2 14.4 26.8 9.2 47.2 22.8 61.2 40.8 14.4 18 21.6 39.6 21.6 64.8 0 15.6-3 29.8-9 42.6-5.6 12.4-14.2 23.4-25.8 33-11.6 9.6-26.2 18-43.8 25.2l-1.2-16.8c20.8 6.4 38.2 14.8 52.2 25.2 14 10 24.4 21.8 31.2 35.4 7.2 13.6 10.8 29.2 10.8 46.8 0 20-4.4 37.8-13.2 53.4-8.4 15.6-21.2 28.8-38.4 39.6-16.8 10.4-37.6 18.4-62.4 24-24.4 5.6-52.6 8.4-84.6 8.4-31.6 0-59.6-2.8-84-8.4-24-5.2-44.4-13-61.2-23.4-16.4-10.4-28.8-23.2-37.2-38.4C11.2 358 7 340.2 7 320.2c0-13.2 2-25.4 6-36.6 4-11.2 9.8-21.4 17.4-30.6 8-9.2 17.8-17.2 29.4-24 12-7.2 25.8-13.2 41.4-18l-.6 16.2C83 220.8 68.2 213 56.2 203.8c-11.6-9.2-20.4-20-26.4-32.4-5.6-12.8-8.4-27-8.4-42.6ZM262.002 304c0-7.6-2.2-13.8-6.6-18.6-4-4.8-10.4-8.4-19.2-10.8-8.4-2.4-19.2-3.6-32.4-3.6-12.8 0-23.6 1.2-32.4 3.6-8.8 2.4-15.4 6-19.8 10.8-4 4.8-6 11-6 18.6 0 7.2 2 13.4 6 18.6 4.4 4.8 11 8.4 19.8 10.8 8.8 2.4 19.6 3.6 32.4 3.6 13.2 0 24-1.2 32.4-3.6 8.8-2.4 15.2-6 19.2-10.8 4.4-5.2 6.6-11.4 6.6-18.6Zm-58.2-191.4c-12 0-21.8 1-29.4 3-7.6 2-13.2 5.2-16.8 9.6-3.6 4.4-5.4 10-5.4 16.8 0 6.8 1.8 12.6 5.4 17.4 3.6 4.4 9.2 7.6 16.8 9.6 7.6 2 17.4 3 29.4 3 18 0 31-2.4 39-7.2 8.4-4.8 12.6-12.4 12.6-22.8 0-6.8-1.8-12.4-5.4-16.8-3.6-4.4-9.2-7.6-16.8-9.6-7.6-2-17.4-3-29.4-3Z"/></mask><path fill="url(#a)" d="M21.4 128.8c0-25.6 7.4-47.4 22.2-65.4 14.8-18 36-31.8 63.601-41.4 27.6-10 60.6-15 99-15 38 0 70.4 4.8 97.2 14.4 26.8 9.2 47.2 22.8 61.2 40.8 14.4 18 21.6 39.6 21.6 64.8 0 15.6-3 29.8-9 42.6-5.6 12.4-14.2 23.4-25.8 33-11.6 9.6-26.2 18-43.8 25.2l-1.2-16.8c20.8 6.4 38.2 14.8 52.2 25.2 14 10 24.4 21.8 31.2 35.4 7.2 13.6 10.8 29.2 10.8 46.8 0 20-4.4 37.8-13.2 53.4-8.4 15.6-21.2 28.8-38.4 39.6-16.8 10.4-37.6 18.4-62.4 24-24.4 5.6-52.6 8.4-84.6 8.4-31.6 0-59.6-2.8-84-8.4-24-5.2-44.4-13-61.2-23.4-16.4-10.4-28.8-23.2-37.2-38.4C11.2 358 7 340.2 7 320.2c0-13.2 2-25.4 6-36.6 4-11.2 9.8-21.4 17.4-30.6 8-9.2 17.8-17.2 29.4-24 12-7.2 25.8-13.2 41.4-18l-.6 16.2C83 220.8 68.2 213 56.2 203.8c-11.6-9.2-20.4-20-26.4-32.4-5.6-12.8-8.4-27-8.4-42.6ZM262.002 304c0-7.6-2.2-13.8-6.6-18.6-4-4.8-10.4-8.4-19.2-10.8-8.4-2.4-19.2-3.6-32.4-3.6-12.8 0-23.6 1.2-32.4 3.6-8.8 2.4-15.4 6-19.8 10.8-4 4.8-6 11-6 18.6 0 7.2 2 13.4 6 18.6 4.4 4.8 11 8.4 19.8 10.8 8.8 2.4 19.6 3.6 32.4 3.6 13.2 0 24-1.2 32.4-3.6 8.8-2.4 15.2-6 19.2-10.8 4.4-5.2 6.6-11.4 6.6-18.6Zm-58.2-191.4c-12 0-21.8 1-29.4 3-7.6 2-13.2 5.2-16.8 9.6-3.6 4.4-5.4 10-5.4 16.8 0 6.8 1.8 12.6 5.4 17.4 3.6 4.4 9.2 7.6 16.8 9.6 7.6 2 17.4 3 29.4 3 18 0 31-2.4 39-7.2 8.4-4.8 12.6-12.4 12.6-22.8 0-6.8-1.8-12.4-5.4-16.8-3.6-4.4-9.2-7.6-16.8-9.6-7.6-2-17.4-3-29.4-3Z"/><path fill="url(#b)" d="m43.6 63.4-5.406-4.446L43.6 63.4ZM107.202 22l2.299 6.611.043-.014.042-.016L107.201 22Zm196.2-.6-2.361 6.59.044.016.044.015 2.273-6.621Zm61.2 40.8-5.526 4.298.03.037.03.038 5.466-4.373Zm12.6 107.4-6.338-2.971-.021.045-.021.045 6.38 2.881Zm-25.8 33 4.463 5.393-4.463-5.393Zm-43.8 25.2-6.982.499.688 9.639 8.944-3.659-2.65-6.479Zm-1.2-16.8 2.058-6.69-9.769-3.006.729 10.195 6.982-.499Zm52.2 25.2-4.174 5.619.052.039.053.038 4.069-5.696Zm31.2 35.4-6.261 3.13.036.073.038.072 6.187-3.275Zm-2.4 100.2-6.097-3.439-.034.06-.033.06 6.164 3.319Zm-38.4 39.6 3.684 5.952.019-.012.019-.012-3.722-5.928Zm-62.4 24-1.542-6.828-.012.003-.012.002 1.566 6.823Zm-168.6 0 1.566-6.823-.042-.009-.042-.009-1.482 6.841Zm-61.2-23.4-3.749 5.912.032.02.032.02L56.801 412Zm-37.2-38.4-6.163 3.319.018.033.018.034 6.127-3.386Zm-6.6-90-6.592-2.354L13 283.6ZM30.4 253l-5.282-4.593-.059.067-.056.068L30.401 253Zm29.4-24 3.54 6.039.03-.018.031-.019-3.6-6.002Zm41.4-18 6.995.259.365-9.847-9.419 2.898L101.2 211Zm-.6 16.2-2.392 6.579 9.031 3.284.356-9.604-6.995-.259Zm-44.4-23.4-4.35 5.484.045.036.046.035L56.2 203.8Zm-26.4-32.4-6.413 2.806.053.122.059.121 6.3-3.049Zm225.6 114-5.378 4.481.106.127.112.122 5.16-4.73Zm-19.2-10.8-1.923 6.731.04.011.041.011 1.842-6.753Zm-64.8 0 1.842 6.753-1.842-6.753Zm-19.8 10.8-5.16-4.73-.112.122-.106.127 5.378 4.481Zm0 37.2-5.549 4.268.185.239.204.223 5.16-4.73Zm19.8 10.8-1.842 6.753 1.842-6.753Zm64.8 0-1.842-6.753-.041.011-.04.011 1.923 6.731Zm19.2-10.8-5.344-4.522-.017.02-.017.021 5.378 4.481Zm-81-207 1.781 6.769-1.781-6.769Zm-16.8 9.6 5.417 4.433-5.417-4.433Zm0 34.2-5.6 4.2.088.118.094.115 5.418-4.433Zm16.8 9.6 1.781-6.77L174.4 169Zm68.4-4.2-3.473-6.078-.065.037-.064.039 3.602 6.002Zm7.2-39.6-5.418 4.433L250 125.2Zm-228.6 3.6h7c0-24.149 6.94-44.333 20.607-60.954L43.6 63.4l-5.407-4.446C22.26 78.333 14.4 101.75 14.4 128.8h7Zm22.2-65.4 5.407 4.446c13.8-16.783 33.802-29.95 60.493-39.236L107.201 22l-2.3-6.611c-28.509 9.916-50.906 24.348-66.707 43.565L43.6 63.4ZM107.2 22l2.384 6.581C136.226 18.93 168.377 14 206.201 14V0c-38.976 0-72.825 5.071-101.385 15.419L107.201 22Zm99-15v7c37.448 0 69.003 4.735 94.839 13.99l2.361-6.59 2.36-6.59C277.998 4.865 244.753 0 206.201 0v7Zm97.2 14.4-2.273 6.62c25.826 8.866 44.965 21.786 57.947 38.478L364.6 62.2l5.525-4.298c-15.017-19.308-36.678-33.588-64.452-43.123L303.4 21.4Zm61.2 40.8-5.466 4.373C372.446 83.213 379.2 103.232 379.2 127h14c0-26.632-7.647-49.814-23.134-69.173L364.6 62.2Zm21.6 64.8h-7c0 14.68-2.818 27.851-8.338 39.629l6.338 2.971 6.338 2.971c6.479-13.822 9.662-29.052 9.662-45.571h-7Zm-9 42.6-6.38-2.881c-5.116 11.328-13.016 21.495-23.883 30.488l4.463 5.393 4.463 5.393c12.333-10.207 21.632-22.04 27.716-35.512L377.2 169.6Zm-25.8 33-4.463-5.393c-10.933 9.048-24.879 17.115-41.988 24.114l2.651 6.479 2.65 6.479c18.092-7.401 33.346-16.134 45.613-26.286L351.4 202.6Zm-43.8 25.2 6.982-.499-1.2-16.8-6.982.499-6.982.499 1.2 16.8 6.982-.499Zm-1.2-16.8-2.059 6.69c20.22 6.222 36.86 14.305 50.085 24.129l4.174-5.619 4.174-5.619c-14.775-10.976-32.936-19.693-54.316-26.271L306.4 211Zm52.2 25.2-4.069 5.696c13.195 9.425 22.782 20.383 29.008 32.834l6.261-3.13 6.261-3.131c-7.375-14.748-18.587-27.39-33.393-37.965L358.6 236.2Zm31.2 35.4-6.187 3.275c6.594 12.454 9.987 26.901 9.987 43.525h14c0-18.576-3.807-35.329-11.614-50.075L389.8 271.6Zm10.8 46.8h-7c0 18.938-4.156 35.529-12.297 49.961l6.097 3.439 6.097 3.439c9.458-16.768 14.103-35.777 14.103-56.839h-7Zm-13.2 53.4-6.164-3.319c-7.746 14.386-19.632 26.739-35.959 36.991L349 411.4l3.722 5.928c18.074-11.348 31.787-25.395 40.841-42.209L387.4 371.8ZM349 411.4l-3.685-5.952c-15.981 9.893-36.009 17.648-60.257 23.124l1.542 6.828 1.542 6.828c25.351-5.724 46.923-13.969 64.542-24.876L349 411.4Zm-62.4 24-1.566-6.823c-23.768 5.455-51.423 8.223-83.034 8.223v14c32.389 0 61.133-2.832 86.166-8.577L286.6 435.4Zm-84.6 8.4v-7c-31.204 0-58.661-2.766-82.434-8.223L118 435.4l-1.566 6.823c25.027 5.743 53.569 8.577 85.566 8.577v-7Zm-84-8.4 1.482-6.841c-23.402-5.071-43.018-12.618-58.998-22.511L56.801 412l-3.685 5.952c17.62 10.907 38.805 18.96 63.403 24.289l1.482-6.841ZM56.8 412l3.749-5.912c-15.528-9.846-27.055-21.819-34.822-35.874L19.6 373.6l-6.127 3.386c9.033 16.345 22.305 29.972 39.578 40.926l3.75-5.912Zm-37.2-38.4 6.163-3.319C17.98 355.827 14 339.193 14 320.2H0c0 21.007 4.42 39.973 13.437 56.719L19.6 373.6ZM7 320.2h7c0-12.485 1.89-23.88 5.592-34.246L13 283.6l-6.592-2.354C2.11 293.28 0 306.285 0 320.2h7Zm6-36.6 6.592 2.354c3.726-10.432 9.12-19.92 16.204-28.496L30.401 253l-5.397-4.458c-8.116 9.824-14.321 20.736-18.595 32.704L13 283.6ZM30.4 253l5.282 4.593c7.453-8.571 16.646-16.099 27.658-22.554L59.8 229l-3.54-6.039c-12.189 7.145-22.596 15.617-31.143 25.446L30.402 253Zm29.4-24 3.601 6.002c11.443-6.865 24.71-12.651 39.857-17.312L101.2 211l-2.059-6.69c-16.053 4.939-30.386 11.153-42.943 18.688L59.801 229Zm41.4-18-6.995-.259-.6 16.2 6.995.259 6.995.259.6-16.2L101.2 211Zm-.6 16.2 2.392-6.579c-17.082-6.211-31.216-13.7-42.533-22.376L56.2 203.8l-4.258 5.555c12.682 9.724 28.149 17.835 46.267 24.424l2.392-6.579Zm-44.4-23.4 4.35-5.484c-10.838-8.596-18.942-18.583-24.45-29.965l-6.3 3.049-6.301 3.049c6.492 13.418 15.989 25.031 28.351 34.835l4.35-5.484Zm-26.4-32.4 6.413-2.806c-5.17-11.817-7.813-25.047-7.813-39.794h-14c0 16.453 2.957 31.623 8.987 45.406L29.8 171.4ZM262 304h7c0-9.039-2.662-17.026-8.44-23.33l-5.16 4.73-5.16 4.73c3.021 3.296 4.76 7.709 4.76 13.87h7Zm-6.6-18.6 5.377-4.481c-5.251-6.302-13.158-10.46-22.735-13.072L236.2 274.6l-1.842 6.753c8.023 2.188 12.916 5.23 15.664 8.528l5.378-4.481Zm-19.2-10.8 1.923-6.731C228.866 265.224 217.354 264 203.8 264v14c12.845 0 22.934 1.176 30.477 3.331l1.923-6.731Zm-32.4-3.6v-7c-13.193 0-24.655 1.232-34.242 3.847l1.842 6.753 1.842 6.753c8.012-2.185 18.151-3.353 30.558-3.353v-7Zm-32.4 3.6-1.842-6.753c-9.586 2.614-17.535 6.732-23.118 12.823l5.16 4.73 5.16 4.73c3.217-3.51 8.467-6.591 16.482-8.777L171.4 274.6Zm-19.8 10.8-5.378-4.481C140.96 287.233 138.6 295.13 138.6 304h14c0-6.33 1.639-10.833 4.377-14.119L151.6 285.4Zm-6 18.6h-7c0 8.584 2.417 16.324 7.451 22.868l5.549-4.268 5.548-4.268c-2.966-3.856-4.548-8.516-4.548-14.332h-7Zm6 18.6-5.16 4.73c5.583 6.09 13.532 10.209 23.118 12.823l1.842-6.753 1.842-6.753c-8.015-2.186-13.265-5.267-16.482-8.777l-5.16 4.73Zm19.8 10.8-1.842 6.753c9.587 2.615 21.049 3.847 34.242 3.847v-14c-12.407 0-22.546-1.168-30.558-3.353L171.4 333.4Zm32.4 3.6v7c13.554 0 25.066-1.224 34.323-3.869L236.2 333.4l-1.923-6.731C226.734 328.824 216.645 330 203.8 330v7Zm32.4-3.6 1.842 6.753c9.577-2.612 17.484-6.77 22.735-13.072L255.4 322.6l-5.378-4.481c-2.748 3.298-7.641 6.34-15.664 8.528l1.842 6.753Zm19.2-10.8 5.344 4.522C266.277 320.582 269 312.753 269 304h-14c0 5.647-1.678 10.218-4.944 14.078l5.344 4.522Zm-51.6-210v-7c-12.321 0-22.78 1.02-31.182 3.23l1.782 6.77 1.781 6.769c6.799-1.789 15.94-2.769 27.619-2.769v-7Zm-29.4 3-1.782-6.77c-8.495 2.236-15.603 6.031-20.436 11.937l5.418 4.433 5.417 4.433c2.368-2.894 6.459-5.499 13.164-7.264L174.4 115.6Zm-16.8 9.6-5.418-4.433c-4.814 5.884-6.982 13.147-6.982 21.233h14c0-5.514 1.432-9.451 3.817-12.367L157.6 125.2Zm-5.4 16.8h-7c0 8.103 2.172 15.43 6.8 21.6l5.6-4.2 5.6-4.2c-2.572-3.43-4-7.703-4-13.2h-7Zm5.4 17.4-5.418 4.433c4.833 5.906 11.941 9.701 20.436 11.937L174.4 169l1.781-6.77c-6.705-1.764-10.796-4.369-13.164-7.263L157.6 159.4Zm16.8 9.6-1.782 6.77c8.402 2.21 18.861 3.23 31.182 3.23v-14c-11.679 0-20.82-.98-27.619-2.77L174.4 169Zm29.4 3v7c18.286 0 32.901-2.378 42.601-8.198L242.8 164.8l-3.602-6.002c-6.3 3.78-17.685 6.202-35.398 6.202v7Zm39-7.2 3.473 6.078C257.047 164.721 262.4 154.682 262.4 142h-14c0 8.118-3.047 13.279-9.073 16.722l3.473 6.078Zm12.6-22.8h7c0-8.086-2.168-15.349-6.983-21.233L250 125.2l-5.418 4.433c2.386 2.916 3.818 6.853 3.818 12.367h7Zm-5.4-16.8 5.417-4.433c-4.832-5.906-11.941-9.701-20.436-11.937l-1.781 6.77-1.782 6.769c6.705 1.765 10.797 4.37 13.164 7.264L250 125.2Zm-16.8-9.6 1.781-6.77c-8.401-2.21-18.86-3.23-31.181-3.23v14c11.679 0 20.82.98 27.618 2.769l1.782-6.769Z" mask="url(#c)"/><defs><linearGradient id="a" x1="203.859" x2="203.859" y1="-7" y2="444" gradientUnits="userSpaceOnUse"><stop stop-color="#fff"/><stop offset="1" stop-color="#fff" stop-opacity="0"/></linearGradient><linearGradient id="b" x1="203.859" x2="203.859" y1="-7" y2="444" gradientUnits="userSpaceOnUse"><stop stop-color="#fff" stop-opacity="0"/><stop offset="1" stop-color="#fff"/></linearGradient></defs></svg>