<svg xmlns="http://www.w3.org/2000/svg" width="4874" height="450" fill="none"><path fill="url(#a)" d="M189.602 24.003H.002v-13.2h394.2v13.2h-189.6v415.2h-15v-415.2Zm608.493 321c-18.4 33.6-44.6 59.6-78.6 78-33.6 18-73.4 27-119.4 27-45.6 0-85.4-9-119.4-27-34-18.4-60.4-44.4-79.2-78-18.4-33.6-27.6-73.6-27.6-120 0-46.4 9.2-86.4 27.6-120 18.8-33.6 45.2-59.4 79.2-77.4 34-18.4 73.8-27.6 119.4-27.6 46 0 85.8 9.2 119.4 27.6 34 18 60.2 43.8 78.6 77.4 18.8 33.6 28.2 73.6 28.2 120 0 46.4-9.4 86.4-28.2 120Zm-382.8-7.2c17.2 31.6 41.6 56 73.2 73.2 31.6 16.8 68.8 25.2 111.6 25.2 43.2 0 80.4-8.4 111.6-25.2 31.6-17.2 56-41.6 73.2-73.2 17.2-31.6 25.8-69.2 25.8-112.8 0-43.6-8.6-81.2-25.8-112.8-17.2-31.6-41.6-55.8-73.2-72.6-31.2-17.2-68.4-25.8-111.6-25.8-42.8 0-80 8.6-111.6 25.8-31.6 16.8-56 41-73.2 72.6-17.2 31.6-25.8 69.2-25.8 112.8 0 43.6 8.6 81.2 25.8 112.8Zm465.418-327h194.397c24 0 45.4 2.8 64.2 8.4 19.2 5.2 35.2 13 48 23.4 13.2 10.4 23.2 23.2 30 38.4 6.8 15.2 10.2 32.6 10.2 52.2 0 20.4-3.4 38.4-10.2 54-6.4 15.2-16.2 28.2-29.4 39-13.2 10.4-29.8 18.2-49.8 23.4-20 5.2-43.4 7.8-70.2 7.8H890.913v-13.2h177.597c32 0 58.6-4.2 79.8-12.6 21.2-8.4 37-20.8 47.4-37.2 10.8-16.4 16.2-36.8 16.2-61.2 0-23.6-5.4-43.4-16.2-59.4-10.8-16.4-26.6-28.8-47.4-37.2-20.8-8.4-46.2-12.6-76.2-12.6H890.913l4.8-7.2v422.4h-15v-428.4Zm586.077 428.4h-109.2l69.6-298.2 5.4 5.4-72 45-39.6-80.4 148.8-86.4h93l-96 414.6Zm75.6-313.8c11.2-26.4 24-47.8 38.4-64.2 14.4-16.4 30.6-28.4 48.6-36 18.4-8 38.8-12 61.2-12 28.4 0 50.8 5.8 67.2 17.4 16.4 11.6 27.8 27.8 34.2 48.6 6.4 20.8 8.8 45.2 7.2 73.2-1.2 27.6-5.2 57.6-12 90-8 37.2-17.6 69-28.8 95.4-10.8 26.4-23.4 47.8-37.8 64.2-14.4 16.4-30.8 28.6-49.2 36.6-18 7.6-38.2 11.4-60.6 11.4-28.4 0-50.8-5.8-67.2-17.4-16.4-11.6-27.8-27.8-34.2-48.6-6.4-20.8-9-45-7.8-72.6 1.6-28 5.8-58.2 12.6-90.6 8-37.2 17.4-69 28.2-95.4Zm150.6 23.4c1.2-10.8.4-19.2-2.4-25.2-2.4-6.4-7.2-9.6-14.4-9.6-6.8 0-13 3-18.6 9-5.2 5.6-10.4 16.8-15.6 33.6-5.2 16.8-11.4 41.8-18.6 75-3.6 16-6.8 31.2-9.6 45.6-2.8 14.4-4.8 27-6 37.8-.8 10.4 0 18.8 2.4 25.2 2.8 6 7.8 9 15 9s13.4-2.8 18.6-8.4c5.2-6 10.4-17.4 15.6-34.2 5.6-17.2 11.8-42.2 18.6-75 3.6-16.4 6.8-31.6 9.6-45.6 2.8-14.4 4.6-26.8 5.4-37.2Zm178.79-138h103.8l175.8 372.6h-36l175.2-372.6h101.4v428.4h-83.4v-422.4h54l-196.8 422.4h-69l-198.6-422.4h55.8v422.4h-82.2v-428.4Zm997.13 333.6c-20 33.6-48.6 59.6-85.8 78-36.8 18.4-80.4 27.6-130.8 27.6-50 0-93.6-9-130.8-27-36.8-18.4-65.2-44.4-85.2-78-20-34-30-74-30-120s10-85.8 30-119.4c20.4-34 49-60 85.8-78 37.2-18.4 81-27.6 131.4-27.6 50.4 0 94 9.2 130.8 27.6 36.8 18 65.2 43.8 85.2 77.4 20 33.6 30 73.6 30 120 0 46-10.2 85.8-30.6 119.4Zm-352.2-38.4c12.4 22.4 30 39.6 52.8 51.6 23.2 12 51 18 83.4 18 32.4 0 60-6 82.8-18 23.2-12 40.8-29.2 52.8-51.6 12.4-22.4 18.6-49.4 18.6-81 0-32-6.2-59.2-18.6-81.6-12-22.4-29.4-39.4-52.2-51-22.8-12-50.6-18-83.4-18-32 0-59.6 6-82.8 18-23.2 11.6-41 28.8-53.4 51.6-12 22.4-18 49.4-18 81s6 58.6 18 81Zm397.01-295.2h81.6l298.2 359.4-43.2 10.2v-369.6h85.2v428.4h-81.6l-297-358.2 42-10.8v369h-85.2v-428.4Zm581.29 74.4h-169.8v-74.4h427.8v74.4h-169.2v354h-88.8v-354Zm580.34-74.4h88.8v428.4h-88.8v-428.4Zm-331.8 0h88.8v428.4h-88.8v-428.4Zm41.4 168h337.8v78h-337.8v-78Zm415.11-168h88.8v422.4l-47.4-68.4h312.6l-11.4 74.4h-342.6v-428.4Zm221.66 0h99.6l162.6 236.4h-70.2l162.6-236.4h97.2l-196.2 275.4 14.4-54v207h-88.8v-207l14.4 54-195.6-275.4Z"/><path fill="#000" d="M189.602 24.003H.002v-13.2h394.2v13.2h-189.6v415.2h-15v-415.2Zm608.493 321c-18.4 33.6-44.6 59.6-78.6 78-33.6 18-73.4 27-119.4 27-45.6 0-85.4-9-119.4-27-34-18.4-60.4-44.4-79.2-78-18.4-33.6-27.6-73.6-27.6-120 0-46.4 9.2-86.4 27.6-120 18.8-33.6 45.2-59.4 79.2-77.4 34-18.4 73.8-27.6 119.4-27.6 46 0 85.8 9.2 119.4 27.6 34 18 60.2 43.8 78.6 77.4 18.8 33.6 28.2 73.6 28.2 120 0 46.4-9.4 86.4-28.2 120Zm-382.8-7.2c17.2 31.6 41.6 56 73.2 73.2 31.6 16.8 68.8 25.2 111.6 25.2 43.2 0 80.4-8.4 111.6-25.2 31.6-17.2 56-41.6 73.2-73.2 17.2-31.6 25.8-69.2 25.8-112.8 0-43.6-8.6-81.2-25.8-112.8-17.2-31.6-41.6-55.8-73.2-72.6-31.2-17.2-68.4-25.8-111.6-25.8-42.8 0-80 8.6-111.6 25.8-31.6 16.8-56 41-73.2 72.6-17.2 31.6-25.8 69.2-25.8 112.8 0 43.6 8.6 81.2 25.8 112.8Zm465.418-327h194.397c24 0 45.4 2.8 64.2 8.4 19.2 5.2 35.2 13 48 23.4 13.2 10.4 23.2 23.2 30 38.4 6.8 15.2 10.2 32.6 10.2 52.2 0 20.4-3.4 38.4-10.2 54-6.4 15.2-16.2 28.2-29.4 39-13.2 10.4-29.8 18.2-49.8 23.4-20 5.2-43.4 7.8-70.2 7.8H890.913v-13.2h177.597c32 0 58.6-4.2 79.8-12.6 21.2-8.4 37-20.8 47.4-37.2 10.8-16.4 16.2-36.8 16.2-61.2 0-23.6-5.4-43.4-16.2-59.4-10.8-16.4-26.6-28.8-47.4-37.2-20.8-8.4-46.2-12.6-76.2-12.6H890.913l4.8-7.2v422.4h-15v-428.4Zm586.077 428.4h-109.2l69.6-298.2 5.4 5.4-72 45-39.6-80.4 148.8-86.4h93l-96 414.6Zm75.6-313.8c11.2-26.4 24-47.8 38.4-64.2 14.4-16.4 30.6-28.4 48.6-36 18.4-8 38.8-12 61.2-12 28.4 0 50.8 5.8 67.2 17.4 16.4 11.6 27.8 27.8 34.2 48.6 6.4 20.8 8.8 45.2 7.2 73.2-1.2 27.6-5.2 57.6-12 90-8 37.2-17.6 69-28.8 95.4-10.8 26.4-23.4 47.8-37.8 64.2-14.4 16.4-30.8 28.6-49.2 36.6-18 7.6-38.2 11.4-60.6 11.4-28.4 0-50.8-5.8-67.2-17.4-16.4-11.6-27.8-27.8-34.2-48.6-6.4-20.8-9-45-7.8-72.6 1.6-28 5.8-58.2 12.6-90.6 8-37.2 17.4-69 28.2-95.4Zm150.6 23.4c1.2-10.8.4-19.2-2.4-25.2-2.4-6.4-7.2-9.6-14.4-9.6-6.8 0-13 3-18.6 9-5.2 5.6-10.4 16.8-15.6 33.6-5.2 16.8-11.4 41.8-18.6 75-3.6 16-6.8 31.2-9.6 45.6-2.8 14.4-4.8 27-6 37.8-.8 10.4 0 18.8 2.4 25.2 2.8 6 7.8 9 15 9s13.4-2.8 18.6-8.4c5.2-6 10.4-17.4 15.6-34.2 5.6-17.2 11.8-42.2 18.6-75 3.6-16.4 6.8-31.6 9.6-45.6 2.8-14.4 4.6-26.8 5.4-37.2Zm178.79-138h103.8l175.8 372.6h-36l175.2-372.6h101.4v428.4h-83.4v-422.4h54l-196.8 422.4h-69l-198.6-422.4h55.8v422.4h-82.2v-428.4Zm997.13 333.6c-20 33.6-48.6 59.6-85.8 78-36.8 18.4-80.4 27.6-130.8 27.6-50 0-93.6-9-130.8-27-36.8-18.4-65.2-44.4-85.2-78-20-34-30-74-30-120s10-85.8 30-119.4c20.4-34 49-60 85.8-78 37.2-18.4 81-27.6 131.4-27.6 50.4 0 94 9.2 130.8 27.6 36.8 18 65.2 43.8 85.2 77.4 20 33.6 30 73.6 30 120 0 46-10.2 85.8-30.6 119.4Zm-352.2-38.4c12.4 22.4 30 39.6 52.8 51.6 23.2 12 51 18 83.4 18 32.4 0 60-6 82.8-18 23.2-12 40.8-29.2 52.8-51.6 12.4-22.4 18.6-49.4 18.6-81 0-32-6.2-59.2-18.6-81.6-12-22.4-29.4-39.4-52.2-51-22.8-12-50.6-18-83.4-18-32 0-59.6 6-82.8 18-23.2 11.6-41 28.8-53.4 51.6-12 22.4-18 49.4-18 81s6 58.6 18 81Zm397.01-295.2h81.6l298.2 359.4-43.2 10.2v-369.6h85.2v428.4h-81.6l-297-358.2 42-10.8v369h-85.2v-428.4Zm581.29 74.4h-169.8v-74.4h427.8v74.4h-169.2v354h-88.8v-354Zm580.34-74.4h88.8v428.4h-88.8v-428.4Zm-331.8 0h88.8v428.4h-88.8v-428.4Zm41.4 168h337.8v78h-337.8v-78Zm415.11-168h88.8v422.4l-47.4-68.4h312.6l-11.4 74.4h-342.6v-428.4Zm221.66 0h99.6l162.6 236.4h-70.2l162.6-236.4h97.2l-196.2 275.4 14.4-54v207h-88.8v-207l14.4 54-195.6-275.4Z"/><defs><radialGradient id="a" cx="0" cy="0" r="1" gradientTransform="scale(20209.8 232) rotate(90 -.425 .546)" gradientUnits="userSpaceOnUse"><stop stop-color="#fff"/><stop offset="1" stop-color="#fff" stop-opacity="0"/></radialGradient></defs></svg>