<svg xmlns="http://www.w3.org/2000/svg" width="1810" height="1256" fill="none"><path fill="#fff" d="M309.738.805c76.823 0 138.672 19.53 185.547 58.593 49.154 41.016 73.731 97.494 73.731 169.434 0 94.727-42.969 166.341-128.907 214.844L570.969 701H341.965L243.82 467.602h-37.109V701H.656V.805h309.082ZM206.711 309.398h62.012c28.971 0 52.246-6.836 69.824-20.507 17.578-13.672 26.367-31.739 26.367-54.2 0-46.224-32.064-69.336-96.191-69.336h-62.012v144.043Zm722.461 244.629c16.276 0 30.273-5.696 41.992-17.089 12.044-11.394 18.066-25.066 18.066-41.016V208.324c0-16.601-6.022-31.087-18.066-43.457-12.044-12.695-26.042-19.043-41.992-19.043-15.951 0-29.785 6.185-41.504 18.555-11.393 12.37-17.09 27.018-17.09 43.945v286.621c0 16.602 5.697 30.599 17.09 41.993 11.393 11.393 25.228 17.089 41.504 17.089ZM928.195 701c-94.726 0-175.618-34.18-242.675-102.539-67.058-68.359-100.586-150.879-100.586-247.559 0-96.679 33.528-179.199 100.586-247.558C752.577 34.984 833.469.804 928.195.804c94.725 0 175.455 34.18 242.185 102.54 67.06 68.359 100.59 150.879 100.59 247.558 0 96.68-33.53 179.2-100.59 247.559C1103.65 666.82 1022.92 701 928.195 701Z"/><path fill="#fff" d="M1487.43 531.078 1390.27 701h-217.78l206.55-359.863L1184.21.805h224.61l82.52 144.043L1573.86.805h216.31L1599.74 334.3 1809.7 701h-225.1l-97.17-169.922ZM114.7 985.4c-20.4 0-38-3.7-52.8-11.1-14.6-7.6-25.9-18.5-33.9-32.7-5.6-8.4-9.8-18.4-12.6-30-2.8-11.6-4.2-24.1-4.2-37.5 0-22 3.6-41.2 10.8-57.6 7.6-17 19.3-30.2 35.1-39.6 15.8-9.4 35.1-14.1 57.9-14.1 22.6 0 41.7 4.7 57.3 14.1 15.8 9.2 27.5 22.3 35.1 39.3 7.4 16.2 11.1 35.5 11.1 57.9 0 22.6-3.7 41.9-11.1 57.9-7.8 17.2-19.5 30.4-35.1 39.6-15.6 9.2-34.8 13.8-57.6 13.8Zm.3-39.9c24.2 0 40.6-9.8 49.2-29.4 2.6-5.6 4.4-11.7 5.4-18.3 1.2-6.8 1.8-14.7 1.8-23.7 0-9.2-.6-17.1-1.8-23.7-1-6.8-2.8-13-5.4-18.6-4.2-9.4-10.4-16.6-18.6-21.6-8.2-5-18.5-7.5-30.9-7.5-12.2 0-22.4 2.6-30.6 7.8-8.2 5-14.4 12.1-18.6 21.3-2.6 5.8-4.5 12.1-5.7 18.9-1 6.6-1.5 14.4-1.5 23.4 0 9 .5 16.9 1.5 23.7 1.2 6.6 3.1 12.8 5.7 18.6 4.2 9.4 10.4 16.6 18.6 21.6 8.2 5 18.5 7.5 30.9 7.5Zm191.044-53.1h-16.8V980h-44.4V768.2h88.5c33.8 0 55.5 10.7 65.1 32.1 3.8 8.6 5.7 18.4 5.7 29.4 0 5.6-.5 11-1.5 16.2-1 5.2-2.4 9.8-4.2 13.8-7.8 18-22.6 28.5-44.4 31.5l65.1 88.8h-51l-62.1-87.6Zm-16.8-32.1h31.8c18.6 0 30.2-4.8 34.8-14.4 1.8-4.2 2.7-9.2 2.7-15 0-5.4-.8-10-2.4-13.8-2.4-5.2-6.5-8.9-12.3-11.1-5.8-2.2-13.4-3.3-22.8-3.3h-31.8v57.6Zm144.858-92.1h44.4V980h-44.4V768.2Zm273.536 96.6v14.4c0 21.2-3.6 39.9-10.8 56.1-7.6 16.6-18.7 29.1-33.3 37.5-14.6 8.4-32.6 12.6-54 12.6-22.6 0-41.9-4.7-57.9-14.1-15.8-9.6-27.7-23.1-35.7-40.5-7-15.6-10.5-34.5-10.5-56.7 0-22.2 3.5-41.1 10.5-56.7 8-17.6 19.9-31.1 35.7-40.5 16-9.4 35.5-14.1 58.5-14.1 14.4 0 27.5 2 39.3 6 11.8 4 21.9 9.8 30.3 17.4 7.6 6.8 13.6 14.9 18 24.3 4.6 9.4 7.3 19.6 8.1 30.6h-45.9c-1.6-12-6-21.2-13.2-27.6-4.2-4-9.5-7-15.9-9s-13.5-3-21.3-3c-12.2 0-22.5 2.5-30.9 7.5-8.4 4.8-14.7 11.9-18.9 21.3-2.6 5.6-4.5 11.8-5.7 18.6-1 6.8-1.5 15.2-1.5 25.2s.5 18.4 1.5 25.2c1.2 6.6 3.1 12.8 5.7 18.6 4.4 9.6 10.9 16.8 19.5 21.6 8.6 4.8 19.1 7.2 31.5 7.2 11.8 0 21.7-2.1 29.7-6.3 8.2-4.2 14.2-10.5 18-18.9 1.6-3.6 2.7-7.1 3.3-10.5.8-3.6 1.3-7.7 1.5-12.3h-52.2v-33.9h96.6Zm26.464-96.6h44.4V980h-44.4V768.2Zm77.636 0h45.3l93.6 145.5V768.2h43.2V980h-45.6l-93.3-145.2V980h-43.2V768.2Zm347.632 167.1h-88.8l-14.4 44.7h-46.2l72-211.8h66.3l72 211.8h-46.2l-14.7-44.7Zm-11.4-34.8-32.7-100.5h-.6l-32.7 100.5h66Zm89.45-132.3h44.4v173.4h61.8V980h-106.2V768.2Zm201.04 217.2c-20.6 0-37.7-3.5-51.3-10.5-13.6-7-23.3-16.8-29.1-29.4-3.8-8.6-5.9-19.3-6.3-32.1h48.9c0 8 1.1 14.5 3.3 19.5 5.6 12 17.6 18 36 18 8.6 0 15.9-1.3 21.9-3.9 6.2-2.8 10.4-6.7 12.6-11.7 1.8-4.2 2.7-8.1 2.7-11.7 0-3.8-.8-7.5-2.4-11.1-1.8-4.2-4.9-7.7-9.3-10.5-4.2-2.8-8.9-5-14.1-6.6-5.2-1.8-12.5-4-21.9-6.6l-13.5-3.6c-13.8-3.6-25.4-8.2-34.8-13.8-9.2-5.8-15.8-13.2-19.8-22.2-3.2-7.8-4.8-15.7-4.8-23.7 0-8.6 1.9-17 5.7-25.2 5.2-11.8 14.4-21 27.6-27.6 13.2-6.6 29-9.9 47.4-9.9 18 0 33.3 3.3 45.9 9.9 12.8 6.4 22 15.7 27.6 27.9 3.8 9 5.7 19.3 5.7 30.9h-45.9c0-7.6-1.1-13.9-3.3-18.9-5.2-11-15.8-16.5-31.8-16.5-7.6 0-14.2 1.4-19.8 4.2-5.4 2.6-9.2 6.2-11.4 10.8-.8 1.6-1.3 3.2-1.5 4.8-.2 1.4-.3 3-.3 4.8 0 3.6.5 6.8 1.5 9.6 1.6 3.6 4.4 6.7 8.4 9.3 4.2 2.4 8.9 4.4 14.1 6 5.2 1.6 12.4 3.6 21.6 6 5.8 1.4 9.6 2.4 11.4 3 10.6 2.8 19.7 5.8 27.3 9 7.8 3.2 14.6 7.2 20.4 12 6 4.6 10.6 10.3 13.8 17.1 3.2 7.6 4.8 16.2 4.8 25.8 0 9.8-1.9 19-5.7 27.6-5.6 12.6-15.6 22.3-30 29.1-14.2 6.8-31.4 10.2-51.6 10.2ZM149.8 1205.3H61L46.6 1250H.4l72-211.8h66.3l72 211.8h-46.2l-14.7-44.7Zm-11.4-34.8L105.7 1070h-.6l-32.7 100.5h66Zm89.452-132.3h45.3l93.6 145.5v-145.5h43.2V1250h-45.6l-93.3-145.2V1250h-43.2v-211.8Zm215.332 0h83.7c23 0 42.3 4.4 57.9 13.2 15.8 8.8 27.3 21.5 34.5 38.1 3.4 7.4 5.9 15.6 7.5 24.6 1.6 9 2.4 19 2.4 30s-.8 21-2.4 30c-1.6 9-4.1 17.2-7.5 24.6-7.4 16.6-18.9 29.3-34.5 38.1-15.6 8.8-34.9 13.2-57.9 13.2h-83.7v-211.8Zm76.8 173.7c14.6 0 26.4-2.5 35.4-7.5 9.2-5 15.9-12.4 20.1-22.2 2.2-5 3.8-10.5 4.8-16.5 1.2-6.2 1.8-13.4 1.8-21.6 0-8.2-.6-15.3-1.8-21.3-1-6.2-2.6-11.8-4.8-16.8-4.2-9.8-10.9-17.2-20.1-22.2-9-5-20.8-7.5-35.4-7.5h-32.4v135.6h32.4Zm267.501 43.5c-20.6 0-37.7-3.5-51.3-10.5-13.6-7-23.3-16.8-29.1-29.4-3.8-8.6-5.9-19.3-6.3-32.1h48.9c0 8 1.1 14.5 3.3 19.5 5.6 12 17.6 18 36 18 8.6 0 15.9-1.3 21.9-3.9 6.2-2.8 10.4-6.7 12.6-11.7 1.8-4.2 2.7-8.1 2.7-11.7 0-3.8-.8-7.5-2.4-11.1-1.8-4.2-4.9-7.7-9.3-10.5-4.2-2.8-8.9-5-14.1-6.6-5.2-1.8-12.5-4-21.9-6.6l-13.5-3.6c-13.8-3.6-25.4-8.2-34.8-13.8-9.2-5.8-15.8-13.2-19.8-22.2-3.2-7.8-4.8-15.7-4.8-23.7 0-8.6 1.9-17 5.7-25.2 5.2-11.8 14.4-21 27.6-27.6 13.2-6.6 29-9.9 47.4-9.9 18 0 33.3 3.3 45.9 9.9 12.8 6.4 22 15.7 27.6 27.9 3.8 9 5.7 19.3 5.7 30.9h-45.9c0-7.6-1.1-13.9-3.3-18.9-5.2-11-15.8-16.5-31.8-16.5-7.6 0-14.2 1.4-19.8 4.2-5.4 2.6-9.2 6.2-11.4 10.8-.8 1.6-1.3 3.2-1.5 4.8-.2 1.4-.3 3-.3 4.8 0 3.6.5 6.8 1.5 9.6 1.6 3.6 4.4 6.7 8.4 9.3 4.2 2.4 8.9 4.4 14.1 6 5.2 1.6 12.4 3.6 21.6 6 5.8 1.4 9.6 2.4 11.4 3 10.6 2.8 19.7 5.8 27.3 9 7.8 3.2 14.6 7.2 20.4 12 6 4.6 10.6 10.3 13.8 17.1 3.2 7.6 4.8 16.2 4.8 25.8 0 9.8-1.9 19-5.7 27.6-5.6 12.6-15.6 22.3-30 29.1-14.2 6.8-31.4 10.2-51.6 10.2Zm111.265-217.2h44.4v85.8h87.6v-85.8h44.4V1250h-44.4v-88.2h-87.6v88.2h-44.4v-211.8Zm306.67 217.2c-20.4 0-38-3.7-52.8-11.1-14.6-7.6-25.9-18.5-33.9-32.7-5.6-8.4-9.8-18.4-12.6-30-2.8-11.6-4.2-24.1-4.2-37.5 0-22 3.6-41.2 10.8-57.6 7.6-17 19.3-30.2 35.1-39.6 15.8-9.4 35.1-14.1 57.9-14.1 22.6 0 41.7 4.7 57.3 14.1 15.8 9.2 27.5 22.3 35.1 39.3 7.4 16.2 11.1 35.5 11.1 57.9 0 22.6-3.7 41.9-11.1 57.9-7.8 17.2-19.5 30.4-35.1 39.6-15.6 9.2-34.8 13.8-57.6 13.8Zm.3-39.9c24.2 0 40.6-9.8 49.2-29.4 2.6-5.6 4.4-11.7 5.4-18.3 1.2-6.8 1.8-14.7 1.8-23.7 0-9.2-.6-17.1-1.8-23.7-1-6.8-2.8-13-5.4-18.6-4.2-9.4-10.4-16.6-18.6-21.6-8.2-5-18.5-7.5-30.9-7.5-12.2 0-22.4 2.6-30.6 7.8-8.2 5-14.4 12.1-18.6 21.3-2.6 5.8-4.5 12.1-5.7 18.9-1 6.6-1.5 14.4-1.5 23.4 0 9 .5 16.9 1.5 23.7 1.2 6.6 3.1 12.8 5.7 18.6 4.2 9.4 10.4 16.6 18.6 21.6 8.2 5 18.5 7.5 30.9 7.5Zm398.74-177.3-59.4 211.8h-47.1l-38.4-152.1-38.4 152.1h-46.5l-60.3-211.8h44.4l39.9 149.7 37.5-149.7h47.4l36.9 149.1 39.6-149.1h44.4Zm90.06 217.2c-20.6 0-37.7-3.5-51.3-10.5-13.6-7-23.3-16.8-29.1-29.4-3.8-8.6-5.9-19.3-6.3-32.1h48.9c0 8 1.1 14.5 3.3 19.5 5.6 12 17.6 18 36 18 8.6 0 15.9-1.3 21.9-3.9 6.2-2.8 10.4-6.7 12.6-11.7 1.8-4.2 2.7-8.1 2.7-11.7 0-3.8-.8-7.5-2.4-11.1-1.8-4.2-4.9-7.7-9.3-10.5-4.2-2.8-8.9-5-14.1-6.6-5.2-1.8-12.5-4-21.9-6.6l-13.5-3.6c-13.8-3.6-25.4-8.2-34.8-13.8-9.2-5.8-15.8-13.2-19.8-22.2-3.2-7.8-4.8-15.7-4.8-23.7 0-8.6 1.9-17 5.7-25.2 5.2-11.8 14.4-21 27.6-27.6 13.2-6.6 29-9.9 47.4-9.9 18 0 33.3 3.3 45.9 9.9 12.8 6.4 22 15.7 27.6 27.9 3.8 9 5.7 19.3 5.7 30.9h-45.9c0-7.6-1.1-13.9-3.3-18.9-5.2-11-15.8-16.5-31.8-16.5-7.6 0-14.2 1.4-19.8 4.2-5.4 2.6-9.2 6.2-11.4 10.8-.8 1.6-1.3 3.2-1.5 4.8-.2 1.4-.3 3-.3 4.8 0 3.6.5 6.8 1.5 9.6 1.6 3.6 4.4 6.7 8.4 9.3 4.2 2.4 8.9 4.4 14.1 6 5.2 1.6 12.4 3.6 21.6 6 5.8 1.4 9.6 2.4 11.4 3 10.6 2.8 19.7 5.8 27.3 9 7.8 3.2 14.6 7.2 20.4 12 6 4.6 10.6 10.3 13.8 17.1 3.2 7.6 4.8 16.2 4.8 25.8 0 9.8-1.9 19-5.7 27.6-5.6 12.6-15.6 22.3-30 29.1-14.2 6.8-31.4 10.2-51.6 10.2Z"/></svg>