<svg xmlns="http://www.w3.org/2000/svg" width="405" height="440" fill="none"><mask id="c" width="405" height="440" x="-.277" y="0" fill="#000" maskUnits="userSpaceOnUse"><path fill="#fff" d="M-.277 0h405v440h-405z"/><path d="M39.164 72.4c16.8-21.6 39.2-37.8 67.2-48.6 28-11.2 61.2-16.8 99.6-16.8 28.4 0 53.6 3 75.6 9 22.4 6 41.4 14.8 57 26.4 16 11.2 28 25 36 41.4 8.4 16.4 12.6 34.8 12.6 55.2 0 12-1.6 23.4-4.8 34.2-3.2 10.8-8.4 21.4-15.6 31.8-6.8 10.4-15.8 21-27 31.8-10.8 10.4-24 21.4-39.6 33-12 8.8-23.2 17-33.6 24.6-10 7.2-20.8 14.8-32.4 22.8-11.2 7.6-24.6 16.6-40.2 27-15.6 10-34.8 22.4-57.6 37.2v-60h260.4l-12.6 111.6h-363.6V330.4c12.4-7.6 24.6-15.2 36.6-22.8 12.4-8 24.6-15.8 36.6-23.4 12.4-8 24.4-16 36-24 22.8-15.2 41.4-28 55.8-38.4 14.4-10.8 25.6-20.2 33.6-28.2s13.6-15.4 16.8-22.2c3.2-6.8 4.8-13.8 4.8-21 0-7.6-1.6-13.8-4.8-18.6-2.8-5.2-7.4-9-13.8-11.4-6-2.8-13.6-4.2-22.8-4.2-10 0-18.4 1.6-25.2 4.8-6.8 3.2-12.2 8.2-16.2 15-4 6.8-7 16-9 27.6l-141-12c4.4-31.2 14.8-57.6 31.2-79.2Z"/></mask><path fill="url(#a)" d="M39.164 72.4c16.8-21.6 39.2-37.8 67.2-48.6 28-11.2 61.2-16.8 99.6-16.8 28.4 0 53.6 3 75.6 9 22.4 6 41.4 14.8 57 26.4 16 11.2 28 25 36 41.4 8.4 16.4 12.6 34.8 12.6 55.2 0 12-1.6 23.4-4.8 34.2-3.2 10.8-8.4 21.4-15.6 31.8-6.8 10.4-15.8 21-27 31.8-10.8 10.4-24 21.4-39.6 33-12 8.8-23.2 17-33.6 24.6-10 7.2-20.8 14.8-32.4 22.8-11.2 7.6-24.6 16.6-40.2 27-15.6 10-34.8 22.4-57.6 37.2v-60h260.4l-12.6 111.6h-363.6V330.4c12.4-7.6 24.6-15.2 36.6-22.8 12.4-8 24.6-15.8 36.6-23.4 12.4-8 24.4-16 36-24 22.8-15.2 41.4-28 55.8-38.4 14.4-10.8 25.6-20.2 33.6-28.2s13.6-15.4 16.8-22.2c3.2-6.8 4.8-13.8 4.8-21 0-7.6-1.6-13.8-4.8-18.6-2.8-5.2-7.4-9-13.8-11.4-6-2.8-13.6-4.2-22.8-4.2-10 0-18.4 1.6-25.2 4.8-6.8 3.2-12.2 8.2-16.2 15-4 6.8-7 16-9 27.6l-141-12c4.4-31.2 14.8-57.6 31.2-79.2Z"/><path fill="url(#b)" d="m39.164 72.4-5.525-4.298-.025.033-.025.032 5.575 4.233Zm67.2-48.6 2.519 6.531.041-.016.04-.016-2.6-6.499Zm175.2-7.8-1.842 6.753.016.005.015.004L281.564 16Zm57 26.4-4.177 5.617.081.06.082.058 4.014-5.735Zm36 41.4-6.291 3.069.03.061.031.061 6.23-3.191Zm7.8 89.4-6.712-1.989 6.712 1.989Zm-15.6 31.8-5.755-3.984-.053.076-.051.077 5.859 3.831Zm-27 31.8 4.856 5.042.003-.003-4.859-5.039Zm-39.6 33 4.14 5.645.018-.014.019-.014-4.177-5.617Zm-33.6 24.6 4.09 5.681.02-.015.02-.014-4.13-5.652Zm-32.4 22.8 3.931 5.792.021-.015.022-.015-3.974-5.762Zm-40.2 27 3.778 5.893.053-.034.052-.035-3.883-5.824Zm-57.6 37.2h-7v12.889l10.811-7.018-3.811-5.871Zm0-60v-7h-7v7h7Zm260.4 0 6.956.785.879-7.785h-7.835v7Zm-12.6 111.6v7h6.254l.702-6.215-6.956-.785Zm-363.6 0h-7v7h7v-7Zm0-102.6-3.658-5.968-3.342 2.048v3.92h7Zm36.6-22.8 3.745 5.914.025-.016.025-.016-3.795-5.882Zm36.6-23.4 3.745 5.914.025-.016.025-.016-3.795-5.882Zm36-24-3.883-5.824-.046.03-.045.032 3.974 5.762Zm55.8-38.4 4.099 5.675.051-.037.05-.038-4.2-5.6Zm33.6-28.2 4.95 4.95-4.95-4.95Zm16.8-22.2 6.334 2.981-6.334-2.981Zm0-39.6-6.163 3.319.156.29.183.274 5.824-3.883Zm-13.8-11.4-2.96 6.343.247.116.255.095 2.458-6.554Zm-48 .6-2.98-6.334h-.001l2.981 6.334Zm-16.2 15 6.034 3.549-6.034-3.549Zm-9 27.6-.594 6.975 6.401.544 1.091-6.33-6.898-1.189Zm-141-12-6.931-.978L0 157.947l7.37.628.594-6.975Zm31.2-79.2 5.526 4.298c15.945-20.501 37.26-35.979 64.192-46.368l-2.519-6.531-2.519-6.531c-29.067 11.213-52.55 28.135-70.205 50.834l5.525 4.298Zm67.2-48.6 2.6 6.5c26.981-10.793 59.257-16.3 97-16.3V0c-39.057 0-73.181 5.693-102.2 17.3l2.6 6.5Zm99.6-16.8v7c27.923 0 52.484 2.951 73.758 8.753L281.564 16l1.842-6.753C260.68 3.049 234.841 0 205.964 0v7Zm75.6 9-1.811 6.762c21.707 5.814 39.866 14.274 54.634 25.255l4.177-5.617 4.177-5.617c-16.432-12.219-36.273-21.36-59.366-27.545L281.564 16Zm57 26.4-4.014 5.735c15.098 10.568 26.28 23.476 33.723 38.734l6.291-3.069 6.291-3.069c-8.557-17.542-21.374-32.234-38.277-44.066l-4.014 5.735Zm36 41.4-6.23 3.191c7.842 15.31 11.83 32.598 11.83 52.009h14c0-21.389-4.411-40.901-13.37-58.391l-6.23 3.191Zm12.6 55.2h-7c0 11.371-1.515 22.098-4.512 32.211l6.712 1.989 6.712 1.989c3.403-11.487 5.088-23.56 5.088-36.189h-7Zm-4.8 34.2-6.712-1.989c-2.964 10.007-7.814 19.941-14.643 29.805l5.755 3.984 5.755 3.984c7.572-10.936 13.122-22.202 16.557-33.795l-6.712-1.989Zm-15.6 31.8-5.859-3.831c-6.452 9.868-15.087 20.069-26 30.592l4.859 5.039 4.859 5.039c11.487-11.077 20.852-22.076 28-33.008L366.764 205Zm-27 31.8-4.855-5.042c-10.535 10.144-23.494 20.953-38.922 32.425l4.177 5.617 4.177 5.617c15.772-11.728 29.213-22.919 40.279-33.575l-4.856-5.042Zm-39.6 33-4.139-5.645a25423.386 25423.386 0 0 1-33.591 24.593l4.13 5.652 4.13 5.652a25279.723 25279.723 0 0 0 33.61-24.607l-4.14-5.645Zm-33.6 24.6-4.09-5.681c-9.957 7.169-20.718 14.742-32.284 22.719l3.974 5.762 3.974 5.762c11.634-8.023 22.473-15.65 32.516-22.881l-4.09-5.681Zm-32.4 22.8-3.93-5.792c-11.18 7.586-24.563 16.575-40.153 26.968l3.883 5.824 3.883 5.824c15.61-10.407 29.027-19.418 40.248-27.032l-3.931-5.792Zm-40.2 27-3.778-5.893c-15.615 10.009-34.827 22.417-57.633 37.222l3.811 5.871 3.811 5.871c22.794-14.795 41.982-27.188 57.567-37.178l-3.778-5.893Zm-57.6 37.2h7v-60h-14v60h7Zm0-60v7h260.4v-14h-260.4v7Zm260.4 0-6.956-.785-12.6 111.6 6.956.785 6.956.785 12.6-111.6-6.956-.785Zm-12.6 111.6v-7h-363.6v14h363.6v-7Zm-363.6 0h7V330.4h-14V433h7Zm0-102.6 3.658 5.968a2929.016 2929.016 0 0 0 36.687-22.854l-3.745-5.914-3.745-5.914a2931.926 2931.926 0 0 1-36.513 22.746l3.658 5.968Zm36.6-22.8 3.795 5.882a5154.731 5154.731 0 0 1 36.55-23.368l-3.745-5.914-3.745-5.914a5192.948 5192.948 0 0 0-36.65 23.432l3.795 5.882Zm36.6-23.4 3.795 5.882a1413.017 1413.017 0 0 0 36.179-24.12l-3.974-5.762-3.974-5.762a1399.441 1399.441 0 0 1-35.82 23.88l3.794 5.882Zm36-24 3.883 5.824c22.838-15.225 41.518-28.079 56.016-38.549l-4.099-5.675-4.098-5.675c-14.302 10.329-32.823 23.076-55.585 38.251l3.883 5.824Zm55.8-38.4 4.2 5.6c14.53-10.897 26.021-20.521 34.35-28.85l-4.95-4.95-4.95-4.95c-7.67 7.671-18.58 16.847-32.85 27.55l4.2 5.6Zm33.6-28.2 4.95 4.95c8.312-8.312 14.512-16.367 18.184-24.169l-6.334-2.981-6.334-2.981c-2.728 5.798-7.728 12.543-15.416 20.231l4.95 4.95Zm16.8-22.2 6.334 2.981c3.619-7.691 5.466-15.705 5.466-23.981h-14c0 6.124-1.353 12.11-4.134 18.019l6.334 2.981Zm4.8-21h7c0-8.55-1.8-16.22-5.976-22.483l-5.824 3.883-5.824 3.883c2.224 3.337 3.624 8.067 3.624 14.717h7Zm-4.8-18.6 6.163-3.319c-3.727-6.922-9.784-11.74-17.505-14.635l-2.458 6.554-2.458 6.554c5.079 1.905 8.222 4.687 10.095 8.165l6.163-3.319Zm-13.8-11.4 2.96-6.343c-7.214-3.367-15.911-4.857-25.76-4.857v14c8.551 0 15.054 1.31 19.84 3.543l2.96-6.343Zm-22.8-4.2v-7c-10.706 0-20.193 1.708-28.18 5.466l2.98 6.334 2.981 6.334c5.612-2.642 12.925-4.134 22.219-4.134v-7Zm-25.2 4.8-2.981-6.334c-8.14 3.831-14.576 9.834-19.252 17.785l6.033 3.549 6.034 3.549c3.323-5.65 7.687-9.646 13.147-12.215L174.164 121Zm-16.2 15-6.033-3.549c-4.585 7.793-7.785 17.897-9.865 29.96l6.898 1.189 6.898 1.189c1.921-11.137 4.72-19.433 8.136-25.24L157.964 136Zm-9 27.6.594-6.975-141-12-.594 6.975-.594 6.975 141 12 .594-6.975Zm-141-12 6.931.977c4.26-30.209 14.276-55.44 29.844-75.944L39.164 72.4l-5.575-4.233C16.357 90.863 5.572 118.432 1.033 150.622l6.931.978Z" mask="url(#c)"/><defs><linearGradient id="a" x1="201.223" x2="201.223" y1="-7" y2="444" gradientUnits="userSpaceOnUse"><stop stop-color="#fff"/><stop offset="1" stop-color="#fff" stop-opacity="0"/></linearGradient><linearGradient id="b" x1="201.223" x2="201.223" y1="-7" y2="444" gradientUnits="userSpaceOnUse"><stop stop-color="#fff" stop-opacity="0"/><stop offset="1" stop-color="#fff"/></linearGradient></defs></svg>