<svg xmlns="http://www.w3.org/2000/svg" width="1102" height="1065" fill="none"><path fill="#000" d="M178.278 556.462h-58.243c-24.5 0-17-13.935-17-20.173 0-6.238-10.809-12.983-6.504-17.5 4.52-4.517-8.175-7.821-1.503-7.821h145.83a23 23 0 0 0 22.27-17.249l21.375-82.773c1.291-4.947 3.767-8.604 7.426-10.97 3.874-2.581 7.964-3.872 12.269-3.872s8.179 1.291 11.623 3.872c3.659 2.366 6.135 6.023 7.426 10.97l13.627 64.658c5.278 25.043 41.365 24.038 45.241-1.26l26.37-172.131c.861-5.808 3.228-10.217 7.103-13.229 3.874-3.011 8.072-4.517 12.592-4.517 4.735 0 8.932 1.506 12.592 4.517 3.874 3.012 6.134 7.529 6.78 13.552l14.821 128.48c3.174 27.517 43.316 26.984 45.759-.608l24.658-278.551c.43-6.023 2.583-10.54 6.457-13.551 4.09-3.011 8.502-4.517 13.238-4.517 4.95 0 9.363 1.506 13.237 4.517 4.09 3.011 6.35 7.528 6.781 13.551l24.657 278.55c2.443 27.592 42.585 28.125 45.759.608l14.821-128.479c.646-5.808 2.798-10.218 6.457-13.229 3.875-3.012 8.072-4.517 12.592-4.517 4.736 0 9.041 1.505 12.915 4.517 3.875 2.796 6.242 7.098 7.103 12.906l26.37 172.131c3.876 25.298 39.963 26.303 45.241 1.26l13.627-64.658c1.291-5.377 3.659-9.356 7.103-11.938 3.659-2.796 7.641-4.194 11.946-4.194s8.287 1.398 11.947 4.194c3.659 2.582 6.242 6.561 7.748 11.938l21.376 82.773a22.998 22.998 0 0 0 22.269 17.249h136.596c6.46 0 0 0 0 12.821v25c0 6 6.46 6.5 0 6.5l-168.617 1.173c-4.305 0-8.18-1.075-11.624-3.226-3.444-2.151-5.919-5.916-7.426-11.293l-14.977-59.281c-.763-3.022 1.473-5.973 4.589-6.055 3.152-.082 5.549 2.809 4.883 5.891l-49.383 228.514c-1.076 4.948-3.551 8.604-7.426 10.97-3.659 2.366-7.856 3.55-12.591 3.55-4.521 0-8.61-1.184-12.27-3.55-3.443-2.366-5.596-6.022-6.457-10.97l-13.564-89.22c-4.034-26.53-42.5-25.845-45.586.812l-26.41 228.116c-.861 6.023-3.229 10.54-7.103 13.552-3.66 3.011-7.964 4.517-12.915 4.517-4.736 0-9.041-1.506-12.915-4.517-3.659-3.012-5.704-7.529-6.135-13.552l-19.615-218.894c-2.504-27.94-43.335-27.925-45.818.017l-19.481 219.2c-.431 5.808-2.583 10.217-6.458 13.229-3.659 3.011-7.964 4.517-12.915 4.517-4.735 0-9.04-1.506-12.914-4.517-3.66-3.012-5.92-7.421-6.781-13.229l-26.432-228.498c-3.084-26.656-41.548-27.346-45.586-.818l-13.542 88.963c-.861 4.947-3.121 8.711-6.78 11.292-3.444 2.366-7.534 3.55-12.269 3.55-4.521 0-8.718-1.184-12.592-3.55-3.66-2.581-6.027-6.238-7.103-10.97L296.99 480.327c-.61-2.827 1.544-5.496 4.435-5.496 2.91 0 5.068 2.701 4.426 5.539l-13.922 61.573c-1.077 4.732-3.444 8.389-7.103 10.97-3.66 2.366-7.642 3.549-11.947 3.549h-94.601Z"/><path fill="#fff" d="M178.278 556.462h-58.243c-24.5 0-17-13.935-17-20.173 0-6.238-10.809-12.983-6.504-17.5 4.52-4.517-8.175-7.821-1.503-7.821h145.83a23 23 0 0 0 22.27-17.249l21.375-82.773c1.291-4.947 3.767-8.604 7.426-10.97 3.874-2.581 7.964-3.872 12.269-3.872s8.179 1.291 11.623 3.872c3.659 2.366 6.135 6.023 7.426 10.97l13.627 64.658c5.278 25.043 41.365 24.038 45.241-1.26l26.37-172.131c.861-5.808 3.228-10.217 7.103-13.229 3.874-3.011 8.072-4.517 12.592-4.517 4.735 0 8.932 1.506 12.592 4.517 3.874 3.012 6.134 7.529 6.78 13.552l14.821 128.48c3.174 27.517 43.316 26.984 45.759-.608l24.658-278.551c.43-6.023 2.583-10.54 6.457-13.551 4.09-3.011 8.502-4.517 13.238-4.517 4.95 0 9.363 1.506 13.237 4.517 4.09 3.011 6.35 7.528 6.781 13.551l24.657 278.55c2.443 27.592 42.585 28.125 45.759.608l14.821-128.479c.646-5.808 2.798-10.218 6.457-13.229 3.875-3.012 8.072-4.517 12.592-4.517 4.736 0 9.041 1.505 12.915 4.517 3.875 2.796 6.242 7.098 7.103 12.906l26.37 172.131c3.876 25.298 39.963 26.303 45.241 1.26l13.627-64.658c1.291-5.377 3.659-9.356 7.103-11.938 3.659-2.796 7.641-4.194 11.946-4.194s8.287 1.398 11.947 4.194c3.659 2.582 6.242 6.561 7.748 11.938l21.376 82.773a22.998 22.998 0 0 0 22.269 17.249h136.596c6.46 0 0 0 0 12.821v25c0 6 6.46 6.5 0 6.5l-168.617 1.173c-4.305 0-8.18-1.075-11.624-3.226-3.444-2.151-5.919-5.916-7.426-11.293l-14.977-59.281c-.763-3.022 1.473-5.973 4.589-6.055 3.152-.082 5.549 2.809 4.883 5.891l-49.383 228.514c-1.076 4.948-3.551 8.604-7.426 10.97-3.659 2.366-7.856 3.55-12.591 3.55-4.521 0-8.61-1.184-12.27-3.55-3.443-2.366-5.596-6.022-6.457-10.97l-13.564-89.22c-4.034-26.53-42.5-25.845-45.586.812l-26.41 228.116c-.861 6.023-3.229 10.54-7.103 13.552-3.66 3.011-7.964 4.517-12.915 4.517-4.736 0-9.041-1.506-12.915-4.517-3.659-3.012-5.704-7.529-6.135-13.552l-19.615-218.894c-2.504-27.94-43.335-27.925-45.818.017l-19.481 219.2c-.431 5.808-2.583 10.217-6.458 13.229-3.659 3.011-7.964 4.517-12.915 4.517-4.735 0-9.04-1.506-12.914-4.517-3.66-3.012-5.92-7.421-6.781-13.229l-26.432-228.498c-3.084-26.656-41.548-27.346-45.586-.818l-13.542 88.963c-.861 4.947-3.121 8.711-6.78 11.292-3.444 2.366-7.534 3.55-12.269 3.55-4.521 0-8.718-1.184-12.592-3.55-3.66-2.581-6.027-6.238-7.103-10.97L296.99 480.327c-.61-2.827 1.544-5.496 4.435-5.496 2.91 0 5.068 2.701 4.426 5.539l-13.922 61.573c-1.077 4.732-3.444 8.389-7.103 10.97-3.66 2.366-7.642 3.549-11.947 3.549h-94.601Z"/><path fill="#fff" d="M553.962.206a23.001 23.001 0 0 0-6.173.002l-5.664.768C474.94 9.9 412.22 22.76 353.125 39.664c-59.095 16.904-114.577 37.854-167.25 62.969l-23.954 11.411a23 23 0 0 0-13.108 20.765v28.316a23 23 0 0 1-12.041 20.221l-48.168 26.105a23 23 0 0 0-12.041 20.221v26.631a22.998 22.998 0 0 1-12.135 20.271l-52.294 28.031a22.998 22.998 0 0 0-11.919 23.41L4.22 357.07c20.804 150.606 75.714 286.903 163.125 405.188 88.345 119.528 207.612 217.294 354.468 290.692l18.759 9.39a22.998 22.998 0 0 0 20.608 0l18.759-9.39c146.856-73.395 266.12-171.164 354.469-290.692 87.413-118.285 142.353-254.584 163.153-405.188l4.01-29.055a23.014 23.014 0 0 0-11.92-23.41l-52.3-28.031a22.997 22.997 0 0 1-12.13-20.271v-26.631c0-8.439-4.62-16.2-12.04-20.221l-48.17-26.105a22.998 22.998 0 0 1-12.041-20.221v-28.311a23.002 23.002 0 0 0-13.115-20.768l-23.979-11.413c-52.678-25.118-108.164-46.065-167.25-62.969C689.54 22.76 626.837 9.9 559.656.976l-5.694-.77Zm-6.18 65.708a22.682 22.682 0 0 1 6.061 0c62.218 8.395 120.424 20.318 175.407 35.969 50.999 14.516 99.217 32.243 145.259 53.352 8.061 3.695 13.148 11.795 13.148 20.662v26.009c0 8.439 4.621 16.2 12.041 20.221l48.168 26.105a23 23 0 0 1 12.041 20.221v26.79a23.001 23.001 0 0 0 12.131 20.27l46.612 24.994c8.54 4.577 13.33 13.973 11.84 23.542-9.89 63.313-39.193 212.663-148.615 359.49-114.395 155.405-262.537 235.877-320.602 265.77a22.85 22.85 0 0 1-20.921-.001c-58.07-29.898-206.24-110.36-320.633-265.769C110.297 576.708 80.997 427.352 71.106 364.05c-1.496-9.57 3.3-18.968 11.835-23.546l46.587-24.991a23 23 0 0 0 12.128-20.268v-26.792a23 23 0 0 1 12.041-20.221l48.168-26.105a22.998 22.998 0 0 0 12.041-20.221v-26.01c0-8.867 5.087-16.966 13.146-20.661 46.045-21.112 94.284-38.836 145.292-53.352 54.992-15.65 113.22-27.573 175.438-35.97Z"/></svg>