<svg xmlns="http://www.w3.org/2000/svg" width="340" height="323" fill="none"><path fill="#fff" d="M72 313.4a9.6 9.6 0 0 1-9.6 9.6c-21.842 0-32.763 0-41.106-4.251A39 39 0 0 1 4.25 301.706C.001 293.363 0 282.442 0 260.6v-90.2c0-21.842 0-32.763 4.251-41.106a39 39 0 0 1 17.043-17.043C29.637 108 40.558 108 62.4 108a9.6 9.6 0 0 1 9.6 9.6v195.8ZM277.6 0c21.842 0 32.763 0 41.106 4.251a39 39 0 0 1 17.043 17.043C340 29.637 340 40.558 340 62.4v198.2c0 21.842 0 32.763-4.251 41.106a39 39 0 0 1-17.043 17.043C310.363 323 299.442 323 277.6 323H152.4c-21.842 0-32.763 0-41.106-4.251a39 39 0 0 1-17.043-17.043C90.001 293.363 90 282.442 90 260.6V62.4c0-21.842 0-32.764 4.251-41.106A39 39 0 0 1 111.294 4.25C119.637.001 130.558 0 152.4 0h125.2Z"/></svg>