<svg xmlns="http://www.w3.org/2000/svg" width="800" height="800" fill="none"><path fill="#fff" d="M581.209 0c48.538 0 87.884 39.451 87.884 88.118 0 14.703-3.597 28.563-9.949 40.751 35.607 11.258 61.426 44.631 61.426 84.053 0 20.576-7.036 39.504-18.825 54.501H80.179a88.567 88.567 0 0 1-2.437-20.671c0-36.344 21.945-67.547 53.273-81.02-6.41-12.231-10.042-26.155-10.042-40.93.001-48.667 39.347-88.118 87.884-88.118 26.999 0 51.149 12.21 67.271 31.42 16.085-17.876 39.369-29.112 65.271-29.112 15.482 0 30.026 4.021 42.659 11.067 15.797-23.42 42.534-38.812 72.855-38.812 21.554 0 41.294 7.782 56.583 20.695C529.616 12.429 553.965 0 581.209 0Zm130.358 307.695c9.192 0 16.222 8.193 14.826 17.278l-71.035 462.306a15 15 0 0 1-14.826 12.722H158.53a15 15 0 0 1-14.826-12.722L72.669 324.973c-1.395-9.085 5.634-17.278 14.827-17.278h624.071Z"/></svg>