<svg xmlns="http://www.w3.org/2000/svg" width="2007" height="1365" fill="none"><path fill="#fff" d="M2007 503.869c-13.11.242-42.18 0-55.86 0h-148.86V340.293l-216.57-.001c0 3.066.06 5.87 0 8.635-.7 31.265-.75 62.57-2.44 93.782-1.02 18.786-9.82 34.399-26.61 44.288-12.44 7.327-26.35 11.171-40.44 12.391-26.46 2.29-53.02 3.203-79.57 4.283-5.13.207-6.67 1.427-6.65 6.657.19 52.668.12 105.371.13 158.04 0 1.812.16 3.591.26 5.932h7.18c43.09 0 86.15.116 129.23-.132 5.69-.033 7.26 1.398 7.25 7.184-.2 88.28-.24 176.526-.13 264.806.03 23.424 1.07 46.701 7.64 69.532 6.13 21.33 15.63 40.86 29.64 57.86 20.42 24.78 46.79 41.38 76.6 52.73 38.92 14.81 79.51 21.57 120.81 22.01 51.47.55 103.04-1.08 154.52-2.31 14.68-.35 29.29-2.58 43.87-3.95v29.46l-889.98 148.71-157.253 26.25v-159.62L0 1364.75v-223.18h227.904v-7.65c0-108.16-.034-216.286.066-324.449.014-15.73 1.093-31.381 5.401-46.727 5.277-18.797 13.615-35.779 26.412-50.549 18.698-21.578 42.784-34.235 70.215-40.004 27.952-5.877 56.076-5.799 83.916 2.042 13.232 3.728 25.595 9.235 36.755 17.071 23.014 16.158 37.641 38.429 45.646 65.18 5.626 18.8 7.511 38.171 7.511 57.733V1141.5h228.43v-7.12c0-112.28.058-224.551-.067-336.838-.02-18.732-.334-37.453-1.382-56.15-2.012-35.857-7.862-71.148-21.935-104.395-6.88-16.254-14.793-32.267-24.173-47.187-10.212-16.243-23.314-30.353-37.94-43.103-22.873-19.94-48.862-34.263-77.264-44.156-24.251-8.448-49.349-13.557-75.023-15.817-43.922-3.866-87.528-2.311-130.749 6.721-26.623 5.564-52.123 14.208-76.077 27.352-16.813 9.224-32.206 20.174-45.779 33.743-4.475 4.474-9.18 8.762-14.227 13.577V218.499H0V193.25L1047.3 18.29l-.01 159.629L2007 0v503.869Zm-646.5-15.422c-15.53-.152-30.97-.03-46.39.637-15.42.666-30.84 1.878-46.35 3.91-23.01 2.605-45.18 6.887-66.99 13.182-38.62 11.152-73.66 28.819-105.12 54.041-19.78 15.857-37.54 33.489-53.16 53.385-2.76 3.52-5.69 6.908-8.56 10.346l-1.32-.461V504.462H810.836v637.108h227.834v-6.59c0-71.6-.26-143.191.27-214.788.13-17.691 1.96-35.561 4.74-53.053 3.98-25.055 13.01-48.478 26.21-70.322 10.21-16.872 22.64-31.789 37.55-44.486 15.21-12.954 32.15-23.271 50.65-31.173 26.57-11.341 54.18-18.203 82.93-18.98 37.81-1.02 75.66-.817 113.49-1.121 1.98-.015 3.97 0 5.99 0v-212.61ZM1809 674.3c60.51 0 137.49.027 198 .133v278.316c-3.25.225-6.2.484-9.16.593-35.73 1.316-71.49 3.353-107.23 3.626-21.08.161-42.21-2.297-61.58-12.062-10.7-5.388-19.33-13.49-22.53-25.044-2.71-9.768-3.97-20.22-4.02-30.382-.33-69.535-.2-139.053-.2-208.589V674.3h6.72Z"/></svg>