<svg xmlns="http://www.w3.org/2000/svg" width="727" height="451" fill="none"><mask id="c" width="728" height="451" x="-.559" y="0" fill="#000" maskUnits="userSpaceOnUse"><path fill="#fff" d="M-.559 0h728v451h-728z"/><path d="M298.324 433h-147.6V48.4l73.8 82.2-149.4 95.4-65.4-97.8 165.6-109.8h123V433Zm47.517-306c8.8-28 21.6-50.8 38.4-68.4 16.8-17.6 37.2-30.6 61.2-39 24.4-8.4 52.2-12.6 83.4-12.6 32.8 0 61.2 4.6 85.2 13.8 24 8.8 43.8 22.2 59.4 40.2 15.6 18 27.2 40.6 34.8 67.8 7.6 27.2 11.4 59.2 11.4 96 0 38.4-4.4 71.6-13.2 99.6-8.4 27.6-21 50.2-37.8 67.8-16.8 17.6-37.4 30.6-61.8 39-24 8.4-51.6 12.6-82.8 12.6-32.8 0-61.2-4.4-85.2-13.2-24-9.2-43.8-22.8-59.4-40.8-15.6-18-27.2-40.6-34.8-67.8-7.6-27.2-11.4-59.2-11.4-96 0-38.4 4.2-71.4 12.6-99Zm214.8 13.2c-3.2-7.6-7.8-12.8-13.8-15.6-5.6-2.8-12.4-4.2-20.4-4.2-10.4 0-19 2.6-25.8 7.8-6.4 5.2-11.2 15.4-14.4 30.6-2.8 14.8-4.2 37-4.2 66.6 0 22 .8 40 2.4 54 1.6 13.6 4 24.2 7.2 31.8 3.6 7.2 8.2 12.2 13.8 15 6 2.8 13 4.2 21 4.2 10.8 0 19.4-2.6 25.8-7.8 6.4-5.2 11-15.4 13.8-30.6 3.2-15.2 4.8-37.4 4.8-66.6 0-22-.8-39.8-2.4-53.4-1.6-14-4.2-24.6-7.8-31.8Z"/></mask><path fill="url(#a)" d="M298.324 433h-147.6V48.4l73.8 82.2-149.4 95.4-65.4-97.8 165.6-109.8h123V433Zm47.517-306c8.8-28 21.6-50.8 38.4-68.4 16.8-17.6 37.2-30.6 61.2-39 24.4-8.4 52.2-12.6 83.4-12.6 32.8 0 61.2 4.6 85.2 13.8 24 8.8 43.8 22.2 59.4 40.2 15.6 18 27.2 40.6 34.8 67.8 7.6 27.2 11.4 59.2 11.4 96 0 38.4-4.4 71.6-13.2 99.6-8.4 27.6-21 50.2-37.8 67.8-16.8 17.6-37.4 30.6-61.8 39-24 8.4-51.6 12.6-82.8 12.6-32.8 0-61.2-4.4-85.2-13.2-24-9.2-43.8-22.8-59.4-40.8-15.6-18-27.2-40.6-34.8-67.8-7.6-27.2-11.4-59.2-11.4-96 0-38.4 4.2-71.4 12.6-99Zm214.8 13.2c-3.2-7.6-7.8-12.8-13.8-15.6-5.6-2.8-12.4-4.2-20.4-4.2-10.4 0-19 2.6-25.8 7.8-6.4 5.2-11.2 15.4-14.4 30.6-2.8 14.8-4.2 37-4.2 66.6 0 22 .8 40 2.4 54 1.6 13.6 4 24.2 7.2 31.8 3.6 7.2 8.2 12.2 13.8 15 6 2.8 13 4.2 21 4.2 10.8 0 19.4-2.6 25.8-7.8 6.4-5.2 11-15.4 13.8-30.6 3.2-15.2 4.8-37.4 4.8-66.6 0-22-.8-39.8-2.4-53.4-1.6-14-4.2-24.6-7.8-31.8Z"/><path fill="url(#b)" d="M298.324 433v7h7v-7h-7Zm-147.6 0h-7v7h7v-7Zm0-384.6 5.209-4.676-12.209-13.599V48.4h7Zm73.8 82.2 3.768 5.9 6.951-4.439-5.51-6.137-5.209 4.676ZM75.124 226l-5.819 3.891 3.81 5.697 5.776-3.688-3.767-5.9Zm-65.4-97.8-3.868-5.834-5.857 3.883 3.906 5.842 5.82-3.891Zm165.6-109.8v-7h-2.11l-1.758 1.166 3.868 5.834Zm123 0h7v-7h-7v7Zm0 414.6v-7h-147.6v14h147.6v-7Zm-147.6 0h7V48.4h-14V433h7Zm0-384.6-5.208 4.676 73.799 82.2 5.209-4.676 5.209-4.676-73.8-82.2-5.209 4.676Zm73.8 82.2-3.767-5.9-149.4 95.4 3.767 5.9 3.767 5.9 149.401-95.4-3.768-5.9ZM75.124 226l5.82-3.891-65.4-97.8-5.82 3.891-5.819 3.891 65.4 97.8 5.82-3.891Zm-65.4-97.8 3.868 5.834 165.6-109.8-3.868-5.834-3.868-5.834-165.6 109.8 3.868 5.834Zm165.6-109.8v7h123v-14h-123v7Zm123 0h-7V433h14V18.4h-7ZM345.841 127l-6.678-2.099-.009.03-.009.031 6.696 2.038Zm38.4-68.4 5.064 4.833-5.064-4.833Zm61.2-39-2.278-6.619-.017.006-.017.006 2.312 6.607Zm168.6 1.2-2.505 6.536.048.019.048.017 2.409-6.572Zm59.4 40.2-5.289 4.585L673.441 61Zm34.8 67.8 6.742-1.884-6.742 1.884Zm-1.8 195.6-6.678-2.099-.009.03-.009.031 6.696 2.038Zm-37.8 67.8-5.063-4.833 5.063 4.833Zm-61.8 39-2.278-6.619-.017.006-.017.006 2.312 6.607Zm-168-.6-2.505 6.536.048.019.048.017 2.409-6.572Zm-59.4-40.8 5.29-4.585-5.29 4.585Zm-34.8-67.8-6.741 1.884 6.741-1.884Zm216-181.8-6.451 2.716.088.211.102.203 6.261-3.13Zm-13.8-15.6-3.13 6.261.085.042.085.04 2.96-6.343Zm-46.2 3.6-4.252-5.561-.082.063-.08.065 4.414 5.433Zm-14.4 30.6-6.849-1.442-.015.07-.014.071 6.878 1.301Zm-1.8 120.6-6.954.795.001.011.001.012 6.952-.818Zm7.2 31.8-6.451 2.716.088.211.102.203 6.261-3.13Zm13.8 15-3.13 6.261.085.042.085.04 2.96-6.343Zm46.8-3.6-4.414-5.433 4.414 5.433Zm13.8-30.6-6.849-1.442-.019.087-.016.087 6.884 1.268Zm2.4-120-6.954.795.001.011.001.012 6.952-.818Zm-222.6-45 6.678 2.099c8.544-27.185 20.864-48.985 36.786-65.666l-5.064-4.833-5.063-4.833c-17.678 18.52-30.958 42.32-40.015 71.134l6.678 2.099Zm38.4-68.4 5.064 4.833c16.001-16.763 35.445-29.175 58.449-37.226l-2.313-6.607-2.312-6.607c-24.996 8.748-46.352 22.337-63.951 40.774l5.063 4.833Zm61.2-39 2.279 6.619C471.252 18.118 498.26 14 528.841 14V0c-31.818 0-60.41 4.282-85.678 12.981l2.278 6.619Zm83.4-12.6v7c32.17 0 59.682 4.514 82.695 13.336l2.505-6.536 2.506-6.536C591.56 4.686 562.272 0 528.841 0v7Zm85.2 13.8-2.409 6.572c22.971 8.423 41.752 21.173 56.52 38.213L673.441 61l5.29-4.584c-16.433-18.961-37.251-33.01-62.28-42.188l-2.41 6.572Zm59.4 40.2-5.289 4.585c14.808 17.086 25.975 38.712 33.348 65.099l6.741-1.884 6.742-1.884c-7.827-28.013-19.86-51.587-36.252-70.5L673.441 61Zm34.8 67.8-6.741 1.884c7.386 26.434 11.141 57.772 11.141 94.116h14c0-37.256-3.844-69.918-11.658-97.884l-6.742 1.884Zm11.4 96h-7c0 37.895-4.345 70.353-12.878 97.501l6.678 2.099 6.678 2.099c9.068-28.852 13.522-62.794 13.522-101.699h-7Zm-13.2 99.6-6.696-2.038c-8.141 26.746-20.25 48.33-36.167 65.005l5.063 4.833 5.064 4.833c17.683-18.525 30.773-42.142 39.433-70.595l-6.697-2.038Zm-37.8 67.8-5.063-4.833c-15.981 16.742-35.607 29.156-59.015 37.214l2.278 6.619 2.279 6.619c25.392-8.742 46.966-22.328 64.585-40.786l-5.064-4.833Zm-61.8 39-2.312-6.607c-23.11 8.088-49.903 12.207-80.488 12.207v14c31.816 0 60.223-4.281 85.113-12.993l-2.313-6.607Zm-82.8 12.6v-7c-32.199 0-59.745-4.323-82.79-12.772l-2.41 6.572-2.409 6.572c24.955 9.151 54.209 13.628 87.609 13.628v-7Zm-85.2-13.2 2.506-6.536c-23.013-8.822-41.828-21.786-56.616-38.849l-5.29 4.585-5.289 4.585c16.412 18.937 37.197 33.173 62.184 42.751l2.505-6.536Zm-59.4-40.8 5.29-4.585c-14.808-17.086-25.975-38.712-33.348-65.099L344.641 322l-6.741 1.884c7.827 28.013 19.86 51.587 36.252 70.501l5.289-4.585Zm-34.8-67.8 6.742-1.884c-7.386-26.434-11.142-57.772-11.142-94.116h-14c0 37.256 3.845 69.918 11.659 97.884l6.741-1.884Zm-11.4-96h7c0-37.923 4.152-70.2 12.297-96.962L345.841 127l-6.696-2.038C330.49 153.4 326.241 187.123 326.241 226h7Zm227.4-85.8 6.452-2.716c-3.702-8.791-9.358-15.525-17.291-19.227l-2.961 6.343-2.96 6.343c4.066 1.898 7.61 5.564 10.309 11.973l6.451-2.716Zm-13.8-15.6 3.131-6.261c-6.804-3.402-14.737-4.939-23.531-4.939v14c7.206 0 12.874 1.263 17.27 3.461l3.13-6.261Zm-20.4-4.2v-7c-11.597 0-21.786 2.919-30.052 9.239l4.252 5.561 4.253 5.56c5.334-4.079 12.345-6.36 21.547-6.36v-7Zm-25.8 7.8-4.414-5.433c-8.348 6.783-13.559 19.026-16.835 34.591l6.849 1.442 6.85 1.442c3.124-14.835 7.513-22.992 11.965-26.609l-4.415-5.433Zm-14.4 30.6-6.878-1.301c-2.925 15.464-4.322 38.197-4.322 67.901h14c0-29.496 1.404-51.163 4.078-65.299l-6.878-1.301Zm-4.2 66.6h-7c0 22.136.804 40.428 2.446 54.795l6.954-.795 6.955-.795c-1.558-13.633-2.355-31.341-2.355-53.205h-7Zm2.4 54-6.952.818c1.634 13.883 4.133 25.225 7.701 33.698l6.451-2.716 6.452-2.716c-2.832-6.727-5.133-16.585-6.7-29.902l-6.952.818Zm7.2 31.8-6.261 3.13c4.083 8.166 9.633 14.482 16.931 18.131l3.13-6.261 3.131-6.261c-3.902-1.951-7.552-5.635-10.67-11.87l-6.261 3.131Zm13.8 15-2.96 6.343c7.1 3.313 15.147 4.857 23.96 4.857v-14c-7.186 0-13.139-1.256-18.039-3.543l-2.961 6.343Zm21 4.2v7c11.906 0 22.226-2.876 30.215-9.367l-4.415-5.433-4.414-5.433c-4.811 3.909-11.691 6.233-21.386 6.233v7Zm25.8-7.8 4.415 5.433c8.422-6.843 13.399-19.182 16.27-34.765L566.041 292l-6.884-1.268c-2.729 14.817-6.952 22.878-11.33 26.435l4.414 5.433Zm13.8-30.6 6.85 1.442c3.352-15.921 4.95-38.701 4.95-68.042h-14c0 29.059-1.601 50.679-4.649 65.158l6.849 1.442Zm4.8-66.6h7c0-22.131-.802-40.235-2.448-54.218l-6.952.818-6.952.818c1.555 13.217 2.352 30.713 2.352 52.582h7Zm-2.4-53.4 6.955-.795c-1.634-14.298-4.351-25.851-8.494-34.136l-6.261 3.131-6.261 3.13c3.058 6.116 5.541 15.763 7.107 29.465l6.954-.795Z" mask="url(#c)"/><defs><linearGradient id="a" x1="352.441" x2="352.441" y1="-7" y2="444" gradientUnits="userSpaceOnUse"><stop stop-color="#fff"/><stop offset="1" stop-color="#fff" stop-opacity="0"/></linearGradient><linearGradient id="b" x1="352.441" x2="352.441" y1="-7" y2="444" gradientUnits="userSpaceOnUse"><stop stop-color="#fff" stop-opacity="0"/><stop offset="1" stop-color="#fff"/></linearGradient></defs></svg>