<svg xmlns="http://www.w3.org/2000/svg" width="800" height="800" fill="none"><path fill="#fff" d="M706.824 502.177c-6.579 31.912-18.233 65.345-34.963 100.299-16.721 34.945-38.512 67.107-65.375 96.488-26.853 29.371-58.522 53.553-95.007 72.546C474.994 790.503 433.693 800 387.577 800c-48.14 0-90.707-7.22-127.702-21.66-36.995-14.43-68.038-34.434-93.128-60.012-25.081-25.578-43.955-55.964-56.62-91.16-12.666-35.204-19-73.826-19-115.865 0-43.05 5.318-82.178 15.951-117.382 10.643-35.205 25.086-67.747 43.328-97.628 18.252-29.881 39.663-57.991 64.234-84.329 24.58-26.339 51.058-52.422 79.433-78.25-15.71 16.211-29.266 33.182-40.67 50.914-11.395 17.723-20.641 37.602-27.74 59.637-7.089 22.026-12.41 46.463-15.964 73.312-3.545 26.839-5.317 57.225-5.317 91.159 0 91.674 23.058 161.318 69.175 208.931 46.116 47.604 116.553 71.406 211.31 71.406 29.395 0 56.508-5.064 81.339-15.191 24.83-10.127 46.747-23.672 65.751-40.634 19.003-16.972 34.838-36.726 47.503-59.262 12.675-22.545 21.797-46.481 27.364-71.809ZM563.172 169.423c-15.709 0-34.462-1.521-56.259-4.562-21.787-3.042-45.095-6.84-69.926-11.394-24.83-4.563-50.552-9.626-77.164-15.191-26.602-5.573-52.7-10.637-78.291-15.19-25.591-4.563-50.041-8.361-73.35-11.394-23.309-3.042-44.084-4.563-62.327-4.563-9.121 0-17.486.886-25.095 2.657-7.599 1.772-15.199 4.684-22.798 8.737-7.6 4.052-15.71 9.371-24.33 15.956-8.61 6.584-18.488 14.94-29.632 25.068 31.419-32.923 58.402-59.767 80.95-80.532 22.548-20.764 41.931-36.971 58.151-48.62 16.22-11.647 30.282-19.623 42.187-23.926C237.193 2.156 248.467 0 259.11 0c15.709 0 34.712 1.521 57.009 4.563 22.298 3.033 46.117 6.83 71.458 11.393a4452.172 4452.172 0 0 1 78.291 14.815 5173.044 5173.044 0 0 0 77.915 14.816c25.081 4.553 48.39 8.351 69.927 11.393 21.536 3.042 39.908 4.563 55.117 4.563 12.665 0 23.434-.886 32.304-2.657 8.871-1.78 16.6-4.188 23.189-7.22 6.588-3.042 12.285-6.715 17.091-11.018 4.816-4.303 10.012-9.241 15.589-14.815-26.352 29.881-48.269 54.193-65.751 72.936-17.481 18.743-33.065 33.308-46.752 43.695-13.677 10.377-26.598 17.467-38.763 21.27-12.164 3.793-26.352 5.689-42.562 5.689Zm-109.469 348.71L320.685 638.172l-1.517-347.958c7.599-11.139 24.575-29.116 50.927-53.934l79.809-73.701 3.799 355.554Z"/></svg>