<svg xmlns="http://www.w3.org/2000/svg" width="1991" height="255" fill="none"><path fill="#fff" d="M423.507 32.5c32.135 0 56.636 8.078 73.502 24.234 17.044 15.98 25.566 39.503 25.566 70.573 0 31.247-8.522 54.949-25.566 71.105-16.866 15.979-41.367 23.968-73.502 23.968H354V32.5h69.507Zm-25.299 35.686v118.509h28.229c17.221 0 30.093-4.883 38.615-14.648 8.7-9.764 13.049-24.589 13.049-44.474 0-19.884-4.349-34.709-13.049-44.474-8.522-9.942-21.216-14.913-38.083-14.913h-28.761Zm253.891 112.117h-68.975l-13.049 42.077h-47.138L587.651 32.5h60.453l64.98 189.88h-47.403l-13.582-42.077ZM618.277 63.925l-25.832 82.823h50.865l-25.033-82.823ZM728.241 32.5h44.74v189.88h-44.74V32.5Zm75.68 0h44.741v153.928h88.415v35.952H803.921V32.5Zm175.681 117.444L911.16 32.5h49.267l42.073 79.361 42.08-79.361h47.94l-68.44 117.444v72.436h-44.478v-72.436Zm210.888 76.757c-16.87 0-31.43-2.397-43.68-7.19-12.07-4.971-21.39-12.073-27.96-21.305-6.39-9.41-9.59-20.684-9.59-33.822h44.21c0 9.055 3.11 15.89 9.32 20.506 6.21 4.616 15.09 6.924 26.63 6.924 11.19 0 19.44-2.041 24.77-6.125 5.5-4.083 8.25-9.321 8.25-15.712 0-6.037-1.86-10.741-5.59-14.115-3.73-3.551-10.21-6.302-19.44-8.255l-40.74-8.789c-15.63-3.373-27.26-9.498-34.89-18.375-7.46-8.877-11.19-20.24-11.19-34.088 0-12.606 3.29-23.347 9.86-32.224 6.74-8.877 15.8-15.535 27.16-19.973 11.54-4.439 24.5-6.658 38.88-6.658 13.85 0 26.28 2.22 37.29 6.658 11 4.26 19.7 10.652 26.09 19.174 6.4 8.522 9.59 18.642 9.59 30.36h-43.94c-1.6-14.559-12.07-21.838-31.42-21.838-6.04 0-11.37.888-15.98 2.663-4.44 1.776-7.9 4.261-10.39 7.457-2.31 3.018-3.46 6.57-3.46 10.652 0 5.15 1.51 9.322 4.53 12.517 3.19 3.196 7.72 5.415 13.58 6.658l46.87 10.12c15.62 3.551 27.34 9.853 35.15 18.908 7.81 9.055 11.72 20.684 11.72 34.887 0 12.25-3.11 22.991-9.32 32.224-6.22 9.232-15 16.333-26.37 21.305-11.36 4.971-24.67 7.456-39.94 7.456Zm95.84-193.875h44.21v73.236h72.97V32.826h44.2v189.881h-44.2V142.28h-72.97v80.427h-44.21V32.827Zm305.64 147.803h-68.98l-13.05 42.078h-47.13l64.71-189.88h60.45l64.98 189.88h-47.4l-13.58-42.078Zm-33.82-116.378-25.84 82.823h50.87l-25.03-82.823Zm109.96-31.425h87.08c23.09 0 40.31 4.705 51.67 14.115s17.04 22.547 17.04 39.414c0 11.185-2.48 20.772-7.45 28.762-4.8 7.989-12.08 14.025-21.84 18.109 8.7 2.84 15.09 7.19 19.17 13.049 4.26 5.859 6.93 13.582 7.99 23.169l3.2 23.169c1.06 7.99 1.95 14.115 2.66 18.376.89 4.261 2.13 8.167 3.73 11.718h-44.21c-.89-2.308-1.68-5.327-2.39-9.055-.71-3.728-1.34-6.835-1.87-9.321-.35-2.486-.62-4.438-.8-5.859l-3.46-24.234c-1.07-7.99-3.73-13.848-7.99-17.577-4.08-3.728-10.65-5.592-19.71-5.592h-38.61v71.638h-44.21V32.827Zm81.49 84.687c19.89 0 29.83-8.877 29.83-26.63 0-8.345-2.58-14.47-7.72-18.376-5.15-4.084-12.52-6.126-22.11-6.126h-37.28v51.132h37.28Zm102.12-84.687h137.15v34.887h-93.74v39.148h86.82v34.887h-86.82v46.072H1991v34.887h-139.28V32.827Z"/><path fill="#fff" d="M994.403 245.727c3.996 4.764 11.327 4.764 15.317 0l30.62-36.491c5.46-6.507.83-16.427-7.66-16.427h-61.23c-8.494 0-13.12 9.92-7.661 16.427l30.614 36.491ZM1301.19 9.132c4-4.764 11.33-4.764 15.32 0l30.62 36.492c5.46 6.507.83 16.427-7.66 16.427h-61.23c-8.49 0-13.12-9.92-7.66-16.427l30.61-36.492ZM60.932 104.898H37.39v64.554H23.542v-64.554H0V93.5h60.932v11.398ZM108.009 93.5h13.636v30.573h34.514V93.5H169.9v75.952h-13.741V135.79h-34.514v33.662h-13.636V93.5Zm115.043 0h53.049v11.185h-39.627v19.707h36.645v11.185h-36.645v22.69h40.266v11.185h-53.688V93.5Z"/></svg>