<svg xmlns="http://www.w3.org/2000/svg" width="1000" height="318" fill="none"><path fill="#B51F30" d="M381 194.209V0h119v194.209H381Z"/><path fill="#EC3E28" d="M239 194.209V0h142v194.209H239Z"/><path fill="#9E2C20" d="M119.5 194.209V0H239v194.209H119.5Z"/><path fill="#E8642D" d="M0 194.209V0h119.5v194.209H0Z"/><path fill="#FFF7E7" d="M58 91.716h48v49.616c0 24.366-16.566 39.593-44.98 39.593-26.923 0-47.52-14-47.52-44.103V54.628c0-26.775 20.105-42.156 46.918-42.156 28.083 0 45.332 16.396 45.332 38.147V68.46h-29.5V53.626c0-8.481-7.031-13.6-15.367-13.6-10.279 0-14.383 7.025-14.383 14.602v83.697c0 8.933 5.722 14.559 14.44 14.559 8.66 0 13.56-4.498 13.56-13.556v-23.055H58V91.716Zm99.984-76.912-33.172 163.62h29.922l6.61-36.586H194.5l6.5 36.586h32.828l-31.719-163.62h-44.125Zm20.094 35.71 11.063 65.012h-22.579l11.516-65.013ZM251.5 178.419V15.035h41.219l17.88 65.47 18.681-65.47h39.22V178.42H340V62.647l-18.75 70.666H299l-19-70.666V178.42h-28.5Zm149.25 0V15.035h78.5V42.35h-46.5v38.34h36.75v27.565h-36.75v42.35h46.75v27.815h-78.75Z"/><path fill="#3DBAC4" d="M1000 0v194.209H500V0h500Z"/><path fill="#FFF7E7" d="M561.832 154.962c4.976 0 11.782-3.027 11.782-14.765 0-25.305-54.165-43.051-54.165-85.662 0-22.598 14.528-41.943 43.435-41.943 29.056 0 40.02 21.23 40.575 46.47l-28.469.756c-1.249-13.301-5.109-21.25-13.914-21.25-7.226 0-11.589 5.683-11.589 13.401 0 21.4 55.852 43.994 55.852 86.038 0 26.873-19.064 43.432-43.856 43.432-26.926 0-42.936-17.491-44.456-47.201l30.135-.972c.982 11.807 4.258 21.696 14.67 21.696ZM621 178.923V15.539h32.2v66.155h28.3V15.54h32.35v163.384H681.5v-67.91h-28.3v67.91H621ZM775.922 12.927c-30.991 0-47.422 19.185-47.422 42.205v83.697c0 26.176 16.98 42.6 46.891 42.6 30.117 0 47.109-19.1 47.109-42.099V55.633c0-23.801-15.307-42.71-46.578-42.71v.004Zm-.625 28.127c7.181 0 15.109 4.961 15.109 15.145v81.221c0 9.302-5.892 15.411-14.812 15.411-8.147 0-14.594-5.417-14.594-14.629v-83.07c0-8.616 6.075-14.078 14.297-14.078ZM835 15.538h31.905l13.295 97.956 14.63-97.966h31.065l13.775 97.785L953 15.538h28.34L955 179.424h-30L908.835 73.74 892 179.424h-30.41L835 15.538Z"/><path fill="#1E2F5A" d="M0 318V194.209h1000V318H0Z"/><path fill="#3DBAC4" d="M45.68 289v-63h30.78c11.25 0 18.27 2.79 22.68 7.2 3.869 3.87 5.759 8.46 5.759 14.94v.18c0 9.27-4.77 15.57-12.42 19.26L107.15 289H83.12l-11.88-18h-4.5v18H45.68Zm21.06-33.03h9.09c5.04 0 8.1-2.25 8.1-6.12v-.18c0-4.05-3.06-6.03-8.01-6.03h-9.18v12.33Zm137.325 34.38c-19.44 0-34.29-14.31-34.29-32.67v-.18c0-18.27 15.03-32.85 34.47-32.85 19.44 0 34.29 14.31 34.29 32.67v.18c0 18.27-15.03 32.85-34.47 32.85Zm.18-18.63c8.01 0 13.05-6.66 13.05-14.04v-.18c0-7.47-5.13-14.22-13.23-14.22-8.01 0-13.05 6.66-13.05 14.04v.18c0 7.47 5.13 14.22 13.23 14.22ZM305.452 289v-63h35.28c8.73 0 14.22 1.98 17.91 5.67 2.25 2.25 3.87 5.49 3.87 9.81v.18c0 7.56-4.41 11.97-11.25 14.4 8.19 2.43 13.32 6.66 13.32 15.3v.18c0 10.08-8.28 17.46-24.21 17.46h-34.92Zm36.36-42.57v-.18c0-2.88-2.25-4.32-6.75-4.32h-9.09v8.82h9.18c4.41 0 6.66-1.44 6.66-4.32Zm1.62 22.05v-.18c0-2.79-2.25-4.59-6.84-4.59h-10.62v9.36h10.53c4.59 0 6.93-1.8 6.93-4.59ZM430.373 289v-63h21.06v45h29.61v18h-50.67Zm145.73 1.35c-19.44 0-34.29-14.31-34.29-32.67v-.18c0-18.27 15.03-32.85 34.47-32.85 19.44 0 34.29 14.31 34.29 32.67v.18c0 18.27-15.03 32.85-34.47 32.85Zm.18-18.63c8.01 0 13.05-6.66 13.05-14.04v-.18c0-7.47-5.13-14.22-13.23-14.22-8.01 0-13.05 6.66-13.05 14.04v.18c0 7.47 5.13 14.22 13.23 14.22ZM711.268 226h23.49l-20.43 30.69 21.33 32.31h-23.94l-9.99-16.38-10.08 16.38h-23.49l21.33-32.04-20.43-30.96h23.94l9.09 15.03 9.18-15.03Zm88.598 63v-63h21.06v63h-21.06Zm85.082 0 26.55-63.45h20.88l26.55 63.45h-22.86l-3.33-8.46h-22.05l-3.24 8.46h-22.5Zm31.05-23.4h11.52l-5.76-15.3-5.76 15.3Z"/></svg>