<svg xmlns="http://www.w3.org/2000/svg" width="900" height="612" fill="none"><path fill="#fff" d="M900 427.262c-1.457.1-2.782.217-4.105.265-16.024.591-32.061 1.504-48.087 1.626-9.453.073-18.93-1.03-27.618-5.409-4.793-2.416-8.666-6.049-10.101-11.23-1.213-4.381-1.78-9.068-1.802-13.624-.15-31.183-.088-62.357-.089-93.539v-2.955h3.013c27.133 0 54.271-.019 81.404.029 1.835.003 2.637-.264 2.63-2.424-.08-23.87-.053-47.739 0-71.609.004-1.843-.479-2.489-2.392-2.454-5.879.109-11.769.031-17.901.031h-66.754v-73.354l-97.118-.001c0 1.375.027 2.633 0 3.872-.312 14.021-.333 28.059-1.093 42.056-.457 8.424-4.406 15.426-11.933 19.86-5.577 3.286-11.818 5.01-18.136 5.557-11.866 1.027-23.775 1.437-35.681 1.921-2.3.093-2.992.64-2.983 2.985.085 23.618.053 47.252.058 70.87 0 .813.074 1.611.12 2.661h3.218c19.321 0 38.633.051 57.953-.06 2.551-.015 3.255.627 3.25 3.222a34561.4 34561.4 0 0 0-.06 118.748c.012 10.504.482 20.942 3.426 31.18 2.751 9.565 7.01 18.325 13.292 25.949 9.156 11.111 20.983 18.554 34.351 23.643 17.452 6.642 35.656 9.672 54.172 9.871 23.084.248 46.207-.485 69.294-1.035 6.58-.156 13.132-1.157 19.672-1.772v13.194l-399.093 66.686-70.518 11.772v-71.58L0 611.999V511.934h102.199v-3.428c0-48.504-.015-96.991.03-145.495.006-7.054.49-14.073 2.421-20.954 2.367-8.43 6.106-16.045 11.844-22.668 8.385-9.677 19.186-15.353 31.487-17.94 12.535-2.636 25.147-2.6 37.631.916 5.934 1.672 11.477 4.142 16.482 7.656 10.32 7.245 16.88 17.232 20.469 29.228 2.523 8.43 3.368 17.118 3.368 25.89v146.765h102.435v-3.191c0-50.354.026-100.698-.03-151.052-.009-8.4-.15-16.795-.62-25.18-.902-16.079-3.525-31.905-9.836-46.814-3.085-7.289-6.634-14.469-10.84-21.16-4.579-7.284-10.455-13.611-17.014-19.328-10.256-8.942-21.911-15.366-34.647-19.802-10.875-3.788-22.13-6.079-33.643-7.093-19.696-1.734-39.25-1.036-58.632 3.015-11.938 2.495-23.373 6.371-34.115 12.264-7.539 4.137-14.442 9.048-20.528 15.132-2.007 2.007-4.117 3.93-6.38 6.089V97.999H0V86.66L469.644 8.201l-.008 71.584L900 0v427.262ZM610.092 219.053c-6.969-.068-13.888-.014-20.804.285-6.916.299-13.83.843-20.784 1.754-10.321 1.168-20.261 3.088-30.04 5.911-17.323 5.001-33.034 12.923-47.142 24.233-8.868 7.111-16.834 15.018-23.836 23.94-1.239 1.579-2.552 3.098-3.84 4.639l-.295-.103-.295-.103v-53.375h-99.452v285.7h102.169v-2.955c0-32.108-.117-64.211.119-96.317.058-7.933.879-15.947 2.126-23.791 1.785-11.235 5.833-21.74 11.755-31.535 4.575-7.566 10.153-14.255 16.836-19.948 6.82-5.809 14.417-10.436 22.715-13.98 11.913-5.085 24.293-8.163 37.188-8.512 16.956-.457 33.927-.365 50.892-.501.89-.007 1.779 0 2.688 0v-95.342Z"/></svg>