<svg xmlns="http://www.w3.org/2000/svg" width="394" height="451" fill="none"><mask id="c" width="395" height="451" x="-.441" y="0" fill="#000" maskUnits="userSpaceOnUse"><path fill="#fff" d="M-.441 0h395v451h-395z"/><path d="M194.2 443.8c-36 0-67.2-5.4-93.6-16.2-26-10.8-46.6-26.2-61.8-46.2-14.8-20-23.8-44-27-72h136.8c3.2 8 8.4 14 15.6 18 7.2 4 17.6 6 31.2 6 8 0 15.2-1.2 21.6-3.6 6.4-2.8 11.8-6.6 16.2-11.4 4.4-5.2 8-11.4 10.8-18.6 2.8-7.6 4.8-16.2 6-25.8l2.4-25.2c1.2-8.4 2.2-16.8 3-25.2l9 28.8c-7.6 7.2-16.8 13.2-27.6 18-10.4 4.4-22 7.8-34.8 10.2-12.4 2.4-25.4 3.6-39 3.6-22 0-42.4-2.8-61.2-8.4-18.8-5.6-35.4-14-49.8-25.2-14-11.2-25-25.2-33-42S7 172.4 7 150.4C7 120 15 94.2 31 73c16-21.6 38-38 66-49.2C125.4 12.6 158 7 194.8 7c30.4 0 57.4 4.4 81 13.2 24 8.4 44.2 21.4 60.6 39s28.8 40 37.2 67.2c8.8 26.8 13.2 58.4 13.2 94.8 0 33.2-4.2 63.6-12.6 91.2-8.4 27.2-20.8 50.6-37.2 70.2-16.4 19.6-36.6 34.8-60.6 45.6-23.6 10.4-51 15.6-82.2 15.6ZM241 138.4c-2-5.2-5.2-9.6-9.6-13.2-4.4-3.6-9.6-6.4-15.6-8.4s-13-3-21-3c-9.6 0-18.4 1.6-26.4 4.8-7.6 2.8-13.6 7.2-18 13.2-4.4 5.6-6.6 12.6-6.6 21 0 6.8 1.8 13 5.4 18.6 3.6 5.2 9 9.4 16.2 12.6 7.6 2.8 17 4.2 28.2 4.2 9.2 0 17.6-1 25.2-3 7.6-2.4 13.8-6.2 18.6-11.4 4.8-5.2 7.2-11.8 7.2-19.8 0-5.6-1.2-10.8-3.6-15.6Z"/></mask><path fill="url(#a)" d="M194.2 443.8c-36 0-67.2-5.4-93.6-16.2-26-10.8-46.6-26.2-61.8-46.2-14.8-20-23.8-44-27-72h136.8c3.2 8 8.4 14 15.6 18 7.2 4 17.6 6 31.2 6 8 0 15.2-1.2 21.6-3.6 6.4-2.8 11.8-6.6 16.2-11.4 4.4-5.2 8-11.4 10.8-18.6 2.8-7.6 4.8-16.2 6-25.8l2.4-25.2c1.2-8.4 2.2-16.8 3-25.2l9 28.8c-7.6 7.2-16.8 13.2-27.6 18-10.4 4.4-22 7.8-34.8 10.2-12.4 2.4-25.4 3.6-39 3.6-22 0-42.4-2.8-61.2-8.4-18.8-5.6-35.4-14-49.8-25.2-14-11.2-25-25.2-33-42S7 172.4 7 150.4C7 120 15 94.2 31 73c16-21.6 38-38 66-49.2C125.4 12.6 158 7 194.8 7c30.4 0 57.4 4.4 81 13.2 24 8.4 44.2 21.4 60.6 39s28.8 40 37.2 67.2c8.8 26.8 13.2 58.4 13.2 94.8 0 33.2-4.2 63.6-12.6 91.2-8.4 27.2-20.8 50.6-37.2 70.2-16.4 19.6-36.6 34.8-60.6 45.6-23.6 10.4-51 15.6-82.2 15.6ZM241 138.4c-2-5.2-5.2-9.6-9.6-13.2-4.4-3.6-9.6-6.4-15.6-8.4s-13-3-21-3c-9.6 0-18.4 1.6-26.4 4.8-7.6 2.8-13.6 7.2-18 13.2-4.4 5.6-6.6 12.6-6.6 21 0 6.8 1.8 13 5.4 18.6 3.6 5.2 9 9.4 16.2 12.6 7.6 2.8 17 4.2 28.2 4.2 9.2 0 17.6-1 25.2-3 7.6-2.4 13.8-6.2 18.6-11.4 4.8-5.2 7.2-11.8 7.2-19.8 0-5.6-1.2-10.8-3.6-15.6Z"/><path fill="url(#b)" d="m100.6 427.6-2.685 6.464.017.008.018.007 2.65-6.479Zm-61.8-46.2-5.627 4.164.027.036.027.036L38.8 381.4Zm-27-72v-7H3.954l.891 7.795 6.955-.795Zm136.8 0 6.499-2.6-1.76-4.4H148.6v7Zm15.6 18 3.4-6.119-3.4 6.119Zm52.8 2.4 2.458 6.554.176-.066.172-.075L217 329.8Zm16.2-11.4 5.16 4.73.094-.102.09-.106-5.344-4.522Zm10.8-18.6 6.524 2.537.023-.058.021-.059L244 299.8Zm6-25.8 6.946.868.013-.102.009-.102L250 274Zm2.4-25.2-6.93-.99-.023.163-.015.163 6.968.664Zm3-25.2 6.681-2.088-13.649 1.424 6.968.664Zm9 28.8 4.814 5.082 3.17-3.003-1.303-4.167-6.681 2.088Zm-27.6 18 2.727 6.447.058-.025.058-.025-2.843-6.397ZM202 280.6l-1.29-6.88-.02.004-.02.004L202 280.6Zm-100.2-4.8 1.998-6.709-1.998 6.709ZM52 250.6l-4.373 5.466.038.03.037.029L52 250.6ZM31 73l5.587 4.217.02-.025.018-.025L31 73Zm66-49.2-2.568-6.512-.016.006-.016.007L97 23.8Zm178.8-3.6-2.446 6.559.067.025.067.023L275.8 20.2Zm60.6 39 5.121-4.772L336.4 59.2Zm37.2 67.2-6.688 2.065.018.06.019.059 6.651-2.184Zm.6 186 6.688 2.066.005-.014.004-.014-6.697-2.038ZM337 382.6l-5.369-4.492L337 382.6Zm-60.6 45.6 2.823 6.406.025-.011.025-.012-2.873-6.383ZM241 138.4l-6.533 2.513.121.315.151.302L241 138.4Zm-25.2-21.6 2.214-6.641-2.214 6.641Zm-47.4 1.8 2.42 6.568.09-.033.09-.036-2.6-6.499Zm-18 13.2 5.504 4.325.072-.092.069-.093-5.645-4.14Zm-1.2 39.6-5.888 3.785.065.101.068.098 5.755-3.984Zm16.2 12.6-2.843 6.397.209.092.214.079L165.4 184Zm53.4 1.2 1.781 6.77.165-.044.162-.051-2.108-6.675Zm18.6-11.4 5.144 4.748-5.144-4.748Zm-43.2 270v-7c-35.32 0-65.58-5.3-90.95-15.679l-2.65 6.479-2.65 6.479C125.38 445.3 157.52 450.8 194.2 450.8v-7Zm-93.6-16.2 2.685-6.464c-24.998-10.384-44.548-25.072-58.912-43.972L38.8 381.4l-5.573 4.236c16.036 21.1 37.686 37.212 64.688 48.428l2.685-6.464Zm-61.8-46.2 5.627-4.164c-13.977-18.887-22.593-41.686-25.672-68.631l-6.955.795-6.955.795c3.32 29.055 12.705 54.256 28.328 75.369L38.8 381.4Zm-27-72v7h136.8v-14H11.8v7Zm136.8 0-6.499 2.6c3.768 9.42 10.024 16.699 18.7 21.519l3.399-6.119 3.4-6.119c-5.725-3.18-9.869-7.901-12.501-14.481l-6.499 2.6Zm15.6 18-3.399 6.119c8.709 4.839 20.497 6.881 34.599 6.881v-14c-13.098 0-22.11-1.958-27.8-5.119l-3.4 6.119Zm31.2 6v7c8.699 0 16.75-1.305 24.058-4.046L217 329.8l-2.458-6.554c-5.492 2.059-11.841 3.154-19.142 3.154v7Zm21.6-3.6 2.806 6.413c7.227-3.162 13.448-7.513 18.554-13.083l-5.16-4.73-5.16-4.73c-3.694 4.03-8.273 7.279-13.846 9.717L217 329.8Zm16.2-11.4 5.344 4.522c4.963-5.866 8.936-12.758 11.98-20.585L244 299.8l-6.524-2.537c-2.556 6.573-5.782 12.081-9.62 16.615l5.344 4.522Zm10.8-18.6 6.568 2.42c3.017-8.187 5.124-17.321 6.378-27.352L250 274l-6.946-.868c-1.146 9.169-3.039 17.235-5.622 24.248L244 299.8Zm6-25.8 6.968.664 2.4-25.2-6.968-.664-6.968-.664-2.4 25.2L250 274Zm2.4-25.2 6.93.99a547.625 547.625 0 0 0 3.038-25.526l-6.968-.664-6.968-.664a533.501 533.501 0 0 1-2.962 24.874l6.93.99Zm3-25.2-6.681 2.088 9 28.8 6.681-2.088 6.681-2.088-9-28.8-6.681 2.088Zm9 28.8-4.814-5.082c-6.953 6.587-15.463 12.167-25.629 16.685l2.843 6.397 2.843 6.397c11.434-5.082 21.324-11.503 29.571-19.315L264.4 252.4Zm-27.6 18-2.727-6.447c-9.874 4.178-20.983 7.446-33.363 9.767l1.29 6.88 1.29 6.88c13.22-2.479 25.311-6.011 36.237-10.633L236.8 270.4ZM202 280.6l-1.33-6.872c-11.93 2.308-24.483 3.472-37.67 3.472v14c14.013 0 27.46-1.237 40.33-3.728L202 280.6Zm-39 3.6v-7c-21.404 0-41.123-2.724-59.202-8.109L101.8 275.8l-1.998 6.709c19.522 5.815 40.602 8.691 63.198 8.691v-7Zm-61.2-8.4 1.998-6.709c-18.03-5.37-33.837-13.389-47.5-24.016L52 250.6l-4.298 5.525c15.137 11.773 32.53 20.554 52.1 26.384l1.998-6.709ZM52 250.6l4.373-5.466C43.23 234.62 32.883 221.472 25.32 205.59L19 208.6l-6.32 3.01c8.437 17.718 20.09 32.57 34.947 44.456L52 250.6Zm-33-42 6.32-3.01C17.842 189.887 14 171.547 14 150.4H0c0 22.853 4.158 43.313 12.68 61.21L19 208.6ZM7 150.4h7c0-29.108 7.633-53.37 22.587-73.183L31 73l-5.587-4.217C8.367 91.37 0 118.708 0 150.4h7ZM31 73l5.625 4.167C51.76 56.733 72.654 41.077 99.6 30.299L97 23.8l-2.6-6.5C65.346 28.923 42.24 46.068 25.375 68.834L31 73Zm66-49.2 2.568 6.512C127.001 19.493 158.703 14 194.8 14V0c-37.503 0-71.001 5.707-100.368 17.288L97 23.8ZM194.8 7v7c29.733 0 55.88 4.304 78.554 12.759L275.8 20.2l2.446-6.559C253.72 4.496 225.867 0 194.8 0v7Zm81 13.2-2.312 6.607c22.991 8.047 42.209 20.443 57.791 37.165L336.4 59.2l5.121-4.772c-17.218-18.478-38.4-32.082-63.409-40.835L275.8 20.2Zm60.6 39-5.121 4.772c15.56 16.698 27.488 38.119 35.633 64.493l6.688-2.065 6.688-2.066c-8.655-28.025-21.527-51.404-38.767-69.906L336.4 59.2Zm37.2 67.2-6.651 2.184c8.513 25.924 12.851 56.754 12.851 92.616h14c0-36.938-4.462-69.308-13.549-96.984L373.6 126.4Zm13.2 94.8h-7c0 32.611-4.125 62.313-12.297 89.162l6.697 2.038 6.697 2.038c8.628-28.351 12.903-59.449 12.903-93.238h-7Zm-12.6 91.2-6.688-2.065c-8.157 26.412-20.142 48.963-35.881 67.773L337 382.6l5.369 4.492c17.061-20.39 29.876-44.639 38.519-72.626L374.2 312.4ZM337 382.6l-5.369-4.492c-15.7 18.764-35.038 33.329-58.104 43.709l2.873 6.383 2.873 6.383c24.934-11.22 45.997-27.056 63.096-47.491L337 382.6Zm-60.6 45.6-2.823-6.406c-22.544 9.935-48.949 15.006-79.377 15.006v14c31.972 0 60.367-5.329 85.023-16.194L276.4 428.2ZM241 138.4l6.533-2.513c-2.445-6.358-6.38-11.752-11.7-16.105L231.4 125.2l-4.433 5.418c3.48 2.847 5.945 6.253 7.5 10.295L241 138.4Zm-9.6-13.2 4.433-5.418c-5.13-4.196-11.102-7.384-17.819-9.623L215.8 116.8l-2.214 6.641c5.283 1.761 9.711 4.173 13.381 7.177l4.433-5.418Zm-15.6-8.4 2.214-6.641c-6.874-2.291-14.652-3.359-23.214-3.359v14c7.438 0 13.66.932 18.786 2.641l2.214-6.641Zm-21-3v-7c-10.389 0-20.084 1.734-29 5.301l2.6 6.499 2.6 6.499c7.084-2.833 14.989-4.299 23.8-4.299v-7Zm-26.4 4.8-2.42-6.568c-8.771 3.231-15.94 8.421-21.225 15.628l5.645 4.14 5.645 4.14c3.515-4.793 8.346-8.403 14.775-10.772l-2.42-6.568Zm-18 13.2-5.504-4.325c-5.536 7.046-8.096 15.649-8.096 25.325h14c0-7.124 1.84-12.521 5.104-16.675L150.4 131.8Zm-6.6 21h-7c0 8.112 2.17 15.631 6.512 22.385l5.888-3.785 5.888-3.785c-2.858-4.446-4.288-9.327-4.288-14.815h-7Zm5.4 18.6-5.755 3.984c4.491 6.488 11.025 11.418 19.112 15.013L165.4 184l2.843-6.397c-6.313-2.805-10.579-6.275-13.288-10.187L149.2 171.4Zm16.2 12.6-2.42 6.568c8.609 3.172 18.888 4.632 30.62 4.632v-14c-10.668 0-19.189-1.34-25.78-3.768L165.4 184Zm28.2 4.2v7c9.702 0 18.711-1.054 26.981-3.23l-1.781-6.77-1.781-6.77c-6.93 1.824-14.721 2.77-23.419 2.77v7Zm25.2-3 2.108 6.675c8.613-2.72 15.909-7.123 21.636-13.327L237.4 173.8l-5.144-4.748c-3.873 4.196-8.977 7.393-15.564 9.473l2.108 6.675Zm18.6-11.4 5.144 4.748c6.151-6.664 9.056-15.036 9.056-24.548h-14c0 6.487-1.895 11.316-5.344 15.052l5.144 4.748Zm7.2-19.8h7c0-6.638-1.432-12.916-4.339-18.731L241 138.4l-6.261 3.13c1.893 3.786 2.861 7.908 2.861 12.47h7Z" mask="url(#c)"/><defs><linearGradient id="a" x1="199.059" x2="199.059" y1="-7" y2="444" gradientUnits="userSpaceOnUse"><stop stop-color="#fff"/><stop offset="1" stop-color="#fff" stop-opacity="0"/></linearGradient><linearGradient id="b" x1="199.059" x2="199.059" y1="-7" y2="444" gradientUnits="userSpaceOnUse"><stop stop-color="#fff" stop-opacity="0"/><stop offset="1" stop-color="#fff"/></linearGradient></defs></svg>