<svg xmlns="http://www.w3.org/2000/svg" width="800" height="800" fill="none"><g fill="#fff" clip-path="url(#a)"><path d="M800 733.333C800 770.152 770.152 800 733.333 800H66.667C29.847 800 0 770.152 0 733.333c0-58.419 47.358-105.777 105.778-105.777h76.444c61.365 0 111.111 49.746 111.111 111.111 0 17.673 14.327 32 32 32h150.223c17.673 0 32-14.327 32-32V628.444C507.556 466.932 638.487 336 800 336v397.333ZM733.333 0C770.152 0 800 29.848 800 66.667c0 57.928-46.96 104.889-104.889 104.889h-76.444c-61.365 0-111.111-49.747-111.111-111.112 0-17.673-14.327-32-32-32H325.333c-17.673 0-32 14.327-32 32v109.334c0 162.003-131.329 293.333-293.333 293.333V66.667C0 29.847 29.848 0 66.667 0h666.666Z"/><path d="M0 463.111C0 392.91 56.91 336 127.111 336H800c0 70.202-56.91 127.111-127.111 127.111H0Z"/></g><defs><clipPath id="a"><path fill="#fff" d="M0 0h800v800H0z"/></clipPath></defs></svg>