<svg xmlns="http://www.w3.org/2000/svg" width="383" height="429" fill="none"><mask id="c" width="384" height="429" x="-.84" y="-.398" fill="#000" maskUnits="userSpaceOnUse"><path fill="#fff" d="M-.84-.398h384v429h-384z"/><path d="M264.402 308.802c-14.8 34.8-29.2 72.4-43.2 112.8h-153c12-36.4 25.4-71.2 40.2-104.4 14.8-33.6 30.4-65.4 46.8-95.4s33.2-58 50.4-84c17.6-26 35.2-50 52.8-72l25.2 59.4H7.002V7.002h368.4v102c-23.2 32.8-43.8 65.6-61.8 98.4-18 32.4-34.4 66.2-49.2 101.4Z"/></mask><path fill="url(#a)" d="M264.402 308.802c-14.8 34.8-29.2 72.4-43.2 112.8h-153c12-36.4 25.4-71.2 40.2-104.4 14.8-33.6 30.4-65.4 46.8-95.4s33.2-58 50.4-84c17.6-26 35.2-50 52.8-72l25.2 59.4H7.002V7.002h368.4v102c-23.2 32.8-43.8 65.6-61.8 98.4-18 32.4-34.4 66.2-49.2 101.4Z"/><path fill="url(#b)" d="m264.402 308.802 6.441 2.739.006-.013.005-.013-6.452-2.713Zm-43.2 112.8v7h4.982l1.632-4.708-6.614-2.292Zm-153 0-6.648-2.192-3.03 9.192h9.678v-7Zm40.2-104.4 6.393 2.85.006-.015.007-.014-6.406-2.821Zm46.8-95.4 6.142 3.357-6.142-3.357Zm50.4-84-5.797-3.924-.021.03-.021.031 5.839 3.863Zm52.8-72 6.444-2.734-4.582-10.8-7.329 9.16 5.467 4.374Zm25.2 59.4v7h10.573l-4.129-9.734-6.444 2.734Zm-276.6 0h-7v7h7v-7Zm0-118.2v-7h-7v7h7Zm368.4 0h7v-7h-7v7Zm0 102 5.715 4.042 1.285-1.817v-2.225h-7Zm-61.8 98.4 6.119 3.399.008-.016.009-.016-6.136-3.367Zm-49.2 101.4-6.442-2.74c-14.87 34.965-29.327 72.716-43.373 113.248l6.615 2.292 6.614 2.292c13.954-40.268 28.297-77.718 43.027-112.353l-6.441-2.739Zm-43.2 112.8v-7h-153v14h153v-7Zm-153 0 6.648 2.191c11.93-36.188 25.246-70.768 39.945-103.741l-6.393-2.85-6.394-2.851c-14.9 33.427-28.385 68.447-40.454 105.059l6.648 2.192Zm40.2-104.4 6.406 2.821c14.725-33.431 30.238-65.051 46.536-94.864l-6.142-3.357-6.143-3.358c-16.502 30.187-32.189 62.167-47.064 95.936l6.407 2.822Zm46.8-95.4 6.142 3.357c16.314-29.844 33.014-57.674 50.096-83.495l-5.838-3.862-5.839-3.863c-17.318 26.179-34.218 54.349-50.704 84.505l6.143 3.358Zm50.4-84 5.796 3.924c17.508-25.864 34.998-49.712 52.47-71.552l-5.466-4.373-5.467-4.372c-17.728 22.16-35.438 46.312-53.13 72.449l5.797 3.924Zm52.8-72-6.444 2.733 25.2 59.4 6.444-2.733 6.444-2.734-25.2-59.4-6.444 2.734Zm25.2 59.4v-7H7.002v14h276.6v-7Zm-276.6 0h7V7.002h-14v118.2h7Zm0-118.2v7h368.4v-14H7.002v7Zm368.4 0h-7v102h14v-102h-7Zm0 102-5.715-4.043c-23.342 33.001-44.085 66.026-62.222 99.075l6.137 3.368 6.136 3.367c17.864-32.551 38.321-65.126 61.379-97.725l-5.715-4.042Zm-61.8 98.4-6.12-3.4c-18.127 32.629-34.638 66.659-49.533 102.086l6.453 2.714 6.452 2.713c14.705-34.973 30.994-68.543 48.867-100.714l-6.119-3.399Z" mask="url(#c)"/><defs><linearGradient id="a" x1="193.66" x2="193.66" y1="-18.398" y2="432.602" gradientUnits="userSpaceOnUse"><stop stop-color="#fff"/><stop offset="1" stop-color="#fff" stop-opacity="0"/></linearGradient><linearGradient id="b" x1="193.66" x2="193.66" y1="-18.398" y2="432.602" gradientUnits="userSpaceOnUse"><stop stop-color="#fff" stop-opacity="0"/><stop offset="1" stop-color="#fff"/></linearGradient></defs></svg>