<svg xmlns="http://www.w3.org/2000/svg" width="160" height="120" fill="none"><path fill="#fff" d="M46.943 36.456V49.46l-4.481 4.48H30.976V31.976h11.486l4.481 4.48Zm80.797-.039v13.004l-4.48 4.48h-11.487V31.936h11.487l4.48 4.481Z"/><path fill="#fff" fill-rule="evenodd" d="M159.674 119.755H0V0h159.674v119.755ZM19 99.837h11.976v-33.93h8.373l9.09 33.93h11.976l-9.919-37.005 8.422-8.423V31.486L47.432 20H19v79.837Zm80.798-.04h11.975v-33.93h8.373l9.091 33.93h11.976l-9.92-37.004 8.423-8.423V31.447l-11.487-11.486H99.798v79.837ZM69.859 62.805v14.11l19.96-19.959V42.844l-19.96 19.96Z" clip-rule="evenodd"/></svg>