<svg xmlns="http://www.w3.org/2000/svg" width="160" height="160" fill="none"><path fill="#fff" d="M46.943 56.456V69.46l-4.481 4.48H30.976V51.976h11.486l4.481 4.48Zm80.797-.039v13.004l-4.48 4.48h-11.487V51.937h11.487l4.48 4.48Z"/><path fill="#fff" fill-rule="evenodd" d="M159.674 139.755H0V20h159.674v119.755ZM19 119.837h11.976v-33.93h8.373l9.09 33.93h11.976l-9.919-37.005 8.422-8.423V51.486L47.432 40H19v79.837Zm80.798-.039h11.975v-33.93h8.373l9.091 33.93h11.976l-9.92-37.005 8.423-8.423V51.447l-11.487-11.486H99.798v79.837ZM69.859 82.804v14.11l19.96-19.959V62.844l-19.96 19.96Z" clip-rule="evenodd"/></svg>