<svg xmlns="http://www.w3.org/2000/svg" width="1610" height="623" fill="none"><path fill="#fff" d="M275.075 0c68.37 0 123.414 17.378 165.132 52.134 43.745 36.494 65.618 86.745 65.618 150.754 0 84.283-38.241 148.002-114.723 191.157L507.563 623H303.756L216.41 415.333h-33.027V623H0V0h275.075Zm-91.692 274.572h55.189c25.784 0 46.498-6.082 62.142-18.247 15.644-12.165 23.466-28.239 23.466-48.224 0-41.128-28.536-61.692-85.608-61.692h-55.189v128.163Zm642.971 217.659c14.485 0 26.943-5.069 37.372-15.206 10.719-10.137 16.079-22.302 16.079-36.494v-255.89c0-14.771-5.36-27.66-16.079-38.666-10.719-11.296-23.176-16.944-37.372-16.944-14.195 0-26.508 5.503-36.937 16.509-10.14 11.006-15.21 24.04-15.21 39.101v255.021c0 14.772 5.07 27.226 15.21 37.363 10.139 10.137 22.452 15.206 36.937 15.206ZM825.485 623c-84.304 0-156.296-30.411-215.975-91.234-59.679-60.823-89.519-134.245-89.519-220.266 0-86.021 29.84-159.443 89.519-220.266C669.189 30.411 741.181 0 825.485 0s156.151 30.411 215.545 91.234c59.67 60.823 89.51 134.245 89.51 220.266 0 86.021-29.84 159.443-89.51 220.266C981.636 592.589 909.789 623 825.485 623Z"/><path fill="#fff" d="M1323.19 471.812 1236.72 623H1042.9l183.82-320.189L1053.33 0h199.9l73.44 128.162L1400.11 0h192.51l-169.48 296.729L1610 623h-200.33l-86.48-151.188Z"/></svg>