<svg xmlns="http://www.w3.org/2000/svg" width="423" height="431" fill="none"><mask id="c" width="424" height="431" x="-.84" y="-.492" fill="#000" maskUnits="userSpaceOnUse"><path fill="#fff" d="M-.84-.492h424v431h-424z"/><path d="M359.202 423.508h-133.8v-408.6l67.2 55.8-201 230.4-12-46.8h334.8l-11.4 100.8h-396v-108l208.2-238.2h144v414.6Z"/></mask><path fill="url(#a)" d="M359.202 423.508h-133.8v-408.6l67.2 55.8-201 230.4-12-46.8h334.8l-11.4 100.8h-396v-108l208.2-238.2h144v414.6Z"/><path fill="url(#b)" d="M359.202 423.508v7h7v-7h-7Zm-133.8 0h-7v7h7v-7Zm0-408.6 4.471-5.386-11.471-9.525v14.91h7Zm67.2 55.8 5.274 4.602 4.716-5.405-5.519-4.583-4.471 5.386Zm-201 230.4-6.781 1.738 3.306 12.893 8.75-10.029-5.275-4.602Zm-12-46.8v-7H70.58l2.24 8.738 6.782-1.738Zm334.8 0 6.955.786.881-7.786h-7.836v7Zm-11.4 100.8v7h6.253l.702-6.214-6.955-.786Zm-396 0h-7v7h7v-7Zm0-108-5.27-4.607-1.73 1.979v2.628h7Zm208.2-238.2v-7h-3.179L209.931 4.3l5.271 4.607Zm144 0h7v-7h-7v7Zm0 414.6v-7h-133.8v14h133.8v-7Zm-133.8 0h7v-408.6h-14v408.6h7Zm0-408.6-4.472 5.385 67.2 55.8 4.472-5.385 4.471-5.386-67.2-55.8-4.471 5.386Zm67.2 55.8-5.275-4.602-201 230.4 5.275 4.602 5.274 4.602 201-230.4-5.274-4.602Zm-201 230.4 6.78-1.739-12-46.8-6.78 1.739-6.781 1.738 12 46.8 6.78-1.738Zm-12-46.8v7h334.8v-14h-334.8v7Zm334.8 0-6.956-.787-11.4 100.8 6.956.787 6.955.786 11.4-100.8-6.955-.786Zm-11.4 100.8v-7h-396v14h396v-7Zm-396 0h7v-108h-14v108h7Zm0-108 5.27 4.607 208.2-238.2-5.27-4.607-5.271-4.607-208.2 238.2 5.27 4.607Zm208.2-238.2v7h144v-14h-144v7Zm144 0h-7v414.6h14V8.908h-7Z" mask="url(#c)"/><defs><linearGradient id="a" x1="208.66" x2="208.66" y1="-16.492" y2="434.508" gradientUnits="userSpaceOnUse"><stop stop-color="#fff"/><stop offset="1" stop-color="#fff" stop-opacity="0"/></linearGradient><linearGradient id="b" x1="208.66" x2="208.66" y1="-16.492" y2="434.508" gradientUnits="userSpaceOnUse"><stop stop-color="#fff" stop-opacity="0"/><stop offset="1" stop-color="#fff"/></linearGradient></defs></svg>