<svg xmlns="http://www.w3.org/2000/svg" width="1000" height="1000" fill="none"><path fill="#529FE9" d="M234.633 0 0 233.631V1000h771.949L1000 770.877V0H234.633Z"/><path fill="#fff" fill-opacity=".1" d="M234.633 0 0 233.631V1000l234.633-229.123V0Z"/><path fill="#000" fill-opacity=".1" d="M234.633 770.877 0 1000h771.949L1000 770.877H234.633Z"/><mask id="a" width="627" height="412" x="304" y="183" maskUnits="userSpaceOnUse" style="mask-type:luminance"><path fill="#fff" d="M304.094 594.256h625.949V183.492H304.094v410.764Z"/></mask><g mask="url(#a)"><path fill="#fff" d="M406.317 183.657c-17.026 0-31.672 2.912-43.967 8.774-12.29 5.856-22.425 13.703-30.376 23.529-8.32 9.826-14.55 21.523-18.71 35.127-4.16 13.6-6.248 27.982-6.248 43.104 0 25.317 4.251 46.391 12.762 63.21 8.516 16.812 25.277 30.304 50.248 40.511l41.409 17.015c7.189 3.024 12.964 5.86 17.315 8.508 4.356 2.643 7.853 6.043 10.501 10.203 2.273 4.154 3.797 9.615 4.553 16.417.756 6.802 1.13 15.507 1.13 26.088 0 9.07-.293 17.291-.864 24.659-.566 7.368-2.36 13.686-5.384 18.976-3.023 5.297-7.274 9.364-12.761 12.197-5.487 2.833-13.133 4.254-22.964 4.254-14.753 0-25.263-4.257-31.506-12.762-6.236-8.504-9.338-18.038-9.338-28.614v-18.145h-57.859v21.535c0 13.605 2.543 26.186 7.643 37.72 5.107 11.528 12.004 21.653 20.705 30.342 8.7 8.695 19.107 15.489 31.206 20.405 12.099 4.91 25.151 7.378 39.149 7.378 18.532 0 34.203-3.026 47.058-9.073 12.861-6.046 23.267-14.376 31.206-24.958 7.564-10.201 13.046-22.57 16.45-37.121 3.405-14.551 5.118-30.321 5.118-47.325 0-14.735-.775-27.859-2.293-39.381-1.511-11.528-4.342-21.837-8.508-30.907-4.534-8.695-10.759-16.352-18.71-22.964-7.945-6.612-18.373-12.371-31.239-17.281l-44.267-17.581c-7.564-3.023-13.523-6.049-17.879-9.073-4.351-3.023-7.664-6.607-9.937-10.767-2.267-4.154-3.683-8.867-4.254-14.157-.565-5.291-.831-11.907-.831-19.841 0-6.808.559-13.343 1.695-19.574 1.137-6.231 3.219-11.801 6.248-16.716 3.029-4.535 7.009-8.31 11.931-11.333 4.921-3.023 11.364-4.553 19.308-4.553 14.765 0 25.257 4.821 31.506 14.457 6.248 9.635 9.371 21.072 9.371 34.296v13.028h57.859v-28.348c0-11.716-2.18-22.766-6.535-33.155-4.355-10.389-10.885-20.118-19.586-29.191-8.7-8.695-18.987-15.713-30.907-21.003-11.914-5.291-25.07-7.91-39.448-7.91Zm120.338 3.324V591.03h57.859V418.483h34.662l53.938 172.547h11.233L711 521.972l-39.016-115.386c18.526-10.218 31.476-23.667 38.849-40.312 7.374-16.646 11.067-36.883 11.067-60.717 0-79.068-34.059-118.576-102.159-118.576h-93.086Zm186.538.199 75.439 192.288-81.654 211.562h61.249l49.917-136.123 50.481 136.123h61.249l-83.382-211.562 77.134-192.288h-61.249l-44.233 119.673-43.669-119.673h-61.282Zm-128.679 54.237h30.109c10.034 0 18.462 1.321 25.282 3.968 6.82 2.646 12.031 6.618 15.628 11.917 3.404 5.672 5.643 12.412 6.78 20.173 1.136 7.76 1.728 16.74 1.728 26.952 0 10.224-.592 19.225-1.728 26.985-1.137 7.755-3.192 14.278-6.215 19.575-3.41 5.302-8.166 9.358-14.224 12.196-6.058 2.839-14.196 4.254-24.426 4.254h-32.934v-126.02Z"/></g></svg>