<svg xmlns="http://www.w3.org/2000/svg" width="512" height="512" fill="none"><g clip-path="url(#a)"><path fill="#2DE6EB" d="M109.955 464.219c-.889 0-1.263 1.168-.535 1.678C150.942 494.948 201.478 512 256 512c54.522 0 105.058-17.052 146.58-46.103.728-.51.354-1.678-.535-1.678h-292.09ZM402.045 47.78c.889 0 1.263-1.168.535-1.677C361.058 17.052 310.522 0 256 0c-54.522 0-105.057 17.052-146.58 46.103-.728.51-.354 1.678.535 1.678h292.09Zm62.175 62.175v292.091c0 .888 1.167 1.262 1.677.534C494.948 361.057 512 310.522 512 256c0-54.522-17.052-105.058-46.103-146.58-.51-.728-1.677-.354-1.677.535Zm-416.44 0c0-.889-1.168-1.263-1.677-.535C17.052 150.942 0 201.478 0 256c0 54.522 17.052 105.058 46.103 146.58.51.728 1.678.354 1.678-.534V109.955Z"/><path fill="#fff" d="M168.736 366v-43.233l78.165-62.913c8.967-7.255 15.693-13.318 20.176-18.188 4.584-4.87 7.672-9.193 9.266-12.97 1.595-3.876 2.392-7.802 2.392-11.777v-.298c0-4.572-1.096-8.547-3.288-11.927-2.192-3.379-5.231-6.013-9.117-7.901-3.886-1.988-8.419-2.982-13.6-2.982-5.779 0-10.811 1.143-15.095 3.429-4.285 2.187-7.622 5.268-10.014 9.243-2.391 3.876-3.786 8.448-4.184 13.716l-.15 1.938H165v-1.491c0-14.809 3.687-27.729 11.06-38.761 7.472-11.032 17.785-19.579 30.937-25.642 13.251-6.162 28.545-9.243 45.882-9.243 17.735 0 33.129 2.733 46.181 8.199 13.152 5.367 23.315 12.971 30.489 22.81 7.274 9.74 10.91 21.269 10.91 34.587v.298c0 9.541-1.694 18.039-5.081 25.493-3.288 7.454-8.569 14.858-15.842 22.213-7.174 7.354-16.64 15.653-28.397 24.896l-65.909 52.328 26.304-43.532v44.277l-26.304-20.424H343V366H168.736Z"/></g><defs><clipPath id="a"><path fill="#fff" d="M0 0h512v512H0z"/></clipPath></defs></svg>