<svg xmlns="http://www.w3.org/2000/svg" width="75" height="39" fill="none"><path fill="#fff" d="M26.18.002.398 16.88l51.17.089L26.18.002Zm13.808 18.185v5.593h5.448v14.18h6.187V23.78h3.254l5.77 14.322h6.33l8.025-19.915h-7.29l-3.843 11.101-3.843-11.101H39.989ZM0 37.96h6.606v-5.65h1.412l3.727 5.65h7.538l-4.602-6.723c2.4-1.158 3.896-3.134 3.896-6.042v-.057c0-2.033-.593-3.473-1.807-4.687-1.383-1.383-3.586-2.258-7.115-2.258H0V37.96Zm6.606-10.366v-3.867h2.88c1.553 0 2.513.62 2.513 1.891v.057c0 1.214-.96 1.92-2.541 1.92H6.606ZM19.809 37.96h6.606v-7.089h6.042v7.09h6.606V18.193h-6.606v6.975h-6.042v-6.975h-6.606V37.96Z"/></svg>