<svg xmlns="http://www.w3.org/2000/svg" viewBox="0 0 1232.87 1244.41"><path fill="#fff" d="M0 504.072c0 277.685 225.986 503.758 504.072 503.758 106.26 0 204.258-33.671 284.883-90.575l302.885 303.195c15.54 16.03 37.12 23.88 59.26 23.88 48.07 0 81.77-36.68 81.77-83.06 0-22.37-7.84-42.48-23.16-58.2L908.641 800.713c62.276-82.354 99.589-185.323 99.589-296.641C1008.23 225.986 782.158 0 504.072 0S0 225.986 0 504.072Zm113.456 0c0-215.401 175.215-390.616 390.616-390.616 215.488 0 390.215 175.215 390.215 390.616 0 215-174.727 390.215-390.215 390.215-215.401 0-390.616-175.215-390.616-390.215Z"/></svg>