<svg xmlns="http://www.w3.org/2000/svg" width="1318" height="519" fill="none"><path fill="#C25BF4" d="M1149.2 431.949c-94.95 0-158.398-38.7-179.548-93.15l67.948-30.15c13.5 34.65 56.25 60.75 112.05 60.75 48.6 0 88.2-14.4 88.2-40.95 0-27.45-36.9-36.45-82.8-36.45h-60.3v-59.85h58.5c45.9 0 75.6-9.9 75.6-34.2 0-22.05-31.05-36-77.85-36-54.45 0-92.7 25.2-104.85 54.9l-65.248-27c20.248-51.3 85.048-90.9 174.148-90.9 95.4 0 153.9 39.15 153.9 93.15 0 32.4-22.05 58.5-56.7 68.4 40.95 11.25 65.7 34.65 65.7 73.8 0 53.1-64.35 97.65-168.75 97.65ZM900 0v380.406c-1.457.101-2.782.218-4.105.267-16.024.591-32.061 1.505-48.087 1.628-9.453.072-18.93-1.031-27.618-5.417-4.793-2.42-8.666-6.059-10.101-11.248-1.213-4.388-1.78-9.082-1.802-13.646-.15-31.231-.088-62.454-.089-93.686v-2.96h3.013c27.133 0 54.271-.019 81.404.029 1.835.003 2.637-.264 2.63-2.428-.08-23.907-.053-47.815 0-71.722.004-1.846-.479-2.492-2.392-2.456-5.879.108-11.769.029-17.901.029h-66.754v-73.469H711.08c0 1.377.027 2.636 0 3.878-.312 14.043-.333 28.103-1.093 42.121-.457 8.438-4.406 15.45-11.933 19.892-5.577 3.29-11.818 5.018-18.136 5.565-11.866 1.029-23.775 1.439-35.681 1.924-2.3.093-2.992.641-2.983 2.99.085 23.655.053 47.327.058 70.983 0 .813.073 1.613.119 2.664h3.219c19.321 0 38.633.051 57.953-.06 2.551-.015 3.254.628 3.249 3.227-.089 39.65-.106 79.285-.059 118.935.012 10.521.482 20.975 3.426 31.229 2.751 9.579 7.01 18.353 13.292 25.989 9.156 11.129 20.983 18.584 34.351 23.681 17.452 6.652 35.656 9.687 54.172 9.886 23.084.249 46.207-.485 69.294-1.036 6.58-.156 13.132-1.159 19.672-1.775v53.486H0v-53.694h102.199v-3.434c0-48.58-.015-97.144.03-145.724.006-7.065.49-14.094 2.421-20.987 2.367-8.442 6.105-16.07 11.844-22.704 8.385-9.692 19.186-15.376 31.487-17.967 12.535-2.639 25.147-2.605 37.631.917 5.934 1.675 11.477 4.148 16.482 7.667 10.32 7.258 16.88 17.261 20.469 29.276 2.523 8.443 3.368 17.144 3.368 25.93v146.997h102.435v-3.198c0-50.432.026-100.856-.03-151.289-.009-8.413-.15-16.822-.62-25.219-.902-16.105-3.525-31.956-9.836-46.888-3.085-7.3-6.634-14.492-10.84-21.193-4.58-7.296-10.455-13.633-17.014-19.36-10.256-8.956-21.911-15.388-34.647-19.832-10.875-3.794-22.13-6.089-33.643-7.104-19.696-1.737-39.25-1.038-58.632 3.019-11.938 2.499-23.373 6.381-34.115 12.284-7.539 4.143-14.442 9.062-20.528 15.156-2.007 2.009-4.117 3.936-6.38 6.098V50.625H0V0h900ZM610.092 171.87c-6.969-.068-13.888-.014-20.804.285-6.916.299-13.83.845-20.784 1.757-10.321 1.17-20.261 3.093-30.04 5.92-17.323 5.009-33.034 12.944-47.142 24.272-8.868 7.123-16.834 15.041-23.836 23.977-1.239 1.581-2.552 3.103-3.84 4.648l-.295-.104-.295-.104v-53.459h-99.452v286.15h102.169v-2.96c0-32.158-.117-64.312.119-96.469.058-7.945.879-15.971 2.126-23.828 1.785-11.253 5.833-21.773 11.755-31.584 4.575-7.578 10.153-14.278 16.836-19.98 6.82-5.819 14.417-10.452 22.715-14.001 11.913-5.094 24.293-8.177 37.188-8.526 16.956-.458 33.927-.366 50.892-.503.89-.006 1.779 0 2.688 0V171.87Z"/></svg>