<svg xmlns="http://www.w3.org/2000/svg" width="2044" height="369" fill="none"><path fill="#fff" d="M0 354.902h52.705V146.748h1.026l144.58 208.154h47.168V58.975h-52.5v207.334h-1.231L47.578 58.975H0v295.927Zm384.02 4.305c56.806 0 88.798-33.633 95.566-67.061l.615-2.255h-47.783l-.41 1.435c-4.922 14.561-21.533 28.096-46.963 28.096-33.223 0-54.141-22.559-54.961-60.703h152.168v-16.407c0-65.624-38.555-109.306-100.693-109.306-62.139 0-102.129 45.117-102.129 113.613v.205c0 69.112 39.375 112.383 104.59 112.383Zm-1.846-186.211c27.07 0 46.758 17.227 50.449 51.68H330.699c4.102-33.428 24.405-51.68 51.475-51.68Zm170.49 181.906h53.32l42.657-158.935h1.025l42.861 158.935h53.731l58.857-217.382h-50.449l-36.709 166.933h-1.23L674.275 137.52h-49.013l-42.451 166.933h-1.026L545.076 137.52h-51.269l58.857 217.382ZM1117.3 231.347c-3.03 14.702-8.39 30.104-16.09 46.207-7.7 16.098-17.74 30.915-30.11 44.45-12.36 13.531-26.94 24.672-43.74 33.422-16.8 8.75-35.818 13.125-57.052 13.125-22.166 0-41.766-3.326-58.8-9.979-17.034-6.648-31.328-15.863-42.88-27.647-11.549-11.783-20.239-25.782-26.071-41.996-5.832-16.218-8.748-34.011-8.748-53.378 0-19.833 2.448-37.858 7.345-54.076 4.9-16.219 11.55-31.211 19.95-44.977 8.404-13.765 18.262-26.715 29.576-38.849 11.318-12.134 23.509-24.15 36.574-36.049-7.233 7.468-13.475 15.287-18.726 23.456-5.246 8.165-9.504 17.323-12.772 27.474-3.265 10.147-5.715 21.405-7.351 33.774-1.632 12.364-2.448 26.363-2.448 41.996 0 42.233 10.617 74.317 31.851 96.252 21.234 21.931 53.666 32.896 97.292 32.896 13.54 0 26.02-2.333 37.46-6.998 11.43-4.666 21.52-10.906 30.27-18.72 8.75-7.819 16.04-16.919 21.87-27.301a119.294 119.294 0 0 0 12.6-33.082Zm-66.14-153.296c-7.23 0-15.87-.7-25.9-2.102-10.04-1.401-20.77-3.15-32.201-5.249a1484.677 1484.677 0 0 1-35.53-6.998 1205.761 1205.761 0 0 0-36.049-6.998c-11.783-2.102-23.041-3.852-33.774-5.249-10.732-1.401-20.298-2.102-28.698-2.102-4.2 0-8.051.408-11.555 1.224-3.499.816-6.998 2.158-10.497 4.025-3.499 1.867-7.233 4.317-11.203 7.35-3.964 3.034-8.512 6.883-13.644 11.549 14.467-15.167 26.891-27.534 37.273-37.1 10.382-9.566 19.308-17.032 26.776-22.398s13.943-9.04 19.425-11.023C901.064.993 906.255 0 911.156 0c7.233 0 15.983.7 26.25 2.102 10.266 1.397 21.234 3.146 32.902 5.249a2056.074 2056.074 0 0 1 36.052 6.825c12.37 2.448 24.32 4.723 35.87 6.825 11.55 2.098 22.28 3.847 32.2 5.249 9.92 1.401 18.38 2.102 25.38 2.102 5.83 0 10.79-.408 14.87-1.224 4.09-.82 7.65-1.93 10.68-3.326 3.03-1.402 5.66-3.094 7.87-5.076 2.22-1.982 4.61-4.258 7.18-6.825-12.14 13.766-22.23 24.966-30.28 33.6-8.05 8.635-15.22 15.345-21.52 20.13-6.3 4.781-12.25 8.047-17.85 9.8-5.6 1.746-12.14 2.62-19.6 2.62Zm-50.4 160.647-61.252 55.3-.699-160.3c3.499-5.131 11.316-13.414 23.45-24.847l36.747-33.953 1.754 163.8Z"/><path fill="#fff" d="M1143.56 2.45c-2.57 1.867-3.73 4.317-3.5 7.35.23 3.034.76 6.886 1.57 11.556.82 4.665 1.34 10.264 1.57 16.797.24 6.532.01 13.998-.7 22.398-.69 8.4-2.56 17.85-5.59 28.352-6.54.466-12.96.816-19.26 1.051-6.3.23-11.78.23-16.44 0 2.8.466 5.19 1.224 7.17 2.275 1.99 1.047 3.56 2.739 4.73 5.076 1.16 2.333 2.04 5.484 2.62 9.453.58 3.965 1.11 9.096 1.58 15.393v35.53c0 15.283-.06 32.55-.18 51.802-.11 19.247-.29 39.721-.52 61.421-.24 21.699-.59 43.166-1.05 64.401-.23 8.164-.88 13.298-1.93 15.4-1.05 2.097-2.16 3.497-3.32 4.197h82.25c-1.87-.465-3.44-1.049-4.73-1.749-1.28-.701-2.33-1.867-3.15-3.499-.82-1.632-1.46-3.848-1.92-6.646-.47-2.803-.7-6.537-.7-11.203-.47-24.036-.82-48.187-1.05-72.45-.24-24.267-.47-47.309-.71-69.124-.23-21.819-.34-41.887-.34-60.203V84.353c-4.9.931-11.2 1.807-18.9 2.628-7.7.816-15.64 1.457-23.8 1.922 7.46-14.466 15.05-27.942 22.75-40.426 7.7-12.484 15.28-24.267 22.75-35.35l1.07-1.551a2.364 2.364 0 0 0-1.07-3.525c-4.67-1.867-9.16-3.499-13.48-4.896-4.32-1.401-9.04-2.335-14.17-2.8-5.13-.47-8.99.228-11.55 2.095Zm217.35 352.452c-1.17-1.867-2.04-4.375-2.63-7.523-.58-3.149-1.05-7.174-1.4-12.074-.35-4.901-.58-10.968-.7-18.201-.11-7.233-.17-15.983-.17-26.25 0-2.333.06-6.182.17-11.549.12-5.37.3-11.379.53-18.027.23-6.652.52-13.828.87-21.527.35-7.699.64-15.105.88-22.219.23-7.118.41-13.653.52-19.604.12-5.952.18-10.795.18-14.529 0-3.499-.17-7.173-.52-11.023-.36-3.849-.88-7.641-1.58-11.375-.7-3.734-1.64-7.118-2.8-10.151-1.17-3.034-2.57-5.599-4.2-7.697-6.3-7.468-12.72-12.835-19.25-16.099-6.53-3.268-13.07-4.903-19.61-4.903-3.02 0-6.76 1.752-11.19 5.256-4.44 3.499-9.22 7.464-14.35 11.894 0 13.3.06 27.592.17 42.874.12 15.283.23 31.151.35 47.604.12 16.449.29 33.308.52 50.577.24 17.265.59 34.415 1.06 51.449 0 4.666.23 8.4.69 11.203.47 2.798 1.12 5.014 1.93 6.646.82 1.632 1.87 2.798 3.15 3.499 1.29.7 2.86 1.284 4.73 1.749h-82.25c1.17-.7 2.27-2.1 3.32-4.197 1.05-2.102 1.69-7.236 1.93-15.4.46-21.235.81-42.118 1.04-62.652.24-20.533.41-39.432.53-56.697.12-17.27.18-32.087.18-44.451v-25.552c0-11.202-.35-20.302-1.05-27.301-.7-6.998-1.93-12.597-3.68-16.797-1.75-4.2-4.14-7.116-7.17-8.748-3.04-1.636-6.89-2.687-11.55-3.153 7.23 0 15.11-.175 23.62-.525 8.52-.35 16.8-.816 24.85-1.397 8.05-.586 15.4-1.229 22.05-1.93 6.65-.7 11.85-1.283 15.58-1.749v54.25c6.53-6.768 14.23-14.001 23.1-21.7 8.87-7.699 17.38-14.467 25.55-20.303 6.06-4.2 11.26-7.29 15.57-9.273 4.32-1.983 8.7-2.974 13.13-2.974 6.53 0 13 1.342 19.42 4.025 6.42 2.683 12.25 6.417 17.5 11.202 5.25 4.781 9.74 10.438 13.47 16.97a60.65 60.65 0 0 1 7.35 21.002c6.54-6.533 14.07-13.591 22.58-21.175 8.52-7.583 16.86-14.176 25.03-19.777 6.07-4.2 11.26-7.29 15.57-9.273 4.32-1.983 8.7-2.974 13.13-2.974 7.46 0 14.7 1.692 21.7 5.076 7 3.383 13.24 7.934 18.72 13.65 5.48 5.717 9.92 12.484 13.3 20.303 3.38 7.814 5.08 16.039 5.08 24.673 0 8.4-.18 19.133-.53 32.198-.35 13.065-.7 26.658-1.05 40.778a20681.9 20681.9 0 0 1-1.04 40.772c-.36 13.065-.53 23.798-.53 32.198 0 13.069.93 23.513 2.8 31.332 1.87 7.814 4.26 13.821 7.17 18.021 2.92 4.2 6.07 7.058 9.45 8.575 3.39 1.516 6.6 2.508 9.63 2.973h-81.9c-2.34-1.867-4.15-4.375-5.43-7.523-1.28-3.149-2.27-7.174-2.97-12.074-.7-4.901-1.11-10.968-1.23-18.201-.11-7.233-.17-15.983-.17-26.25 0-2.333.06-6.182.17-11.549.12-5.37.3-11.379.53-18.027.23-6.652.52-13.828.87-21.527.36-7.699.65-15.105.88-22.219.23-7.118.41-13.653.52-19.604.12-5.952.17-10.795.17-14.529 0-3.499-.17-7.173-.52-11.023-.35-3.849-.87-7.641-1.57-11.375-.7-3.734-1.64-7.118-2.8-10.151-1.17-3.034-2.57-5.599-4.21-7.697-6.29-7.468-12.71-12.835-19.24-16.099-6.53-3.268-13.07-4.903-19.6-4.903-2.8 0-6.36 1.635-10.68 4.903-4.32 3.264-8.92 6.996-13.83 11.196a46.067 46.067 0 0 1 1.06 9.805c0 8.4-.18 19.133-.53 32.198-.35 13.065-.7 26.658-1.05 40.778-.35 14.116-.7 27.707-1.05 40.772-.35 13.065-.52 23.798-.52 32.198 0 13.069.64 23.513 1.92 31.332 1.29 7.814 2.75 13.821 4.38 18.021 1.63 4.2 3.21 7.058 4.72 8.575 1.52 1.516 2.63 2.508 3.33 2.973h-72.1Zm225.39-115.498c0-10.036.41-18.496 1.23-25.379.82-6.883 2.1-12.89 3.85-18.021 1.75-5.136 4.08-9.861 7-14.176 2.92-4.32 6.36-9.045 10.33-14.176 2.8-3.499 5.48-6.766 8.05-9.799a287.26 287.26 0 0 1 8.22-9.273c2.92-3.153 6.25-6.655 9.98-10.504 3.73-3.85 8.17-8.342 13.3-13.478a497.596 497.596 0 0 1 15.92-15.22c5.48-5.016 10.85-9.449 16.1-13.298 5.25-3.854 10.21-7.005 14.88-9.453 4.66-2.453 8.63-3.679 11.9-3.679 5.83 0 12.24 1.109 19.24 3.326 7.01 2.218 14.01 5.136 21 8.755 7.01 3.614 13.77 7.814 20.31 12.599 6.53 4.781 12.48 9.739 17.84 14.875l-137.54 121.098c.46 8.866 1.34 16.449 2.62 22.751 1.28 6.298 3.27 11.781 5.95 16.451 2.68 4.666 6.18 8.923 10.5 12.773 4.32 3.849 9.74 7.759 16.28 11.728 10.5 6.532 20.47 10.674 29.92 12.426 9.45 1.748 18.14 2.621 26.07 2.621 3.51 0 6.66-.175 9.46-.525 2.8-.351 5.42-1.109 7.87-2.275 2.45-1.167 5.02-2.859 7.7-5.076 2.68-2.217 5.78-5.076 9.28-8.575-3.27 3.969-7.24 8.171-11.91 12.606a260.771 260.771 0 0 1-14.7 12.946 417.84 417.84 0 0 1-15.22 11.901c-5.02 3.734-9.51 6.882-13.47 9.446-6.07 3.969-11.78 7.06-17.15 9.273-5.37 2.218-11.67 3.326-18.9 3.326-9.8 0-19.19-1.224-28.18-3.672-8.98-2.448-17.79-6.473-26.42-12.074-9.1-6.067-16.39-12.424-21.88-19.072-5.48-6.652-9.68-14.236-12.6-22.751-2.91-8.519-4.78-18.32-5.6-29.403-.82-11.083-1.23-24.09-1.23-39.022Zm60.91-55.654v33.428c0 9.682.23 18.256.7 25.725l81.9-75.95c-10.5-10.266-22-19.074-34.48-26.423-12.48-7.353-24.9-11.029-37.27-11.029-1.87 0-3.33-.058-4.38-.173-1.05-.12-2.27.055-3.67.525-1.17 6.298-1.93 13.882-2.28 22.751-.35 8.866-.52 19.248-.52 31.146Z"/><path fill="#fff" d="M1946.11 316.404c.7-3.734 1.4-7.934 2.1-12.6.7-4.669 1.05-9.57 1.05-14.701 0-10.737-1.46-20.771-4.38-30.102-2.92-9.335-7.53-17.502-13.83-24.5-6.3-6.999-14.4-12.48-24.32-16.445-9.92-3.969-21.87-5.954-35.88-5.954-2.09 0-4.43.233-6.99.699-2.57.466-4.55.931-5.95 1.397l42.35-44.098c4.66-1.167 12.83-1.75 24.5-1.75 11.66 0 22.22 1.985 31.67 5.954 9.45 3.965 17.5 9.331 24.15 16.099 6.65 6.767 11.78 14.701 15.4 23.801 3.62 9.096 5.43 18.663 5.43 28.699 0 9.796-1.17 17.903-3.5 24.321-2.34 6.417-6.3 12.193-11.9 17.329-5.61 4.9-11.91 10.266-18.9 16.098-7 5.832-14 11.782-21 17.848a805.423 805.423 0 0 0-19.6 16.625c-6.54 5.716-12.6 11.025-18.2 15.925-3.04 2.568-5.6 4.61-7.71 6.127-2.09 1.517-4.14 2.683-6.12 3.499-1.99.816-4.14 1.339-6.48 1.57-2.33.235-5.24.353-8.74.353-10.97 0-22.11-1.167-33.43-3.499a221.132 221.132 0 0 1-33.25-9.62c-10.85-4.084-21.06-8.752-30.63-14.003-9.56-5.251-17.96-10.792-25.2-16.624l47.26-49.001c5.83 6.302 13.58 12.253 23.27 17.855 9.68 5.597 20.47 10.555 32.37 14.874 11.9 4.315 24.68 7.757 38.33 10.325a222.411 222.411 0 0 0 41.13 3.845h2.97c1.05 0 2.39-.115 4.03-.346Zm5.95-171.503c-8.87 0-18.67-1.109-29.4-3.326a682.161 682.161 0 0 1-32.38-7.524 987.66 987.66 0 0 0-31.15-7.524c-9.91-2.217-18.49-3.326-25.72-3.326-4.67 0-8.41.233-11.2.699-2.8.465-5.14 1.166-7 2.102-2.1 4.9-3.16 11.2-3.16 18.899 0 4.435 1.05 9.628 3.15 15.579 2.1 5.948 5.08 12.188 8.93 18.72 3.85 6.533 8.34 13.125 13.48 19.777a148.522 148.522 0 0 0 16.79 18.374l-47.24 49.001c-6.77-5.836-12.43-11.437-16.98-16.804-4.55-5.366-8.22-10.732-11.03-16.098-2.8-5.367-4.78-10.908-5.94-16.624-1.17-5.717-1.75-11.726-1.75-18.028 0-11.198 2.5-22.046 7.52-32.543 5.02-10.502 12.77-20.653 23.28-30.455 9.33-8.634 17.73-16.275 25.19-22.923a1419.52 1419.52 0 0 1 21.01-18.374c3.5-3.269 6.59-5.719 9.27-7.35 2.68-1.633 5.07-2.917 7.18-3.853 2.56-1.166 5.07-2.1 7.52-2.8 2.45-.7 5.43-1.051 8.93-1.051 7.93 0 17.27.876 28 2.627 10.73 1.752 21.75 3.737 33.07 5.954 11.31 2.213 22.22 4.196 32.73 5.947 10.5 1.748 19.48 2.621 26.94 2.621 3.04 0 5.95-.348 8.75-1.044 2.8-.7 5.78-1.927 8.93-3.679 3.15-1.751 6.65-4.142 10.5-7.171 3.85-3.033 8.34-6.885 13.47-11.555-15.16 15.402-27.76 27.771-37.79 37.106-10.04 9.331-18.38 16.565-25.03 21.7-6.65 5.131-12.13 8.573-16.45 10.325-4.32 1.747-8.46 2.621-12.42 2.621Z"/></svg>