<svg xmlns="http://www.w3.org/2000/svg" width="542" height="94" fill="none"><path fill="#fff" d="M232.045 20.86h11.061v3.69h-11.07v34.02c0 2.4.51 4.17 1.53 5.31 1.08 1.08 2.521 1.62 4.321 1.62 1.139 0 2.159-.24 3.059-.72.9-.48 1.951-1.2 3.151-2.16l1.04 1.04c-.439-1.318-.658-2.774-.658-4.37 0-2.76.569-5.13 1.709-7.11 1.2-2.04 3.211-3.84 6.031-5.4 2.82-1.56 6.659-3 11.519-4.32 2.28-.66 4.951-1.38 8.011-2.16l.72-.18v-5.49c0-3.12-.27-5.55-.81-7.29-.54-1.8-1.47-3.06-2.79-3.78-1.32-.72-3.12-1.08-5.4-1.08-1.23 0-2.503.11-3.82.329l-.59 6.421c-.12 3.12-.841 5.34-2.161 6.66-1.32 1.26-2.849 1.89-4.589 1.89-3.36 0-5.46-1.56-6.3-4.68.42-4.2 2.55-7.53 6.389-9.99 3.84-2.52 9.241-3.78 16.201-3.78 6.42 0 11.04 1.47 13.86 4.41 2.82 2.88 4.229 7.59 4.229 14.13v24.21c0 1.68.211 2.88.63 3.6.48.66 1.141.99 1.981.99.66 0 1.29-.24 1.889-.72.6-.48 1.321-1.38 2.161-2.7l1.555 1.123a9.947 9.947 0 0 1-.318-2.563c0-2.16.66-4.32 1.98-6.48 1.127-1.895 3.041-3.788 5.741-5.682-2.607-1.387-4.612-3.181-6.011-5.388-1.5-2.46-2.25-5.22-2.25-8.28 0-4.8 1.71-8.76 5.13-11.88 3.48-3.18 8.761-4.77 15.841-4.77 3.899 0 7.229.51 9.989 1.53 2.178.758 4 1.76 5.468 3.002l11.452-4.532 1.62.99v7.02l-10.787-1.092c2.031 2.664 3.048 5.908 3.048 9.732 0 3.06-.781 5.82-2.341 8.28-1.5 2.46-3.78 4.41-6.84 5.85-3.06 1.44-6.96 2.16-11.7 2.16-4.21 0-7.788-.586-10.736-1.751-.388.655-.709 1.27-.963 1.841-.48 1.02-.721 2.19-.721 3.51 0 1.44.51 2.55 1.53 3.33 1.08.72 2.82 1.08 5.22 1.08h13.14c4.98 0 8.94.6 11.88 1.8 2.94 1.2 5.07 2.85 6.39 4.95 1.32 2.04 1.98 4.38 1.98 7.02 0 3.24-1.169 6.33-3.509 9.27-2.28 2.94-5.641 5.34-10.08 7.2-4.38 1.86-9.691 2.79-15.931 2.79-5.52 0-9.84-.54-12.96-1.62-3.06-1.08-5.19-2.52-6.39-4.32-1.2-1.8-1.799-3.75-1.799-5.85 0-2.46 1.019-4.74 3.059-6.84 1.524-1.569 3.651-2.92 6.38-4.053-3.525-1.26-5.686-3.305-6.481-6.139-1.136 2.425-2.624 4.203-4.466 5.332-1.8 1.08-4.171 1.62-7.111 1.62-3.299 0-5.819-.87-7.559-2.61-1.363-1.363-2.338-3.095-2.928-5.195-1.399 1.505-2.732 2.818-4.002 3.935a15.334 15.334 0 0 1-4.86 2.88c-1.74.72-3.87 1.08-6.39 1.08-3.84 0-6.99-1.08-9.45-3.24a10.667 10.667 0 0 1-2.786-3.962c-1.307 2.27-3.085 4.041-5.337 5.312-2.28 1.26-5.16 1.89-8.64 1.89-4.56 0-8.04-1.11-10.44-3.33-2.4-2.22-3.6-5.79-3.6-10.71v-4.86c.06-1.5.09-3.18.09-5.04V24.55h-5.062c.183.576.329 1.206.435 1.89-.06 2.04-.63 3.78-1.71 5.22-1.02 1.38-2.67 2.07-4.95 2.07-1.68 0-3.12-.48-4.32-1.44-1.2-.96-2.4-2.28-3.6-3.96l-.638-.804a19.438 19.438 0 0 0-4.132 4.674c-1.44 2.22-2.64 5.19-3.6 8.91v14.76c.06 2.76.09 5.43.09 8.01.021.887.043 1.714.064 2.482l8.396.848V70h-29.34v-2.79l5.999-.617c.018-.833.031-1.737.031-2.713.06-2.58.09-5.25.09-8.01.06-2.76.09-5.19.09-7.29v-7.47c0-3-.03-5.4-.09-7.2-.06-1.8-.15-3.78-.27-5.94l-6.57-.72v-2.16l19.62-5.67 1.17.81.709 12.778c.777-2.503 1.77-4.662 2.981-6.478 1.62-2.4 3.42-4.2 5.4-5.4 1.98-1.2 3.93-1.8 5.85-1.8 2.16 0 4.05.51 5.67 1.53.338.214.65.465.936.752l7.501-.794 4.65-14.538h9.27l-.081 14.58Zm71.284 50.722a35.583 35.583 0 0 0-1.903 2.738c-.72 1.32-1.079 2.94-1.079 4.86 0 3.3 1.109 5.82 3.329 7.56 2.28 1.74 5.4 2.61 9.36 2.61 6.06 0 10.59-.96 13.59-2.88s4.5-4.56 4.5-7.92c0-1.44-.6-2.85-1.8-4.23-1.14-1.38-3.21-2.07-6.21-2.07h-9.99c-2.76 0-4.92-.06-6.48-.18a15.815 15.815 0 0 1-3.317-.488ZM36.237.97c4.26 0 7.89.45 10.89 1.35 3 .9 5.94 2.16 8.82 3.78l-.36 16.38h-5.31l-4.99-17.143c-1.992-.632-4.17-.947-6.53-.947-4.2 0-8.01 1.14-11.43 3.42-3.36 2.22-6.03 5.7-8.01 10.44-1.98 4.74-2.97 10.8-2.97 18.18 0 7.38.99 13.44 2.97 18.18 2.04 4.68 4.77 8.13 8.19 10.35 3.42 2.22 7.29 3.33 11.61 3.33 2.46 0 4.74-.36 6.84-1.08l.066-.025 4.884-16.895h5.31l.36 16.2c-2.76 1.62-5.79 2.91-9.09 3.87s-7.08 1.44-11.34 1.44c-5.04 0-9.72-.69-14.04-2.07-4.32-1.38-8.13-3.51-11.43-6.39-3.24-2.88-5.79-6.48-7.65-10.8-1.8-4.38-2.7-9.54-2.7-15.48 0-6.06.93-11.34 2.79-15.84 1.86-4.56 4.44-8.34 7.74-11.34s7.11-5.22 11.43-6.66c4.38-1.5 9.03-2.25 13.95-2.25Zm48.06 18.36c4.74 0 9.031 1.05 12.871 3.15 3.9 2.04 6.99 4.98 9.27 8.82 2.28 3.84 3.419 8.46 3.419 13.86 0 5.34-1.079 9.99-3.239 13.95-2.1 3.96-5.07 7.02-8.91 9.18-3.78 2.16-8.25 3.24-13.41 3.24s-9.66-1.08-13.5-3.24c-3.78-2.22-6.72-5.31-8.82-9.27-2.1-3.96-3.15-8.58-3.15-13.86 0-5.34 1.14-9.93 3.42-13.77 2.28-3.84 5.34-6.81 9.18-8.91 3.9-2.1 8.19-3.15 12.87-3.15Zm78.546 1.44-.361 13.86v32.22l5.76.54v2.7l-19.889 1.17-.436-8.778c-1.912 2.347-4.076 4.343-6.494 5.988-2.94 2.04-6.331 3.06-10.171 3.06-4.5 0-8.07-1.38-10.71-4.14-2.58-2.76-3.839-7.56-3.779-14.4l.253-26.788L110.822 25v-2.43l19.981-2.7 1.17.9-.54 13.86v19.71c0 3.6.629 6.09 1.889 7.47 1.32 1.32 3.091 1.98 5.311 1.98 2.46 0 4.74-.78 6.84-2.34a22.009 22.009 0 0 0 2.346-2.018l.354-33.262-6.03-1.17v-1.98l19.71-3.15.99.9Zm204.795-1.44c4.68 0 8.58.93 11.7 2.79 3.18 1.8 5.549 4.26 7.109 7.38 1.62 3.06 2.43 6.51 2.43 10.35 0 2.04-.21 3.87-.63 5.49h-30.578c.117 4.332.768 7.932 1.958 10.8 1.38 3.12 3.24 5.4 5.58 6.84 2.4 1.44 5.101 2.16 8.101 2.16 3.18 0 5.82-.63 7.92-1.89 2.099-1.26 3.899-2.94 5.399-5.04l1.711 1.17c-1.86 3.9-4.531 6.9-8.011 9-3.42 2.1-7.469 3.15-12.149 3.15-5.04 0-9.51-1.02-13.41-3.06-3.9-2.04-6.96-5.01-9.18-8.91-2.22-3.96-3.33-8.73-3.33-14.31s1.199-10.29 3.599-14.13c2.4-3.9 5.521-6.84 9.361-8.82 3.9-1.98 8.04-2.97 12.42-2.97Zm48.324 0c4.74 0 9.03 1.05 12.87 3.15 3.9 2.04 6.99 4.98 9.27 8.82 2.28 3.84 3.419 8.46 3.419 13.86 0 5.34-1.079 9.99-3.239 13.95-2.1 3.96-5.07 7.02-8.91 9.18-3.78 2.16-8.25 3.24-13.41 3.24s-9.66-1.08-13.5-3.24c-3.78-2.22-6.72-5.31-8.82-9.27-2.1-3.96-3.15-8.58-3.15-13.86 0-5.34 1.14-9.93 3.42-13.77 2.28-3.84 5.34-6.81 9.18-8.91 3.9-2.1 8.19-3.15 12.87-3.15Zm78.545 1.44-.361 13.86v32.22l5.76.54v2.7l-19.889 1.17-.436-8.778a30.41 30.41 0 0 1-6.494 5.988c-2.94 2.04-6.331 3.06-10.171 3.06-4.5 0-8.07-1.38-10.71-4.14-2.58-2.76-3.839-7.56-3.779-14.4l.253-26.788L442.486 25v-2.43l19.981-2.7 1.17.9-.54 13.86v19.71c0 3.6.63 6.09 1.889 7.47 1.32 1.32 3.091 1.98 5.311 1.98 2.46 0 4.74-.78 6.84-2.34a22.009 22.009 0 0 0 2.346-2.018l.354-33.262-6.03-1.17v-1.98l19.71-3.15.99.9Zm28.462-1.44c3 0 5.729.36 8.189 1.08 2.52.66 5.1 1.65 7.74 2.97l-.629 11.34h-5.13l-3.426-10.649a16.987 16.987 0 0 0-1.165-.511c-1.38-.54-3.12-.81-5.22-.81-2.76 0-4.98.66-6.66 1.98-1.68 1.26-2.52 3.03-2.52 5.31 0 1.62.6 3.12 1.8 4.5 1.2 1.32 3.541 2.49 7.021 3.51l5.309 1.62c4.74 1.44 8.19 3.42 10.35 5.94 2.16 2.46 3.24 5.55 3.24 9.27 0 3.48-.9 6.48-2.7 9-1.74 2.46-4.26 4.35-7.56 5.67-3.24 1.32-7.14 1.98-11.7 1.98-3.48 0-6.66-.39-9.54-1.17-2.88-.72-5.64-1.83-8.28-3.33l.721-12.24h5.759l2.738 11.837c.413.18.82.346 1.222.493 1.8.6 3.87.9 6.21.9 3.42 0 6.03-.6 7.83-1.8 1.86-1.26 2.79-3.12 2.79-5.58 0-1.92-.6-3.57-1.799-4.95-1.14-1.38-3.511-2.58-7.111-3.6l-5.219-1.71c-4.02-1.2-7.171-3-9.451-5.4-2.28-2.4-3.42-5.52-3.42-9.36 0-4.74 1.77-8.64 5.31-11.7 3.6-3.06 8.701-4.59 15.301-4.59ZM84.298 22.48c-3.18 0-5.64 1.86-7.38 5.58-1.74 3.66-2.61 9.42-2.61 17.28 0 7.8.87 13.59 2.61 17.37 1.74 3.78 4.2 5.67 7.38 5.67 3.24 0 5.7-1.89 7.38-5.67 1.74-3.78 2.61-9.57 2.61-17.37 0-7.86-.87-13.62-2.61-17.28-1.68-3.72-4.14-5.58-7.38-5.58Zm331.664 0c-3.18 0-5.64 1.86-7.38 5.58-1.74 3.66-2.61 9.42-2.61 17.28 0 7.8.87 13.59 2.61 17.37 1.74 3.78 4.2 5.67 7.38 5.67 3.24 0 5.7-1.89 7.38-5.67 1.74-3.78 2.61-9.57 2.61-17.37 0-7.86-.87-13.62-2.61-17.28-1.68-3.72-4.14-5.58-7.38-5.58ZM272.469 42.563c-2.171.617-3.912 1.152-5.22 1.607-2.94 1.26-5.251 2.97-6.931 5.13-1.62 2.1-2.429 4.8-2.429 8.1 0 2.7.6 4.71 1.799 6.03 1.26 1.32 2.911 1.98 4.951 1.98.78 0 1.65-.18 2.61-.54 1.02-.42 2.19-1.17 3.51-2.25a30.376 30.376 0 0 0 1.71-1.54V42.562Zm42.548-20.353c-2.52 0-4.471 1.2-5.851 3.6-1.38 2.4-2.069 5.79-2.069 10.17 0 4.14.659 7.41 1.979 9.81 1.32 2.4 3.27 3.6 5.85 3.6 2.58 0 4.53-1.2 5.85-3.6 1.38-2.4 2.071-5.67 2.071-9.81 0-4.44-.691-7.83-2.071-10.17-1.38-2.4-3.3-3.6-5.759-3.6Zm51.991.27c-1.68 0-3.241.72-4.681 2.16-1.44 1.44-2.58 3.72-3.42 6.84-.74 2.749-1.153 6.289-1.241 10.62h12.132c2.1 0 3.509-.57 4.229-1.71.78-1.2 1.17-3.18 1.17-5.94 0-4.02-.75-7.02-2.25-9-1.5-1.98-3.479-2.97-5.939-2.97Z"/></svg>