<svg xmlns="http://www.w3.org/2000/svg" width="205" height="61" fill="none"><path fill="#fff" d="M11.226 0 28.73.01h.004c4.284 0 10.377 1.357 14.327 4.276 7.73 5.714 7.73 14.976 0 20.69-2.215 1.637-4.277 2.883-4.59 3.582-.32.719 2.554 1.953 4.89 3.567 9.49 6.56 9.49 17.197 0 23.756-4.708 3.253-10.865 4.89-17.034 4.916v.003H0V0h11.226Zm54.163.01c5.947 0 10.377 1.357 14.326 4.276 7.73 5.714 7.73 14.976 0 20.69-2.215 1.636-4.539 2.852-4.627 3.464-.122.856 2.592 2.071 4.927 3.685 9.49 6.56 9.49 17.197 0 23.756-4.707 3.253-10.865 4.89-17.034 4.916v.003H47.837c.174-.079.353-.155.524-.235 5.12-2.409 8.166-5.423 9.144-8.551h8.345v-.006c2.381-.032 4.754-.928 6.57-2.698a9.061 9.061 0 0 0 0-13.053c-1.816-1.77-4.189-2.665-6.57-2.697v-.006h-6.16c-1.14-3.035-2.536-5.803-11.594-8.472h15.692v-.012c2.514-.052 5.01-.842 6.928-2.39 3.97-3.201 3.97-8.392 0-11.594-1.919-1.547-4.414-2.349-6.928-2.4h-7.172c-.168-2.634-1.866-5.238-5.097-7.248C50.63.884 49.613.419 48.6.01h16.788Zm31.933.003c10.27 0 16.646 2.825 22.98 8.89 12.4 11.871 12.4 31.12 0 42.992-6.334 6.064-14.679 9.022-22.98 8.891v.014H84.68c2.39-1.45 4.643-4.11 6.53-7.984.196-.401.384-.813.567-1.23h6.804c4.795-.194 9.538-2.303 13.198-6.294 7.694-8.39 7.694-21.99 0-30.379-3.66-3.991-8.403-6.1-13.198-6.293h-7.076c-.098-.213-.194-.43-.295-.638-1.886-3.873-4.138-6.52-6.528-7.97h12.64Zm-86.096 33.54v18.46h17.97v-.005c2.382-.032 4.754-.928 6.572-2.698a9.061 9.061 0 0 0 0-13.053 9.577 9.577 0 0 0-6.572-2.703h-17.97Zm0-24.867v16.396h15.909c2.514-.052 5.009-.854 6.927-2.401 3.97-3.202 3.97-8.393 0-11.595-1.918-1.547-4.413-2.349-6.927-2.4h-15.91ZM170.604 0c6.835 0 12.66.766 17.472 2.297 4.813 1.531 8.49 3.746 11.033 6.644 2.571 2.871 3.856 6.358 3.856 10.46v.081c0 2.653-.588 5.045-1.764 7.178-1.148 2.133-3.035 4.17-5.66 6.112-2.625 1.913-6.139 3.896-10.541 5.947l-14.146 6.818a.296.296 0 0 0 .128.564h25.995a7.219 7.219 0 0 1 0 14.438h-52.992a7.916 7.916 0 0 1-3.45-15.041l27.895-13.506c3.472-1.668 6.138-3.076 7.998-4.224 1.886-1.176 3.185-2.27 3.896-3.282a5.718 5.718 0 0 0 1.067-3.363v-.082c0-1.367-.465-2.53-1.395-3.486-.93-.985-2.269-1.723-4.019-2.215-1.723-.52-3.829-.78-6.317-.78-2.762 0-5.154.342-7.178 1.026-2.023.656-3.636 1.64-4.839 2.953-1.176 1.285-1.887 2.844-2.133 4.676a.537.537 0 0 1-.535.492h-19.602a.373.373 0 0 1-.371-.41c.492-4.95 2.201-9.16 5.127-12.633 2.953-3.473 7-6.111 12.141-7.916C157.41.916 163.522 0 170.604 0Z"/></svg>