<svg xmlns="http://www.w3.org/2000/svg" width="300" height="107" fill="none"><path fill="#fff" d="M37.124 67.094a3 3 0 0 0-.35.968l-6.208 35.263a3 3 0 0 1-2.955 2.479H10.504a3 3 0 0 1-2.954-3.52l6.014-34.162a3 3 0 0 0-.02-1.145L.068 3.624A3 3 0 0 1 3.002 0h17.896a3 3 0 0 1 2.976 2.625l5.175 41.051a.297.297 0 0 0 .562.09L49.669 1.71A3 3 0 0 1 52.377 0H75.48L37.124 67.094Z"/><path fill="#fff" d="M119.185 17.68a3 3 0 0 1-2.958 2.495H93.585a3 3 0 0 0-2.954 2.476l-3.453 19.491h22.323a3 3 0 0 1 2.955 3.517l-2.243 12.83a3 3 0 0 1-2.955 2.483H84.035L80.452 81.67a3 3 0 0 0 2.956 3.512h23.102a3 3 0 0 1 2.956 3.514l-2.547 14.623a3 3 0 0 1-2.956 2.485H57.818a3 3 0 0 1-2.956-3.514L72.66 0h45.986a3 3 0 0 1 2.957 3.505l-2.418 14.174Z"/><path fill="#fff" d="M158.725 105.804a2.999 2.999 0 0 1-2.999-2.932l-.317-14.011a3 3 0 0 0-2.999-2.932h-19.73a3 3 0 0 0-2.786 1.888l-6.426 16.099a2.999 2.999 0 0 1-2.786 1.888h-17.341c-2.16 0-3.612-2.213-2.752-4.195l43.343-99.804A3 3 0 0 1 146.684 0h24.072a3 3 0 0 1 2.996 2.843l5.389 102.961h-20.416Zm-3.974-82.587a.359.359 0 0 0-.694-.122l-17.423 45.2h19.008l-.891-45.078Z"/><path fill="#fff" d="M249.023 103.319a3 3 0 0 1-2.956 2.485h-16.809a3 3 0 0 1-2.955-3.514l6.558-37.654a3 3 0 0 0-2.955-3.514H207.88l-7.35 42.197a3 3 0 0 1-2.956 2.485h-20.377L195.174 2.486A3 3 0 0 1 198.13 0h16.663a3 3 0 0 1 2.956 3.512l-5.819 33.624a3 3 0 0 0 2.956 3.512h22.03l6.604-38.16A3 3 0 0 1 246.476 0h16.957a3 3 0 0 1 2.955 3.514l-17.365 99.805Zm39.436-35.713a3 3 0 0 1-2.955 2.482h-16.218a3 3 0 0 1-2.956-3.511l11.086-64.088A3 3 0 0 1 280.372 0h16.354a3 3 0 0 1 2.955 3.517l-11.222 64.089Zm-3.129 24.749c0 4.184-1.297 7.671-3.892 10.461-2.594 2.789-5.837 4.184-9.728 4.184-3.692 0-6.486-1.146-8.382-3.437-1.896-2.292-2.844-4.882-2.844-7.771 0-1.893.3-3.736.898-5.53.699-1.793 1.647-3.337 2.844-4.632a13.332 13.332 0 0 1 4.191-3.288c1.696-.897 3.542-1.345 5.538-1.345 3.791 0 6.635 1.096 8.531 3.288 1.896 2.192 2.844 4.882 2.844 8.07Z"/></svg>