<svg xmlns="http://www.w3.org/2000/svg" width="396" height="440" fill="none"><mask id="c" width="397" height="440" x="-.938" y="-.398" fill="#000" maskUnits="userSpaceOnUse"><path fill="#fff" d="M-.938-.398h397v440h-397z"/><path d="M40.104 7.002h316.8v108.6h-255.6l62.4-102.6-16.8 202.8-10.2-50.4c8.8-4.4 18-8 27.6-10.8 10-2.8 20.4-4.8 31.2-6 11.2-1.6 22.8-2.4 34.8-2.4 24.8 0 46.8 3.2 66 9.6 19.6 6.4 36.2 15.6 49.8 27.6 13.6 12 24 26.6 31.2 43.8 7.2 17.2 10.8 36.8 10.8 58.8 0 31.2-7.2 57.8-21.6 79.8-14.4 21.6-35.6 38.2-63.6 49.8-28 11.2-62.4 16.8-103.2 16.8-38.4 0-71.6-5.2-99.6-15.6-27.6-10.8-49.2-26.4-64.8-46.8-15.6-20.4-24.8-45.2-27.6-74.4h139.8c2.4 10 7.8 17.4 16.2 22.2 8.4 4.8 20 7.2 34.8 7.2 10.8 0 19.4-1.4 25.8-4.2 6.8-2.8 11.6-7.2 14.4-13.2 3.2-6 4.8-13.8 4.8-23.4 0-6.4-1-11.8-3-16.2-2-4.8-5-8.8-9-12-4-3.2-9-5.6-15-7.2-6-1.6-13-2.4-21-2.4-13.2 0-23.4 1.2-30.6 3.6-6.8 2-13.2 5.8-19.2 11.4h-127.2l21.6-254.4Z"/></mask><path fill="url(#a)" d="M40.104 7.002h316.8v108.6h-255.6l62.4-102.6-16.8 202.8-10.2-50.4c8.8-4.4 18-8 27.6-10.8 10-2.8 20.4-4.8 31.2-6 11.2-1.6 22.8-2.4 34.8-2.4 24.8 0 46.8 3.2 66 9.6 19.6 6.4 36.2 15.6 49.8 27.6 13.6 12 24 26.6 31.2 43.8 7.2 17.2 10.8 36.8 10.8 58.8 0 31.2-7.2 57.8-21.6 79.8-14.4 21.6-35.6 38.2-63.6 49.8-28 11.2-62.4 16.8-103.2 16.8-38.4 0-71.6-5.2-99.6-15.6-27.6-10.8-49.2-26.4-64.8-46.8-15.6-20.4-24.8-45.2-27.6-74.4h139.8c2.4 10 7.8 17.4 16.2 22.2 8.4 4.8 20 7.2 34.8 7.2 10.8 0 19.4-1.4 25.8-4.2 6.8-2.8 11.6-7.2 14.4-13.2 3.2-6 4.8-13.8 4.8-23.4 0-6.4-1-11.8-3-16.2-2-4.8-5-8.8-9-12-4-3.2-9-5.6-15-7.2-6-1.6-13-2.4-21-2.4-13.2 0-23.4 1.2-30.6 3.6-6.8 2-13.2 5.8-19.2 11.4h-127.2l21.6-254.4Z"/><path fill="url(#b)" d="M40.104 7.002v-7h-6.43l-.545 6.407 6.975.593Zm316.8 0h7v-7h-7v7Zm0 108.6v7h7v-7h-7Zm-255.6 0-5.98-3.638-6.47 10.638h12.45v-7Zm62.4-102.6 6.976.577-12.957-4.215 5.981 3.637Zm-16.8 202.8-6.861 1.388 13.837-.811-6.976-.577Zm-10.2-50.4-3.131-6.261-4.793 2.396 1.063 5.253 6.861-1.388Zm27.6-10.8-1.887-6.741-.037.01-.036.011 1.96 6.72Zm31.2-6 .773 6.957.109-.012.108-.016-.99-6.929Zm100.8 7.2-2.214 6.64.021.007.02.007 2.173-6.654Zm49.8 27.6-4.631 5.248 4.631-5.248Zm31.2 43.8 6.457-2.703-6.457 2.703Zm-10.8 138.6 5.824 3.882.017-.024.016-.025-5.857-3.833Zm-63.6 49.8 2.6 6.499.039-.016.04-.016-2.679-6.467Zm-202.8 1.2-2.55 6.518.056.022.057.022 2.437-6.562Zm-64.8-46.8-5.56 4.252 5.56-4.252Zm-27.6-74.4v-7H0l.735 7.668 6.968-.668Zm139.8 0 6.807-1.634-1.288-5.366h-5.519v7Zm76.8 25.2-2.665-6.473-.071.029-.07.03 2.806 6.414Zm14.4-13.2-6.177-3.295-.087.165-.079.169 6.343 2.961Zm1.8-39.6-6.462 2.692.043.103.046.101 6.373-2.896Zm-9-12 4.373-5.467-4.373 5.467Zm-15-7.2 1.804-6.764-1.804 6.764Zm-51.6 1.2 1.975 6.715.12-.035.119-.04-2.214-6.64Zm-19.2 11.4v7h2.759l2.017-1.883-4.776-5.117Zm-127.2 0-6.975-.593-.645 7.593h7.62v-7Zm21.6-254.4v7h316.8v-14h-316.8v7Zm316.8 0h-7v108.6h14V7.002h-7Zm0 108.6v-7h-255.6v14h255.6v-7Zm-255.6 0 5.981 3.637 62.4-102.6-5.981-3.637-5.981-3.638-62.4 102.6 5.981 3.638Zm62.4-102.6-6.976-.578-16.8 202.8 6.976.578 6.976.577 16.8-202.8-6.976-.578Zm-16.8 202.8 6.861-1.389-10.2-50.4-6.861 1.389-6.861 1.388 10.2 50.4 6.861-1.388Zm-10.2-50.4 3.13 6.261a157.595 157.595 0 0 1 26.43-10.341l-1.96-6.72-1.96-6.72a171.617 171.617 0 0 0-28.771 11.259l3.131 6.261Zm27.6-10.8 1.887 6.74c9.619-2.693 19.645-4.623 30.086-5.783l-.773-6.957-.773-6.958c-11.159 1.24-21.933 3.31-32.314 6.217l1.887 6.741Zm31.2-6 .99 6.929c10.853-1.55 22.121-2.329 33.81-2.329v-14c-12.311 0-24.243.82-35.79 2.47l.99 6.93Zm34.8-2.4v7c24.211 0 45.44 3.125 63.786 9.24l2.214-6.64 2.214-6.641c-20.054-6.685-42.825-9.959-68.214-9.959v7Zm66 9.6-2.173 6.654c18.817 6.144 34.548 14.906 47.342 26.194l4.631-5.248 4.631-5.249c-14.406-12.712-31.875-22.35-52.258-29.006l-2.173 6.655Zm49.8 27.6-4.631 5.248c12.784 11.281 22.57 25.002 29.374 41.255l6.457-2.703 6.457-2.703c-7.597-18.148-18.61-33.627-33.026-46.346l-4.631 5.249Zm31.2 43.8-6.457 2.703c6.783 16.204 10.257 34.86 10.257 56.097h14c0-22.764-3.726-43.308-11.343-61.503l-6.457 2.703Zm10.8 58.8h-7c0 30.096-6.933 55.304-20.457 75.966l5.857 3.834 5.857 3.833c15.276-23.338 22.743-51.33 22.743-83.633h-7Zm-21.6 79.8-5.824-3.883c-13.509 20.263-33.517 36.055-60.455 47.216l2.679 6.467 2.679 6.467c29.062-12.04 51.454-29.447 66.745-52.385l-5.824-3.882Zm-63.6 49.8-2.6-6.5c-26.937 10.775-60.396 16.3-100.6 16.3v14c41.395 0 76.737-5.676 105.8-17.301l-2.6-6.499Zm-103.2 16.8v-7c-37.794 0-70.13-5.122-97.163-15.162l-2.437 6.562-2.437 6.562c28.967 10.759 63.031 16.038 102.037 16.038v-7Zm-99.6-15.6 2.551-6.519c-26.596-10.407-47.081-25.298-61.79-44.534l-5.561 4.253-5.56 4.252c16.49 21.564 39.204 37.873 67.81 49.066l2.55-6.518Zm-64.8-46.8 5.56-4.253c-14.696-19.218-23.499-42.729-26.192-70.816l-6.968.669-6.968.668c2.907 30.313 12.504 56.403 29.007 77.984l5.56-4.252Zm-27.6-74.4v7h139.8v-14H7.704v7Zm139.8 0-6.807 1.633c2.819 11.745 9.343 20.821 19.534 26.644l3.473-6.077 3.473-6.078c-6.609-3.776-10.885-9.501-12.866-17.756l-6.807 1.634Zm16.2 22.2-3.473 6.077c9.874 5.643 22.847 8.123 38.273 8.123v-14c-14.174 0-24.402-2.321-31.327-6.278l-3.473 6.078Zm34.8 7.2v7c11.293 0 20.971-1.447 28.606-4.787l-2.806-6.413-2.806-6.414c-5.166 2.26-12.687 3.614-22.994 3.614v7Zm25.8-4.2 2.665 6.472c8.229-3.388 14.452-8.941 18.078-16.712l-6.343-2.96-6.343-2.961c-1.974 4.229-5.351 7.476-10.722 9.688l2.665 6.473Zm14.4-13.2 6.176 3.294c3.918-7.345 5.624-16.391 5.624-26.694h-14c0 8.896-1.494 15.45-3.977 20.105l6.177 3.295Zm4.8-23.4h7c0-7.091-1.103-13.543-3.628-19.097l-6.372 2.897-6.373 2.896c1.476 3.246 2.373 7.594 2.373 13.304h7Zm-3-16.2 6.461-2.693c-2.445-5.868-6.156-10.827-11.088-14.774l-4.373 5.467-4.373 5.466c3.068 2.454 5.356 5.494 6.911 9.226l6.462-2.692Zm-9-12 4.373-5.467c-4.9-3.92-10.827-6.699-17.569-8.497l-1.804 6.764-1.804 6.763c5.258 1.402 9.331 3.423 12.431 5.903l4.373-5.466Zm-15-7.2 1.804-6.764c-6.73-1.795-14.36-2.636-22.804-2.636v14c7.556 0 13.925.758 19.196 2.163l1.804-6.763Zm-21-2.4v-7c-13.483 0-24.56 1.208-32.814 3.959l2.214 6.641 2.214 6.64c6.146-2.049 15.469-3.24 28.386-3.24v-7Zm-30.6 3.6-1.975-6.716c-7.999 2.353-15.331 6.772-22.001 12.998l4.776 5.118 4.776 5.117c5.329-4.974 10.798-8.154 16.399-9.802l-1.975-6.715Zm-19.2 11.4v-7h-127.2v14h127.2v-7Zm-127.2 0 6.975.592 21.6-254.4-6.975-.592-6.975-.593-21.6 254.4 6.975.593Z" mask="url(#c)"/><defs><linearGradient id="a" x1="195.562" x2="195.563" y1="-18.398" y2="432.602" gradientUnits="userSpaceOnUse"><stop stop-color="#fff"/><stop offset="1" stop-color="#fff" stop-opacity="0"/></linearGradient><linearGradient id="b" x1="195.562" x2="195.563" y1="-18.398" y2="432.602" gradientUnits="userSpaceOnUse"><stop stop-color="#fff" stop-opacity="0"/><stop offset="1" stop-color="#fff"/></linearGradient></defs></svg>