<svg xmlns="http://www.w3.org/2000/svg" width="2684" height="516" fill="none"><path fill="#fff" d="M1097.63 2.058V329.22L938.384 16.676 909.458 31.42V2.432H592.115v18.795h-41.893v13.466H381.903v26.152h-55.42v286.329L132.168 10.63 62.44 50.9l10.63 18.422H17.867V512.75h103.111V152.298l185.618 321.458 33.914-19.575h80.948V120.504h128.764v389.004h137.18V145.752h128.733v367.123H936.14V196.497l149.4 293.218 48.09-24.5h84.13V2.058h-120.13Z"/><path fill="#CF0002" d="M95.53 0C42.783 0 0 42.79 0 95.53v417.272h63.096V97.249c0-19.839 16.111-35.974 35.949-35.974 12.72 0 24.592 6.741 30.945 17.602.796 1.367 49.206 84.907 100.456 173.354 48.972 84.493 99.603 171.873 100.431 173.278 1.282 2.186 3.164 3.985 5.388 5.234h.026c.32.179.694.255 1.026.411 1.981.936 4.112 1.565 6.338 1.565 3.083 0 5.96-.963 8.34-2.566a15.001 15.001 0 0 0 2.206-1.822 14.901 14.901 0 0 0 1.848-2.207v-.025a14.812 14.812 0 0 0 2.54-8.314V149.748h-.051v-20.553c0-9.353-.005-16.836.381-22.915.385-6.079 1.161-10.755 2.723-14.496A38.85 38.85 0 0 1 370.68 77.6a38.855 38.855 0 0 1 14.184-9.038c3.741-1.562 8.418-2.338 14.497-2.724 6.079-.386 13.561-.38 22.914-.381h185.979v-.103h21.041v.103h152.801c.471-1.76.967-3.471 1.504-5.125a62.629 62.629 0 0 1 1.755-4.78 111.16 111.16 0 0 1 16.414-29.823A113.888 113.888 0 0 1 826.102 2.36c-3.4-.026-6.826-.046-10.402-.058a3177.3 3177.3 0 0 0-11.306-.02H433.155c-20.21 0-36.381 0-49.521.844-13.139.843-23.248 2.53-31.332 5.905a83.813 83.813 0 0 0-30.628 19.523 83.967 83.967 0 0 0-19.51 30.641c-3.375 8.084-5.062 18.186-5.905 31.32-.844 13.133-.843 29.297-.843 49.507v47.136c0 5.053-.001 9.851.011 14.412.013 4.562.039 8.887.091 12.992v35S221.924 122.924 195.037 76.67c-4.691-8.068-16.976-29.21-17.526-30.15C160.822 18.003 129.202 0 95.53 0Zm794.9 0c-49.666 0-90.468 37.936-95.068 86.395H629.295v58.965h-.052v364.26h63.071V149.466H794.9v363.336h63.096V97.249c0-19.839 16.111-35.974 35.949-35.974 12.72 0 24.592 6.741 30.945 17.602.796 1.367 49.206 84.907 100.46 173.354 48.97 84.493 99.6 171.873 100.43 173.278 1.28 2.186 3.16 3.985 5.39 5.234h.02c.32.179.69.255 1.03.411 1.98.936 4.11 1.565 6.34 1.565 3.08 0 5.95-.963 8.33-2.566.8-.537 1.54-1.146 2.21-1.822.68-.679 1.31-1.407 1.85-2.207v-.025c.8-1.19 1.44-2.498 1.87-3.894.43-1.395.67-2.879.67-4.42V2.207h-63.07v247.356s-73.6-126.639-100.484-172.893c-4.69-8.068-16.975-29.21-17.525-30.15C955.722 18.003 924.102 0 890.43 0Zm284.1 2.207v241.069l-.03-.051v174.56c0 2.224-.25 4.378-.64 6.492-.04.234-.03.486-.07.718-.01.009 0 .018 0 .026-.15.721-.46 1.374-.65 2.078-.42 1.584-.83 3.181-1.46 4.67-.41.978-1.02 1.84-1.51 2.772-.59 1.108-1.1 2.274-1.8 3.31v.025a35.816 35.816 0 0 1-4.39 5.312 36.155 36.155 0 0 1-11.41 7.723h-.03a35.747 35.747 0 0 1-13.98 2.823c-3.18 0-6.32-.43-9.32-1.232a36.22 36.22 0 0 1-4.36-1.462h-.03a36.225 36.225 0 0 1-4.13-2.027h-.02a37.044 37.044 0 0 1-3.83-2.541h-.02a35.075 35.075 0 0 1-9.21-10.34c-.8-1.368-49.21-84.907-100.46-173.355-8.401-14.493-9.015-15.516-17.244-29.713-39.791-68.662-82.537-142.397-83.213-143.564-2.564-4.374-7.576-7.185-12.778-7.185-8.241 0-14.934 6.714-14.934 14.96v415.527h63.071V265.446s25.267 43.441 47.854 82.315c33.124 57.008 67.954 116.965 70.154 120.727v.026a89.614 89.614 0 0 0 6.93 10.161c0 .009.02.016.02.025a92.588 92.588 0 0 0 8.16 9.084 95.29 95.29 0 0 0 19.53 14.677 96.49 96.49 0 0 0 11.01 5.363 96.296 96.296 0 0 0 11.67 3.951 95.613 95.613 0 0 0 17.76 3.002c.2.015.41.038.61.052 2.1.14 4.2.205 6.32.205 6.59 0 13.02-.677 19.24-1.95a94.944 94.944 0 0 0 17.91-5.568 95.573 95.573 0 0 0 8.37-4.029 96.323 96.323 0 0 0 7.87-4.772 96.19 96.19 0 0 0 14.14-11.675c10.8-10.807 19.03-24.177 23.69-39.131 1.73-5.578 2.92-11.407 3.61-17.371.05-.423.14-.833.18-1.258v-.025c.33-3.211.49-6.454.49-9.751V2.207h-63.07ZM99.045 82.315c-8.241 0-14.934 6.714-14.934 14.96v415.527h63.071V265.446s25.268 43.441 47.855 82.315c33.12 57.008 67.951 116.965 70.152 120.727v.026a90.793 90.793 0 0 0 6.928 10.161c.007.009.018.016.026.025a92.706 92.706 0 0 0 8.159 9.084 95.408 95.408 0 0 0 19.527 14.677 96.38 96.38 0 0 0 11.008 5.363 95.599 95.599 0 0 0 29.431 6.953c.206.015.41.038.616.052a94.62 94.62 0 0 0 6.312.205c6.594 0 13.028-.677 19.245-1.95a94.899 94.899 0 0 0 17.91-5.568 95.479 95.479 0 0 0 8.365-4.029 95.439 95.439 0 0 0 7.877-4.772 96.182 96.182 0 0 0 14.139-11.675c10.801-10.807 19.032-24.177 23.683-39.131 1.736-5.578 2.93-11.407 3.618-17.371.049-.423.136-.833.18-1.258v-.025c.326-3.211.487-6.454.487-9.751V149.748h-.102v-.282h102.586V509.62h63.07V86.395H405.751c-3.845 0-6.925 0-9.428.16-2.503.16-4.43.481-5.968 1.123a15.86 15.86 0 0 0-5.817 3.715 16.01 16.01 0 0 0-3.702 5.83c-.642 1.538-.963 3.458-1.123 5.955-.161 2.497-.16 5.571-.16 9.415v191.624c0 .639.011 1.143.023 1.626.012.484.025.947.028 1.504v110.438c0 2.224-.254 4.378-.642 6.492-.043.234-.029.486-.077.718-.001.009.002.018 0 .026-.148.721-.45 1.374-.641 2.078-.427 1.584-.832 3.181-1.463 4.67-.413.978-1.018 1.84-1.513 2.772-.592 1.108-1.096 2.274-1.797 3.31v.025a36.3 36.3 0 0 1-4.387 5.312 36.171 36.171 0 0 1-11.419 7.723h-.025a35.746 35.746 0 0 1-13.985 2.823c-3.18 0-6.315-.43-9.314-1.232a36.191 36.191 0 0 1-4.362-1.462h-.026a36.24 36.24 0 0 1-4.131-2.027h-.026c-1.33-.758-2.6-1.62-3.823-2.541h-.025a35.194 35.194 0 0 1-9.212-10.34c-.797-1.368-49.207-84.907-100.456-173.355-8.401-14.493-9.015-15.516-17.243-29.713-39.792-68.662-82.539-142.397-83.214-143.564-2.564-4.374-7.576-7.185-12.778-7.185Z"/><path fill="#fff" fill-rule="evenodd" d="M1654.74 274.848c18.8.216 34.46 4.645 46.99 13.287 12.43 8.534 21.39 18.256 26.9 29.167 4 5.725 6.75 13.233 8.27 22.523 1.4 9.29 2.1 27.654 2.1 55.092 0 27.006-.7 45.263-2.1 54.769-1.52 9.506-4.27 17.122-8.27 22.847-5.51 10.91-14.47 20.525-26.9 28.843-12.53 8.642-28.19 13.179-46.99 13.611-18.58-.432-34.08-4.969-46.5-13.611-12.64-8.318-21.82-17.933-27.55-28.843a271.847 271.847 0 0 1-4.7-10.208c-1.29-3.349-2.37-7.562-3.24-12.639-1.62-9.506-2.43-27.763-2.43-54.769 0-27.438.81-45.802 2.43-55.092 1.73-9.29 4.38-16.798 7.94-22.523 5.73-10.911 14.91-20.633 27.55-29.167 12.42-8.642 27.92-13.071 46.5-13.287Zm0 35.81c-8.42.216-15.66 1.891-21.71 5.023-6.16 3.241-11.13 7.292-14.91 12.153-4.64 5.077-7.72 11.613-9.23 19.606-1.73 8.426-2.6 24.252-2.6 47.477 0 23.226.87 38.943 2.6 47.153 1.51 8.21 4.59 14.853 9.23 19.931 3.78 4.861 8.75 8.804 14.91 11.828 6.05 3.565 13.29 5.348 21.71 5.348 8.54 0 15.94-1.783 22.2-5.348 5.94-3.024 10.7-6.967 14.26-11.828 4.65-5.078 7.83-11.721 9.56-19.931 1.62-8.21 2.43-23.927 2.43-47.153 0-23.225-.81-39.051-2.43-47.477-1.73-7.993-4.91-14.529-9.56-19.606-3.56-4.861-8.32-8.912-14.26-12.153-6.26-3.132-13.66-4.807-22.2-5.023Z" clip-rule="evenodd"/><path fill="#fff" d="M2599.74 274.848c22.8.216 41.38 6.967 55.74 20.255 14.37 13.395 23.44 29.976 27.23 49.745h-37.92c-2.92-9.506-8.21-17.608-15.88-24.306-7.99-6.373-17.72-9.668-29.17-9.884-8.42.216-15.66 1.891-21.71 5.023-6.16 3.241-11.13 7.292-14.91 12.153-4.64 5.077-7.72 11.613-9.23 19.606-1.73 8.426-2.6 24.252-2.6 47.477 0 23.226.87 38.943 2.6 47.153 1.51 8.21 4.59 14.853 9.23 19.931 3.78 4.861 8.75 8.804 14.91 11.828 6.05 3.565 13.29 5.348 21.71 5.348 13.94 0 25.44-4.754 34.52-14.26 9.07-9.074 13.72-21.011 13.93-35.81v-12.315h-48.12v-33.865H2684v48.125c-.43 23.657-8.53 43.479-24.3 59.467-15.88 15.88-35.87 24.036-59.96 24.468-18.58-.432-34.08-4.969-46.5-13.611-12.64-8.318-21.82-17.933-27.55-28.843a271.847 271.847 0 0 1-4.7-10.208c-1.29-3.349-2.37-7.562-3.24-12.639-1.62-9.506-2.43-27.763-2.43-54.769 0-27.438.81-45.802 2.43-55.092 1.73-9.29 4.38-16.798 7.94-22.523 5.73-10.911 14.91-20.633 27.55-29.167 12.42-8.642 27.92-13.071 46.5-13.287ZM1428.38 430.727l66.43-153.935h33.87v236.25h-35.81V365.751h-.81l-49.42 113.426h-29.82l-49.42-113.426h-.65v147.291h-35.81v-236.25h33.71l67.73 153.935Z"/><path fill="#fff" fill-rule="evenodd" d="M1873.17 276.792c19.66 0 35.7 5.186 48.12 15.556 15.02 11.775 22.85 28.572 23.5 50.393-.43 32.084-15.66 53.905-45.7 65.463l54.77 104.838h-42.61l-48.78-100.949h-45.69v100.949h-35.81v-236.25h92.2Zm-56.39 103.542h54.12c13.4-.216 23.44-4.105 30.14-11.667 6.59-7.021 9.88-15.663 9.88-25.926-.21-12.314-4.16-21.226-11.83-26.736-6.04-4.861-14.79-7.291-26.25-7.291h-56.06v71.62Z" clip-rule="evenodd"/><path fill="#fff" d="M2124.16 444.663h.65V276.792h35.81v236.25h-33.86l-106.79-167.87h-.64v167.87h-35.81v-236.25h33.7l106.94 167.871Zm122.34 68.379h-35.81v-236.25h35.81v236.25Zm190.4-68.379h.64V276.792h35.81v236.25h-33.86l-106.78-167.87h-.65v167.87h-35.81v-236.25h33.7l106.95 167.871ZM1862.64.075c29.38.648 54.93 8.804 76.64 24.467l-19.93 29.491c-17.72-11.667-37.22-17.716-58.5-18.148-11.01 0-20.2 2.755-27.54 8.264-7.67 5.725-11.62 14.259-11.83 25.602 0 6.805 2.65 12.963 7.94 18.472 5.29 5.617 13.77 9.506 25.44 11.666 6.48 1.081 15.34 2.323 26.57 3.727 22.15 3.025 38.51 10.965 49.1 23.82 10.48 12.639 15.72 27.33 15.72 44.074-1.19 45.154-28.85 68.055-82.97 68.703-35 0-65.08-10.802-90.25-32.407l23.5-26.898c18.79 15.447 41.15 23.279 67.08 23.495 30.68-.432 46.23-11.396 46.67-32.893.21-17.608-10.05-28.195-30.79-31.759a5104.63 5104.63 0 0 1-31.28-4.375c-20.3-3.349-35.75-10.857-46.34-22.524-10.91-11.99-16.36-26.574-16.36-43.75 0-20.632 6.86-37.268 20.58-49.907 13.28-12.53 32.13-18.904 56.55-19.12ZM1467.59 33.94h-64.65v204.33h-35.97V33.94h-64.66V2.02h165.28v31.92Zm61.09 69.352h93.49V2.019h35.81v236.25h-35.81V135.051h-93.49v103.218h-35.81V2.019h35.81v101.273Zm215.18 134.977h-35.81V2.019h35.81v236.25Z"/></svg>