<svg xmlns="http://www.w3.org/2000/svg" width="1175" height="589" fill="none"><path fill="#FF494B" fill-rule="evenodd" d="M0 38.879a670.501 670.501 0 0 1 450 0c142.913 65.207 307.087 65.207 450 0v380.429c-1.457.101-2.782.217-4.105.266-16.024.591-32.061 1.506-48.087 1.629-9.453.072-18.93-1.031-27.618-5.417-4.793-2.42-8.666-6.059-10.101-11.248-1.213-4.387-1.78-9.082-1.802-13.646-.15-31.231-.088-62.454-.089-93.686v-2.96h3.013c27.133 0 54.271-.018 81.404.029 1.835.003 2.637-.264 2.63-2.427-.08-23.908-.053-47.815 0-71.723.004-1.846-.479-2.492-2.392-2.457-5.879.109-11.769.03-17.901.03h-66.754v-73.469H711.08c0 1.377.027 2.637 0 3.878-.312 14.043-.333 28.103-1.093 42.121-.457 8.438-4.406 15.451-11.933 19.892-5.577 3.291-11.818 5.018-18.136 5.565-11.866 1.029-23.775 1.439-35.681 1.924-2.3.093-2.992.641-2.983 2.99.085 23.655.053 47.326.058 70.982 0 .814.073 1.614.119 2.665h3.219c19.321 0 38.633.052 57.953-.06 2.551-.015 3.254.628 3.249 3.227-.089 39.65-.106 79.285-.059 118.936.012 10.52.482 20.974 3.426 31.228 2.751 9.579 7.01 18.354 13.292 25.989 9.156 11.129 20.983 18.584 34.351 23.681 17.452 6.653 35.656 9.687 54.172 9.887 23.084.248 46.207-.486 69.294-1.036 6.58-.157 13.132-1.16 19.672-1.776v32.366l-6.734 2.8A642.188 642.188 0 0 1 450 557.785l-4.899-1.454A920.39 920.39 0 0 0 0 536.688v-32.574h102.199v-3.433c0-48.581-.015-97.144.03-145.725.006-7.065.49-14.094 2.421-20.986 2.367-8.443 6.106-16.071 11.844-22.704 8.385-9.692 19.186-15.377 31.487-17.967 12.535-2.64 25.147-2.605 37.631.917 5.934 1.674 11.477 4.147 16.482 7.667 10.32 7.257 16.88 17.26 20.469 29.275 2.523 8.444 3.368 17.144 3.368 25.93v146.997h102.435v-3.197c0-50.433.026-100.857-.03-151.289-.009-8.414-.15-16.823-.62-25.22-.902-16.105-3.525-31.956-9.836-46.888-3.085-7.3-6.634-14.492-10.84-21.193-4.58-7.295-10.455-13.633-17.014-19.36-10.256-8.955-21.911-15.388-34.647-19.832-10.875-3.794-22.13-6.089-33.643-7.104-19.696-1.737-39.25-1.037-58.632 3.019-11.938 2.5-23.373 6.381-34.115 12.285-7.539 4.143-14.442 9.061-20.528 15.155-2.007 2.009-4.117 3.935-6.38 6.097V89.528H0v-50.65ZM610.092 210.77c-6.969-.068-13.888-.013-20.804.286-6.916.3-13.83.844-20.784 1.756-10.321 1.17-20.261 3.094-30.04 5.921-17.323 5.009-33.034 12.945-47.142 24.273-8.868 7.122-16.834 15.04-23.836 23.976-1.239 1.582-2.552 3.104-3.84 4.648l-.295-.104-.295-.103v-53.459h-99.452v286.149h102.169v-2.96c0-32.158-.117-64.312.119-96.469.058-7.945.879-15.971 2.126-23.828 1.785-11.253 5.833-21.773 11.755-31.584 4.575-7.578 10.153-14.277 16.836-19.98 6.82-5.818 14.417-10.452 22.715-14.001 11.913-5.094 24.293-8.177 37.188-8.526 16.956-.458 33.927-.366 50.892-.502.89-.007 1.779 0 2.688 0V210.77Z" clip-rule="evenodd"/><path fill="#FF494B" d="M1116.98 137.551h57.6v324.45h-75.15v-210.6H990.983v-56.7l57.597-2.7c46.35-1.8 63.9-18 68.4-54.45Z"/></svg>