<svg xmlns="http://www.w3.org/2000/svg" width="10678" height="4591" fill="none"><path fill="#fff" fill-rule="evenodd" d="M8401.14 3185.35c495.39 0 897-402.53 897-899.2 0-496.55-401.61-899.14-897-899.14-495.45 0-897.02 402.59-897.02 899.14 0 496.67 401.57 899.2 897.02 899.2Zm-1141.06-899.2c0-631.66 510.84-1143.78 1141.06-1143.78 630.2 0 1141.13 512.12 1141.13 1143.78 0 631.76-510.93 1143.87-1141.13 1143.87-630.22 0-1141.06-512.11-1141.06-1143.87Zm-1588.88 0c141.2-17.93 376.56-179.75 459.47-283.04-29.13 128.08-31.36 498.76 2.7 626.83-94.64-146.04-318.7-325.8-462.17-343.79Zm-820.33-1210.92c179.32 0 320.53 177.44 320.53 379.67 0 202.22-141.21 379.77-320.53 379.77h-616.33v-759.44h616.33Zm-2.25 1687.24c179.29 0 320.53 177.53 320.53 379.69 0 202.24-141.24 379.71-320.53 379.71h-616.34v-759.4h616.34Zm3551.77 1828.32c1255.87-.49 2277.91-1046.46 2277.61-2305.53C10677.7 999.642 9656.26.953 8400.39 0 7145.97-.905 6505.02 924.697 6346.66 1298.3c1.48-560.849-549.98-1222.843-1195.04-1223.551H3073.34V4568.42l1937.66.38c781.22 0 1337.11-678.55 1338.06-1260.4 178.33 366.19 796.91 1282.83 2051.33 1282.39Z" clip-rule="evenodd"/><path fill="#fff" d="M0 4568.42V74.749h2807V1075.23H1147v759.44h1617.49v927.8H1147v759.4h1660V4569l-2807-.58Z"/></svg>