<svg xmlns="http://www.w3.org/2000/svg" width="4740" height="900" fill="none"><path fill="#fff" fill-rule="evenodd" d="M4440 0c165.69 0 300 134.315 300 300v300c0 165.685-134.31 300-300 300h-600V0h600Zm-270 32v835h205c19.88 0 36-16.118 36-36V68c0-19.882-16.12-36-36-36h-205ZM1785 0c41.42 0 75 33.579 75 75v750c0 41.421-33.58 75-75 75h-750c-41.421 0-75-33.579-75-75V75c0-41.421 33.579-75 75-75h750Zm-459 32c-19.88 0-36 16.118-36 36v763c0 19.882 16.12 36 36 36h169c19.88 0 36-16.118 36-36V68c0-19.882-16.12-36-36-36h-169Z" clip-rule="evenodd"/><path fill="#fff" d="M3705 0c41.42 0 75 33.579 75 75v825h-329V68c0-19.882-16.12-36-36-36h-169c-19.88 0-36 16.118-36 36v832h-330V75c0-41.421 33.58-75 75-75h750Zm-960 900c41.42 0 75-33.579 75-75V0h-329v832c0 19.882-16.12 36-36 36h-169c-19.88 0-36-16.118-36-36V0h-330v825c0 41.421 33.58 75 75 75h750ZM900 825c0 41.421-33.579 75-75 75H75c-41.421 0-75-33.579-75-75V706h330v125c0 19.882 16.118 36 36 36h169c19.882 0 36-16.118 36-36V378h329v447Z"/><path fill="#fff" d="M825 0c41.421 0 75 33.579 75 75v118H571V68c0-19.882-16.118-36-36-36H366c-19.882 0-36 16.118-36 36v453H0V75C0 33.579 33.579 0 75 0h750Z"/><path fill="#fff" d="M0 378h900v143H0V378Z"/></svg>